<svg width="16" height="18" viewBox="0 0 16 18" fill="none" xmlns="http://www.w3.org/2000/svg">
<path d="M9 3.41404L14.2931 8.70713C14.6836 9.09762 15.3166 9.09762 15.7071 8.70713C16.0976 8.31663 16.0976 7.68362 15.7071 7.29313L8.70709 0.293129C8.52109 0.10663 8.26359 0.0001297 8.00009 0.0001297C7.73658 0.0001297 7.47908 0.10663 7.29308 0.293129L0.293046 7.29313C-0.097456 7.68362 -0.097456 8.31663 0.293046 8.70713C0.683548 9.09762 1.31655 9.09762 1.70706 8.70713L7 3.41421L7 17.1001C7 17.5974 7.4475 18.0001 8 18.0001C8.5525 18.0001 9 17.5974 9 17.1001L9 3.41404Z" fill="#323942"/>
</svg>
