<svg width="280" height="90" viewBox="0 0 280 90" fill="none" xmlns="http://www.w3.org/2000/svg">
<g clip-path="url(#clip0_159_7267)">
<path fill-rule="evenodd" clip-rule="evenodd" d="M105.477 36.8441C104.155 39.3142 103.495 42.0339 103.495 45.0031C103.495 47.9734 104.155 50.6927 105.477 53.1621C106.798 55.6322 108.613 57.647 110.922 59.2074C113.229 60.7682 115.827 61.6999 118.713 62.0029V60.8665C115.735 60.1395 113.579 58.3664 112.243 55.5485C110.906 52.7302 110.238 49.2153 110.238 45.0031C110.238 40.7912 110.906 37.2757 112.243 34.4574C113.579 31.6392 115.735 29.8664 118.713 29.1394V28.0029C115.827 28.3063 113.229 29.238 110.922 30.7988C108.613 32.3596 106.798 34.3743 105.477 36.8441ZM163.318 29.8664H164.457C164.791 29.8664 165.239 30.0642 165.802 30.4575C166.364 30.8515 166.849 31.3213 167.259 31.8667C167.67 32.412 167.874 32.8825 167.874 33.2758V49.2756H167.647L150.834 28.5031H141.585V29.8664H142.269C142.572 29.8664 142.959 30.0642 143.43 30.4575C143.901 30.8515 144.319 31.3213 144.683 31.8667C145.048 32.412 145.23 32.8825 145.23 33.2758V57.2757C145.23 57.6094 145.048 58.011 144.683 58.4805C144.319 58.9506 143.901 59.3598 143.43 59.7076C142.959 60.0564 142.572 60.2301 142.269 60.2301H141.585V61.5941H151.837V60.2301H150.698C150.363 60.2301 149.915 60.0337 149.353 59.6393C148.791 59.246 148.305 58.7759 147.895 58.2302C147.485 57.6846 147.28 57.2154 147.28 56.8214V34.4119H147.508L169.697 61.9119H169.925V33.2758C169.925 32.8825 170.13 32.412 170.54 31.8667C170.95 31.3213 171.435 30.8515 171.998 30.4575C172.56 30.0642 173.007 29.8664 173.342 29.8664H174.025V28.5031H163.318V29.8664ZM201.067 55.9349C199.32 58.7986 196.716 60.2301 193.253 60.2301H188.606V29.8664H193.07C195.409 29.8664 197.376 30.5413 198.971 31.8894C200.566 33.2382 201.75 35.0561 202.525 37.3439C203.299 39.6324 203.687 42.2004 203.687 45.0486C203.687 49.4425 202.813 53.0711 201.067 55.9349ZM207.833 36.3894C206.222 33.8893 204.135 31.9504 201.568 30.5713C199.001 29.1925 196.321 28.5031 193.526 28.5031H178.582V29.8664H179.265C179.568 29.8664 179.956 30.0415 180.427 30.3889C180.897 30.7381 181.315 31.1473 181.68 31.6168C182.045 32.0869 182.227 32.4881 182.227 32.8215V57.2757C182.227 57.6094 182.045 58.011 181.68 58.4805C181.315 58.9506 180.897 59.3598 180.427 59.7076C179.956 60.0564 179.568 60.2301 179.265 60.2301H178.582V61.5941H193.709C196.563 61.5941 199.259 60.8665 201.796 59.4122C204.332 57.9576 206.375 55.9573 207.924 53.412C209.473 50.8668 210.248 48.0485 210.248 44.9576C210.248 41.7457 209.443 38.8895 207.833 36.3894ZM130.969 30.7988C128.66 29.238 126.063 28.3063 123.178 28.0029V29.1394C126.154 29.8664 128.311 31.6392 129.647 34.4574C130.984 37.2757 131.652 40.7912 131.652 45.0031C131.652 49.2153 130.984 52.7302 129.647 55.5485C128.311 58.3664 126.154 60.1395 123.178 60.8665V62.0029C126.063 61.6999 128.66 60.7682 130.969 59.2074C133.277 57.647 135.092 55.6322 136.414 53.1621C137.735 50.6927 138.396 47.9734 138.396 45.0031C138.396 42.0339 137.735 39.3142 136.414 36.8441C135.092 34.3743 133.277 32.3596 130.969 30.7988ZM90.0701 58.1847C88.6877 59.5483 86.7818 60.2301 84.3518 60.2301H80.0238V44.9576H84.9443C87.1612 44.9576 88.9154 45.6094 90.2069 46.912C91.4974 48.2153 92.1432 50.0484 92.1432 52.412C92.1432 54.8973 91.4522 56.8214 90.0701 58.1847ZM80.0238 29.8664H84.0329C85.8855 29.8664 87.3968 30.5254 88.5667 31.8439C89.736 33.162 90.3206 34.8666 90.3206 36.9578C90.3206 38.9578 89.88 40.4882 88.9993 41.5485C88.1179 42.6095 86.6602 43.2917 84.6254 43.594H80.0238V29.8664ZM95.9024 46.5939C94.1551 45.2916 91.9155 44.4278 89.1818 44.0031V43.7756C91.3381 43.2917 93.0543 42.4275 94.3303 41.1849C95.6063 39.9429 96.2441 38.3666 96.2441 36.4573C96.2441 33.8211 95.1119 31.837 92.8494 30.503C90.5863 29.1697 87.6781 28.5031 84.1241 28.5031H70V29.8664H70.6831C70.9865 29.8664 71.3738 30.0415 71.8451 30.3889C72.3157 30.7381 72.7337 31.1473 73.0979 31.6168C73.4624 32.0869 73.6449 32.4881 73.6449 32.8215V57.2757C73.6449 57.6094 73.4624 58.011 73.0979 58.4805C72.7337 58.9506 72.3157 59.3598 71.8451 59.7076C71.3738 60.0564 70.9865 60.2301 70.6831 60.2301H70V61.5941H84.3977C88.7101 61.5941 92.1432 60.7761 94.6945 59.1395C97.2465 57.5029 98.5222 55.2303 98.5222 52.321C98.5222 49.8065 97.6487 47.8972 95.9024 46.5939Z" fill="white"/>
</g>
<defs>
<clipPath id="clip0_159_7267">
<rect width="140.248" height="34" fill="white" transform="translate(70 28)"/>
</clipPath>
</defs>
</svg>
