<svg width="220" height="183" viewBox="0 0 220 183" fill="none" xmlns="http://www.w3.org/2000/svg">
<path d="M119.825 101.888L112.62 100.713V123.414H121.806L125.948 120.283L127.209 110.89L119.825 101.888Z" stroke="black" stroke-width="0.109013"/>
<path d="M105.138 115.717C105.138 125.704 100.03 133.8 93.7288 133.8C90.9033 133.8 87.9336 133.8 87.9336 133.8C87.9336 133.8 82.3196 121.225 82.3196 115.717C82.3196 105.729 87.4277 97.6328 93.7288 97.6328C100.03 97.6328 105.138 105.729 105.138 115.717Z" fill="black"/>
<ellipse cx="145.726" cy="115.717" rx="11.4092" ry="18.0837" fill="black"/>
<path d="M162.372 115.717C162.372 125.704 157.264 133.8 150.963 133.8C148.137 133.8 146.073 133.8 146.073 133.8C146.073 133.8 139.553 121.225 139.553 115.717C139.553 105.729 144.662 97.6328 150.963 97.6328C157.264 97.6328 162.372 105.729 162.372 115.717Z" fill="black"/>
<path d="M7.69336 110.139C7.69336 105.991 10.2493 94.3813 12.0125 87.6915C12.1235 87.27 12.317 86.8737 12.5978 86.5403C15.88 82.6437 20.9609 80.036 22.6172 79.1859L22.6563 79.1658C30.6098 75.0829 46.8902 67.0459 67.919 67.0459C105.678 67.0459 127.009 79.3476 131.661 82.3557C132.314 82.7779 133.023 83.0957 133.784 83.2584C136.525 83.8453 143.738 85.4056 150.711 87.0534C168.273 91.2034 173.782 94.7977 173.782 106.484V109.947V122.9C173.782 123.502 173.294 123.99 172.691 123.99H134.518H98.9786C98.6776 123.99 98.4335 123.75 98.4335 123.449V114.92C96.9554 114.92 89.8829 110.613 84.3782 113.025C84.3782 119.103 78.2814 122.833 77.3813 123.351C77.3064 123.394 77.2384 123.414 77.152 123.416C75.16 123.455 48.6137 123.982 34.7593 123.99C34.5787 123.99 34.4395 123.844 34.4395 123.663V115.141L13.8762 120.335C10.4989 120.335 7.69336 113.227 7.69336 110.139Z" fill="#DADADA"/>
<g filter="url(#filter0_bi_12436_20544)">
<path d="M6.38403 109.369C6.38403 106.97 8.44941 94.834 10.5989 87.736C10.7734 87.1598 11.1123 86.6508 11.5796 86.2712C14.7731 83.6777 18.8815 81.2144 22.8432 78.7806C33.1621 72.4414 46.6864 67.2378 70.9116 67.2378C101.961 67.2378 128.393 80.2195 133.034 82.6302C133.516 82.8806 134.021 83.0681 134.552 83.1802C136.987 83.6936 144.618 85.3193 152.085 87.0804C170.041 91.3151 174.717 95.3754 174.717 107.3V109.852V123.092C174.717 123.694 174.229 124.182 173.627 124.182H98.951C98.6499 124.182 98.4059 123.942 98.4059 123.641V115.515C96.8946 115.515 84.2081 109.903 78.58 112.364V123.639C78.58 123.94 78.3551 124.182 78.054 124.182L34.7591 124.182C34.5784 124.182 34.4395 124.036 34.4395 123.855V115.333L12.1821 121.041C9.83811 119.728 6.38403 112.52 6.38403 109.369Z" fill="white" fill-opacity="0.22"/>
</g>
<path d="M64.9258 66.6626C72.2202 72.8187 86.3126 83.3996 86.3126 83.3996H135.322C113.097 67.9076 112.62 66.6695 79.5146 66.6695C76.5685 66.6626 68.3484 66.6626 64.9258 66.6626Z" fill="url(#paint0_linear_12436_20544)"/>
<path d="M21.72 80.1292C35.3736 71.8569 44.7254 66.6626 65.2994 66.6626C67.5259 66.6626 70.8012 69.3725 72.4584 70.8594L86.4345 83.3996H84.7512L79.435 78.7874C79.2368 78.6154 78.9831 78.5207 78.7206 78.5207H69.1827C68.8817 78.5207 68.6376 78.7647 68.6376 79.0657V83.3996H24.2324C20.6181 83.3996 20.7848 81.6682 21.72 80.1292Z" fill="#363636"/>
<mask id="mask0_12436_20544" style="mask-type:alpha" maskUnits="userSpaceOnUse" x="6" y="66" width="169" height="59">
<path d="M6.38403 109.368C6.38403 105.239 8.60215 94.7018 10.3667 87.8794C10.569 87.0974 11.0551 86.4289 11.7265 85.9797C16.8387 82.5597 30.9966 72.6724 37.0545 68.4344C38.8891 67.1509 41.0646 66.4678 43.3036 66.4678H103C106.851 66.4678 110.634 67.4879 113.963 69.4245L136.856 82.7419C137.158 82.9174 137.471 83.0622 137.803 83.1722C139.372 83.694 144.592 85.3677 152.085 87.1402C170.041 91.3872 174.717 95.4594 174.717 107.419V109.978V123.26C174.717 123.862 174.229 124.35 173.627 124.35H109.425C109.124 124.35 108.88 124.11 108.88 123.809V115.658C107.369 115.658 92.8708 110.03 87.2427 112.498V123.807C87.2427 124.108 87.0155 124.351 86.7146 124.351C82.0705 124.354 48.0474 124.374 34.4395 124.374V115.332L12.1821 121.2C9.83811 119.883 6.38403 112.529 6.38403 109.368Z" fill="white" fill-opacity="0.22"/>
</mask>
<g mask="url(#mask0_12436_20544)">
<path d="M105.896 92.1748C105.896 91.6225 106.335 91.1748 106.888 91.1748C109.355 91.1748 117.877 91.1748 147.073 91.1748C162.326 91.1748 173.65 91.1748 176.963 91.1748C177.515 91.1748 177.956 91.6225 177.956 92.1748V112.352H109.896C107.687 112.352 105.896 110.561 105.896 108.352V92.1748Z" fill="url(#paint1_linear_12436_20544)"/>
<g style="mix-blend-mode:multiply">
<path d="M23.8309 93.2089C16.1999 93.055 13.3034 87.694 12.9294 85.1289C9.5627 88.0146 4.37917 103.02 3.44399 108.214C2.69585 112.37 9.99027 122.258 13.1699 120.719L23.8309 124.182H77.8844C76.6375 120.27 75.1163 110.523 79.0066 102.828C82.897 95.1327 74.6424 93.2089 70.0289 93.2089C57.8092 93.273 31.462 93.3628 23.8309 93.2089Z" fill="url(#paint2_linear_12436_20544)"/>
</g>
<path d="M176.213 97.6328H106.135C105.819 97.6328 105.687 98.036 105.941 98.2232L111.216 102.107C111.778 102.521 112.457 102.744 113.155 102.744H132.574C132.683 102.744 132.789 102.776 132.88 102.837L137.42 105.91C137.6 106.032 137.813 106.098 138.031 106.098H160.207C160.301 106.098 160.39 106.057 160.453 105.986L163.131 102.93C163.235 102.812 163.384 102.744 163.541 102.744H174.421L176.213 97.6328Z" fill="#F8F8F8"/>
<path d="M14.5235 88.7836L11.531 82.6274C8.97479 85.7696 4.83506 91.9771 8.72541 91.6693C12.6158 91.3615 14.2118 89.6172 14.5235 88.7836Z" fill="#FE1E1E"/>
</g>
<ellipse cx="86.9971" cy="115.717" rx="11.4092" ry="18.0837" fill="black"/>
<path d="M95.3048 115.719C95.3048 119.634 94.3664 123.173 92.8548 125.73C91.3418 128.289 89.2673 129.846 86.9972 129.846C84.7271 129.846 82.6526 128.289 81.1396 125.73C79.628 123.173 78.6896 119.634 78.6896 115.719C78.6896 111.804 79.628 108.265 81.1396 105.708C82.6526 103.149 84.7271 101.592 86.9972 101.592C89.2673 101.592 91.3418 103.149 92.8548 105.708C94.3664 108.265 95.3048 111.804 95.3048 115.719Z" fill="#505050" stroke="#363636" stroke-width="0.218026"/>
<path d="M30.5096 105.982L15.1239 124.181C13.2082 120.062 10.5832 110.217 15.409 103.783C20.2348 97.3483 27.4868 102.568 30.5096 105.982Z" fill="#363636"/>
<mask id="mask1_12436_20544" style="mask-type:alpha" maskUnits="userSpaceOnUse" x="78" y="101" width="18" height="29">
<ellipse cx="86.9972" cy="115.719" rx="8.41663" ry="14.2361" fill="#363636"/>
</mask>
<g mask="url(#mask1_12436_20544)">
<path d="M94.4759 105.988L79.0902 124.187C77.1745 120.069 74.5495 110.223 79.3753 103.789C84.2012 97.3547 91.4531 102.574 94.4759 105.988Z" fill="#363636"/>
</g>
<path d="M93.5424 83.3996C87.7443 83.3996 73.3425 68.394 66.2351 66.6626C71.6592 69.3559 80.4499 78.9749 86.435 83.3996H93.5424Z" fill="url(#paint3_linear_12436_20544)"/>
<rect width="26.9688" height="4.58375" rx="2" transform="matrix(4.37114e-08 1 1 -4.37114e-08 32.228 57.6138)" fill="#C3C3C3"/>
<rect width="26.9688" height="4.58375" rx="2" transform="matrix(4.37114e-08 1 1 -4.37114e-08 15.0166 57.6138)" fill="#C3C3C3"/>
<circle cx="3.46765" cy="3.46765" r="3.46765" transform="matrix(-1 0 0 1 48.2783 127.065)" fill="black"/>
<circle cx="3.46765" cy="3.46765" r="3.46765" transform="matrix(-1 0 0 1 16.0934 127.065)" fill="black"/>
<rect width="26.9332" height="5.14558" rx="2" transform="matrix(-1 0 0 1 39.5095 56.3652)" fill="#7E7E7E"/>
<rect width="41.3725" height="64.221" rx="3" transform="matrix(-1 0 0 1 57.2329 66.4663)" fill="#649112"/>
<rect width="41.3725" height="64.221" rx="3" transform="matrix(-1 0 0 1 41.3723 66.4663)" fill="#A7E92F"/>
<g filter="url(#filter1_i_12436_20544)">
<rect x="-0.000244141" y="66.4663" width="41.3725" height="64.221" rx="3" fill="#A7E92F"/>
</g>
<rect x="31.0419" y="73.1074" width="5.50484" height="50.9409" rx="2" fill="url(#paint4_linear_12436_20544)" fill-opacity="0.2"/>
<rect x="18.6709" y="73.1074" width="5.50484" height="50.9409" rx="2" fill="url(#paint5_linear_12436_20544)" fill-opacity="0.2"/>
<rect x="6.30042" y="73.1074" width="5.50484" height="50.9409" rx="2" fill="url(#paint6_linear_12436_20544)" fill-opacity="0.2"/>
<rect x="182.889" y="53" width="3.36665" height="80.7997" fill="#9A9A9A"/>
<path d="M186.256 69.834H206.41L219.922 78.2506L206.41 86.6673H186.256V69.834Z" fill="#4087E1"/>
<path d="M182.889 53H162.735L149.222 61.4166L162.735 69.8333H182.889V53Z" fill="#4087E1"/>
<defs>
<filter id="filter0_bi_12436_20544" x="4.20377" y="65.0575" width="172.693" height="61.3049" filterUnits="userSpaceOnUse" color-interpolation-filters="sRGB">
<feFlood flood-opacity="0" result="BackgroundImageFix"/>
<feGaussianBlur in="BackgroundImageFix" stdDeviation="1.09013"/>
<feComposite in2="SourceAlpha" operator="in" result="effect1_backgroundBlur_12436_20544"/>
<feBlend mode="normal" in="SourceGraphic" in2="effect1_backgroundBlur_12436_20544" result="shape"/>
<feColorMatrix in="SourceAlpha" type="matrix" values="0 0 0 0 0 0 0 0 0 0 0 0 0 0 0 0 0 0 127 0" result="hardAlpha"/>
<feOffset dy="-0.436052"/>
<feGaussianBlur stdDeviation="0.545065"/>
<feComposite in2="hardAlpha" operator="arithmetic" k2="-1" k3="1"/>
<feColorMatrix type="matrix" values="0 0 0 0 0 0 0 0 0 0 0 0 0 0 0 0 0 0 0.25 0"/>
<feBlend mode="normal" in2="shape" result="effect2_innerShadow_12436_20544"/>
</filter>
<filter id="filter1_i_12436_20544" x="-0.000244141" y="66.4663" width="41.3726" height="64.2212" filterUnits="userSpaceOnUse" color-interpolation-filters="sRGB">
<feFlood flood-opacity="0" result="BackgroundImageFix"/>
<feBlend mode="normal" in="SourceGraphic" in2="BackgroundImageFix" result="shape"/>
<feColorMatrix in="SourceAlpha" type="matrix" values="0 0 0 0 0 0 0 0 0 0 0 0 0 0 0 0 0 0 127 0" result="hardAlpha"/>
<feOffset/>
<feGaussianBlur stdDeviation="1.5"/>
<feComposite in2="hardAlpha" operator="arithmetic" k2="-1" k3="1"/>
<feColorMatrix type="matrix" values="0 0 0 0 0 0 0 0 0 0 0 0 0 0 0 0 0 0 0.25 0"/>
<feBlend mode="normal" in2="shape" result="effect1_innerShadow_12436_20544"/>
</filter>
<linearGradient id="paint0_linear_12436_20544" x1="79.0051" y1="83.3996" x2="100.555" y2="36.8482" gradientUnits="userSpaceOnUse">
<stop stop-color="#363636"/>
<stop offset="1" stop-color="#969696"/>
</linearGradient>
<linearGradient id="paint1_linear_12436_20544" x1="140.975" y1="92.779" x2="140.975" y2="128.234" gradientUnits="userSpaceOnUse">
<stop stop-color="#363636" stop-opacity="0"/>
<stop offset="1" stop-color="#363636"/>
</linearGradient>
<linearGradient id="paint2_linear_12436_20544" x1="19.155" y1="86.4756" x2="44.5227" y2="123.523" gradientUnits="userSpaceOnUse">
<stop stop-color="#5A5A5A" stop-opacity="0.5"/>
<stop offset="1" stop-color="#D9D9D9" stop-opacity="0"/>
</linearGradient>
<linearGradient id="paint3_linear_12436_20544" x1="90.7369" y1="83.3996" x2="68.0532" y2="67.4618" gradientUnits="userSpaceOnUse">
<stop stop-color="#5A5A5A"/>
<stop offset="1" stop-color="#5A5A5A" stop-opacity="0"/>
</linearGradient>
<linearGradient id="paint4_linear_12436_20544" x1="40.6652" y1="104.181" x2="28.6161" y2="104.181" gradientUnits="userSpaceOnUse">
<stop stop-color="#1B550C"/>
<stop offset="0.619809" stop-color="#547716"/>
<stop offset="1" stop-color="#A7E92F"/>
</linearGradient>
<linearGradient id="paint5_linear_12436_20544" x1="28.2942" y1="104.181" x2="16.2451" y2="104.181" gradientUnits="userSpaceOnUse">
<stop stop-color="#1B550C"/>
<stop offset="0.619809" stop-color="#547716"/>
<stop offset="1" stop-color="#A7E92F"/>
</linearGradient>
<linearGradient id="paint6_linear_12436_20544" x1="15.9237" y1="104.181" x2="3.87464" y2="104.181" gradientUnits="userSpaceOnUse">
<stop stop-color="#1B550C"/>
<stop offset="0.619809" stop-color="#547716"/>
<stop offset="1" stop-color="#A7E92F"/>
</linearGradient>
</defs>
</svg>
