<svg width="268" height="195" viewBox="0 0 268 195" fill="none" xmlns="http://www.w3.org/2000/svg">
<path d="M61.6822 15.2217C45.4558 15.2217 32.2568 28.3894 32.2568 44.6292C32.2568 60.9088 45.4534 74.0789 61.6822 74.0789C77.9087 74.0789 91.0655 60.9112 91.0655 44.6292C91.068 28.3894 77.9111 15.2217 61.6822 15.2217Z" fill="white"/>
<path d="M210.539 33.4132C210.539 18.4673 198.429 6.34766 183.495 6.34766C168.562 6.34766 156.415 18.4673 156.415 33.4132C156.415 48.3964 168.562 60.516 183.495 60.516C198.429 60.5135 210.539 48.3964 210.539 33.4132Z" fill="white"/>
<path d="M212.501 94.5605C198.525 94.5605 187.157 105.903 187.157 119.89C187.157 133.912 198.522 145.254 212.501 145.254C226.479 145.254 237.809 133.912 237.809 119.89C237.809 105.903 226.479 94.5605 212.501 94.5605Z" fill="white"/>
<path d="M52.1911 120.57C37.9623 120.57 26.3887 132.116 26.3887 146.359C26.3887 160.635 37.9598 172.183 52.1911 172.183C66.4224 172.183 77.9588 160.637 77.9588 146.359C77.9588 132.116 66.4199 120.57 52.1911 120.57Z" fill="white"/>
<path d="M133.275 189.876C180.139 189.876 218.129 151.854 218.129 104.952C218.129 58.0493 180.139 20.0273 133.275 20.0273C86.4114 20.0273 48.4209 58.0493 48.4209 104.952C48.4209 151.854 86.4114 189.876 133.275 189.876Z" fill="white" stroke="#C8C8C8" stroke-width="7" stroke-miterlimit="10" stroke-linecap="round" stroke-linejoin="round"/>
<path d="M133.439 189.879V20.0273C133.439 20.0273 20.3158 99.6022 133.439 189.879Z" fill="white" stroke="#C8C8C8" stroke-width="7" stroke-miterlimit="10" stroke-linecap="round" stroke-linejoin="round"/>
<path d="M133.43 189.879V20.0273C133.43 20.0273 246.553 99.6022 133.43 189.879Z" fill="white" stroke="#C8C8C8" stroke-width="7" stroke-miterlimit="10" stroke-linecap="round" stroke-linejoin="round"/>
<path d="M48.4189 104.952H218.13" stroke="#C8C8C8" stroke-width="7" stroke-miterlimit="10" stroke-linecap="round" stroke-linejoin="round"/>
<path d="M167.364 34.1993L88.8887 42.332L89.3999 47.2728L167.875 39.14L167.364 34.1993Z" fill="#A7E92F"/>
<path d="M58.9259 68.7617L55.2822 125.984L60.2353 126.3L63.8789 69.0776L58.9259 68.7617Z" fill="#A7E92F"/>
<path d="M85.0316 59.6494L82.0498 63.6201L129.413 99.2457L132.394 95.275L85.0316 59.6494Z" fill="#A7E92F"/>
<path d="M165.484 40.2034L69.7715 131.924L73.2039 135.512L168.917 43.7911L165.484 40.2034Z" fill="#A7E92F"/>
<path d="M128.344 109.348L73.1357 138.521L75.4529 142.914L130.661 113.74L128.344 109.348Z" fill="#A7E92F"/>
<path d="M159.068 105.252L157.657 110.014L198.293 122.074L199.704 117.312L159.068 105.252Z" fill="#A7E92F"/>
<path d="M193.609 54.5386L189 56.3809L207.357 102.383L211.966 100.541L193.609 54.5386Z" fill="#A7E92F"/>
<path d="M174.793 55.2036L151.812 89.9844L155.951 92.7242L178.933 57.9435L174.793 55.2036Z" fill="#A7E92F"/>
<path d="M151.532 118.136L147.273 120.687L168.574 156.31L172.832 153.76L151.532 118.136Z" fill="#A7E92F"/>
<path d="M199.193 138.497L189.104 153.645L193.233 156.4L203.323 141.252L199.193 138.497Z" fill="#A7E92F"/>
<path d="M64.1069 76.7039C80.3855 76.7039 93.5819 63.4965 93.5819 47.2045C93.5819 30.9124 80.3855 17.7051 64.1069 17.7051C47.8283 17.7051 34.6318 30.9124 34.6318 47.2045C34.6318 63.4965 47.8283 76.7039 64.1069 76.7039Z" fill="#A7E92F"/>
<path d="M185.812 62.9974C200.813 62.9974 212.974 50.8264 212.974 35.8127C212.974 20.799 200.813 8.62793 185.812 8.62793C170.81 8.62793 158.649 20.799 158.649 35.8127C158.649 50.8264 170.81 62.9974 185.812 62.9974Z" fill="#A7E92F"/>
<path d="M214.959 147.738C228.946 147.738 240.285 136.39 240.285 122.391C240.285 108.392 228.946 97.0439 214.959 97.0439C200.972 97.0439 189.633 108.392 189.633 122.391C189.633 136.39 200.972 147.738 214.959 147.738Z" fill="#A7E92F"/>
<path d="M143.493 124.311C154.384 124.311 163.213 115.475 163.213 104.575C163.213 93.6743 154.384 84.8379 143.493 84.8379C132.602 84.8379 123.772 93.6743 123.772 104.575C123.772 115.475 132.602 124.311 143.493 124.311Z" fill="#A7E92F"/>
<path d="M179.893 190.653C191.424 190.653 200.772 181.298 200.772 169.757C200.772 158.216 191.424 148.86 179.893 148.86C168.362 148.86 159.014 158.216 159.014 169.757C159.014 181.298 168.362 190.653 179.893 190.653Z" fill="#A7E92F"/>
<path d="M54.9406 174.664C69.1416 174.664 80.6538 163.142 80.6538 148.93C80.6538 134.717 69.1416 123.195 54.9406 123.195C40.7397 123.195 29.2275 134.717 29.2275 148.93C29.2275 163.142 40.7397 174.664 54.9406 174.664Z" fill="#A7E92F"/>
<path d="M78.0688 149.777L77.2578 154.678L163.582 168.987L164.393 164.086L78.0688 149.777Z" fill="#A7E92F"/>
<path d="M61.6825 74.7001C45.1161 74.7001 31.6367 61.2121 31.6367 44.6295C31.6367 28.0718 45.1136 14.5986 61.6825 14.5986C78.2265 14.5986 91.6886 28.0693 91.6886 44.6295C91.6886 61.2121 78.229 74.7001 61.6825 74.7001ZM61.6825 15.8429C45.801 15.8429 32.8775 28.7573 32.8775 44.632C32.8775 60.5266 45.7985 73.4608 61.6825 73.4608C77.5441 73.4608 90.4478 60.5291 90.4478 44.632C90.4478 28.7573 77.5441 15.8429 61.6825 15.8429Z" fill="black"/>
<path d="M81.5694 64.8207C81.3386 64.8207 81.1177 64.6915 81.011 64.4705C80.7133 63.8521 80.3435 63.3181 79.8844 62.8363C79.7132 62.6575 79.5618 62.4837 79.4154 62.3148C78.9464 61.7784 78.5767 61.3537 77.728 60.9638C77.2764 60.7576 76.2292 60.3354 75.0158 59.8511C72.579 58.8751 69.5491 57.6607 68.1495 56.8833C68.0329 56.8187 67.9237 56.7393 67.8294 56.6499C66.3728 55.2988 66.4621 52.9618 66.5142 51.5661L66.5266 51.0594C66.5241 50.6397 66.6805 50.2374 66.9658 49.9294C67.889 48.9385 68.4225 48.1686 68.8071 47.2745C69.224 46.3035 69.5019 45.1412 69.8791 43.4747C69.966 43.0923 70.2141 42.6552 70.9188 42.7595C70.9933 42.7719 71.038 42.7768 71.0851 42.7694C71.3928 42.7222 71.5218 42.5906 71.5988 42.4813C72.0926 41.7785 72.3234 39.506 71.9859 38.7188L71.9735 38.7138C71.9462 38.7063 71.9313 38.7063 71.8544 38.7237C71.7377 38.7486 71.43 38.8181 71.162 38.5946C70.8816 38.3586 70.8965 38.006 70.904 37.8719C71.0404 35.0853 71.0752 33.0538 70.8221 31.519C70.6087 30.23 70.1843 29.2788 69.353 28.2382C69.353 28.2382 69.353 28.2383 69.353 28.2358C67.8766 26.388 64.8591 25.2406 61.4793 25.2406C58.0995 25.2406 55.082 26.388 53.6056 28.2358C52.7743 29.2764 52.3474 30.2276 52.134 31.5165C51.8809 33.0538 51.9157 35.0853 52.0521 37.8694C52.0596 38.0035 52.0745 38.3562 51.7941 38.5946C51.5261 38.8181 51.2184 38.751 51.1017 38.7237C51.0248 38.7063 51.0124 38.7063 50.9851 38.7138L50.9727 38.7163C50.6352 39.5383 50.8685 41.781 51.3598 42.4813C51.4367 42.5881 51.5633 42.7197 51.876 42.7694C51.9181 42.7744 51.9628 42.7694 52.0373 42.7595C52.7395 42.6552 52.9901 43.0898 53.077 43.4747C53.4542 45.1387 53.7321 46.301 54.149 47.272C54.5361 48.1686 55.0696 48.9385 55.9903 49.9269C56.2781 50.2374 56.4344 50.6372 56.432 51.0594L56.4468 51.5735C56.499 52.9618 56.5883 55.2988 55.1317 56.6499C55.0349 56.7393 54.9257 56.8187 54.8116 56.8833C53.412 57.6607 50.3821 58.8751 47.9453 59.8511C46.7318 60.3379 45.6847 60.7576 45.233 60.9638C44.3844 61.3512 44.0146 61.7759 43.5456 62.3123C43.3992 62.4812 43.2478 62.655 43.0766 62.8339C42.6175 63.3157 42.2478 63.8521 41.95 64.4705C41.8011 64.7785 41.4289 64.9076 41.1212 64.7586C40.8135 64.6096 40.6845 64.2371 40.8334 63.9291C41.1882 63.194 41.6299 62.5557 42.1808 61.977C42.3371 61.8106 42.4786 61.6517 42.6126 61.4952C43.1114 60.924 43.6275 60.3329 44.7169 59.8338C45.1958 59.6152 46.2554 59.188 47.4837 58.6963C49.7593 57.7848 52.8785 56.5356 54.2085 55.7955C54.2383 55.7781 54.2631 55.7608 54.288 55.7384C55.3277 54.7748 55.2508 52.7954 55.2061 51.6133L55.1912 51.0818C55.1912 51.0743 55.1912 51.0644 55.1912 51.0569C55.1937 50.9526 55.154 50.8533 55.082 50.7763C54.0572 49.6761 53.4567 48.8044 53.01 47.7688C52.5733 46.7555 52.2879 45.6106 51.9281 44.0186C51.8611 44.0186 51.7792 44.0161 51.6923 44.0037C51.1092 43.9143 50.6576 43.6436 50.3449 43.204C49.593 42.1336 49.3176 39.3769 49.8436 38.2047C49.9925 37.8694 50.2456 37.6384 50.5508 37.5565L50.6104 37.5366C50.6724 37.5167 50.732 37.5043 50.7891 37.4944C50.6675 34.8569 50.6501 32.8824 50.9082 31.3253C51.1538 29.8277 51.67 28.6753 52.6353 27.4708C54.3674 25.3027 57.6727 24.0088 61.4768 24.0088C65.2809 24.0088 68.5863 25.3027 70.3183 27.4708C70.3183 27.4708 70.3183 27.4708 70.3183 27.4733C71.2811 28.6778 71.7973 29.8302 72.043 31.3278C72.301 32.8849 72.2837 34.8569 72.1621 37.4969C72.2191 37.5068 72.2787 37.5217 72.3407 37.5416L72.4226 37.5664C72.708 37.6434 72.9586 37.8744 73.1075 38.2096C73.6336 39.3819 73.3581 42.1386 72.6087 43.2065C72.2961 43.6486 71.8444 43.9168 71.2663 44.0062C71.1794 44.0186 71.0975 44.0211 71.0256 44.0236C70.6633 45.618 70.3779 46.7629 69.9436 47.7737C69.497 48.8093 68.8964 49.6811 67.8716 50.7838C67.8021 50.8607 67.7624 50.9601 67.7649 51.0644C67.7649 51.0718 67.7649 51.0818 67.7649 51.0892L67.75 51.6157C67.7053 52.8054 67.6284 54.7847 68.6681 55.7483C68.693 55.7707 68.7178 55.7906 68.7476 55.8055C70.0776 56.5431 73.1944 57.7923 75.4724 58.7062C76.7007 59.198 77.7603 59.6227 78.2392 59.8437C79.3311 60.3429 79.8472 60.934 80.346 61.5076C80.48 61.6641 80.6214 61.8231 80.7778 61.9895C81.3287 62.5656 81.7679 63.2039 82.1252 63.9415C82.2741 64.2495 82.1451 64.622 81.8374 64.771C81.7505 64.8008 81.6587 64.8207 81.5694 64.8207ZM72.0603 38.7436C72.0678 38.7461 72.0727 38.7486 72.0802 38.751L72.0603 38.7436ZM50.9156 38.7386L50.9032 38.7436C50.9057 38.7411 50.9107 38.7386 50.9156 38.7386Z" fill="black"/>
<path d="M183.493 61.1347C168.219 61.1347 155.792 48.6972 155.792 33.411C155.792 18.1448 168.219 5.72461 183.493 5.72461C198.746 5.72461 211.156 18.1448 211.156 33.411C211.159 48.6997 198.749 61.1347 183.493 61.1347ZM183.493 6.96638C168.904 6.96638 157.033 18.8302 157.033 33.411C157.033 48.0117 168.902 59.8929 183.493 59.8929C198.062 59.8929 209.916 48.0142 209.916 33.411C209.918 18.8302 198.064 6.96638 183.493 6.96638Z" fill="black"/>
<path d="M201.797 52.0426C201.566 52.0426 201.345 51.9134 201.238 51.6924C200.965 51.1286 200.628 50.6394 200.208 50.1998C200.05 50.0334 199.911 49.8745 199.774 49.718C199.347 49.2287 199.01 48.8413 198.238 48.4886C197.821 48.2974 196.858 47.9125 195.744 47.4654C193.501 46.5664 190.709 45.4488 189.419 44.7311C189.307 44.669 189.205 44.5945 189.114 44.51C187.756 43.2509 187.838 41.0877 187.888 39.7938L187.9 39.3294C187.898 38.9295 188.047 38.5495 188.317 38.2565C189.163 37.35 189.65 36.6447 190.005 35.8276C190.387 34.9385 190.642 33.8681 190.99 32.3382C191.059 32.0328 191.282 31.536 192.002 31.6428C192.069 31.6528 192.104 31.6577 192.141 31.6528C192.404 31.613 192.511 31.5062 192.58 31.4069C193.022 30.7761 193.235 28.747 192.94 28.0144C192.93 28.0144 192.915 28.0169 192.868 28.0268C192.754 28.0516 192.454 28.1187 192.188 27.8977C191.91 27.6642 191.928 27.3215 191.933 27.1923C192.059 24.6318 192.089 22.7617 191.856 21.356C191.662 20.1788 191.273 19.3096 190.513 18.3609C189.163 16.6721 186.401 15.624 183.307 15.624C180.21 15.624 177.451 16.6721 176.101 18.3609C175.341 19.3121 174.952 20.1788 174.758 21.3585C174.525 22.7692 174.557 24.6368 174.684 27.1948C174.689 27.3265 174.706 27.6692 174.428 27.9026C174.163 28.1262 173.862 28.0566 173.748 28.0318C173.701 28.0218 173.684 28.0194 173.676 28.0194C173.384 28.7694 173.594 30.7835 174.036 31.4144C174.103 31.5112 174.212 31.6155 174.48 31.6577C174.513 31.6627 174.547 31.6577 174.614 31.6478C175.334 31.5385 175.557 32.0377 175.627 32.3457C175.972 33.873 176.227 34.9435 176.609 35.8326C176.962 36.6521 177.451 37.355 178.294 38.2615C178.567 38.557 178.716 38.937 178.714 39.3368L178.726 39.8087C178.776 41.0952 178.858 43.2583 177.5 44.5175C177.409 44.6019 177.307 44.6764 177.195 44.7385C175.907 45.4562 173.113 46.5738 170.87 47.4729C169.756 47.9199 168.793 48.3073 168.376 48.4961C167.604 48.8488 167.267 49.2362 166.84 49.7254C166.703 49.8819 166.564 50.0408 166.406 50.2072C165.986 50.6468 165.649 51.1361 165.376 51.6998C165.227 52.0078 164.855 52.1369 164.547 51.9879C164.239 51.8389 164.11 51.4664 164.259 51.1584C164.589 50.4779 164.996 49.8844 165.507 49.3504C165.651 49.1989 165.78 49.0524 165.904 48.9084C166.366 48.3794 166.845 47.8305 167.86 47.3661C168.301 47.1624 169.279 46.7725 170.408 46.318C172.503 45.4786 175.371 44.3312 176.592 43.6507C176.617 43.6383 176.637 43.6234 176.657 43.6035C177.597 42.7318 177.528 40.9238 177.485 39.8459L177.473 39.3567C177.473 39.3468 177.473 39.3393 177.473 39.3294C177.476 39.2474 177.443 39.1655 177.386 39.1059C176.451 38.1025 175.877 37.2705 175.47 36.3218C175.071 35.393 174.81 34.3474 174.48 32.8995C174.423 32.8995 174.361 32.8945 174.297 32.8846C173.746 32.8002 173.319 32.5444 173.024 32.1296C172.324 31.1337 172.068 28.5707 172.557 27.478C172.701 27.1551 172.944 26.9341 173.24 26.8546L173.294 26.8372C173.336 26.8248 173.379 26.8124 173.421 26.8049C173.309 24.3959 173.297 22.5904 173.532 21.1598C173.761 19.7715 174.24 18.7036 175.131 17.5885C176.734 15.5818 179.791 14.3848 183.307 14.3848C186.823 14.3848 189.88 15.5818 191.483 17.5885C192.374 18.7036 192.853 19.7715 193.082 21.1598C193.317 22.5879 193.305 24.3934 193.193 26.8049C193.235 26.8124 193.278 26.8248 193.322 26.8397L193.397 26.862C193.672 26.9365 193.915 27.1576 194.059 27.4804C194.548 28.5732 194.293 31.1362 193.595 32.1296C193.3 32.5493 192.873 32.8026 192.327 32.8871C192.26 32.897 192.196 32.902 192.139 32.902C191.806 34.3573 191.546 35.4004 191.148 36.3243C190.742 37.2705 190.166 38.105 189.23 39.1083C189.173 39.1679 189.143 39.2474 189.146 39.3319C189.146 39.3393 189.146 39.3492 189.146 39.3567L189.134 39.841C189.091 40.9288 189.022 42.7343 189.962 43.606C189.982 43.6234 190.002 43.6383 190.027 43.6532C191.248 44.3312 194.116 45.4811 196.211 46.3205C197.342 46.775 198.317 47.1649 198.759 47.3686C199.774 47.833 200.251 48.3818 200.715 48.9108C200.839 49.0524 200.968 49.2014 201.112 49.3529C201.62 49.8869 202.03 50.4804 202.36 51.1609C202.509 51.4689 202.38 51.8414 202.072 51.9904C201.978 52.0227 201.886 52.0426 201.797 52.0426ZM193.029 28.0392C193.037 28.0417 193.042 28.0442 193.049 28.0442L193.029 28.0392ZM173.599 28.0367L173.585 28.0417C173.592 28.0392 173.597 28.0367 173.599 28.0367Z" fill="black"/>
<path d="M141.311 122.425C130.134 122.425 121.042 113.325 121.042 102.139C121.042 90.9681 130.134 81.8809 141.311 81.8809C152.472 81.8809 161.552 90.9681 161.552 102.139C161.552 113.325 152.472 122.425 141.311 122.425ZM141.311 83.1226C130.819 83.1226 122.283 91.6536 122.283 102.139C122.283 112.639 130.819 121.183 141.311 121.183C151.788 121.183 160.311 112.639 160.311 102.139C160.311 91.6536 151.788 83.1226 141.311 83.1226Z" fill="black"/>
<path d="M154.59 115.829C154.359 115.829 154.138 115.7 154.032 115.478C153.841 115.086 153.607 114.746 153.315 114.44C153.198 114.319 153.094 114.199 152.994 114.085C152.687 113.733 152.463 113.477 151.937 113.236C151.637 113.099 150.908 112.806 150.136 112.496C148.503 111.843 146.471 111.028 145.528 110.504C145.433 110.452 145.349 110.39 145.272 110.318C144.23 109.352 144.292 107.732 144.329 106.766L144.339 106.433C144.337 106.101 144.461 105.785 144.689 105.539C145.289 104.896 145.634 104.399 145.88 103.826C146.153 103.195 146.337 102.425 146.585 101.325C146.625 101.151 146.803 100.585 147.51 100.689C147.525 100.692 147.543 100.694 147.563 100.697C147.704 100.674 147.744 100.622 147.766 100.59C148.029 100.215 148.175 98.9829 148.049 98.4216C147.917 98.439 147.706 98.4365 147.513 98.2726C147.247 98.0491 147.262 97.7287 147.267 97.6219C147.354 95.8263 147.379 94.4256 147.215 93.4222C147.079 92.5977 146.808 91.9917 146.275 91.3261C146.275 91.3261 146.275 91.3261 146.275 91.3236C145.327 90.139 143.374 89.4014 141.18 89.4014C138.984 89.4014 137.031 90.139 136.083 91.3236C135.552 91.9892 135.279 92.5952 135.143 93.4197C134.976 94.4256 135.001 95.8238 135.091 97.6169C135.096 97.7237 135.11 98.0441 134.845 98.2676C134.651 98.429 134.44 98.434 134.309 98.4166C134.182 98.9804 134.329 100.212 134.592 100.587C134.612 100.617 134.651 100.669 134.8 100.694C134.813 100.694 134.83 100.689 134.845 100.687C135.545 100.582 135.731 101.149 135.771 101.322C136.011 102.388 136.202 103.192 136.475 103.823C136.723 104.399 137.068 104.896 137.666 105.537C137.895 105.783 138.019 106.098 138.016 106.431L138.026 106.771C138.063 107.732 138.125 109.352 137.081 110.318C137.006 110.387 136.919 110.449 136.828 110.501C135.882 111.028 133.85 111.84 132.217 112.496C131.411 112.819 130.713 113.099 130.415 113.236C129.889 113.477 129.666 113.733 129.358 114.085C129.259 114.199 129.155 114.319 129.038 114.44C128.745 114.746 128.512 115.086 128.321 115.481C128.172 115.789 127.802 115.918 127.492 115.769C127.185 115.62 127.056 115.248 127.204 114.94C127.453 114.428 127.758 113.986 128.14 113.584C128.242 113.474 128.334 113.37 128.423 113.268C128.77 112.871 129.13 112.459 129.899 112.106C130.224 111.957 130.934 111.671 131.755 111.343C133.272 110.735 135.346 109.905 136.222 109.419C136.86 108.83 136.813 107.568 136.783 106.813L136.773 106.456C136.773 106.446 136.773 106.438 136.773 106.428C136.773 106.411 136.768 106.399 136.756 106.386C136.063 105.644 135.637 105.025 135.334 104.317C135.051 103.662 134.857 102.899 134.634 101.928C134.627 101.928 134.622 101.926 134.614 101.926C134.165 101.856 133.818 101.648 133.577 101.307C133.033 100.533 132.842 98.6128 133.222 97.7635C133.346 97.4878 133.567 97.2866 133.828 97.2171C133.753 95.5208 133.748 94.2443 133.917 93.2211C134.088 92.1829 134.445 91.3857 135.113 90.5513C136.309 89.0562 138.575 88.1621 141.178 88.1621C143.781 88.1621 146.046 89.0562 147.242 90.5513C147.242 90.5513 147.242 90.5513 147.245 90.5538C147.91 91.3857 148.267 92.1854 148.438 93.2211C148.607 94.2443 148.602 95.5233 148.528 97.2171L148.55 97.2245C148.788 97.2891 149.012 97.4878 149.136 97.7659C149.515 98.6153 149.324 100.535 148.783 101.307C148.54 101.65 148.193 101.859 147.749 101.928C147.739 101.928 147.731 101.931 147.724 101.931C147.496 102.929 147.307 103.662 147.024 104.32C146.721 105.025 146.295 105.644 145.602 106.389C145.592 106.401 145.585 106.416 145.585 106.431C145.585 106.441 145.585 106.448 145.585 106.458L145.575 106.808C145.545 107.571 145.498 108.833 146.123 109.411C147.012 109.908 149.089 110.74 150.602 111.346C151.424 111.676 152.131 111.959 152.461 112.108C153.23 112.461 153.59 112.873 153.937 113.271C154.027 113.372 154.116 113.477 154.22 113.586C154.602 113.986 154.908 114.43 155.156 114.942C155.305 115.25 155.176 115.623 154.868 115.772C154.774 115.809 154.679 115.829 154.59 115.829ZM148.175 98.4042C148.183 98.4067 148.193 98.4092 148.2 98.4117L148.175 98.4042ZM134.195 98.3968L134.172 98.4042C134.18 98.4017 134.187 98.3992 134.195 98.3968Z" fill="black"/>
<path d="M212.5 145.875C198.184 145.875 186.536 134.217 186.536 119.89C186.536 105.58 198.184 93.9395 212.5 93.9395C226.798 93.9395 238.429 105.58 238.429 119.89C238.429 134.217 226.798 145.875 212.5 145.875ZM212.5 95.1812C198.869 95.1812 187.777 106.265 187.777 119.89C187.777 133.532 198.867 144.633 212.5 144.633C226.113 144.633 237.188 133.534 237.188 119.89C237.188 106.265 226.113 95.1812 212.5 95.1812Z" fill="black"/>
<path d="M229.627 137.366C229.396 137.366 229.175 137.237 229.068 137.016C228.815 136.492 228.503 136.038 228.113 135.63C227.964 135.474 227.833 135.325 227.706 135.178C227.294 134.706 226.996 134.364 226.282 134.036C225.897 133.86 225.004 133.502 223.969 133.087C221.847 132.238 219.234 131.19 218.026 130.519C217.919 130.46 217.82 130.388 217.731 130.306C216.448 129.116 216.525 127.079 216.572 125.863L216.584 125.428C216.582 125.045 216.723 124.678 216.986 124.397C217.773 123.553 218.229 122.897 218.557 122.135C218.914 121.305 219.152 120.307 219.475 118.876C219.542 118.578 219.76 118.089 220.468 118.196C220.525 118.203 220.557 118.208 220.584 118.206C220.815 118.171 220.909 118.079 220.969 117.992C221.373 117.416 221.567 115.583 221.311 114.885C221.301 114.888 221.289 114.89 221.277 114.893C221.165 114.918 220.87 114.985 220.607 114.764C220.331 114.533 220.349 114.197 220.354 114.071C220.47 111.677 220.5 109.931 220.284 108.617C220.103 107.522 219.743 106.714 219.036 105.83C217.78 104.258 215.207 103.282 212.323 103.282C209.437 103.282 206.867 104.258 205.611 105.83C204.904 106.714 204.542 107.522 204.363 108.617C204.147 109.931 204.174 111.679 204.293 114.071C204.298 114.2 204.316 114.535 204.04 114.764C203.777 114.985 203.482 114.918 203.37 114.893C203.36 114.89 203.348 114.888 203.338 114.885C203.082 115.593 203.278 117.419 203.683 117.995C203.742 118.077 203.834 118.169 204.073 118.206C204.097 118.208 204.127 118.206 204.184 118.196C204.891 118.092 205.11 118.578 205.177 118.879C205.499 120.307 205.738 121.305 206.095 122.135C206.422 122.897 206.879 123.553 207.663 124.397C207.926 124.68 208.068 125.045 208.065 125.43L208.078 125.872C208.125 127.082 208.202 129.118 206.916 130.311C206.829 130.393 206.73 130.465 206.623 130.522C205.415 131.195 202.8 132.24 200.7 133.082C199.646 133.504 198.752 133.864 198.368 134.041C197.653 134.369 197.355 134.709 196.943 135.181C196.817 135.327 196.685 135.476 196.536 135.633C196.147 136.043 195.834 136.495 195.581 137.019C195.432 137.327 195.06 137.456 194.752 137.307C194.444 137.158 194.315 136.785 194.464 136.477C194.774 135.834 195.159 135.278 195.638 134.773C195.772 134.632 195.891 134.495 196.008 134.361C196.442 133.862 196.894 133.345 197.849 132.908C198.261 132.72 199.167 132.357 200.216 131.935C202.197 131.143 204.879 130.067 206.018 129.434C206.038 129.424 206.053 129.411 206.07 129.397C206.936 128.592 206.874 126.913 206.834 125.91L206.822 125.45C206.822 125.44 206.822 125.433 206.822 125.423C206.824 125.336 206.785 125.276 206.753 125.242C205.874 124.3 205.336 123.516 204.951 122.626C204.579 121.765 204.326 120.754 204.028 119.448C203.981 119.445 203.934 119.443 203.881 119.435C203.355 119.353 202.946 119.11 202.663 118.712C202.003 117.771 201.762 115.352 202.224 114.319C202.363 114.006 202.601 113.79 202.889 113.713L202.938 113.698C202.968 113.688 202.998 113.681 203.025 113.673C202.924 111.421 202.914 109.744 203.132 108.416C203.348 107.109 203.797 106.106 204.636 105.055C206.145 103.168 209.016 102.043 212.318 102.043C215.621 102.043 218.492 103.17 220.001 105.055C220.84 106.104 221.292 107.109 221.505 108.416C221.726 109.749 221.713 111.431 221.612 113.673C221.641 113.681 221.671 113.688 221.703 113.698L221.773 113.721C222.041 113.793 222.277 114.009 222.418 114.322C222.88 115.352 222.639 117.774 221.979 118.712C221.694 119.115 221.287 119.356 220.765 119.438C220.713 119.445 220.661 119.45 220.614 119.453C220.314 120.764 220.061 121.772 219.691 122.631C219.306 123.523 218.768 124.305 217.889 125.249C217.857 125.284 217.817 125.343 217.82 125.43C217.82 125.44 217.82 125.448 217.82 125.458L217.808 125.91C217.768 126.921 217.703 128.599 218.572 129.404C218.587 129.419 218.604 129.431 218.624 129.441C219.763 130.075 222.448 131.15 224.406 131.935C225.475 132.364 226.381 132.727 226.793 132.916C227.751 133.353 228.2 133.869 228.637 134.371C228.753 134.503 228.872 134.642 229.006 134.783C229.485 135.288 229.87 135.844 230.18 136.485C230.329 136.793 230.2 137.165 229.892 137.314C229.81 137.346 229.719 137.366 229.627 137.366ZM221.411 114.9C221.418 114.903 221.426 114.905 221.433 114.908L221.411 114.9ZM203.259 114.895L203.239 114.903C203.246 114.9 203.254 114.898 203.259 114.895Z" fill="black"/>
<path d="M177.466 188.791C165.602 188.791 155.951 179.132 155.951 167.258C155.951 155.402 165.602 145.756 177.466 145.756C189.312 145.756 198.95 155.402 198.95 167.258C198.95 179.132 189.312 188.791 177.466 188.791ZM177.466 146.998C166.287 146.998 157.192 156.087 157.192 167.258C157.192 178.447 166.287 187.549 177.466 187.549C188.63 187.549 197.71 178.447 197.71 167.258C197.71 156.085 188.627 146.998 177.466 146.998Z" fill="black"/>
<path d="M191.586 181.774C191.355 181.774 191.134 181.645 191.028 181.424C190.824 181.002 190.573 180.637 190.258 180.309C190.134 180.18 190.025 180.053 189.921 179.934C189.591 179.554 189.35 179.281 188.784 179.02C188.469 178.876 187.735 178.58 186.883 178.24C185.132 177.54 182.975 176.676 181.97 176.117C181.876 176.065 181.787 176 181.707 175.926C180.61 174.91 180.677 173.199 180.717 172.178L180.727 171.823C180.724 171.48 180.853 171.152 181.087 170.899C181.727 170.211 182.097 169.679 182.362 169.064C182.653 168.388 182.849 167.568 183.114 166.396C183.166 166.168 183.362 165.646 184.055 165.75C184.082 165.755 184.112 165.758 184.119 165.758C184.275 165.733 184.328 165.678 184.362 165.626C184.658 165.204 184.816 163.851 184.66 163.252C184.529 163.274 184.295 163.284 184.084 163.108C183.816 162.882 183.831 162.557 183.836 162.447C183.933 160.48 183.958 159.047 183.779 157.975C183.633 157.09 183.342 156.44 182.772 155.727C181.757 154.458 179.667 153.668 177.322 153.668C174.975 153.668 172.888 154.458 171.873 155.727C171.302 156.44 171.012 157.09 170.866 157.975C170.689 159.045 170.714 160.538 170.808 162.447C170.813 162.557 170.828 162.884 170.56 163.108C170.349 163.284 170.116 163.274 169.985 163.252C169.828 163.851 169.985 165.204 170.282 165.626C170.317 165.673 170.369 165.731 170.531 165.755C170.538 165.755 170.565 165.75 170.59 165.748C171.287 165.644 171.478 166.165 171.531 166.394C171.796 167.563 171.99 168.383 172.282 169.059C172.548 169.674 172.918 170.206 173.555 170.891C173.791 171.145 173.918 171.473 173.918 171.815L173.928 172.178C173.967 173.191 174.032 174.902 172.935 175.918C172.856 175.993 172.766 176.057 172.672 176.109C171.67 176.668 169.511 177.532 167.776 178.225C166.908 178.573 166.173 178.868 165.858 179.013C165.29 179.273 165.051 179.546 164.721 179.926C164.615 180.048 164.505 180.172 164.381 180.301C164.069 180.632 163.816 180.994 163.612 181.417C163.463 181.725 163.091 181.854 162.783 181.705C162.476 181.556 162.347 181.183 162.495 180.875C162.756 180.336 163.079 179.867 163.483 179.445C163.592 179.33 163.692 179.216 163.786 179.109C164.153 178.69 164.53 178.255 165.342 177.883C165.684 177.726 166.394 177.44 167.297 177.078C168.927 176.425 171.134 175.541 172.069 175.021C172.079 175.017 172.084 175.012 172.091 175.007C172.769 174.378 172.717 173.025 172.687 172.218L172.677 171.838C172.677 171.83 172.677 171.82 172.677 171.813C172.677 171.778 172.662 171.753 172.647 171.738C171.915 170.953 171.464 170.298 171.143 169.55C170.841 168.847 170.635 168.033 170.394 166.987C170.379 166.985 170.362 166.985 170.347 166.982C169.88 166.91 169.521 166.694 169.27 166.342C168.699 165.527 168.496 163.505 168.898 162.614C169.022 162.336 169.243 162.134 169.501 162.057L169.545 162.043C169.463 160.227 169.459 158.861 169.64 157.771C169.821 156.676 170.198 155.831 170.903 154.95C172.166 153.368 174.565 152.424 177.322 152.424C180.077 152.424 182.476 153.368 183.742 154.95C184.447 155.829 184.824 156.673 185.005 157.768C185.186 158.859 185.179 160.227 185.099 162.04L185.144 162.055C185.405 162.132 185.623 162.333 185.747 162.611C186.146 163.503 185.945 165.524 185.375 166.337C185.124 166.692 184.762 166.908 184.3 166.98C184.283 166.982 184.266 166.985 184.248 166.987C184.002 168.063 183.801 168.845 183.499 169.55C183.176 170.298 182.727 170.951 181.992 171.738C181.98 171.751 181.965 171.776 181.965 171.813C181.965 171.82 181.965 171.83 181.965 171.838L181.955 172.21C181.923 173.027 181.871 174.378 182.551 175.007L182.573 175.021C183.509 175.543 185.717 176.425 187.328 177.07C188.248 177.44 188.96 177.726 189.3 177.883C190.109 178.253 190.489 178.687 190.856 179.109C190.951 179.219 191.047 179.33 191.157 179.445C191.561 179.869 191.884 180.336 192.144 180.875C192.293 181.183 192.164 181.556 191.856 181.705C191.767 181.754 191.675 181.774 191.586 181.774Z" fill="black"/>
<path d="M52.1904 172.801C37.6216 172.801 25.7676 160.94 25.7676 146.357C25.7676 131.796 37.6216 119.949 52.1904 119.949C66.7393 119.949 78.576 131.796 78.576 146.357C78.5785 160.94 66.7418 172.801 52.1904 172.801ZM52.1904 121.191C38.3065 121.191 27.0083 132.481 27.0083 146.357C27.0083 160.252 38.304 171.56 52.1904 171.56C66.0569 171.56 77.3352 160.254 77.3352 146.357C77.3377 132.481 66.0569 121.191 52.1904 121.191Z" fill="black"/>
<path d="M69.6272 164.139C69.3964 164.139 69.1756 164.009 69.0689 163.788C68.8108 163.254 68.4907 162.792 68.0937 162.373C67.9423 162.214 67.8083 162.062 67.6793 161.913C67.2748 161.449 66.9547 161.081 66.2251 160.748C65.833 160.57 64.9199 160.202 63.8652 159.78C61.7138 158.918 59.0512 157.853 57.8228 157.167C57.7161 157.108 57.6169 157.036 57.5275 156.954C56.2223 155.744 56.3017 153.673 56.3488 152.436L56.3612 151.994C56.3587 151.607 56.5027 151.237 56.7657 150.951C57.5697 150.089 58.0337 149.421 58.3663 148.644C58.731 147.799 58.9742 146.781 59.3018 145.326C59.3688 145.025 59.5896 144.533 60.2993 144.64C60.3589 144.65 60.3936 144.653 60.4234 144.65C60.6616 144.613 60.7584 144.516 60.8229 144.429C61.2373 143.838 61.4359 141.956 61.1703 141.245C61.1554 141.248 61.1406 141.25 61.1257 141.255C61.014 141.28 60.7187 141.347 60.4532 141.126C60.1777 140.895 60.1926 140.557 60.2001 140.431C60.3192 137.994 60.349 136.214 60.1281 134.875C59.9445 133.757 59.5747 132.935 58.8551 132.034C57.5747 130.432 54.9517 129.436 52.0112 129.436C49.0706 129.436 46.4477 130.432 45.1673 132.034C44.4476 132.935 44.0779 133.757 43.8943 134.875C43.6734 136.216 43.7032 137.994 43.8223 140.428C43.8273 140.557 43.8446 140.895 43.5692 141.126C43.3062 141.347 43.0084 141.28 42.8967 141.255C42.8843 141.253 42.8669 141.248 42.8545 141.245C42.589 141.963 42.7875 143.841 43.2019 144.432C43.264 144.519 43.3607 144.613 43.6039 144.653C43.6287 144.658 43.661 144.653 43.7206 144.643C44.4327 144.536 44.6511 145.028 44.7181 145.328C45.0482 146.784 45.2889 147.799 45.6536 148.646C45.9886 149.424 46.4527 150.092 47.2542 150.951C47.5197 151.237 47.6636 151.607 47.6612 151.994L47.6736 152.444C47.7207 153.675 47.8001 155.744 46.4949 156.954C46.4055 157.036 46.3063 157.108 46.1996 157.167C44.9687 157.85 42.3086 158.918 40.1696 159.775L40.1447 159.785C39.0951 160.207 38.1869 160.57 37.7948 160.751C37.0652 161.084 36.7451 161.451 36.3406 161.916C36.2116 162.065 36.0776 162.216 35.9262 162.375C35.5292 162.792 35.2091 163.254 34.951 163.791C34.8021 164.099 34.4324 164.228 34.1222 164.079C33.8145 163.93 33.6855 163.557 33.8343 163.249C34.1495 162.596 34.5416 162.03 35.0279 161.518C35.1644 161.374 35.286 161.235 35.4051 161.099C35.8468 160.592 36.3059 160.066 37.2762 159.621C37.693 159.43 38.6137 159.06 39.6807 158.633L39.7055 158.623C41.7006 157.823 44.4327 156.73 45.5941 156.084C45.6139 156.072 45.6338 156.06 45.6487 156.045C46.5346 155.225 46.47 153.511 46.4303 152.488L46.4179 152.019C46.4179 152.009 46.4179 152.001 46.4179 151.992C46.4204 151.9 46.3782 151.835 46.3435 151.798C45.4502 150.839 44.9017 150.042 44.5122 149.138C44.1325 148.256 43.8843 147.265 43.5717 145.894C43.522 145.892 43.4699 145.89 43.4153 145.88C42.8818 145.798 42.4674 145.549 42.182 145.147C41.512 144.193 41.2664 141.735 41.7354 140.687C41.8743 140.376 42.1175 140.153 42.4054 140.076L42.4575 140.058C42.4922 140.048 42.5245 140.038 42.5567 140.031C42.4525 137.746 42.4401 136.03 42.6659 134.671C42.8843 133.343 43.3409 132.322 44.1945 131.257C45.7281 129.339 48.6488 128.194 52.0062 128.194C55.3637 128.194 58.2844 129.339 59.8179 131.257C60.6716 132.324 61.1282 133.345 61.3465 134.671C61.5699 136.03 61.5599 137.746 61.4557 140.033C61.488 140.041 61.5227 140.051 61.5575 140.061L61.6269 140.083C61.8925 140.155 62.1381 140.379 62.2771 140.689C62.7461 141.737 62.5004 144.193 61.8329 145.147C61.545 145.552 61.1331 145.798 60.6046 145.882C60.5475 145.889 60.4929 145.894 60.4433 145.897C60.1306 147.273 59.8825 148.261 59.5028 149.14C59.1132 150.044 58.5648 150.842 57.6715 151.8C57.6442 151.83 57.597 151.895 57.597 151.992C57.597 152.001 57.597 152.009 57.597 152.019L57.5846 152.481C57.5449 153.511 57.4779 155.225 58.3663 156.047C58.3812 156.062 58.401 156.074 58.4209 156.087C59.5822 156.733 62.3143 157.825 64.3069 158.625C65.3938 159.06 66.3169 159.432 66.7363 159.623C67.709 160.068 68.1656 160.595 68.6073 161.101C68.7265 161.235 68.848 161.377 68.9845 161.521C69.4734 162.032 69.863 162.599 70.1781 163.252C70.327 163.56 70.198 163.932 69.8903 164.081C69.8109 164.119 69.719 164.139 69.6272 164.139ZM61.2671 141.268C61.2746 141.27 61.2795 141.273 61.287 141.275L61.2671 141.268ZM42.7751 141.263L42.7577 141.268C42.7652 141.265 42.7702 141.263 42.7751 141.263Z" fill="black"/>
</svg>
