<?xml version="1.0" encoding="utf-8"?>
<!-- Generator: Adobe Illustrator 19.0.0, SVG Export Plug-In . SVG Version: 6.00 Build 0)  -->
<svg version="1.1" xmlns="http://www.w3.org/2000/svg" xmlns:xlink="http://www.w3.org/1999/xlink" x="0px" y="0px"
	 viewBox="0 0 500 500" style="enable-background:new 0 0 500 500;" xml:space="preserve">
<style type="text/css">
	.st0{fill:#455A64;}
	.st1{fill:#FAFAFA;}
	.st2{fill:#37474F;}
	.st3{fill:#BA68C8;}
	.st4{opacity:0.4;fill:#FFFFFF;}
	.st5{opacity:0.2;fill:#FFFFFF;}
	.st6{opacity:0.2;fill:#BA68C8;}
	.st7{fill:#263238;}
	.st8{opacity:0.5;}
	.st9{fill:#FFFFFF;}
	.st10{opacity:0.3;}
	.st11{fill:#FC64B0;}
	.st12{opacity:0.5;fill:#FC64B0;}
	.st13{opacity:0.4;fill:#FC64B0;}
	.st14{fill:#FFA8A7;}
	.st15{fill:#F28F8F;}
	.st16{fill:#B16668;}
	.st17{fill:#9A4A4D;}
	.st18{fill:#F0F0F0;}
	.st19{opacity:0.15;}
	.st20{opacity:0.2;}
	.st21{fill:#FFBDA7;}
	.st22{fill:#F0997A;}
	.st23{fill:#C8856A;}
	.st24{fill:#AF6152;}
	.st25{fill:#FC64B0;stroke:#000000;stroke-miterlimit:10;}
	.st26{opacity:0.45;fill:#FC64B0;stroke:#000000;stroke-miterlimit:10;}
	.st27{opacity:0.4;fill:#FC64B0;stroke:#000000;stroke-miterlimit:10;}
	.st28{opacity:0.2;fill:#FC64B0;stroke:#000000;stroke-miterlimit:10;}
	.st29{opacity:0.5;fill:#FC64B0;stroke:#000000;stroke-miterlimit:10;}
	.st30{fill:#FC64B0;stroke:#050003;stroke-miterlimit:10;}
	.st31{opacity:0.3;fill:#FC64B0;stroke:#050003;stroke-miterlimit:10;}
	.st32{opacity:0.45;fill:#FC64B0;stroke:#050003;stroke-miterlimit:10;}
	.st33{opacity:0.4;fill:#FC64B0;stroke:#050003;stroke-miterlimit:10;}
	.st34{opacity:0.5;fill:#FC64B0;stroke:#050003;stroke-miterlimit:10;}
	.st35{opacity:0.2;fill:#FC64B0;stroke:#050003;stroke-miterlimit:10;}
</style>
<g id="Palm">
</g>
<g id="Floor">
	<g id="Floor_00000114793324276239520490000013560682861986756495_">
		<path id="Floor_00000067230643071545080000000010706151447419842180_" class="st0" d="M78.7,232.4c-95.2,55-95.2,144,0,199
			c95.2,55,249.5,55,344.7,0c95.2-55,95.2-144,0-199C328.2,177.5,173.8,177.5,78.7,232.4z"/>
		<path class="st1" d="M77.8,349.6l23.4,13.5l7-4l-23.4-13.5L77.8,349.6z M38.2,326.7l23.4,13.5l7-4l-23.4-13.5L38.2,326.7z
			 M117.5,372.5l23.4,13.5l7-4l-23.4-13.5L117.5,372.5z M10.1,310.5l11.8,6.8l7-4l-16.7-9.6C11.4,305.9,10.7,308.2,10.1,310.5z
			 M157.2,395.4l23.4,13.5l7-4l-23.4-13.5L157.2,395.4z M236.5,441.2l23.4,13.5l7-4l-23.4-13.5L236.5,441.2z M283.1,460.1l-7,4
			l11.9,6.9c4-0.3,7.9-0.8,11.8-1.2L283.1,460.1z M196.8,418.3l23.4,13.5l7-4l-23.4-13.5L196.8,418.3z"/>
	</g>
</g>
<g id="Clouds">
</g>
<g id="Sun">
</g>
<g id="Shadow">
	<path id="Shadow_00000121998967649560457130000014391723131609607303_" class="st2" d="M193.8,208.2L86.8,269.7
		c-15.1,8.7-13.3,23.8,4,33.8L294,420.7c86.6,50.1,231-54,161.8-92.7L244.6,205.6C227.3,195.7,208.9,199.5,193.8,208.2z"/>
</g>
<g id="Car">
	<g>
		<g>
			<path class="st3" d="M315.5,203.5c-13.7-7.9-51.4-37.5-67.6-46.1c-29.8-15.4-55.2-12-62.4,4.4l-63.7,41.7H315.5z"/>
			<path class="st4" d="M315.5,203.5c-13.7-7.9-51.4-37.5-67.6-46.1c-29.8-15.4-55.2-12-62.4,4.4l-63.7,41.7H315.5z"/>
			<path id="XMLID_00000072966073077455098080000012935302218377060234_" class="st5" d="M242.3,160.3c-7.4-1.2-25.1-4-32.4-3.8
				c-27.7-1.8-1.9-7.6,8.3-6.2C235.8,152.6,250.8,161.7,242.3,160.3z"/>
			<path id="XMLID_00000112630570465000001440000003111771757602722448_" class="st6" d="M266.8,173.1c0,0-69.9-20.7-75.4-14.9
				c-3.8,4,62.2,29.5,62.2,29.5L266.8,173.1z"/>
		</g>
		<g>
			<g id="Interiors_00000130633200240524025350000008929982909275530379_">
				<path class="st7" d="M386.8,239.3L386.8,239.3l-122.7-70.9c0,0-0.3-0.2-0.8-0.6l-0.4,0.5v142.4L386.8,239.3z"/>
			</g>
			<g>
				<path class="st2" d="M154.7,215.3l98.5-56.9l0,0c7.1,3.5,12,10,13,17.3L271,205l-98.5,56.9l-15.1-7.5L154.7,215.3z"/>
				<path class="st0" d="M155.4,226.5l106.5-61c-2.2-2.9-5.2-5.4-8.7-7.1l-98.5,56.9L155.4,226.5z"/>
				<path class="st7" d="M157.3,254.3l-2.7-39.1l0,0c7.1,3.5,12,10,13,17.3l4.8,29.3L157.3,254.3z"/>
				<polygon class="st2" points="167.7,232.6 172.5,261.9 197.6,274.3 275,229.6 266.2,175.7 				"/>
				<polygon points="269.3,230 369.9,288.1 292.5,332.8 191.9,274.7 				"/>
			</g>
			<g>
				<path class="st0" d="M243.7,163.9c-14.5,8.1-30.3,17-44.7,25.3c-13.1,7.6-31.8,18.3-44.7,25.9c0.8,11,1.7,21.9,2.6,32.9
					c-0.5-10.6-1.2-21.3-1.8-31.9c6.1,3.2,11.3,8.5,12.2,15.6c0.5,2.7,1.8,9.7,2.3,12.5c-0.4-2.8-1.5-9.9-1.9-12.6
					c-0.7-7.2-6-12.9-12.1-16.4c17.1-9.7,38-21.8,55-31.7C221.2,177.2,233.1,170.2,243.7,163.9z"/>
				<path class="st5" d="M243.7,163.9c-14.5,8.1-30.3,17-44.7,25.3c-13.1,7.6-31.8,18.3-44.7,25.9c0.8,11,1.7,21.9,2.6,32.9
					c-0.5-10.6-1.2-21.3-1.8-31.9c6.1,3.2,11.3,8.5,12.2,15.6c0.5,2.7,1.8,9.7,2.3,12.5c-0.4-2.8-1.5-9.9-1.9-12.6
					c-0.7-7.2-6-12.9-12.1-16.4c17.1-9.7,38-21.8,55-31.7C221.2,177.2,233.1,170.2,243.7,163.9z"/>
			</g>
		</g>
		<g>
			<g id="Back_Car_00000044871950285381408550000015774367199708858002_">
				<g>
					<path id="XMLID_00000096760890821198707710000016562075249829356733_" class="st3" d="M114.5,193.4c7.1-0.9,13,3,14.7,4
						c4.2,2.5,9,5.2,11.6,6.8c5.5,3.3,16.1,9.6,16.1,9.6l70.5-40.7c0,0-28.1-14.4-37.7-18.1C180.1,151.4,117.3,186.2,114.5,193.4z"
						/>
				</g>
				<g class="st8">
					<g>
						<path id="XMLID_15_" class="st9" d="M114.5,193.4c7.1-0.9,13,3,14.7,4c4.2,2.5,9,5.2,11.6,6.8c5.5,3.3,16.1,9.6,16.1,9.6
							l70.5-40.7c0,0-28.1-14.4-37.7-18.1C180.1,151.4,117.3,186.2,114.5,193.4z"/>
					</g>
				</g>
				<g class="st10">
					<path class="st3" d="M197.1,160c-11.7,4.6-23,10.4-34,16.4c-11,6-22,12.4-32.3,19.5c9.9-7.8,20.9-14.2,31.9-20.3
						C173.7,169.6,185.1,163.9,197.1,160L197.1,160z"/>
				</g>
			</g>
			<path class="st2" d="M155.4,226.5l1.5,21.4c-7.5-4.3-18.4-12.3-23.3-20.6c-4.9-8.2-8.8-28.5,0.4-23.2c8.9,5.1,16.4,9.5,16.4,9.5
				l73.3-42.3c0,0-4.7-2.4-10.6-5.3c-5.8-2.9-9.9-4.7-5.8-7.1c4.5-2.6,23,0.1,36,5.2l-88.7,51.2L155.4,226.5z"/>
		</g>
	</g>
	<g id="Bottom_00000057871098617025291130000017676661571264504500_">
		<g>
			<path id="XMLID_00000057827723592181177360000004981679979567726013_" class="st11" d="M269.2,207.1c0,0-4.6,7.6-5.4,10.7
				c-0.8,3.3-1.9,4.2-2,7.9c0,0.8,0.1,2.5,0.1,3.1c0,0.6-0.3,1-1.1,1c-1.5,0-3.5-3.1-4-6.3c-0.6-3.2-0.9-10.1-0.9-10.9
				c0.1-0.8,0.5-1.7,0.9-2.2c0.7-1,0.9-1.1,0.9-1.1c0.8-1.3,1.6-4,2.4-5.9L269.2,207.1z"/>
			<g>
				<path class="st11" d="M252.3,215.2c0,0-0.5,0.6-0.6,1c-0.2,0.7,0.9,3.1,1.4,4c0.4,0.9,0.8,2,0.4,4c-0.5,2.1,0,4.3,1.1,6.3
					c1.1,2,3.1,4.4,6.5,6.1c3.4,1.7,5,0.2,5,0.2s1.4-1.5,0.9-2.3C266.4,233.7,252.3,215.2,252.3,215.2z"/>
				<path id="XMLID_00000147209620019112457870000015511718757630157715_" class="st11" d="M257.6,209.4c-0.1,0-0.3-0.1-0.6,0.2
					c-0.1,0.1-1.1,1.5-1.8,2.3c-0.8,0.8-2.4,2-2.9,3.3c0.3,2.7,2.4,5,2.3,7.5s-0.6,5.3,2.6,9c3.3,3.7,7.2,4.8,8.7,4.2
					c1.6-0.5,1.8-2,0.3-5.2c-1.5-3.4-1.6-10.2-1.6-10.2c0-0.9,0.1-1.9,0.2-2.8c0.1-0.9,0.6-1.8,0.8-2.7c0.1-0.4,0.2-0.9,0.1-1.3
					c-0.2-0.4-0.5-0.7-0.9-0.9c-0.6-0.4-1.2-0.8-1.9-1c-0.7-0.2-1.4-0.3-2.1-0.1c-0.5,0.1-0.9,0.5-1.4,0.6c-0.7,0.1-1.4-0.1-1.8-0.7
					c-0.6-0.8-0.4-1.4-0.2-1.8C257.5,209.8,257.6,209.4,257.6,209.4z"/>
				<path class="st11" d="M255.5,228.9c0,0,2.1-2.7,6.2-1.9c4.1,0.8,5.1,3.1,5.5,4.4c0.5,1.6,0.7,4.3-1.1,4.7
					c-2,0.5-4.1-0.2-7.1-2.4C256,231.4,255.5,228.9,255.5,228.9z"/>
				<g>
					<path class="st11" d="M258.6,217.1c0.1,0.1,0.2,0.1,0.4,0.1c0.7-0.2,4.2-0.2,5.8,1.9c0.3-0.1,0.3-0.5,0.1-1.1
						c-2-1.8-5.3-1.8-6.1-1.6c-0.2,0.1-0.3,0.3-0.3,0.5C258.5,216.9,258.6,217,258.6,217.1z"/>
					<path class="st11" d="M264.7,221.4c0.2-0.3,0.1-0.9,0-1.1c-2-1.6-5.1-1.6-5.9-1.3c-0.2,0.1-0.3,0.3-0.3,0.5
						c0,0.1,0.1,0.2,0.2,0.2c0.1,0.1,0.2,0.1,0.4,0.1C259.8,219.5,263.1,219.5,264.7,221.4z"/>
					<path class="st11" d="M265.3,227.1c0.1-0.5,0-1-0.2-1.5c-2-1.8-5.2-1.7-6.1-1.5c-0.2,0.1-0.3,0.3-0.3,0.5
						c0,0.1,0.1,0.2,0.2,0.2c0.1,0.1,0.2,0.1,0.4,0.1C260,224.6,263.9,224.6,265.3,227.1z"/>
					<path class="st11" d="M258.8,222.2c0.1,0.1,0.2,0.1,0.4,0.1c0.7-0.2,4.1-0.2,5.7,1.8c0.2-0.4,0.1-0.8-0.1-1.2
						c-2-1.6-5.1-1.6-5.9-1.3c-0.2,0.1-0.3,0.3-0.3,0.5C258.7,222.1,258.8,222.2,258.8,222.2z"/>
				</g>
			</g>
		</g>
		<g id="XMLID_00000113337885081335881880000014284036991289539733_">
			<path id="XMLID_00000180356546255176237250000009293222663799298725_" class="st11" d="M277.4,220.5c0,0-1.1,7.9-1.1,14.6
				c0,4.6,2,7.2,4.2,10.7c0.5,0.8,1.6,2.2,2,2.8c0.4,0.6,0.3,1.1-0.4,1.6c-1.4,0.9-6.6,0.4-9.2-2.2c-2.5-2.6-4.4-7.5-5.9-9.5
				c-0.5-0.7-1-1.5-1.5-2.3c-0.4-0.8-0.2-1.4-0.1-2.1c0-0.4,0.3-1.3,0.3-1.3c-0.1-1.8-0.9-8.7-1.2-10.5L277.4,220.5z"/>
			<g>
				<path class="st11" d="M263.4,240.6c0,0-0.2,0.8-0.1,1.3c0.2,0.7,2.5,2.6,3.5,3.3c0.9,0.7,1.9,1.6,2.4,3.8
					c0.6,2.3,2.3,4.3,4.4,5.7c2.1,1.5,5.4,2.8,9.6,2.9c4.3,0.1,5.1-2.2,5.1-2.2s0.7-2.2-0.3-2.7C287,252.1,263.4,240.6,263.4,240.6z
					"/>
				<path id="XMLID_00000080181620395262961960000017804565599776720536_" class="st11" d="M265.7,232.3c-0.1,0-0.3,0.1-0.5,0.5
					c-0.1,0.2-0.3,2.1-0.6,3.1c-0.4,1.1-1.4,3.2-1.1,4.7c1.7,2.6,5,3.8,6.2,6.3c1.2,2.5,2.1,5.6,7.3,7.7c5.2,2.1,9.6,1.2,10.9-0.1
					c1.3-1.3,0.7-2.9-2.4-5.3c-3.3-2.6-6.9-9.3-6.9-9.3c-0.5-0.9-0.9-1.9-1.3-2.9c-0.4-0.9-0.4-2.1-0.6-3.1c-0.1-0.5-0.2-1-0.6-1.3
					c-0.4-0.3-0.9-0.4-1.4-0.5c-0.8-0.1-1.6-0.2-2.4-0.1c-0.8,0.1-1.6,0.3-2.1,0.9c-0.4,0.4-0.7,0.9-1.1,1.2
					c-0.6,0.5-1.5,0.6-2.2,0.2c-1-0.5-1.1-1.2-1.1-1.7C265.7,232.7,265.7,232.3,265.7,232.3z"/>
				<path class="st11" d="M273.7,252.7c0,0,0.7-3.7,5.2-4.9c4.5-1.2,6.7,0.5,7.7,1.7c1.3,1.3,2.9,3.9,1.3,5.2
					c-1.7,1.4-4.1,1.8-8.3,1C275.5,254.9,273.7,252.7,273.7,252.7z"/>
				<g>
					<path class="st11" d="M270.6,239.4c0.1,0,0.3,0,0.4-0.1c0.6-0.5,4-2.3,6.7-1c0.2-0.3,0-0.7-0.5-1.1c-2.9-0.8-6.2,0.8-6.9,1.5
						c-0.2,0.2-0.2,0.4,0,0.6C270.4,239.3,270.5,239.4,270.6,239.4z"/>
					<path class="st11" d="M279,240.7c0-0.4-0.3-1-0.6-1.1c-2.8-0.6-5.9,0.9-6.5,1.6c-0.2,0.2-0.2,0.4,0,0.6
						c0.1,0.1,0.2,0.1,0.3,0.1c0.1,0,0.3,0,0.4-0.1C273,241.3,276.3,239.6,279,240.7z"/>
					<path class="st11" d="M282.5,246.1c-0.1-0.5-0.5-1-1-1.4c-2.9-0.8-6.1,0.9-6.8,1.5c-0.2,0.2-0.2,0.4,0,0.6
						c0.1,0.1,0.2,0.1,0.3,0.1c0.1,0,0.3,0,0.4-0.1C276,246.2,279.8,244.3,282.5,246.1z"/>
					<path class="st11" d="M273.5,244.4c0.1,0,0.3,0,0.4-0.1c0.6-0.5,3.9-2.2,6.6-1c0-0.4-0.3-0.8-0.8-1.2c-2.8-0.6-5.9,0.9-6.5,1.6
						c-0.2,0.2-0.2,0.4,0,0.6C273.3,244.3,273.4,244.4,273.5,244.4z"/>
				</g>
			</g>
		</g>
		<g>
			<path class="st11" d="M256.8,148.6c0,0,19.2,11.6,27.9,21.2c3.1,3.4,5,6.4,1.4,14.9c-2.8,6.5-7.6,13.7-12,22.2l-38.4-48
				L256.8,148.6z"/>
			<path class="st12" d="M256.8,148.6c0,0,19.2,11.6,27.9,21.2c3.1,3.4,5,6.4,1.4,14.9c-2.8,6.5-7.6,13.7-12,22.2l-38.4-48
				L256.8,148.6z"/>
			<path class="st13" d="M274.6,205.7c-6-5.8-24.5-38.4-24.5-38.4s0.9-0.1,0.9-0.1c4.9-1.9,7.1-8.4,7.1-8.4c0.5,2.6-0.7,6.3-2.4,8.2
				c2.7,2.1,8.7,6.8,17.9,14.1c1.6,1.3,4.8,3.7,4.5,8.2c-0.5,5.9-0.9,11.8-0.9,11.8L274.6,205.7z"/>
		</g>
		<g id="XMLID_00000119089190552656921060000011069255061939623081_">
			<path class="st11" d="M256.8,148.6L256.8,148.6l-37,5.2c-1.2,6.4-1.2,12.8,2.2,18.2c2.5,3.9,5.2,6.3,15.1,11.9
				c9.2,5.2,17.5,9.5,19.6,10.8c1.6,0.9,1.2,4.5,1.5,8.7c0.4,4.5,0.8,6.9,2.9,16.5c1,4.6,2.1,8.7,2.1,8.7s7.8,1.1,13.7-1.8
				c0,0-0.2-23.3-0.3-29.1c-0.1-4.9,0.4-9.4-3.3-13.2c-3.1-3.2-22.4-17.3-22.4-17.3S259.9,157.4,256.8,148.6z"/>
		</g>
		<g id="XMLID_00000003822913992272940930000016785603324672657339_" class="st8">
			<g>
				<path class="st11" d="M256.8,148.6L256.8,148.6l-37,5.2c-1.2,6.4-1.2,12.8,2.2,18.2c2.5,3.9,5.2,6.3,15.1,11.9
					c9.2,5.2,17.5,9.5,19.6,10.8c1.6,0.9,1.2,4.5,1.5,8.7c0.4,4.5,0.8,6.9,2.9,16.5c1,4.6,2.1,8.7,2.1,8.7s7.8,1.1,13.7-1.8
					c0,0-0.2-23.3-0.3-29.1c-0.1-4.9,0.4-9.4-3.3-13.2c-3.1-3.2-22.4-17.3-22.4-17.3S259.9,157.4,256.8,148.6z"/>
			</g>
		</g>
		<path class="st13" d="M222.3,153.6l0.5-0.1c0,6.4,0.7,11.4,5.3,16.2c3-1.9,2.5-3.8,1.5-7.1c-0.3-1-0.6-2.1-0.9-3.4
			c-0.6-2.6-0.8-4.7-0.8-6.3l0.6-0.1c0,1.6,0.2,3.6,0.8,6.2c0.3,1.3,0.6,2.4,0.9,3.4c1,3.3,1.7,5.6-1.6,7.7c1,1.1,2.3,2.1,3.7,3.2
			c6.8,5.2,16.5,11.3,22.2,14.9c2,1.3,3.6,2.3,4.4,2.8c3.3,2.3,3.4,3.5,3.1,9.2c-0.3,5,2.6,21.7,4.1,28.5c-0.2,0-0.4,0-0.6,0
			c-1.5-7-4.4-23.6-4.1-28.5c0.3-5.7,0.2-6.7-2.8-8.7c-0.8-0.6-2.4-1.6-4.4-2.8c-5.8-3.7-15.4-9.8-22.3-14.9
			C223.5,167.5,222.3,161.7,222.3,153.6z"/>
	</g>
	<g id="Top_00000132783377953899868640000006382043032545175228_">
		<g>
			<g id="XMLID_00000116945524150968798450000016114010569101496254_">
				<g id="XMLID_00000098904780365156116760000009024017488174731948_">
					<path id="XMLID_00000075841319576972504250000017430656382806284689_" class="st14" d="M260,97.8c-4.8,16.4-7.1,20.5-7.2,26.2
						c-5.8,1.1-12.4-6-10.1-12.8c0,0,4.8-10.6,7.5-19.8c-0.3-3.8-1.7-12.9-3.3-17.9c-0.3-0.8-0.9-1.5-1.6-1.9
						c-2.1-1.3-3.4-3.3-5-4.9c-1.2-1.3-2.3-1.6-2.1-2c0.2-0.5,1-1.4,2.5-1c0.8,0.2,2.7,1.7,3.4,1.9c0.6,0.2-0.8-2.6-3-5.3
						c-1.3-1.5-2-2.9-2-4.4c0-0.7,0.4-1.2,0.9-1.1c0.3,0.1,0.5,0.2,0.5,0.2s-0.4-0.6,0.1-1.3c0.4-0.7,1.1-0.5,1.6,0
						c0.4,0.4,0.7,0.6,0.7,0.6c0.6-0.4,1.2-0.5,1.9,0.1c0.2,0.2,0.7,0.7,0.7,0.7c0.5-0.3,1.3-0.7,2.3,0.3c0.8,0.7,2.3,1.9,3.3,3.4
						c1,1.4,1.2,1.8,2,3.4c0.6,1.2,1.2,2.4,1.5,3.7c0.7,3.6,0,4.2,1.6,8.7c2.5,7.1,2.5,7,4.8,13.8C262.4,92.5,261,94.4,260,97.8z"/>
				</g>
			</g>
			<path class="st15" d="M250.6,69.4c0-2.2-2.4-4.1-4.4-4.8C248.7,64.8,251,66.2,250.6,69.4z"/>
		</g>
		<path class="st7" d="M237.7,102.6c0-0.1,0.1-0.2,0.1-0.3c0.3-0.8,0.7-1.6,0.9-2.4c0.1-0.3,0.2-2.4,0.3-2.5c2.2-1,4.2-2.4,5.6-4.3
			c2.2-3,2.6-7.2,0.2-10.2c-2.1-2.6-5.5-4-8.8-4.6c-2.3-0.5-5-0.4-7.3,0.1c-8.3,1.6-14.5,9.3-13.6,17.7c0.2,1.4,0.5,2.7,1.2,4
			c2.4,4.5,8.4,6.3,11.2,10.6c0.3,0.5,0.7,1.1,1.2,1.5c1.2,0.8,2.9-1.1,3.7-1.9c1.4-1.2,2.6-2.6,3.7-4.2
			C236.9,104.9,237.3,103.8,237.7,102.6z"/>
		<path class="st7" d="M225.3,92c1.4-2.2,0.1-5.1-1.5-6.9c-1.9-2.1-4.6-3.4-7.4-3.1c-2.4,0.2-4.8,1.1-6.5,2.7
			c-1.3,1.2-2.1,2.7-3.4,3.8c-2,1.8-4.8,2.5-7.5,2.8c-2.7,0.3-5.4,0.1-8.1,0.5c-1.4,0.2-3,0.7-3.5,2c-0.4,1-0.1,2.2,0.4,3.2
			c0.8,1.7,1.8,3.4,3.3,4.6c2.5,2,5.9,2.3,9.2,2.5c-2.7,0.5-5.6,0.3-8.3-0.7c2.6,2.8,6.7,3.5,10.6,3.5c3.6,0,7.4-0.7,10.1-3
			c3.4-2.8,4.9-7.7,8.9-9.5c1.1-0.5,2.5-0.8,3.3-1.7C225,92.5,225.2,92.2,225.3,92z"/>
		<g id="Chest_00000091009765552709027380000013244305092321619875_">
			<g>
				<path class="st3" d="M239.6,113.4c0,0-11.9,3.7-15.9,4.1c-2.5,1.1-4.4,2.1-4.4,2.1c-1.1,1.7-2.9,8.6-2.7,14.7
					c0.1,3,2.5,9.4,3,12.8c0.4,2.9,0,4.9-0.7,9.8c9.5,6.9,35.1,1.3,38.8-8.1c0,0-1.3-9.7-2-13.9c-1.2-7.5-0.3-9-5.1-15.6
					c-4.1-5.6-7.8-8.1-7.8-8.1C241.9,112.5,240.7,113.2,239.6,113.4z"/>
			</g>
		</g>
		<g id="Head_00000156589390410128264310000013823724485117021627_">
			<path class="st14" d="M225.7,114.5c-0.2-2.6-1-8.4-1-8.4c-0.3,0.8-2.5,1.9-5.1,0c-2.3-1.7-2.4-4.8-1.3-6.6c1.3-2,3.7-2.1,5.5,0.2
				c0.1,0.1,0.8-0.1,0.9-0.2c0.2-0.1,0.4-0.3,0.5-0.6c0.1-0.3,0.2-0.7,0.2-1c0-0.3-0.1-0.8-0.2-1.1c2.3-1,5.6-3.3,7.3-5.1
				c2.7-2.9,4-7.2,3.9-7.7c1.3,0.4,2.9,1.5,3.5,1.9c1.2,0.9,1.9,1.9,2.6,3.2c1.1,2.2,1.7,4.7,2.1,7.1c0.9,6.4,0,9.5-2.2,11.4
				c-1.1,1-1.8,1.7-4.3,2.1c0,0,0.1,0.6,0.3,2.3c0.1,0.9,0.6,1.4,1.4,1.2c1.4,1.2,5,4.2-1.4,5.9c-8.3,2.2-13.5-1-14.5-1.8
				C225.2,116.7,225.9,115.8,225.7,114.5z"/>
			<g>
				<g id="XMLID_00000091733788341218148630000011530172430374655890_">
					<path id="XMLID_00000129924361229099513140000015830651063461125539_" class="st15" d="M238,109.9c-4.5,0.6-8.6-0.3-11-3
						c0,0,0.8,2.3,2.7,3.2c4.8,2.3,8.5,1.2,8.5,1.2L238,109.9z"/>
				</g>
				<g>
					<g id="XMLID_00000127021404169660571240000011590643794927099294_">
						<path id="XMLID_00000022529431179459482740000006864861615946070404_" class="st16" d="M238.1,103l-4.5-0.8
							c-0.3,1.2,0.5,2.4,1.8,2.7C236.5,105.1,237.8,104.2,238.1,103z"/>
					</g>
					<path class="st15" d="M236.3,104.8c-0.3,0.1-0.7,0.1-1,0c-0.9-0.2-1.5-0.8-1.7-1.6C234.7,103.1,235.8,103.8,236.3,104.8z"/>
					<path class="st7" d="M230.6,96.3c0.1,0.7,0.5-0.3,1.2-0.5c0.7-0.1,1.4,0.7,1.3,0c-0.1-0.7-0.8-1.1-1.5-1
						C230.9,94.9,230.5,95.6,230.6,96.3z"/>
					<path class="st7" d="M239.2,94.4c0.1,0.7,0.4-0.2,1.1-0.4c0.7-0.1,1.5,0.6,1.4-0.1c-0.1-0.7-0.8-1.1-1.5-1
						C239.5,93.1,239.1,93.7,239.2,94.4z"/>
					<g id="XMLID_00000181049018391027378140000002392485492094150312_">
						<polygon id="XMLID_00000023265132623931706040000011609981761674223025_" class="st15" points="235,92.8 236.6,101 240.4,99 
													"/>
					</g>
					<g id="XMLID_00000018223327125971716810000014484728705655434146_">
						<path id="XMLID_00000137133719632605914960000002740710124017540524_" class="st7" d="M241.8,91.4l-2.9-0.7
							c0.2-0.8,1-1.3,1.8-1.1C241.5,89.7,242,90.6,241.8,91.4z"/>
					</g>
					<g id="XMLID_00000099628150506572626000000008094916977872656827_">
						<path id="XMLID_00000011753894861081414270000006109628971749211532_" class="st7" d="M228.6,94l2.6-1.7
							c-0.4-0.7-1.4-0.9-2.1-0.5C228.4,92.4,228.2,93.3,228.6,94z"/>
					</g>
				</g>
			</g>
		</g>
	</g>
	<path class="st14" d="M203.3,183.6c0-0.3,0-0.6,0.1-0.9c0.3-0.5,0.8-0.7,1.3-0.9c0.1,0,0.1,0,0.2-0.1c0-0.1,0-0.1,0.1-0.2
		c0-0.5,0.4-0.9,0.8-1.2c0.4-0.3,0.9-0.4,1.3-0.6c0,0,0.1,0,0.1-0.1c0.1-0.1,0.1-0.2,0.1-0.2c0.2-0.6,0.6-1.1,1.2-1.4
		c0.8-0.5,2.9-0.6,3-1.6c0.1-1.2,0.2-2.3,0.3-3.7c0.2-3.3,0.1-6.7,0.1-10c0-1.7,0.1-3.3,0.1-5c0,0,0.2-8.3-0.2-19.4
		c-0.4-11-0.8-14.3,7.5-18.7c7.6,4.6,4.3,19.5,4.3,19.5S223,152.5,223,157c0,2-0.4,4.1-0.7,6.1c-0.5,2.5-1.1,5-1.4,7.6
		c-0.9,6.7-1,8.3-0.9,9.1c0.1,1.3,0.1,2.6-0.4,3.8c-0.3,0.9-1.2,1.5-1.8,2.2c-0.4,0.5-0.9,1.2-1.3,1.6c-1.1,1.1-2.9,1.6-4.4,2
		c-1.5,0.4-2.1,0.3-3.5,1c-2.1,1-2.6-1.3-0.9-2.6c0.7-0.6,1.1-0.7,2.2-1.1c0.5-0.2,2.4-0.6,1.4-1.4c-0.9-0.8-2-0.6-3-0.3
		c-0.5,0.1-1.3,0.3-1.8,0.6c-0.5,0.2-2.3,1.1-3,1.6C203.3,186,203.2,184.8,203.3,183.6z"/>
	<g id="Character_00000169528074017253245840000014196182950779816326_">
		<g id="Top">
			<g>
				<path class="st7" d="M148.4,141.8c-1,0-2,0.2-2.9,0.6c-0.9,0.5-1.7,1.2-2.6,1.7c-1.2,0.6-2.5,0.7-3.8,0.7
					c-2.5-0.1-5.3-1-6.6-3.1c-0.5-0.8-0.8-1.8-1.3-2.6c-1.3-2.1-4-3.1-5.5-5.1c-1.5-2-1.6-4.9-0.6-7.3c0.9-2.4,2.8-4.3,4.8-5.8
					c-1.8-0.6-2.7-3.1-1.5-4.7c-0.6,1.1,0.6,2.4,1.8,2.5c1.2,0,2.3-0.8,3-1.8c0.7-1,1.3-2.1,2.1-2.9c1.7-1.6,4.3-2,6.6-1.6
					c2.9,0.5,5.8,2,8.6,1.2c0.7-0.2,1.3-0.5,1.9-1c1.2-0.9,2.1-2.2,3.2-3.1c1-0.8,2.1-1.5,3.3-2.1c2.4-1.3,5-2.2,7.6-2.7
					c5.2-0.9,10.8,0.3,14.2,4.6c0.8,1,1.4,2.1,1.6,3.4c0.1,1-0.1,2,0.1,3c0.2,1.1,1,2,1.2,3.1c0.3,1.1,0.3,2.3-0.1,3.5
					c-0.5,1.3-1.5,2.4-2.7,3.1c-1.3,0.7-2.6,1-3.7,1.9c-1,0.8-1.4,1.8-2.2,2.8c-1.7,2.3-3.7,4.2-6.3,5.4c-1.9,0.9-4.9,0.5-6.3,2.3
					c-0.3,0.4-0.6,1-0.8,1.5c-0.9,1.6-2.4,2.8-4.1,3.2C154.3,143.1,151.2,141.8,148.4,141.8z"/>
			</g>
			<g id="Arm_00000018943068822618801420000018288475147208689854_">
				<path class="st16" d="M209.3,123.6c1.8,4.1,0.9,6.6-3.3,11.8c-6.8,8.4-18.2,22-18.2,22l-11-15.6c3.1-1.4,8.1-2.9,9.6-4.5
					c6.2-6.4,9.4-9.4,10.7-11.2c0,0-4.5-14.9-5.4-16.5c-0.8-1.6-2.8-2.6-3.2-3c-3.1-2.1-3.5-3.5-5.1-6.8c-0.3-0.6-0.5-1.1-0.8-1.7
					c-0.1-0.3-0.2-0.6-0.4-0.8c-0.2-0.2-0.3-0.5,0-0.7c0.2-0.2,0.4-0.3,0.7-0.3c0.8-0.1,1.7,0.3,2.3,0.9c0.6,0.6,1.1,1.3,1.6,2
					c0.4,0.5,0.6-0.2,0.6-0.6c0.2-1.7-0.9-4.3-1.6-5.8c-0.5-1-1.1-2-1.4-3.1c-0.2-0.7-0.2-1.4,0-2.1c0.2-0.4,0.5-0.8,1-0.5
					c0.3,0.2,0.5,0.5,0.8,0.8c0.5,0.6,0.9,0.4,1.7,0.5c0.5,0.1,1,0,1.5,0.2c0.6,0.2,0.9,0.6,1.4,1.2c0.3-0.2,1-0.2,1.5,0.3
					c1.7,1.8,2.6,3.1,3.1,4.4c0.9,1.9,1.2,3.7,1.5,6.2c0.1,1.1,0.5,2.5,1.2,3.8c0.8,1.4,3.8,6.8,6.8,11.5
					C206.8,119.1,207.8,120.3,209.3,123.6z"/>
				<path class="st17" d="M188.6,100.2c3.1,1,3.9,2.9,4.5,4.1c0,0,0-1.9-1.2-3C190.6,100.1,189.5,100.1,188.6,100.2z"/>
			</g>
			<g id="Head_00000010287442240297304480000003704910830287299984_">
				<path class="st16" d="M161.3,140.9l-0.3-8.1c-0.1,1.2-2.9,2.2-5.2-0.1c-2.1-2.1-2.4-4.9-0.8-6.2c1.9-1.4,4-0.6,5.7,1.7
					c0.2,0.3,1.1-0.4,1.3-0.6c0.4-0.5,0.4-1.1,0.4-1.7c0-0.9-0.2-1.8-0.5-2.7c-0.2-0.6-0.6-1.5-0.3-2c0.2-0.3,0.5-0.5,0.7-0.8
					c0.5-0.5,1-1.1,1.4-1.7c0.4-0.6,0.9-1.2,1.3-1.8c0.7-0.9,1.4-2,1.3-3.1c1.5,0.6,3.1,1.2,4.7,1.5c1.2,0.3,2.5,0.4,3.7,0
					c-0.6-0.1-1.3-0.3-1.8-0.6c-0.4-0.3-0.8-0.7-0.7-1.2c1.3,0.6,2.7,1,4.1,1.1c0.5,0,1.3-0.1,1.7,0.1c0.4,0.3,0.6,1,0.9,1.4
					c1.1,1.9,1.9,4,2.2,6.1c1,7,0.8,10.9-1.7,12.9c-1.1,0.9-2.7,2-5.2,2.3c0,0,0,1.4,0.1,2.7c0,0.6,0.3,1.1,0.8,1.3
					c0.4,0.2,2.4,2.4-3,3.7c-5.2,1.2-9.6,3.2-12.5-1C161.9,144.5,161.3,140.9,161.3,140.9z"/>
				<g>
					<g id="XMLID_00000126295680220318447390000007669452871698925446_">
						<path id="XMLID_00000054985691209696701210000011534266311943525800_" class="st17" d="M171.1,129.3l3.6,1
							c-0.3,1-1.3,1.6-2.3,1.4C171.4,131.4,170.8,130.3,171.1,129.3z"/>
						<path class="st14" d="M171.3,130.1c1-0.1,1.9,0.6,2.1,1.5c-0.3,0.1-0.7,0.1-1,0c-0.7-0.2-1.2-0.8-1.3-1.5
							C171.1,130.1,171.2,130.1,171.3,130.1z"/>
					</g>
					<path id="XMLID_00000140698097155317157840000011130311700037801857_" class="st7" d="M178.3,118l-2.9,0.3
						c-0.1-0.8,0.5-1.5,1.3-1.6C177.5,116.6,178.2,117.2,178.3,118z"/>
					<path id="XMLID_00000030477555790684985290000008123569153308038844_" class="st7" d="M165,120.8l2.7-1.1
						c-0.3-0.8-1.1-1.1-1.9-0.8C165.1,119.1,164.7,120,165,120.8z"/>
					<path id="XMLID_00000008840377534518688110000003117107588840391311_" class="st7" d="M176.3,122.6c0.1,0.7,0.5-0.3,1.2-0.4
						c0.7-0.1,1.3,0.8,1.2,0.1c-0.1-0.7-0.7-1.1-1.3-1.1C176.7,121.4,176.3,122,176.3,122.6z"/>
					<path id="XMLID_00000114075865627015358270000018204532397796598407_" class="st7" d="M167,123.9c0.1,0.7,0.5-0.3,1.2-0.3
						c0.7-0.1,1.3,0.8,1.2,0.1c-0.1-0.7-0.7-1.1-1.3-1.1C167.4,122.7,166.9,123.3,167,123.9z"/>
					<polygon class="st17" points="177.4,126.2 173.5,128.1 172.1,120.3 					"/>
					<g id="XMLID_00000047766563307492181030000016129568803784980108_">
						<path id="XMLID_00000107547728625902842350000013578559890180190883_" class="st17" d="M174.1,137.6
							c-4.7,0.9-9.6-1.2-11.1-4.2c0,0,0.2,3,4,4.7c2.7,1.3,7.1,1.2,7.1,1.2L174.1,137.6z"/>
					</g>
				</g>
			</g>
			<g id="Chest_00000155827216014043039670000004370846119381580679_">
				<path class="st16" d="M189.7,165.7c0,0,0,1.2,0.2,5.9c0.2,5,0.2,6.5,0.2,6.5s0.6,10.2-6.9,12.8c-13.2,4.7-28.6-2.7-28.6-2.7
					s-0.1-3,1.2-7.2c1.2-4.1,0.8-7.8-0.7-12.7L189.7,165.7z"/>
				<path class="st18" d="M190.1,168.6c-6,7.1-23.7,10.3-34.6,4.7c-0.2-2.6-0.9-4.2-0.9-4.2s5.3,0.5,6.4-7.8
					c1.1-8.3-5.8-16.3-5.8-16.3l4.2-0.8c0,0,5,2.2,10.7,0.9c5.8-1.2,4.9-3.7,4.9-3.7l4.9-1.2c0,0,5.8,4.9,9.6,11.2
					c4.1,6.8,0.2,12.7,0.5,16C190.1,167.9,190.1,168.2,190.1,168.6z"/>
			</g>
			<g id="Arm_00000087386642998441362970000012541487566121844887_">
				<g id="XMLID_00000167379408756407591890000013018700147993621416_">
					<g id="XMLID_00000077316224916863631730000005992028602327393197_">
						<path id="XMLID_00000016042071218825171650000000811467267754044083_" class="st16" d="M129.6,150.3
							c16.6,8,21.3,11.8,25.1,18.9c9.4-0.9,8.5-15.5,0.5-24c0,0-16-4.5-23.3-8.5c0,0-9.4-12.3-11.5-17.2c-0.3-0.8-0.3-1.7,0-2.6
							c0.8-2.4,0.5-4.8,0.7-7.1c0.1-1.8,0.8-2.8,0.4-3c-0.5-0.3-1.8-0.4-2.7,1c-0.2,0.3-0.3,0.5-0.4,0.8c-0.1,0.3-0.2,0.7-0.4,1
							c-0.7,1.7-2.1,3-2.7,0.4c-0.3-1.5-0.5-3-0.7-4.5c-0.1-1.4,0.3-2.9,0-4.3c-0.2-0.8-0.7-2.1-1.6-2.2c-0.2,0-0.4,0.2-0.5,0.4
							c-0.2,0.5-0.2,1.1-0.5,1.6c-1-0.3-2.2,0.6-2.3,1.7c-0.9,0.2-1.7,1-2.1,1.9c-0.4,0.9-0.5,1.9-0.6,2.9c-0.4,4.2,0.1,8.3,2.3,12
							c1.2,2.1,2.8,3.9,3.8,6c0.2,0.4,0.4,0.8,0.5,1.2c3.4,7.6,4.5,10.4,7.7,17.4C122.9,146.8,124.4,147.8,129.6,150.3z"/>
					</g>
				</g>
				<path class="st17" d="M154.3,154.9c-1.9-2.2-4.4-3.5-7.2-3.9c-0.1,0-0.1,0.2,0,0.2c2.5,0.8,4.9,2.3,6.6,4.3
					c1.7,2.1,2.5,5,2.5,7.7c0,0.1,0.2,0.3,0.2,0.1C157.4,160.4,156.2,157.2,154.3,154.9z"/>
				<path class="st17" d="M115.9,112.2c-2.1,1.1-2.7,4.6-2.3,7C112.4,116.4,112.6,113.4,115.9,112.2z"/>
			</g>
		</g>
		<g id="Bottom_00000135648534057773528240000016336763496550950278_">
			<g>
				<path id="XMLID_00000057855697947334189320000002606543972963730366_" class="st16" d="M205.5,243c0,0-4.7,7.8-5.6,11
					c-0.9,3.4-1.9,4.3-2.1,8.1c0,0.8,0.1,2.5,0.1,3.2c0,0.6-0.3,1-1.1,1c-1.6,0-3.5-3.2-4.1-6.5c-0.6-3.2-0.9-10.4-0.9-11.2
					c0.1-0.8,0.5-1.7,1-2.3c0.8-1,0.9-1.1,0.9-1.1c0.8-1.4,1.6-4.2,2.4-6L205.5,243z"/>
				<g>
					<path class="st7" d="M188.1,251.3c0,0-0.5,0.6-0.6,1c-0.2,0.7,1,3.2,1.4,4.1c0.5,0.9,0.9,2.1,0.4,4.1c-0.5,2.2,0,4.4,1.1,6.5
						c1.1,2.1,3.2,4.5,6.7,6.3c3.5,1.8,5.1,0.2,5.1,0.2s1.5-1.5,0.9-2.3C202.6,270.3,188.1,251.3,188.1,251.3z"/>
					<path id="XMLID_00000014596619626382105390000017418991351251589530_" class="st2" d="M193.6,245.3c-0.1,0-0.3-0.1-0.7,0.2
						c-0.1,0.1-1.1,1.6-1.9,2.3c-0.8,0.8-2.5,2.1-3,3.4c0.3,2.8,2.5,5.1,2.4,7.7c-0.1,2.6-0.7,5.5,2.7,9.3c3.4,3.8,7.4,4.9,9,4.4
						c1.6-0.5,1.8-2.1,0.3-5.4c-1.6-3.5-1.7-10.4-1.7-10.4c0-1,0.1-2,0.2-2.9c0.1-0.9,0.6-1.9,0.8-2.8c0.1-0.4,0.2-0.9,0.1-1.3
						c-0.2-0.4-0.6-0.7-0.9-0.9c-0.6-0.4-1.2-0.8-1.9-1.1c-0.7-0.3-1.4-0.4-2.1-0.1c-0.5,0.2-1,0.5-1.5,0.6
						c-0.7,0.1-1.5-0.1-1.9-0.7c-0.6-0.8-0.4-1.4-0.2-1.8C193.4,245.7,193.6,245.3,193.6,245.3z"/>
					<path class="st1" d="M191.4,265.4c0,0,2.1-2.7,6.4-1.9c4.2,0.8,5.2,3.2,5.6,4.5c0.5,1.6,0.7,4.4-1.2,4.8
						c-2,0.5-4.2-0.2-7.3-2.5C191.9,268,191.4,265.4,191.4,265.4z"/>
					<g>
						<path class="st1" d="M194.6,253.2c0.1,0.1,0.2,0.1,0.4,0.1c0.7-0.2,4.3-0.3,5.9,1.9c0.3-0.2,0.3-0.5,0.1-1.1
							c-2.1-1.9-5.4-1.8-6.3-1.6c-0.2,0.1-0.3,0.3-0.3,0.5C194.5,253.1,194.5,253.2,194.6,253.2z"/>
						<path class="st1" d="M200.9,257.7c0.2-0.3,0.1-0.9,0-1.2c-2.1-1.7-5.2-1.6-6-1.4c-0.2,0.1-0.3,0.3-0.3,0.5
							c0,0.1,0.1,0.2,0.2,0.2c0.1,0.1,0.2,0.1,0.4,0.1C195.8,255.7,199.2,255.7,200.9,257.7z"/>
						<path class="st1" d="M201.5,263.5c0.1-0.5,0-1-0.2-1.6c-2.1-1.8-5.4-1.8-6.2-1.5c-0.2,0.1-0.3,0.3-0.3,0.5
							c0,0.1,0.1,0.2,0.2,0.2c0.1,0.1,0.2,0.1,0.4,0.1C196.1,261,200,261,201.5,263.5z"/>
						<path class="st1" d="M194.8,258.5c0.1,0.1,0.2,0.1,0.4,0.1c0.7-0.2,4.2-0.2,5.9,1.9c0.2-0.4,0.1-0.8-0.1-1.3
							c-2.1-1.7-5.2-1.6-6-1.4c-0.2,0.1-0.3,0.3-0.3,0.5C194.7,258.4,194.8,258.5,194.8,258.5z"/>
					</g>
				</g>
			</g>
			<g id="XMLID_00000072977680617384952170000009937949087002415748_">
				<path id="XMLID_00000122678464749556332300000010221431844076337798_" class="st16" d="M213.9,256.7c0,0-1.1,8.1-1.2,15
					c0,4.7,2.1,7.4,4.4,11c0.5,0.8,1.7,2.3,2.1,2.9c0.4,0.6,0.3,1.2-0.4,1.6c-1.5,1-6.8,0.4-9.4-2.2c-2.6-2.6-4.6-7.7-6-9.7
					c-0.6-0.8-1.1-1.5-1.6-2.3c-0.5-0.8-0.2-1.4-0.1-2.2c0-0.4,0.3-1.4,0.3-1.4c-0.1-1.9-0.9-8.9-1.2-10.8L213.9,256.7z"/>
				<g>
					<path class="st7" d="M199.5,277.4c0,0-0.2,0.9-0.1,1.3c0.2,0.8,2.6,2.7,3.6,3.4c0.9,0.7,1.9,1.6,2.5,3.9
						c0.6,2.4,2.3,4.4,4.5,5.9c2.1,1.5,5.5,2.9,9.9,3c4.4,0.1,5.2-2.3,5.2-2.3s0.7-2.2-0.3-2.8C223.8,289.2,199.5,277.4,199.5,277.4
						z"/>
					<path id="XMLID_00000130609938012479036330000008399006171194348973_" class="st2" d="M201.8,268.8c-0.1,0-0.3,0.1-0.6,0.5
						c-0.1,0.2-0.3,2.1-0.6,3.2c-0.4,1.2-1.4,3.3-1.2,4.8c1.8,2.6,5.2,3.9,6.4,6.5c1.2,2.6,2.2,5.8,7.5,7.9
						c5.3,2.1,9.9,1.2,11.2-0.1c1.3-1.3,0.7-3-2.5-5.5c-3.4-2.7-7.1-9.5-7.1-9.5c-0.5-0.9-0.9-2-1.3-3c-0.4-1-0.4-2.1-0.6-3.1
						c-0.1-0.5-0.2-1-0.6-1.3c-0.4-0.3-0.9-0.4-1.4-0.5c-0.8-0.1-1.6-0.2-2.4-0.1c-0.8,0.1-1.6,0.4-2.2,0.9
						c-0.4,0.4-0.7,0.9-1.2,1.3c-0.6,0.5-1.5,0.6-2.2,0.2c-1-0.5-1.1-1.2-1.1-1.7C201.9,269.3,201.8,268.8,201.8,268.8z"/>
					<path class="st1" d="M210.1,289.8c0,0,0.7-3.8,5.3-5c4.6-1.3,6.9,0.6,7.9,1.7c1.3,1.4,3,4,1.4,5.3c-1.8,1.5-4.2,1.8-8.5,1.1
						C211.9,292.1,210.1,289.8,210.1,289.8z"/>
					<g>
						<path class="st1" d="M206.9,276.2c0.1,0,0.3,0,0.4-0.1c0.6-0.5,4.1-2.4,6.9-1c0.2-0.3,0-0.7-0.5-1.2c-3-0.9-6.4,0.8-7.1,1.5
							c-0.2,0.2-0.2,0.5,0,0.6C206.8,276.1,206.8,276.2,206.9,276.2z"/>
						<path class="st1" d="M215.5,277.5c0-0.4-0.3-1-0.6-1.2c-2.9-0.6-6,1-6.7,1.6c-0.2,0.2-0.2,0.5,0,0.6c0.1,0.1,0.2,0.1,0.3,0.1
							c0.1,0,0.3,0,0.4-0.1C209.4,278.1,212.8,276.4,215.5,277.5z"/>
						<path class="st1" d="M219.2,283c-0.1-0.6-0.5-1-1.1-1.4c-3-0.8-6.3,0.9-7,1.5c-0.2,0.2-0.2,0.5,0,0.6c0.1,0.1,0.2,0.1,0.3,0.1
							c0.1,0,0.3,0,0.4-0.1C212.4,283.2,216.3,281.2,219.2,283z"/>
						<path class="st1" d="M209.9,281.3c0.1,0,0.3,0,0.4-0.1c0.6-0.5,4.1-2.3,6.8-1c0-0.4-0.3-0.9-0.8-1.2c-2.9-0.6-6,1-6.7,1.6
							c-0.2,0.2-0.2,0.5,0,0.6C209.7,281.2,209.8,281.3,209.9,281.3z"/>
					</g>
				</g>
			</g>
			<g>
				<path class="st0" d="M192.7,182.8c0,0,19.7,12,28.7,21.8c3.2,3.5,5.2,6.6,1.4,15.3c-2.9,6.7-7.8,14.1-12.4,22.8L171,193.4
					L192.7,182.8z"/>
				<path class="st2" d="M211.1,241.6c-6.2-5.9-25.2-41.4-25.2-41.4s0.9-0.1,0.9-0.1c1.5-6.6,5.7-10.6,5.7-10.6
					c0.5,2.7-0.4,8.8-2.1,10.7c2.7,2.1,10.1,8.6,19.6,16.1c1.6,1.3,5,3.8,4.6,8.5c-0.5,6.1-0.9,12.1-0.9,12.1L211.1,241.6z"/>
			</g>
			<g id="XMLID_00000149352053654529573980000010773190881045977220_">
				<path class="st0" d="M192.7,182.8L192.7,182.8l-2.6-4.7c-3.4,6.8-24.9,8.5-34.3,3c-5,11-2.4,20.4,1.1,25.9
					c2.5,4,5.4,6.5,15.6,12.2c9.5,5.3,18,9.8,20.1,11.1c1.6,0.9,1.2,4.6,1.6,9c0.4,4.6,0.8,7.1,3,17c1.1,4.8,2.2,8.9,2.2,8.9
					s8,1.1,14.1-1.8c0,0-0.2-24-0.3-29.9c-0.1-5,0.4-9.7-3.4-13.6c-3.2-3.3-23-19.8-23-19.8S194.2,195.6,192.7,182.8z"/>
			</g>
			<path class="st2" d="M157.8,186.4l0.7,0.2c-1.4,7,0.1,13,4.7,18c3.1-1.9,2.6-3.9,1.5-7.3c-0.3-1-0.7-2.2-0.9-3.5
				c-0.6-2.7-0.8-4.8-0.8-6.5l0.6-0.1c0,1.6,0.2,3.7,0.8,6.4c0.3,1.3,0.6,2.5,0.9,3.5c1,3.4,1.7,5.7-1.7,7.9
				c1.1,1.1,2.3,2.2,3.8,3.3c7,5.3,16.9,11.6,22.8,15.3c2.1,1.3,3.7,2.3,4.5,2.9c3.4,2.3,3.5,3.6,3.2,9.5
				c-0.3,5.1,2.7,22.3,4.3,29.3c-0.2,0-0.4,0-0.6,0c-1.6-7.2-4.5-24.2-4.2-29.3c0.3-5.9,0.2-6.9-2.9-9c-0.8-0.6-2.5-1.6-4.5-2.9
				c-5.9-3.8-15.9-10-22.9-15.3C156.9,201,156.8,194.4,157.8,186.4z"/>
			<path class="st2" d="M156.2,179.9l-1.8,5.1c0,0,7.3,5.2,22.1,3.1c15.7-2.3,15.1-7.5,15.1-7.5l-1.4-4.2c0,0-3.1,4.7-14,6
				C165.1,183.7,156.2,179.9,156.2,179.9z"/>
		</g>
	</g>
	<g id="Seats">
		<g id="Seat_00000047050033470667809980000007057252626570083474_">
			<path id="XMLID_00000044138081185901568410000012433152056297954719_" class="st2" d="M273.8,266.8l11.5-0.2l17.5-10
				c2.9-1.6,7.6-1.9,10.6-0.5l21.3,9.6l14.6-0.3v8.5l0,0c0,1-0.7,1.9-2.1,2.7l-38.2,22c-2.9,1.6-7.2,1.3-9.8-0.8l-23.7-19.2
				c-1.2-1-1.7-2.1-1.7-3.3c0,0,0,0,0,0L273.8,266.8z"/>
			<path id="XMLID_00000053530148833882819740000007382413882236632480_" class="st0" d="M347.2,268.1l-38.2,22
				c-2.9,1.6-7.2,1.3-9.8-0.8l-23.7-19.2c-2.6-2.1-2.3-5.1,0.5-6.7l26.7-15.3c2.9-1.6,7.6-1.9,10.6-0.5l33.5,15.1
				C350,264,350.1,266.4,347.2,268.1z"/>
			<path id="XMLID_00000064346101122910487940000013748177819891853971_" class="st7" d="M273.8,266.8v8.5c0,0,0,0,0,0
				c0,1.1,0.5,2.3,1.7,3.3l23.7,19.2c1.2,1,2.9,1.6,4.6,1.8v-8.5c-1.7-0.2-3.4-0.8-4.6-1.8l-23.7-19.3
				C274.4,269.1,273.8,268,273.8,266.8z"/>
			<path id="XMLID_00000020391522617056202170000008802794196776937871_" class="st7" d="M266.1,263.7c0.1,0.9,0.5,1.5,1.1,1.8
				l11.2,4.8l0,0c-0.6-0.3-1.1-0.9-1.2-1.8l-4-44c-0.2-1.8,1.1-4.1,2.8-5.1l22.9-13.2c0.9-0.5,1.8-0.6,2.6-0.3l0,0l-11.1-4.7l0,0
				c-0.8-0.3-1.7-0.3-2.6,0.3l-22.9,13.2c-1.7,1-3,3.3-2.8,5.1L266.1,263.7z"/>
			<path id="XMLID_00000128473484447576397130000005424501149778621603_" class="st2" d="M299,206.1l-22.9,13.2
				c-1.7,1-3,3.3-2.8,5.1l4,44c0.2,1.8,1.7,2.5,3.4,1.5l32.6-18.8c1.7-1,2.6-3.2,2.1-5l-12.3-38.5
				C302.6,205.8,300.7,205.2,299,206.1z"/>
			<path id="XMLID_00000171687648585715419730000016813720755335286440_" class="st0" d="M262.8,216.9l11.2,4.7
				c0.5-0.9,1.3-1.7,2.1-2.3l22.9-13.2c0.9-0.5,1.8-0.6,2.6-0.3l0,0l-11.1-4.7l0,0c-0.8-0.3-1.7-0.3-2.6,0.3l-22.9,13.2
				C264.1,215.1,263.3,215.9,262.8,216.9z"/>
			<path id="XMLID_00000103264227877311780470000008497605359432607665_" class="st7" d="M266.2,210.3c-0.4-2.6-0.9-6.5-1.6-10.9
				c-1.1-7.9,3.4-17.4,10.1-21.2c3.1-1.8,6.1-2,8.5-1.1l0,0l8.5,3.6l-2.7,5.9l1.4,9.6c0.3,1.8-0.9,4.1-2.6,5.1l-7.4,4.3l-4.6,10.1
				l-8.4-3.6l0,0l0,0l0,0C266.8,211.8,266.3,211.2,266.2,210.3z"/>
			<path id="XMLID_00000114795460489764017450000005521780117044859050_" class="st0" d="M276.9,193.7l-11-4.7
				c1.7-4.6,4.9-8.7,8.7-10.9c3.1-1.8,6.1-2,8.5-1.1l0,0l8.5,3.6l-2.7,5.9l0.3,1.9L276.9,193.7z"/>
			<path id="XMLID_00000023241389239913601180000013614192640999801267_" class="st2" d="M274.6,213.9c-0.4-2.6-0.9-6.5-1.6-10.9
				c-1.1-7.9,3.4-17.4,10.1-21.2c6.7-3.9,13-0.6,14.2,7.2l1.6,10.9c0.3,1.8-0.9,4.1-2.6,5.1l-18.1,10.4
				C276.5,216.4,274.8,215.7,274.6,213.9z"/>
			<path id="XMLID_00000157286019329386619330000016782181374158385338_" class="st0" d="M299.6,215.5c4.4,9.4,7.2,19.2,8.6,29.5
				c0.2,1.8-0.8,4.3-2.4,5.5c-5.4,4-11.4,7.5-18.3,10.5c-1.8,0.8-3.7-0.1-4-1.9c-2.3-11.9-4.1-22.9-4.7-32.2c-0.1-1.8,1-4.3,2.6-5.4
				c4.3-3.1,8.7-5.7,13.3-7.7C296.5,212.9,298.8,213.7,299.6,215.5z"/>
			<path id="XMLID_00000106860960269611014990000003357522469856829868_" class="st19" d="M283.9,260.1c-0.2-0.3-0.3-0.6-0.4-1
				c-2.3-11.9-4.1-22.9-4.7-32.2c-0.1-0.9,0.2-2,0.7-3c1.1-1.7,3.6,12.3,4.8,20.9c1.2,8.4,2.3,17,0.5,16.1c-0.1,0-0.1-0.1-0.2-0.1
				C284.4,260.6,284.2,260.4,283.9,260.1z"/>
			<g id="XMLID_00000130634579564760413300000009047216806906876546_" class="st19">
				<path id="XMLID_00000105425085444477858620000001348308376688604560_" d="M305.8,244.4c0,0-0.3,0.2-0.7,0.5
					c-0.5,0.3-1.1,0.7-1.9,1.2c-1.6,1-3.7,2.3-5.8,3.6c-2.2,1.2-4.4,2.4-6.1,3.3c-0.9,0.4-1.6,0.8-2.1,1c-0.5,0.2-0.8,0.4-0.8,0.4
					s0.3-0.1,0.9-0.2c0.6-0.2,1.4-0.3,2.3-0.7c0.9-0.3,2-0.7,3.1-1.2c0.5-0.3,1.1-0.5,1.7-0.8c0.6-0.3,1.1-0.6,1.7-0.9
					c1.1-0.6,2.2-1.3,3.1-2c0.9-0.7,1.8-1.4,2.5-2c0.7-0.6,1.2-1.2,1.6-1.6C305.6,244.6,305.8,244.4,305.8,244.4z"/>
				<path id="XMLID_00000178927254483933622140000009992598340639624108_" d="M305,238.8c0,0-0.3,0.2-0.7,0.5
					c-0.5,0.3-1.1,0.7-1.9,1.2c-1.6,1-3.7,2.3-5.8,3.6c-2.2,1.2-4.4,2.4-6.1,3.3c-0.9,0.4-1.6,0.8-2.1,1c-0.5,0.2-0.8,0.4-0.8,0.4
					s0.3-0.1,0.9-0.2c0.6-0.2,1.4-0.3,2.3-0.7c0.9-0.3,2-0.7,3.1-1.2c0.5-0.3,1.1-0.5,1.7-0.8c0.6-0.3,1.1-0.6,1.7-0.9
					c1.1-0.6,2.2-1.3,3.1-2c0.9-0.7,1.8-1.4,2.5-2c0.7-0.6,1.2-1.2,1.6-1.6C304.8,239,305,238.8,305,238.8z"/>
				<path id="XMLID_00000181776932437650253630000013198171039594738084_" d="M303,234.3c0,0-0.3,0.1-0.7,0.4
					c-0.4,0.3-1,0.7-1.8,1.1c-1.4,0.9-3.4,2.1-5.4,3.2c-2,1.1-4.1,2.1-5.7,2.9c-0.8,0.4-1.5,0.7-1.9,0.9c-0.5,0.2-0.7,0.4-0.7,0.4
					s0.3-0.1,0.8-0.2c0.5-0.1,1.3-0.3,2.2-0.6c0.9-0.3,1.9-0.6,2.9-1c0.5-0.2,1.1-0.4,1.6-0.7c0.5-0.2,1.1-0.5,1.6-0.8
					c0.5-0.3,1-0.6,1.5-0.9c0.5-0.3,0.9-0.6,1.4-0.9c0.9-0.6,1.7-1.3,2.3-1.9c0.6-0.6,1.1-1.1,1.4-1.5
					C302.8,234.5,303,234.3,303,234.3z"/>
				<path id="XMLID_00000026145189837244202900000002711124430806225548_" d="M301.7,229.1c0,0-0.2,0.1-0.7,0.4
					c-0.4,0.3-1,0.6-1.7,1.1c-1.4,0.9-3.3,2.1-5.3,3.1c-2,1-4,2-5.6,2.7c-0.8,0.4-1.4,0.7-1.9,0.9c-0.4,0.2-0.7,0.4-0.7,0.4
					s0.3-0.1,0.8-0.2c0.5-0.1,1.2-0.3,2.1-0.5c0.9-0.2,1.8-0.6,2.9-1c0.5-0.2,1-0.4,1.6-0.6c0.5-0.2,1-0.5,1.6-0.8
					c0.5-0.3,1-0.6,1.5-0.9c0.5-0.3,0.9-0.6,1.4-0.9c0.9-0.6,1.6-1.2,2.2-1.8c0.6-0.6,1.1-1.1,1.4-1.4
					C301.5,229.3,301.7,229.1,301.7,229.1z"/>
				<path id="XMLID_00000081623339900141757320000001537031259381569673_" d="M300.1,224.2c0,0-0.2,0.1-0.6,0.4
					c-0.4,0.2-0.9,0.6-1.6,1c-1.3,0.8-3.1,1.9-5,2.9c-1.9,0.9-3.8,1.8-5.3,2.5c-1.5,0.7-2.4,1.2-2.4,1.2s1.1-0.2,2.7-0.6
					c1.6-0.4,3.7-1.1,5.7-2.1c0.5-0.3,1-0.5,1.4-0.8c0.5-0.3,0.9-0.6,1.3-0.8c0.8-0.6,1.5-1.2,2.1-1.7
					C299.5,225,300.1,224.2,300.1,224.2z"/>
				<path id="XMLID_00000168823562112855202890000013949158266073142924_" d="M297.3,219.6c0,0-0.8,0.5-2,1.2
					c-1.2,0.7-2.7,1.7-4.3,2.5c-1.6,0.8-3.3,1.6-4.5,2.3c-1.3,0.6-2.1,1.1-2.1,1.1s1-0.1,2.4-0.5c1.4-0.4,3.2-1,4.9-1.9
					c0.4-0.2,0.8-0.5,1.2-0.7c0.4-0.2,0.8-0.5,1.1-0.8c0.7-0.5,1.3-1,1.8-1.5C296.8,220.3,297.3,219.6,297.3,219.6z"/>
			</g>
			<path id="XMLID_00000026132973192308644040000001969107730002705084_" class="st2" d="M317.2,257.1c6,1.1,12,4.2,17.9,8.6
				c1.6,1.2,1.6,3.2,0,4.4c-6.6,4.9-14.3,9.3-23,13.2c-1.8,0.8-4.8,0.7-6.5-0.2c-5.2-2.7-9.8-5.9-13.7-9.8c-1.4-1.4-1.2-3.6,0.4-4.7
				c6.1-4.4,12.1-8,18-10.6C312.1,257.2,315.2,256.7,317.2,257.1z"/>
			<g id="XMLID_00000180328642513514391350000010343919137946603392_" class="st20">
				<path id="XMLID_00000119096704525113817300000011957736108154921103_" d="M331.8,267.9c0,0-0.4,0.1-1,0.3
					c-0.6,0.2-1.6,0.5-2.7,0.9c-2.2,0.8-5,2.1-7.7,3.6c-2.7,1.5-5.3,3.3-7.1,4.8c-1.8,1.5-2.9,2.6-2.9,2.6s1.3-0.8,3.3-2
					c2-1.2,4.6-2.8,7.2-4.3c2.7-1.5,5.4-3,7.4-4c1-0.5,1.9-1,2.5-1.3C331.5,268.1,331.8,267.9,331.8,267.9z"/>
				<path id="XMLID_00000173856093536976093840000009594568026874576804_" d="M326.1,264.6c0,0-0.4,0.1-1,0.3
					c-0.6,0.2-1.6,0.5-2.7,0.9c-2.2,0.8-5,2.1-7.7,3.6c-2.7,1.5-5.3,3.3-7.1,4.8c-1.8,1.5-2.9,2.6-2.9,2.6s1.3-0.8,3.3-2
					c2-1.2,4.6-2.8,7.2-4.3c2.7-1.5,5.4-3,7.4-4c1-0.5,1.9-1,2.5-1.3C325.7,264.8,326.1,264.6,326.1,264.6z"/>
				<path id="XMLID_00000020359526023203110190000014632794250873620911_" d="M321.2,261.8c0,0-0.4,0.1-1,0.3
					c-0.6,0.2-1.6,0.5-2.7,0.9c-2.2,0.8-5,2.1-7.7,3.6c-2.7,1.5-5.3,3.3-7.1,4.8c-1.8,1.5-2.9,2.6-2.9,2.6s1.3-0.8,3.3-2
					c2-1.2,4.6-2.8,7.2-4.3c2.7-1.5,5.4-3,7.4-4c1-0.5,1.9-1,2.5-1.3C320.8,262,321.2,261.8,321.2,261.8z"/>
				<path id="XMLID_00000151531853864798105370000000666021222108059783_" d="M315.8,259.5c0,0-0.3,0.1-0.9,0.3
					c-0.6,0.2-1.4,0.4-2.4,0.8c-2,0.7-4.6,1.9-7.1,3.3c-2.5,1.4-4.8,3-6.5,4.4c-1.6,1.4-2.6,2.4-2.6,2.4s0.3-0.2,0.8-0.5
					c0.5-0.3,1.3-0.8,2.2-1.3c1.8-1.1,4.2-2.6,6.7-3.9c2.4-1.4,4.9-2.7,6.8-3.7c0.9-0.5,1.7-0.9,2.3-1.2
					C315.5,259.7,315.8,259.5,315.8,259.5z"/>
			</g>
		</g>
		<g id="Seat_00000164489092895859037120000016365681907615457164_">
			<path id="XMLID_00000018230607692919541370000005768715149715229082_" class="st2" d="M221.9,297.7l11.5-0.2l17.5-10
				c2.9-1.6,7.6-1.9,10.6-0.5l21.3,9.6l14.6-0.3v8.5l0,0c0,1-0.7,1.9-2.1,2.7l-38.2,22c-2.9,1.6-7.2,1.3-9.8-0.8l-23.7-19.2
				c-1.2-1-1.7-2.1-1.7-3.3c0,0,0,0,0,0L221.9,297.7z"/>
			<path id="XMLID_00000172400995768384112010000016334386344481363094_" class="st0" d="M295.4,299l-38.2,22
				c-2.9,1.6-7.2,1.3-9.8-0.8L223.7,301c-2.6-2.1-2.3-5.1,0.5-6.7l26.7-15.3c2.9-1.6,7.6-1.9,10.6-0.5l33.5,15.1
				C298.1,294.9,298.2,297.3,295.4,299z"/>
			<path id="XMLID_00000157295265375239708980000011677137382047890851_" class="st7" d="M221.9,297.7v8.5c0,0,0,0,0,0
				c0,1.1,0.5,2.3,1.7,3.3l23.7,19.2c1.2,1,2.9,1.6,4.6,1.8V322c-1.7-0.2-3.4-0.8-4.6-1.8L223.7,301
				C222.5,300,221.9,298.9,221.9,297.7z"/>
			<path id="XMLID_00000073687794089926193470000018349996988425753998_" class="st7" d="M214.3,294.6c0.1,0.9,0.5,1.5,1.1,1.8
				l11.2,4.8l0,0c-0.6-0.3-1.1-0.9-1.2-1.8l-4-44c-0.2-1.8,1.1-4.1,2.8-5.1l22.9-13.2c0.9-0.5,1.8-0.6,2.6-0.3l0,0l-11.1-4.7l0,0
				c-0.8-0.3-1.7-0.3-2.6,0.3l-22.9,13.2c-1.7,1-3,3.3-2.8,5.1L214.3,294.6z"/>
			<path id="XMLID_00000183948984075774160230000015708004745009278387_" class="st2" d="M247.1,237l-22.9,13.2
				c-1.7,1-3,3.3-2.8,5.1l4,44c0.2,1.8,1.7,2.5,3.4,1.5l32.6-18.8c1.7-1,2.6-3.2,2.1-5l-12.3-38.5
				C250.7,236.7,248.9,236.1,247.1,237z"/>
			<path id="XMLID_00000101789807098117494690000000474126796897227440_" class="st0" d="M210.9,247.8l11.2,4.7
				c0.5-0.9,1.3-1.7,2.1-2.3l22.9-13.2c0.9-0.5,1.8-0.6,2.6-0.3l0,0l-11.1-4.7l0,0c-0.8-0.3-1.7-0.3-2.6,0.3l-22.9,13.2
				C212.2,246,211.5,246.8,210.9,247.8z"/>
			<path id="XMLID_00000051362925677708499620000016272694992686100141_" class="st7" d="M214.3,241.2c-0.4-2.6-0.9-6.5-1.6-10.9
				c-1.1-7.9,3.4-17.4,10.1-21.2c3.1-1.8,6.1-2,8.5-1.1l0,0l8.5,3.6l-2.7,5.9l1.4,9.6c0.3,1.8-0.9,4.1-2.6,5.1l-7.4,4.3l-4.6,10.1
				l-8.4-3.6l0,0l0,0l0,0C214.9,242.8,214.5,242.1,214.3,241.2z"/>
			<path id="XMLID_00000078023257602843424230000003059319218391066272_" class="st0" d="M225.1,224.6l-11-4.7
				c1.7-4.6,4.9-8.7,8.7-10.9c3.1-1.8,6.1-2,8.5-1.1l0,0l8.5,3.6l-2.7,5.9l0.3,1.9L225.1,224.6z"/>
			<path id="XMLID_00000072280446622375489190000011717546527962535808_" class="st2" d="M222.7,244.8c-0.4-2.6-0.9-6.5-1.6-10.9
				c-1.1-7.9,3.4-17.4,10.1-21.2c6.7-3.9,13-0.6,14.2,7.2l1.6,10.9c0.3,1.8-0.9,4.1-2.6,5.1l-18.1,10.4
				C224.6,247.3,223,246.6,222.7,244.8z"/>
			<path id="XMLID_00000116944209751763078580000008417960410522759320_" class="st0" d="M247.7,246.4c4.4,9.4,7.2,19.2,8.6,29.5
				c0.2,1.8-0.8,4.3-2.4,5.5c-5.4,4-11.4,7.5-18.3,10.5c-1.8,0.8-3.7-0.1-4-1.9c-2.3-11.9-4.1-22.9-4.7-32.2c-0.1-1.8,1-4.3,2.6-5.4
				c4.3-3.1,8.7-5.7,13.3-7.7C244.7,243.8,246.9,244.6,247.7,246.4z"/>
			<path id="XMLID_00000060024444241628813650000009728737656533786003_" class="st19" d="M232,291c-0.2-0.3-0.3-0.6-0.4-1
				c-2.3-11.9-4.1-22.9-4.7-32.2c-0.1-0.9,0.2-2,0.7-3c1.1-1.7,3.6,12.3,4.8,20.9c1.2,8.4,2.3,17,0.5,16.1c-0.1,0-0.1-0.1-0.2-0.1
				C232.5,291.5,232.3,291.3,232,291z"/>
			<g id="XMLID_00000099625599295017751290000007817154876205557120_" class="st19">
				<path id="XMLID_00000002365693323109191080000009785480517392896657_" d="M253.9,275.3c0,0-0.3,0.2-0.7,0.5
					c-0.5,0.3-1.1,0.7-1.9,1.2c-1.6,1-3.7,2.3-5.8,3.6c-2.2,1.2-4.4,2.4-6.1,3.3c-0.9,0.4-1.6,0.8-2.1,1c-0.5,0.2-0.8,0.4-0.8,0.4
					s0.3-0.1,0.9-0.2c0.6-0.2,1.4-0.3,2.3-0.7c0.9-0.3,2-0.7,3.1-1.2c0.5-0.3,1.1-0.5,1.7-0.8c0.6-0.3,1.1-0.6,1.7-0.9
					c1.1-0.6,2.2-1.3,3.1-2c0.9-0.7,1.8-1.4,2.5-2c0.7-0.6,1.2-1.2,1.6-1.6C253.7,275.5,253.9,275.3,253.9,275.3z"/>
				<path id="XMLID_00000069374010334243270180000015881364827539558291_" d="M253.1,269.7c0,0-0.3,0.2-0.7,0.5
					c-0.5,0.3-1.1,0.7-1.9,1.2c-1.6,1-3.7,2.3-5.8,3.6c-2.2,1.2-4.4,2.4-6.1,3.3c-0.9,0.4-1.6,0.8-2.1,1c-0.5,0.2-0.8,0.4-0.8,0.4
					s0.3-0.1,0.9-0.2c0.6-0.2,1.4-0.3,2.3-0.7c0.9-0.3,2-0.7,3.1-1.2c0.5-0.3,1.1-0.5,1.7-0.8c0.6-0.3,1.1-0.6,1.7-0.9
					c1.1-0.6,2.2-1.3,3.1-2c0.9-0.7,1.8-1.4,2.5-2c0.7-0.6,1.2-1.2,1.6-1.6C252.9,270,253.1,269.7,253.1,269.7z"/>
				<path id="XMLID_00000169538162838601177160000011595513117011763585_" d="M251.1,265.2c0,0-0.3,0.1-0.7,0.4
					c-0.4,0.3-1,0.7-1.8,1.1c-1.4,0.9-3.4,2.1-5.4,3.2c-2,1.1-4.1,2.1-5.7,2.9c-0.8,0.4-1.5,0.7-1.9,0.9c-0.5,0.2-0.7,0.4-0.7,0.4
					s0.3-0.1,0.8-0.2c0.5-0.1,1.3-0.3,2.2-0.6c0.9-0.3,1.9-0.6,2.9-1c0.5-0.2,1.1-0.4,1.6-0.7c0.5-0.2,1.1-0.5,1.6-0.8
					c0.5-0.3,1-0.6,1.5-0.9c0.5-0.3,0.9-0.6,1.4-0.9c0.9-0.6,1.7-1.3,2.3-1.9c0.6-0.6,1.1-1.1,1.4-1.5
					C250.9,265.4,251.1,265.2,251.1,265.2z"/>
				<path id="XMLID_00000028284753596097870880000017205897749696065159_" d="M249.8,260c0,0-0.2,0.1-0.7,0.4
					c-0.4,0.3-1,0.6-1.7,1.1c-1.4,0.9-3.3,2.1-5.3,3.1c-2,1-4,2-5.6,2.7c-0.8,0.4-1.4,0.7-1.9,0.9c-0.4,0.2-0.7,0.4-0.7,0.4
					s0.3-0.1,0.8-0.2c0.5-0.1,1.2-0.3,2.1-0.5c0.9-0.2,1.8-0.6,2.9-1c0.5-0.2,1-0.4,1.6-0.6c0.5-0.2,1-0.5,1.6-0.8
					c0.5-0.3,1-0.6,1.5-0.9c0.5-0.3,0.9-0.6,1.4-0.9c0.9-0.6,1.6-1.2,2.2-1.8c0.6-0.6,1.1-1.1,1.4-1.4
					C249.7,260.3,249.8,260,249.8,260z"/>
				<path id="XMLID_00000040566387979049726150000014548620113009326780_" d="M248.2,255.1c0,0-0.2,0.1-0.6,0.4
					c-0.4,0.2-0.9,0.6-1.6,1c-1.3,0.8-3.1,1.9-5,2.9c-1.9,0.9-3.8,1.8-5.3,2.5c-1.5,0.7-2.4,1.2-2.4,1.2s1.1-0.2,2.7-0.6
					c1.6-0.4,3.7-1.1,5.7-2.1c0.5-0.3,1-0.5,1.4-0.8c0.5-0.3,0.9-0.6,1.3-0.8c0.8-0.6,1.5-1.2,2.1-1.7
					C247.6,256,248.2,255.1,248.2,255.1z"/>
				<path id="XMLID_00000170962665699865155630000013358564545068050863_" d="M245.4,250.5c0,0-0.8,0.5-2,1.2
					c-1.2,0.7-2.7,1.7-4.3,2.5c-1.6,0.8-3.3,1.6-4.5,2.3c-1.3,0.6-2.1,1.1-2.1,1.1s1-0.1,2.4-0.5c1.4-0.4,3.2-1,4.9-1.9
					c0.4-0.2,0.8-0.5,1.2-0.7c0.4-0.2,0.8-0.5,1.1-0.8c0.7-0.5,1.3-1,1.8-1.5C244.9,251.2,245.4,250.5,245.4,250.5z"/>
			</g>
			<path id="XMLID_00000142164196509856211750000014233781819926859938_" class="st2" d="M265.3,288c6,1.1,12,4.2,17.9,8.6
				c1.6,1.2,1.6,3.2,0,4.4c-6.6,4.9-14.3,9.3-23,13.2c-1.8,0.8-4.8,0.7-6.5-0.2c-5.2-2.7-9.8-5.9-13.7-9.8c-1.4-1.4-1.2-3.6,0.4-4.7
				c6.1-4.4,12.1-8,18-10.6C260.2,288.1,263.3,287.7,265.3,288z"/>
			<g id="XMLID_00000059299004362505624760000004363136635987123339_" class="st20">
				<path id="XMLID_00000052106617565485706000000009069981234956434366_" d="M280,298.8c0,0-0.4,0.1-1,0.3
					c-0.6,0.2-1.6,0.5-2.7,0.9c-2.2,0.8-5,2.1-7.7,3.6c-2.7,1.5-5.3,3.3-7.1,4.8c-1.8,1.5-2.9,2.6-2.9,2.6s1.3-0.8,3.3-2
					c2-1.2,4.6-2.8,7.2-4.3c2.7-1.5,5.4-3,7.4-4c1-0.5,1.9-1,2.5-1.3C279.6,299,280,298.8,280,298.8z"/>
				<path id="XMLID_00000029743700564339945070000013595254137328343956_" d="M274.2,295.5c0,0-0.4,0.1-1,0.3
					c-0.6,0.2-1.6,0.5-2.7,0.9c-2.2,0.8-5,2.1-7.7,3.6c-2.7,1.5-5.3,3.3-7.1,4.8c-1.8,1.5-2.9,2.6-2.9,2.6s1.3-0.8,3.3-2
					c2-1.2,4.6-2.8,7.2-4.3c2.7-1.5,5.4-3,7.4-4c1-0.5,1.9-1,2.5-1.3C273.9,295.7,274.2,295.5,274.2,295.5z"/>
				<path id="XMLID_00000012442828255019929130000005239793522703579789_" d="M269.3,292.7c0,0-0.4,0.1-1,0.3
					c-0.6,0.2-1.6,0.5-2.7,0.9c-2.2,0.8-5,2.1-7.7,3.6c-2.7,1.5-5.3,3.3-7.1,4.8c-1.8,1.5-2.9,2.6-2.9,2.6s1.3-0.8,3.3-2
					c2-1.2,4.6-2.8,7.2-4.3c2.7-1.5,5.4-3,7.4-4c1-0.5,1.9-1,2.5-1.3C269,292.9,269.3,292.7,269.3,292.7z"/>
				<path id="XMLID_00000181786059119726073070000004648935229678098861_" d="M263.9,290.4c0,0-0.3,0.1-0.9,0.3
					c-0.6,0.2-1.4,0.4-2.4,0.8c-2,0.7-4.6,1.9-7.1,3.3c-2.5,1.4-4.8,3-6.5,4.4c-1.6,1.4-2.6,2.4-2.6,2.4s0.3-0.2,0.8-0.5
					c0.5-0.3,1.3-0.8,2.2-1.3c1.8-1.1,4.2-2.6,6.7-3.9c2.4-1.4,4.9-2.7,6.8-3.7c0.9-0.5,1.7-0.9,2.3-1.2
					C263.6,290.6,263.9,290.4,263.9,290.4z"/>
			</g>
		</g>
	</g>
	<g id="Character_00000164495745671778292880000004342727798111220611_">
		<path class="st3" d="M267.7,276.6c-0.9-3.3-1.8-3.1,1.2-4.7c4.1-2.1,8.3-4.1,9-3.2c0.7,0.9,2.1,5,2.4,6.7c0.3,1.7-5.9,3.1-8.5,3.6
			C268,279.7,268.3,278.7,267.7,276.6z"/>
		<g id="Character_00000174590369688833698700000016816604523801633669_">
			<g id="Bottom_00000140704604016118964650000002840732139792244125_">
				<g>
					<path id="XMLID_00000154387109919517841680000006117350694029051061_" class="st21" d="M330.9,309.4c0,0-4.2,9-4.5,12.6
						c-0.4,3.8-1.3,5-0.9,9.1c0.1,0.9,0.5,2.7,0.6,3.4c0.1,0.6-0.2,1.2-1,1.3c-1.6,0.3-4.2-2.9-5.4-6.3c-1.1-3.4-2.6-11-2.7-11.9
						c-0.1-0.9,0.3-1.9,0.6-2.6c0.6-1.2,0.8-1.3,0.8-1.3c0.6-1.6,1-4.7,1.6-6.9L330.9,309.4z"/>
					<g>
						<path class="st7" d="M313.7,320.8c0,0-0.4,0.7-0.5,1.2c-0.1,0.7,1.5,3.3,2.1,4.2c0.6,0.9,1.2,2.1,1,4.3
							c-0.2,2.4,0.8,4.8,2.2,6.8c1.5,2.1,4.1,4.3,8,5.7c3.9,1.4,5.4-0.5,5.4-0.5s1.3-1.9,0.6-2.7
							C331.8,339.1,313.7,320.8,313.7,320.8z"/>
						<path id="XMLID_00000013179264911990443850000002190002814957945502_" class="st0" d="M318.5,313.6c-0.1,0-0.3-0.1-0.7,0.3
							c-0.1,0.1-0.9,1.9-1.6,2.8c-0.7,1-2.3,2.6-2.6,4.1c0.8,3,3.5,5.2,3.7,7.9c0.3,2.8,0.2,6,4.3,9.6c4.1,3.6,8.5,4.1,10.1,3.3
							c1.6-0.8,1.5-2.5-0.5-5.8c-2.2-3.5-3.4-11-3.4-11c-0.2-1-0.2-2.1-0.3-3.2c0-1,0.3-2.1,0.4-3.1c0.1-0.5,0.1-1-0.1-1.4
							c-0.2-0.4-0.7-0.7-1.1-0.9c-0.7-0.3-1.4-0.7-2.2-0.8c-0.8-0.2-1.6-0.2-2.3,0.2c-0.5,0.2-0.9,0.6-1.5,0.8
							c-0.7,0.3-1.6,0.1-2.1-0.5c-0.8-0.8-0.6-1.5-0.5-2C318.4,314,318.5,313.6,318.5,313.6z"/>
						<path class="st1" d="M319.4,335.5c0,0,1.8-3.3,6.3-3.1c4.5,0.2,6,2.6,6.6,4c0.7,1.7,1.5,4.6-0.4,5.4c-2.1,0.8-4.4,0.4-8-1.6
							C320.3,338.2,319.4,335.5,319.4,335.5z"/>
						<g>
							<path class="st1" d="M320.8,321.9c0.1,0.1,0.3,0.1,0.4,0c0.7-0.3,4.5-0.9,6.5,1.2c0.3-0.2,0.3-0.6-0.1-1.2
								c-2.5-1.7-6-1.2-6.9-0.8c-0.2,0.1-0.3,0.4-0.2,0.6C320.6,321.8,320.7,321.9,320.8,321.9z"/>
							<path class="st1" d="M328.1,325.8c0.2-0.4,0-1-0.2-1.3c-2.4-1.5-5.7-0.9-6.5-0.6c-0.2,0.1-0.3,0.4-0.2,0.6
								c0,0.1,0.1,0.2,0.2,0.2c0.1,0.1,0.3,0.1,0.4,0C322.4,324.5,326,323.9,328.1,325.8z"/>
							<path class="st1" d="M329.6,332c0-0.6-0.1-1.1-0.5-1.7c-2.4-1.6-5.9-1.1-6.8-0.7c-0.2,0.1-0.3,0.4-0.2,0.6
								c0,0.1,0.1,0.2,0.2,0.2c0.1,0.1,0.3,0.1,0.4,0C323.6,330.1,327.7,329.4,329.6,332z"/>
							<path class="st1" d="M321.9,327.6c0.1,0.1,0.3,0.1,0.4,0c0.7-0.3,4.4-0.9,6.4,1.1c0.1-0.4,0-0.9-0.3-1.4
								c-2.4-1.5-5.7-0.9-6.5-0.6c-0.2,0.1-0.3,0.4-0.2,0.6C321.7,327.5,321.8,327.5,321.9,327.6z"/>
						</g>
					</g>
				</g>
				<g id="XMLID_00000102511918185562706520000007172734018944042921_">
					<path id="XMLID_00000017503426725763969830000001101409081491496377_" class="st21" d="M333.6,321.3c0,0,1.6,10.9,3.4,16
						c1.6,4.6,2.5,6.4,5.2,9.9c0.6,0.7,2,2.2,2.4,2.8c0.4,0.5,0.5,1.1-0.2,1.7c-1.3,1.2-6.7,1.2-9.7-1.2c-2.9-2.4-5.5-7.4-7.2-9.3
						c-0.6-0.7-1.3-1.4-1.8-2.2c-0.6-0.7-0.4-1.4-0.4-2.2c0-0.4,0.1-1.4,0.1-1.4c-0.3-1.9-1.3-5-1.8-6.8L333.6,321.3z"/>
					<g>
						<path class="st7" d="M324,343.8c0,0-0.1,0.9,0.1,1.4c0.3,0.7,2.9,2.5,3.9,3.1c1,0.6,2.1,1.4,2.9,3.7c0.9,2.4,2.9,4.2,5.2,5.5
							c2.3,1.3,5.8,2.3,10.2,1.9c4.4-0.4,4.9-2.9,4.9-2.9s0.4-2.4-0.6-2.8C349.6,353.1,324,343.8,324,343.8z"/>
						<path id="XMLID_00000168813094001324323630000002989711373013228946_" class="st0" d="M325.3,334.7c-0.1,0-0.3,0.1-0.5,0.6
							c-0.1,0.2,0,2.2-0.2,3.4c-0.2,1.2-1,3.5-0.6,5.1c2.1,2.5,5.6,3.4,7.2,5.9c1.5,2.5,2.9,5.7,8.4,7.2c5.5,1.6,10,0.1,11.1-1.4
							c1.2-1.5,0.3-3.1-3.1-5.4c-3.7-2.4-8.2-9-8.2-9c-0.6-0.9-1.2-1.9-1.7-2.9c-0.5-1-0.6-2.1-1-3.2c-0.2-0.5-0.4-1-0.8-1.3
							c-0.4-0.3-1-0.3-1.5-0.3c-0.8,0-1.6,0-2.4,0.2c-0.8,0.2-1.6,0.6-2.1,1.2c-0.4,0.5-0.6,1-1,1.5c-0.6,0.6-1.5,0.8-2.2,0.5
							c-1.1-0.4-1.3-1.1-1.3-1.6C325.4,335.2,325.3,334.7,325.3,334.7z"/>
						<path class="st1" d="M336,355.3c0,0,0.2-4,4.7-5.8c4.4-1.8,6.9-0.2,8.1,0.8c1.5,1.2,3.5,3.7,2,5.3c-1.6,1.7-4,2.4-8.3,2.1
							C338.2,357.5,336,355.3,336,355.3z"/>
						<g>
							<path class="st1" d="M331.3,341.7c0.2,0,0.3-0.1,0.4-0.2c0.5-0.6,3.8-2.9,6.8-1.8c0.2-0.3,0-0.7-0.6-1.1
								c-3.1-0.5-6.2,1.6-6.9,2.4c-0.2,0.2-0.1,0.5,0.1,0.7C331.1,341.6,331.2,341.6,331.3,341.7z"/>
							<path class="st1" d="M340,342c0-0.5-0.5-1-0.8-1.1c-3-0.3-5.9,1.7-6.5,2.4c-0.2,0.2-0.1,0.5,0.1,0.7c0.1,0.1,0.2,0.1,0.3,0.1
								c0.2,0,0.3-0.1,0.4-0.2C334,343.3,337.1,341.2,340,342z"/>
							<path class="st1" d="M344.3,347.3c-0.2-0.5-0.6-1-1.2-1.4c-3.1-0.5-6.1,1.6-6.8,2.4c-0.2,0.2-0.1,0.5,0.1,0.7
								c0.1,0.1,0.2,0.1,0.3,0.1c0.2,0,0.3-0.1,0.4-0.2C337.6,348.2,341.2,345.7,344.3,347.3z"/>
							<path class="st1" d="M334.9,346.6c0.2,0,0.3-0.1,0.4-0.2c0.5-0.6,3.8-2.8,6.7-1.9c-0.1-0.5-0.4-0.8-0.9-1.2
								c-3-0.3-5.9,1.7-6.5,2.4c-0.2,0.2-0.1,0.5,0.1,0.7C334.7,346.5,334.8,346.6,334.9,346.6z"/>
						</g>
					</g>
				</g>
				<g>
					<path class="st0" d="M312,251.6c4.8,3.9,20.1,15.1,26.8,21.9c1.9,2,3.7,5.8,2.1,10.9c-2.5,8.4-10.4,26.1-10.4,26.1
						c-6.2,0.3-11.1-3.5-11.1-3.5l-14.7-29.2L312,251.6z"/>
					<path class="st7" d="M331.8,307.4c-6.1-5.6-25.1-38.8-25.1-38.8s0.9-0.1,0.9-0.1c4.9-2.9,7.1-8.2,7.1-8.2
						c0.1,4.4-1.8,6.8-3.2,8.6c1.5,1.5,9,8.4,15.1,13.7c1.5,1.3,3.1,3,3.5,5.8C331,295.3,332,306.1,331.8,307.4z"/>
				</g>
				<g id="XMLID_00000043426913595010290320000007933765754887965345_">
					<path class="st0" d="M310.5,252.1L310.5,252.1l-29.6,4.3c-1.3,5.8-1.7,13.9-0.1,17.4c1.6,3.5,5,8.7,9.4,11.1
						c9.7,5.5,20,10.3,22.1,11.4c1.6,0.8,1.9,1.7,1.8,6.6c0,4.5,1.2,8,5.1,17.5c3.9,9.3,4.7,11.3,4.7,11.3s6.7,0.8,11.3-2.8
						c0,0-4.7-31.2-5.7-36.9c-0.6-3.2-0.5-4.8-4.2-8.4c-3.2-3.1-17.6-15-17.6-15S313.9,260.8,310.5,252.1z"/>
				</g>
			</g>
			<g id="Top_00000065777181679085438820000014173277397303018168_">
				<path class="st3" d="M304.5,212.8c2.3,0.5,6.5,1,8.9,4.5c2.4,3.5,12.2,18.2,12.2,18.2l19.1,6.7l-2.1,8.6c0,0-14.5-1.7-18.9-2.9
					c-3.7-1-5.5-1.6-8.4-5.3c-2.8-3.6-10.7-15.4-10.7-15.4L304.5,212.8z"/>
				<g>
					<path class="st1" d="M280.2,258.4c1.9-7.8,2.4-11.1,2.2-13.5c0,0-3.4-11.8-3.9-14.7c-1.5-7.3-0.5-10.9,0.9-11.8
						c0.8-0.5,4.2-1.9,5.3-2.4c5-2,12.3-2.9,17.1-3.2c1.8-0.1,2.4-0.1,2.4-0.1c1.8,1.1,4.7,3,7,5.2c4.2,4,5.7,6.9,5.5,11.4
						c-0.1,3.1-2,5.6-2,5.6c-0.1,2.2,0,8.5,0,8.5c0.3,2.4,0.1,2.4,1.9,8.1C313.8,263.6,288.6,264.1,280.2,258.4z"/>
				</g>
				<g id="Head_00000070830227771119775030000018384959927447718836_">
					<g id="XMLID_00000110453584595341343190000005602444171784577436_">
						<path class="st7" d="M307.6,194c3.2-1.7,3-7,1.5-9.2c-2.5-3.8-7.6-6.4-14.5-5.9c-4.3,0.3-9.2,2.1-10.4,6.5
							c-4.2,1.7-3.2,7.4-2.3,9.8c1.8,5.1,4.7,9.2,4.6,11.9L307.6,194z"/>
						<path class="st7" d="M284.3,185.3c-2.9-0.7-3.6,6.1-3.9,7.4c-0.7,4.1-2.6,8-5.5,11c0.8,1.3,1.7,2,2.7,2.9c1.3-1.3,3-3,4.2-4.5
							c-0.5,1.7-1.3,3.3-2.4,4.7c-0.1,0.2-0.3,0.4-0.2,0.6c0,0.2,0.1,0.3,0.2,0.4c1.3,1.6,3.1,2.4,5,3.2c2,0.8,4.1,1.2,6.3,1.3
							c5.3,0.2,11.4-0.5,14.1-5.6c1.5-2.9,1.7-6.1,1.5-9.3c-0.1-1.5-0.3-3.1-0.5-4.6c0-0.1-0.1-1.8-0.2-1.8
							C305.7,190.9,284.3,185.3,284.3,185.3z"/>
						<g>
							<path id="XMLID_00000074414379943810014480000008167127114386418822_" class="st21" d="M304.6,186.1c1.1,0.6,2.5,2.4,2.7,6.3
								c0,1.2,0.5,2.6,0.7,4.8c0.9,8.3-1.3,10.3-3.4,11.5c-1.3,0.7-2,0.9-4.1,1.1l0.1,4.1c0,0,1.7,3.4,2.5,9.1
								c-11.7-3.5-14.3-9-14.3-9l0.1-9.2c0,0-1.7,2-4.3,0.5c-2.2-1.3-3.4-4.9-2.1-6.8c1.3-1.9,3.7-1.4,4.8,0c1.1,1.5,2.9,1.3,2-1
								c1-0.6,3.2-1.9,1.8-6.1c-0.3-1.1-0.1-3,0.8-4.1c1.6-1.7,5-1.8,7.1,0C300.4,185.4,302.7,185.1,304.6,186.1z"/>
							<polygon id="XMLID_00000013189140697697109540000003809675956474104971_" class="st22" points="300.2,193.5 301.9,200.6 
								305.4,198.5 							"/>
							<path id="XMLID_00000015337873296190596600000007580203292065698178_" class="st22" d="M300.5,209.8
								c-2.7,0.1-8.5-0.7-10.3-4.1c0,0,0.5,2.5,3.9,4.1c2.7,1.3,6.4,1.3,6.4,1.3L300.5,209.8z"/>
							<g>
								<circle class="st7" cx="296.8" cy="195.5" r="1.2"/>
								<circle class="st7" cx="304.7" cy="194.7" r="1.2"/>
								<path class="st7" d="M305.7,190.2c-0.8-0.3-1.7,0-2.1,0.8l2.9,1.2C306.9,191.4,306.5,190.5,305.7,190.2z"/>
								<path class="st7" d="M294.5,190.9c-0.7,0.4-1,1.4-0.5,2.2l2.7-1.6C296.2,190.7,295.3,190.4,294.5,190.9z"/>
								<path class="st16" d="M299.4,203.8c1,0.3,2.1-0.4,2.4-1.4l-3.8-1C297.8,202.5,298.4,203.5,299.4,203.8z"/>
								<path class="st15" d="M298,202c0.1,0.8,0.6,1.5,1.5,1.7c0.4,0.1,0.8,0.1,1.2-0.1C300.1,202.7,299.1,202.1,298,202z"/>
							</g>
						</g>
					</g>
				</g>
				<g>
					<g>
						<path class="st3" d="M288.7,213c0,0,0.9,1.8,2.2,5c1.3,3.2,1.2,5.3,2.1,12.3c0.9,7,1.5,40.3,3.1,48.2
							c-5.2,0.5-14.4-2.9-18.7-6.8c0.2-3,0.9-6.5,2.1-13.9c1.2-7.3,2-11,1.2-14.8c-0.8-3.8-8.7-13.5-3.4-24.5c0,0,2.3-1.1,5.6-2.7
							C286.6,214.1,288.7,213,288.7,213z"/>
						<path class="st4" d="M288.7,213c0,0,0.9,1.8,2.2,5c1.3,3.2,1.2,5.3,2.1,12.3c0.9,7,1.5,40.3,3.1,48.2
							c-5.2,0.5-14.4-2.9-18.7-6.8c0.2-3,0.9-6.5,2.1-13.9c1.2-7.3,2-11,1.2-14.8c-0.8-3.8-8.7-13.5-3.4-24.5c0,0,2.3-1.1,5.6-2.7
							C286.6,214.1,288.7,213,288.7,213z"/>
					</g>
					<g>
						<path class="st3" d="M300.5,212l0,0.9c0,0,4.1,4,7.5,8.5c3.4,4.5,4.3,9.1,4.7,15.2c0.2,3.2,1.4,10.9,2.6,18
							c1.3,1,3.1,2.1,4.8,3.3c-0.7-2.9-1.8-5.4-2.3-6.7c-0.7-2.1-1.1-5.7-1.5-10.3c-0.4-3.6-0.2-5.9-0.2-5.9s2.5-3.9,0.2-10.4
							c-2.3-6.5-12.1-12.1-12.1-12.1s-0.3-0.1-1.8-0.3C301.2,212.2,300.5,212,300.5,212z"/>
						<path class="st4" d="M300.5,212l0,0.9c0,0,4.1,4,7.5,8.5c3.4,4.5,4.3,9.1,4.7,15.2c0.2,3.2,1.4,10.9,2.6,18
							c1.3,1,3.1,2.1,4.8,3.3c-0.7-2.9-1.8-5.4-2.3-6.7c-0.7-2.1-1.1-5.7-1.5-10.3c-0.4-3.6-0.2-5.9-0.2-5.9s2.5-3.9,0.2-10.4
							c-2.3-6.5-12.1-12.1-12.1-12.1s-0.3-0.1-1.8-0.3C301.2,212.2,300.5,212,300.5,212z"/>
					</g>
				</g>
			</g>
		</g>
		<path d="M303.9,212.3c2.2,10.7,3.8,42.8-27.5,57.7l2.2,5.5c0,0,19.5-3.1,30-9.2s11.4-13.4,11.4-13.4l-2.8-2.8
			c0,0-3.8,12.7-31.3,19.4c14.9-8.6,27.8-29,22.1-56.7L303.9,212.3z"/>
		<g>
			<g>
				<path class="st2" d="M332.8,231.9c-8.7,4.3-16.7,15.9-17.9,25.9c-1.2,10,4.8,14.6,13.5,10.2c8.7-4.3,16.7-15.9,17.9-25.9
					C347.5,232.2,341.5,227.6,332.8,231.9z M338.5,234.1c0.3,2.9,2.1,4.5,4.6,4.4c0,0,0,0,0,0c0.4,1.5-0.9,4-2.6,5
					c-0.8,0.5-1.6,1-2.6,1.5c-0.4,0.2-0.6,0-0.6-0.4c0.1-0.5,0.1-0.9,0-1.1c-0.4-1-2.3-0.8-6,1.1c-3.7,1.8-5.8,3.6-6.5,5.2
					c-0.2,0.4-0.3,0.9-0.3,1.3c0,0.4-0.4,0.9-0.8,1.1c-0.9,0.4-1.8,0.8-2.5,1.1c-1.6,0.6-2.5-0.8-1.6-2.9l0,0
					c2.9-2.6,5.2-6.2,6.4-9.8c2-2.1,4.2-3.9,6.5-5C334.7,234.2,336.8,233.8,338.5,234.1z M319.5,258c1.4-0.9,3.2-1.9,5.3-3
					c0.3-0.2,0.6-0.1,0.7,0.1c0.1,0.1,0.1,0.2,0.2,0.2c0.7,0.8,1.5,1.3,2.3,1.4c0.2,0,0.3,0.2,0.3,0.5c-0.2,1.3-0.4,2.5-0.7,3.6
					c-0.6,2.8-3.4,5.6-5.2,5.1c-2.3-0.5-3.9-2.3-4.5-5C317.8,260,318.5,258.6,319.5,258z M331.2,258.9c0-1,0.1-2.1,0.2-3.3
					c0-0.3,0.2-0.6,0.4-0.9c1-1,2-2.4,3-4.1c0.1-0.2,0.2-0.3,0.3-0.5c0.2-0.4,0.5-0.7,0.8-0.8c2.1-1,3.8-1.7,5.2-2.2
					c0.9-0.3,1.4,0.5,1,1.6c-1.4,3.7-3.6,7.4-6.3,10.4C333.6,261.6,331.2,261.5,331.2,258.9z"/>
				<path class="st0" d="M329.8,256.2c-1.6,0.8-3,0.4-4.2-1c-1.2-1.4-1.7-3.9-0.9-5.5c0.8-1.6,2.8-3.4,6.5-5.2
					c3.7-1.8,5.6-2.1,6-1.1c0.4,1-0.7,4.3-2.4,7.2C333.1,253.5,331.5,255.4,329.8,256.2z"/>
			</g>
			<path class="st21" d="M304.5,253.6c1.6,0.5,3.4,1.2,4.5,1.5c1.8,0.4,2.3,0.3,3.9-0.2c1.6-0.5,2.6-0.4,2.6-0.4
				c-0.2,0.9-0.4,1.8-0.6,2.7c0,0,0.4,1.1,2.1,1.4c1.2,0.2,2.5-0.7,2.5-0.7c0.7-0.4,2.7-2.1,3.4-1.6c0.8,0.6,1,1.9,0.6,2.8
				c-0.1,0.3-0.3,0.5-0.4,0.8c-0.1,0.3,0,0.7-0.1,1.1c-0.1,0.4-0.4,0.8-0.8,1.1c-1,0.9-2.1,1.8-3.2,2.6c-0.9,0.6-1.8,1.2-2.8,1.6
				c-2.5,0.8-4.9,0.3-7.2-0.7c-1.3-0.5-2.3-0.9-3.5-1.3c-1.3-0.5-4.3-1.2-4.3-1.2S304.5,253.6,304.5,253.6z"/>
			<path class="st3" d="M277.2,218.7c-7.3,4.3-5.7,10.8-3.4,19.6c2.5,9.8,3.8,14.1,4.8,16.8c1.2,3.2,1.3,4.2,5.9,5.2
				c7.3,1.5,17.7,3.6,17.7,3.6c2.7-2.2,5.3-6.2,4.1-9.9l-16.7-5.4l-3.4-14.4C286.2,234.1,283.5,221.3,277.2,218.7z"/>
		</g>
		<path class="st21" d="M349,244.2c-0.2-0.3-0.5-0.6-0.8-0.8c-0.1-0.1-1.8-1.3-1.8-1.3c-0.2,1.6-0.6,3.5-1,4.6
			c-0.4,0.6-1.3,0.9-1.9,1.1c-0.3,0.1-0.9,0.3-1.1,0.1c0-0.6-0.3-0.8-0.6-0.8c-0.3,0.2-0.6,0.5-0.8,0.7c-0.2,0.2-0.4,0.5-0.5,0.7
			c0,0.2,0,0.3,0,0.5c0.1,0.3,0.1,0.6,0.2,0.8c-0.3,0.1-0.5,0.3-0.6,0.6c-0.1,0.3,0,0.6,0.1,0.9c0.1,0.2,0.2,0.3,0.2,0.5
			c0,0.1,0,0.2-0.1,0.2c-0.1,0.2-0.1,0.6,0,0.8c0.1,0.2,0.4,0.4,0.6,0.5c0.5,0.3,1,0.6,1.6,0.7c0.5,0.1,1,0,1.5-0.2
			c0.6-0.1,1.1-0.2,1.7-0.4c0.5-0.1,1.1-0.3,1.5-0.6c0.5-0.4,0.9-0.9,1.3-1.5c0.2-0.3,0.3-0.6,0.4-0.9c0.5-1.3,0.8-2.8,0.8-4.2
			c0-0.4,0-0.9-0.2-1.3C349.3,244.7,349.2,244.5,349,244.2z"/>
	</g>
	<g id="Character_00000175306906203126953910000006030049413684694420_">
		<g id="Character_00000106860735168416174060000018039736892439944380_">
			<g id="Bottom_00000133523129478949586070000002196625334914934160_">
				<g>
					<path id="XMLID_00000110457695298177982650000006371940734096400269_" class="st23" d="M280.3,333.3c0,0-4.5,9-5.1,12.6
						c-0.7,3.8-1.7,4.9-1.6,9.2c0,0.9,0.3,2.8,0.3,3.5c0,0.7-0.3,1.2-1.2,1.2c-1.7,0.2-4.2-3.2-5.1-6.8c-0.9-3.5-1.9-11.3-1.9-12.3
						c0-0.9,0.4-2,0.8-2.6c0.8-1.1,0.9-1.3,0.9-1.3c0.8-1.6,1.4-4.7,2.1-6.9L280.3,333.3z"/>
					<g>
						<path class="st7" d="M262,343.9c0,0-0.5,0.7-0.6,1.2c-0.1,0.8,1.3,3.4,1.9,4.4c0.6,1,1.1,2.2,0.8,4.5
							c-0.4,2.4,0.4,4.9,1.8,7.1c1.4,2.2,3.9,4.7,7.8,6.4c4,1.7,5.6-0.2,5.6-0.2s1.5-1.8,0.8-2.7C279.5,363.7,262,343.9,262,343.9z"
							/>
						<path id="XMLID_00000106140804626168334480000001168995641790494631_" class="st2" d="M267.5,336.9c-0.1,0-0.3-0.1-0.7,0.3
							c-0.1,0.1-1.1,1.9-1.8,2.7c-0.8,0.9-2.6,2.5-3,4c0.6,3.1,3.2,5.5,3.3,8.3c0.1,2.9-0.2,6.1,3.8,10c4,3.9,8.5,4.8,10.2,4
							c1.7-0.7,1.8-2.5-0.1-6c-2-3.7-2.7-11.4-2.7-11.4c-0.1-1.1-0.1-2.2-0.1-3.2c0-1,0.5-2.1,0.7-3.1c0.1-0.5,0.2-1,0-1.4
							c-0.2-0.4-0.7-0.7-1.1-1c-0.7-0.4-1.4-0.8-2.2-1c-0.8-0.2-1.6-0.3-2.4,0c-0.5,0.2-1,0.6-1.6,0.8c-0.7,0.2-1.6,0-2.1-0.6
							c-0.7-0.8-0.5-1.5-0.4-2C267.4,337.3,267.5,336.9,267.5,336.9z"/>
						<path class="st1" d="M266.9,359.2c0,0,2.1-3.2,6.8-2.7c4.7,0.5,6,3,6.6,4.5c0.7,1.7,1.2,4.8-0.8,5.4c-2.2,0.7-4.6,0.1-8.2-2.1
							C267.6,362,266.9,359.2,266.9,359.2z"/>
						<g>
							<path class="st1" d="M269.3,345.5c0.1,0.1,0.3,0.1,0.4,0c0.8-0.3,4.7-0.7,6.7,1.6c0.3-0.2,0.3-0.6,0-1.2
								c-2.4-1.9-6.1-1.6-7-1.2c-0.2,0.1-0.4,0.4-0.3,0.6C269.2,345.4,269.2,345.4,269.3,345.5z"/>
							<path class="st1" d="M276.6,349.9c0.2-0.4,0.1-1-0.1-1.3c-2.4-1.6-5.9-1.3-6.7-1c-0.2,0.1-0.4,0.4-0.3,0.6
								c0,0.1,0.1,0.2,0.2,0.2c0.1,0.1,0.3,0.1,0.4,0C270.8,348.2,274.6,347.8,276.6,349.9z"/>
							<path class="st1" d="M277.8,356.3c0.1-0.6-0.1-1.1-0.4-1.7c-2.4-1.8-6-1.5-6.9-1.1c-0.2,0.1-0.4,0.4-0.3,0.6
								c0,0.1,0.1,0.2,0.2,0.2c0.1,0.1,0.3,0.1,0.4,0C271.6,354,275.9,353.6,277.8,356.3z"/>
							<path class="st1" d="M270,351.3c0.1,0.1,0.3,0.1,0.4,0c0.8-0.3,4.6-0.6,6.6,1.5c0.2-0.4,0.1-0.9-0.2-1.4
								c-2.4-1.6-5.9-1.3-6.7-1c-0.2,0.1-0.4,0.4-0.3,0.6C269.9,351.2,269.9,351.3,270,351.3z"/>
						</g>
					</g>
				</g>
				<g id="XMLID_00000080190828676924705240000011235453971134583447_">
					<path id="XMLID_00000012452286974963054520000003182908175850326163_" class="st23" d="M283.9,346.5c0,0,0.8,8.7,1.5,15.4
						c0.5,4.9,4.3,6.9,7.5,10c0.7,0.7,2.3,1.9,2.8,2.4c0.5,0.5,0.6,1.1,0,1.8c-1.2,1.3-6.7,2.1-10,0.1c-3.3-2-6.5-6.6-8.5-8.3
						c-0.7-0.6-1.5-1.3-2.1-2c-0.7-0.7-0.5-1.4-0.7-2.2c-0.1-0.4-0.1-1.5-0.1-1.5c-0.6-1.9-2.3-7.6-3-9.4L283.9,346.5z"/>
					<g>
						<path class="st7" d="M273.9,370.9c0,0,0,0.9,0.2,1.4c0.4,0.7,3.3,2.1,4.4,2.6c1.1,0.5,2.3,1.2,3.5,3.3c1.2,2.3,3.4,3.8,6,4.8
							c2.5,1,6.2,1.5,10.6,0.5c4.4-1,4.7-3.6,4.7-3.6s0.1-2.4-1-2.7C301.2,376.8,273.9,370.9,273.9,370.9z"/>
						<path id="XMLID_00000111911474046502158330000011250087672236152968_" class="st2" d="M274.2,361.6c-0.1,0.1-0.3,0.1-0.4,0.7
							c0,0.2,0.2,2.2,0.2,3.4c-0.1,1.3-0.6,3.7,0,5.2c2.4,2.2,6.1,2.6,8,4.9c1.9,2.3,3.7,5.3,9.5,6.1c5.9,0.8,10.2-1.2,11.2-2.9
							c1-1.7,0-3.2-3.8-4.9c-4-1.9-9.5-7.9-9.5-7.9c-0.8-0.8-1.4-1.8-2.1-2.7c-0.6-0.9-0.9-2-1.4-3c-0.2-0.5-0.5-1-0.9-1.2
							c-0.5-0.2-1-0.2-1.5-0.1c-0.8,0.1-1.7,0.2-2.5,0.5c-0.8,0.3-1.5,0.8-2,1.5c-0.3,0.5-0.5,1.1-0.9,1.6c-0.5,0.6-1.4,1-2.2,0.8
							c-1.2-0.3-1.4-0.9-1.6-1.5C274.3,362.1,274.2,361.6,274.2,361.6z"/>
						<path class="st1" d="M287.7,380.8c0,0-0.2-4,4-6.4c4.3-2.4,7-1.1,8.4-0.3c1.6,1,4,3.3,2.7,5.1c-1.4,1.9-3.8,2.9-8.2,3.2
							C290.1,382.7,287.7,380.8,287.7,380.8z"/>
						<g>
							<path class="st1" d="M281.1,367.8c0.2,0,0.3-0.1,0.4-0.2c0.5-0.7,3.6-3.4,6.7-2.7c0.1-0.4-0.1-0.7-0.8-1
								c-3.2-0.1-6.2,2.4-6.7,3.3c-0.1,0.2-0.1,0.5,0.2,0.6C280.9,367.8,281,367.8,281.1,367.8z"/>
							<path class="st1" d="M290,367c-0.1-0.5-0.6-0.9-0.9-1c-3.1,0.1-5.8,2.5-6.3,3.3c-0.1,0.2-0.1,0.5,0.2,0.6
								c0.1,0.1,0.2,0.1,0.3,0.1c0.2,0,0.3-0.1,0.4-0.2C284.1,369.1,287,366.5,290,367z"/>
							<path class="st1" d="M295.1,371.6c-0.3-0.5-0.8-0.9-1.4-1.2c-3.2,0-6,2.4-6.6,3.3c-0.1,0.2-0.1,0.5,0.2,0.6
								c0.1,0.1,0.2,0.1,0.3,0.1c0.2,0,0.3-0.1,0.4-0.2C288.4,373.5,291.8,370.5,295.1,371.6z"/>
							<path class="st1" d="M285.4,372.2c0.2,0,0.3-0.1,0.4-0.2c0.5-0.7,3.5-3.3,6.6-2.7c-0.1-0.4-0.5-0.8-1.1-1
								c-3.1,0.1-5.8,2.5-6.3,3.3c-0.1,0.2-0.1,0.5,0.2,0.6C285.1,372.2,285.3,372.2,285.4,372.2z"/>
						</g>
					</g>
				</g>
				<g>
					<path class="st2" d="M257.9,281.5c0,0,20.9,8.8,29.8,17.2c3.2,3,5.2,5.6,2.4,13.9c-2.1,6.4-6,13.4-9.6,21.7L241.1,292
						L257.9,281.5z"/>
					<path class="st2" d="M257.9,281.5c0,0,20.9,8.8,29.8,17.2c3.2,3,5.2,5.6,2.4,13.9c-2.1,6.4-6,13.4-9.6,21.7L241.1,292
						L257.9,281.5z"/>
					<path class="st7" d="M280.9,333.2c-6-5-25.7-34.2-25.7-34.2s0.8-0.2,0.8-0.2c4.4-2.2,6-8.4,6-8.4c0.7,2.4-0.2,5.9-1.6,7.9
						c2.6,1.7,8.6,5.7,17.7,11.9c1.6,1.1,4.8,3.1,4.8,7.4c0,5.6,0.1,11.1,0.1,11.1L280.9,333.2z"/>
				</g>
				<g id="XMLID_00000183944140764851424610000012474274309876578452_">
					<path class="st2" d="M257.9,281.5L257.9,281.5l-37.5,7.6c0.9,4.4,1.6,11.2,5.2,16c4.9,6.7,8.1,8.8,17.5,12.1
						c9.4,3.3,18.3,6,20.4,7c1.5,0.7,1.4,4.1,2.1,8.1c0.7,4.2,1.2,6.5,3.9,15.3c1.3,4.3,2.6,8,2.6,8s7.3,0.5,12.6-2.7
						c0,0-1.9-21.9-2.4-27.3c-0.5-4.6-0.3-8.9-4-12.2c-3.2-2.8-22.2-14.6-22.2-14.6S261.4,289.6,257.9,281.5z"/>
				</g>
				<path class="st7" d="M228.3,288.1l0.5-0.1c0.5,6.1,1.5,10.6,6.1,14.9c2.7-2,2-3.7,0.9-6.8c-0.4-0.9-0.8-2-1.1-3.2
					c-0.7-2.4-1.1-4.3-1.2-5.8l0.5-0.1c0.1,1.5,0.5,3.4,1.2,5.8c0.3,1.2,0.7,2.2,1.1,3.1c1.2,3.1,2,5.1-1,7.3c1,0.9,2.3,1.8,3.7,2.8
					c6.7,4.3,16.2,9.4,21.8,12.4c2,1,3.5,1.9,4.3,2.3c3.3,1.9,3.4,3.1,3.6,8.4c0.1,4.7,4,20.2,6,26.5c-0.2,0-0.4,0-0.5,0
					c-2-6.4-5.9-21.8-6-26.5c-0.1-5.4-0.4-6.3-3.3-8c-0.8-0.5-2.4-1.3-4.3-2.3c-5.7-3-15.1-8-21.9-12.4
					C230.4,301.1,228.9,295.8,228.3,288.1z"/>
			</g>
			<g id="Top_00000019640304455357197910000005113442447484489883_">
				<g>
					<path class="st23" d="M261.6,270.4c-4.8-5.4-10-12.8-10-12.8l-3.4-17c0,0,5.1-0.7,9.2,4.8c3.4,4.5,5.9,8.2,10.1,14.2
						c0,0,5.8-7.9,6.5-9.3c0.7-1.4,1.1-2.9,1.2-3.4c0.8-3.2,2.5-5.1,4.8-7.4c0.4-0.4,0.8-0.8,1.2-1.2c0.2-0.2,0.4-0.4,0.6-0.6
						c0.2-0.2,0.3-0.4,0.6-0.3c0.2,0.1,0.4,0.3,0.5,0.5c0.3,0.7,0.3,1.5,0,2.2c-0.3,0.7-0.7,1.3-1.1,2c-0.3,0.5,0.4,0.4,0.7,0.4
						c1.5-0.4,3.3-2.1,4.3-3.2c0.7-0.7,1.3-1.5,2.1-2.1c0.5-0.4,1.1-0.6,1.7-0.6c0.4,0,0.8,0.1,0.8,0.7c0,0.3-0.2,0.6-0.4,0.9
						c-0.4,0.6-0.7,1.1-0.5,1.8c0.1,0.4,0.3,0.9,0.3,1.3c0,0.6-0.4,1.1-0.4,1.7c-0.1,0.5,0.2,1,0.1,1.5c0,0.5-0.5,1.2-0.7,1.6
						c-0.6,1.1-1.4,2-2.2,2.9c-1.3,1.3-2.8,2.4-4.3,3.4c-0.8,0.6-2,2-2.5,2.9c-0.6,1.1-1.9,4.5-2.2,5.5c-0.5,1.2-3.2,9.3-6.8,12.9
						C269.3,275.8,266.5,275.8,261.6,270.4z"/>
					<path class="st24" d="M267.6,259.6c-1.6,1.9-2.8,5.3-2.5,7.2c-0.6-2-0.2-5.1,2-8L267.6,259.6z"/>
					<path class="st2" d="M245.2,240.4c8.4-0.4,10.5,2.3,14.3,7.3c2.2,2.9,6.7,9.6,6.7,9.6s-0.7,3.6-3.2,6.1
						c-2.5,2.5-5.6,2.5-5.6,2.5l-6-8.2L245.2,240.4z"/>
					<path class="st24" d="M281.4,244.7c0.5,2,0.5,4-1.1,6.1c0,0,1.5-0.2,1.9-2.6C282.5,246.2,281.9,245.3,281.4,244.7z"/>
				</g>
				<g>
					<path id="XMLID_00000099655394703719439840000012251153933187387549_" class="st0" d="M256.9,254.7
						c-1.8-10.6-6.8-14.3-12.2-14.3c0,0-5.2-0.1-11.4,1.7c-6.8,2-8.4,3.3-11.4,4.8c-2,1.2-5.7,7-5.2,14.6c0.4,5.4,0.6,10.8,2.2,21.3
						c1,6.1,2.2,10.2,4.3,18.2c7.7,1.9,33.6-4.6,38.3-17.8c-0.9-1.8-3-7-3.4-10.6C258,269,257.5,258,256.9,254.7z"/>
				</g>
				<g id="Head_00000142135991235339080530000005234971221159338134_">
					<path class="st7" d="M231.2,238.6c-0.6-3-3.8-5.9-5.2-8.5c-1.4-2.5-2.3-4.4-2.2-6.7c0-1.4,0.8-3.3,1.8-3.8
						c-1.4-5.1,2.4-7.7,4.4-8.3c0.8-0.2,2.1-0.6,2.8-0.9c1.1-0.5,1.3-1.4,2.2-2.3c1.5-1.4,4.1-1.6,5.2,0.4c1-1.4,2.4-1.4,4-1.1
						c1.6,0.3,2.4,1.6,2.3,3c2.1-1.3,4.2,0.1,4.5,1.4c0.2,0.9,0,1.7,0.7,2.6c0.7,0.9,2.1,0.8,2.4,0.1c0.3,1.3-0.2,2.4-1.7,2.4
						c0.5,0.7,0.7,1.7,0.5,2.5c-0.3,1.2-1.5,2-2.4,2c-0.1,0.7-0.1,1.4-0.6,2.1c-0.4,0.6-1,1.3-1.6,1.6c-2.2,1.2-4.6,1.6-6.9,2.2
						c-0.9,0.2-1.9,0.5-2.8,0.7c-0.2,0-1,0.1-1.1,0.3C237.5,228.4,231.2,238.6,231.2,238.6z"/>
					<g id="XMLID_00000150795023969140813850000014860727421180569986_">
						<path class="st23" d="M227.4,234.9c2.2,1.2,3.5-0.3,3.5-0.3l0.3,9.9c1.8,4.1,9.1,4.5,11.6,3.2c2.6-1.3,2.2-2.9,0.4-5.1
							l0.1-1.6c0,0,2.2-0.1,3.5-0.3c2.3-0.4,4-2.4,4.6-5c0.6-2.7,0.5-6.9-0.2-10.1c-0.2-0.8-0.3-1.6-0.2-2.5c0.1-2.2-0.3-3.4-1-5.2
							c-2.7-2-8.7-2.4-14.1,1.2c0.8,3.3-0.4,6-2.7,7.3c0.2,0.9,0.4,3.1-1.1,3.2c-1.1,0-1.2-1.3-2.3-2.4c-1.2-1.1-3.7-1.3-4.6,0.5
							C223.9,230.1,225,233.6,227.4,234.9z"/>
						<path class="st7" d="M236.3,224.6l-7,2.3c0,0,0.5,0.2,1.1,1.1l6.1-1.7L236.3,224.6z"/>
						<path class="st2" d="M252.5,221.9c-1.6,0.1-3.8,0.3-5,0.9c-1.4,0.7-1.9,1.3-2.7,1.4c-0.9,0.1-1.5-0.3-3.1-0.5
							c-1.4-0.2-3.8,0.3-5.4,0.8c-0.3,0.1-0.5,0.5-0.5,0.9c0.1,0.7,0.6,0.7,0.8,1.3c0.5,2.1,1.1,4.5,3.9,4.1
							c5.1-0.7,2.7-5.4,4.7-5.4c0.7,0.1,0.8,1.4,1.4,2.3c0.2,0.3,0.5,0.7,0.8,1c0.7,0.6,1.7,0.7,2.7,0.6c1.9-0.3,2.4-1.6,2.6-2.4
							c0.2-0.8,0.1-2.1,0.2-2.8c0.1-0.5,0.4-0.7,0.4-1.4C253.1,222.2,252.8,221.9,252.5,221.9z M243.3,227.3c0,0.4-0.2,1-0.5,1.6
							l0,0c-1,1.5-4,1.8-4.8-0.1l0,0c-0.1-0.1-0.1-0.2-0.1-0.3c0,0,0,0,0,0c-0.3-0.8-0.8-2.5-0.4-3c0.7-0.9,4.4-1.4,5.7-0.3
							C243.4,225.5,243.4,226.5,243.3,227.3z M252.2,225.5c0,0.6-0.1,1.9-1.1,2.6c-1,0.8-3,0.6-3.6-0.3c-0.7-0.8-1.2-2.5-0.9-3.3
							c0.2-0.5,1.3-1.1,2.3-1.5c0.9-0.2,2-0.5,2.8,0C252.2,223.4,252.2,224.8,252.2,225.5z"/>
						<path class="st24" d="M249.1,230.1l-3.4,2l-1.4-5.3c0.1-0.8,0.3-1.3,0.9-1.4c0.1,0,0.1,0.1,0.2,0.1c0.1,0.1,0.3,0.3,0.5,0.4
							c0.3,0.3,0.5,0.6,0.8,0.9c0.4,0.5,0.9,1,1.3,1.6c0.2,0.3,0.4,0.5,0.6,0.8c0,0.1,0.1,0.1,0.1,0.2
							C248.8,229.7,248.9,229.9,249.1,230.1z"/>
						<path class="st24" d="M243.3,241c-3.7-0.3-6.6-0.5-8.6-3.1c-1.3-1.6-2.4-4.3-2.4-4.3s0.5,3.3,1.8,5.4c1,1.7,3.3,3.1,9.1,3.3
							L243.3,241z"/>
					</g>
					<g id="XMLID_00000164507318651738738820000004171557865642961064_">
						
							<ellipse id="XMLID_00000034049613325696626030000002465867917735537804_" transform="matrix(0.9959 -9.077685e-002 9.077685e-002 0.9959 -19.5911 22.8008)" class="st7" cx="240.9" cy="226.8" rx="1" ry="1.1"/>
						<path id="XMLID_00000052081984432345940780000010635242715236284066_" class="st7" d="M241,222.6l-2.4,1
							c-0.3-0.7,0.1-1.4,0.7-1.7C240,221.6,240.7,221.9,241,222.6z"/>
						<path id="XMLID_00000054247080548241474010000005406593081941218744_" class="st24" d="M241.2,233.3l3.5,0.9
							c-0.3,1-1.3,1.6-2.3,1.4C241.5,235.3,240.9,234.3,241.2,233.3z"/>
						<path class="st14" d="M243.5,235.5c-0.2-1.1-1.2-1.8-2.3-1.7c0,0.8,0.5,1.5,1.3,1.7C242.8,235.6,243.2,235.6,243.5,235.5z"/>
						<path id="XMLID_00000098926529486650451450000005516867886678369949_" class="st7" d="M249.8,221.7l-2.6-0.2
							c0-0.7,0.6-1.3,1.3-1.2C249.2,220.3,249.8,221,249.8,221.7z"/>
						
							<ellipse id="XMLID_00000165229470232117286900000002481715666450856586_" class="st7" cx="248.6" cy="225.7" rx="1" ry="1.1"/>
					</g>
				</g>
				<g id="Arm_00000019667635356424182850000000681416917158680502_">
					<g id="Arm_00000166659017375386752640000015092346615248620932_">
						<path class="st23" d="M251.2,304.1c-2.1-1.1-4.2-2.3-6.2-3.6c-0.3-0.2-1.7-1.6-0.6-1.3c1.8,0.5,3.8,1.4,5.7,0.7
							c0.1-0.1,0.3-0.1,0.4-0.2c0.2-0.3-0.1-0.7-0.5-0.9c-0.5-0.3-1.1-0.5-1.6-0.8c-1-0.5-1.8-1.3-2.8-1.9c-1.5-0.9-3.2-0.9-4.8-1.6
							c-0.9-0.4-14.6-12.4-14.7-12.2c0-0.2,1.1-18.4,1.1-18.4c0.1-7.3-1.6-13.6-5.4-16.6c-1.9,0.6-4.8,2.6-6.1,4.8
							c-1.2,2.2-1.9,5.7-2.3,10.1c-0.4,6.2-0.8,12.2-0.8,19c0.1,6.3,0.3,6.9,6.7,11.1c2.3,1.5,10.3,6.1,11.3,6.8
							c0.6,0.4,1.2,0.8,1.8,1.3c0.7,0.7,1.3,1.6,2,2.3c0.8,0.7,1.6,1.5,2.4,2.2c1.5,1.2,3.1,2.2,5,2.7c0.9,0.2,1.7,0,2.6,0.1
							c0.3,0,0.5,0.1,0.7,0.2c0.8,0.3,1.6,0.4,2.4,0.2c0.2,0,0.3-0.1,0.5-0.1c0.2,0,0.4,0.1,0.5,0.1c0.3,0.1,0.7,0.2,1,0.2
							c0.9-0.1,1.6-1.2,1.2-2c1.1-0.1,1.6-1.4,0.6-2C251.4,304.2,251.3,304.1,251.2,304.1z"/>
					</g>
					<path class="st2" d="M222,246.9c-3.2,1.7-4.7,2.7-5.8,4.2c-2.1,2.7-2.2,5.2-2.6,7.7c-0.4,2.5-0.9,16-0.9,16s1.5,2.2,6.9,3
						c4.7,0.7,7.2-1,7.2-1s0.5-10.4,0.7-12.8C227.8,260.1,227.2,251,222,246.9z"/>
					<path class="st24" d="M226.2,282.3c-2.2-1-4.9-1.1-4.9-1.1s2.1-0.4,5,0L226.2,282.3z"/>
				</g>
			</g>
		</g>
		<path d="M262.1,285.1c0,0-0.3,6.1-11.3,11.2c-1,0.5-2,0.9-3.1,1.3c-0.7-0.5-1.4-1.1-2.1-1.5c-1.5-0.9-3.2-0.9-4.8-1.6
			c-0.1,0-0.4-0.2-0.8-0.6c5.8-1.8,14.3-5.3,19.7-10.9c-3.8-5.6-15.3-19.6-34-30c-2.3-1.3-12.1-5.4-14-6.1l3.2-4.7
			c12.4,2.7,26.4,14.2,33.7,21c10.8,10.1,13,18.8,13,18.8L262.1,285.1z"/>
	</g>
	<g id="Side">
		<g id="XMLID_00000106828623671856892640000007475771943134159009_">
			<polygon id="XMLID_00000148648129550228583160000003854307468913004420_" class="st25" points="92.7,268.4 132.5,245.4 
				110.4,232.7 88.9,246.2 			"/>
			<polygon id="XMLID_00000148642655323418111230000000343992385525815465_" class="st26" points="92.7,268.4 132.5,245.4 
				110.4,232.7 88.9,246.2 			"/>
		</g>
		<g>
			<g id="XMLID_00000014622078693753993550000004402310961781547710_">
				<path id="XMLID_00000142149847847405476400000000089505550916181922_" class="st25" d="M109.5,262.9l-5.7-11.4l13.6-7.9l0,0
					c26.4-10.4,54.9,47.3,33,64.1l0,0c-0.3,0.2-13.9,8-14.2,8.2l-6-12C118.7,295.2,109.9,278,109.5,262.9z"/>
				<path id="XMLID_00000061431647866902761760000003991689310541336243_" class="st25" d="M109.5,262.9l-5.7-11.4l13.6-7.9l0,0
					c26.4-10.4,54.9,47.3,33,64.1l0,0c-0.3,0.2-13.9,8-14.2,8.2l-6-12C118.7,295.2,109.9,278,109.5,262.9z"/>
				<path id="XMLID_00000060736695364899003370000016778887965769789629_" class="st25" d="M95.3,269.9c0,14.6,8.1,31.5,19,40.9
					c12.8,12,30.2,8.1,29.7-12.8c0-12.8-6.2-27.4-15.1-37.1C117,246.2,94.6,245.6,95.3,269.9z"/>
				<path id="XMLID_00000010272037187622195630000017297842183987565469_" class="st25" d="M95.3,269.9c0,14.6,8.1,31.5,18.9,40.8
					c-6.4-7-13.1-18.7-15.4-29.8c-5.6-27.2,11.6-36.4,30-20C117,246.1,94.6,245.7,95.3,269.9z"/>
			</g>
			<g>
				<path class="st25" d="M119.6,263.3c-8.5-4.9-15.5,0.3-15.5,11.7c0,11.4,6.9,24.6,15.5,29.6c8.5,4.9,15.5-0.3,15.5-11.7
					C135.1,281.5,128.2,268.2,119.6,263.3z M119.6,301c-7.1-4.1-12.8-15-12.8-24.5c0-9.4,5.7-13.8,12.8-9.7
					c7.1,4.1,12.8,15,12.8,24.5C132.4,300.8,126.7,305.1,119.6,301z"/>
				<path class="st25" d="M132.4,291.3c-2.5,26.3-27.5,0.6-25.6-14.8c0-9.4,5.7-13.8,12.8-9.7C126.7,271,132.4,281.9,132.4,291.3z"
					/>
				<path class="st27" d="M132.4,291.3c-2.5,26.3-27.5,0.6-25.6-14.8c0-9.4,5.7-13.8,12.8-9.7C126.7,271,132.4,281.9,132.4,291.3z"
					/>
				<path class="st25" d="M132.4,291.3c0,3.6-0.8,6.4-2.3,8.4c-13.3-0.2-23.3-22.9-16.5-34.3C124.9,265.6,132.1,280.3,132.4,291.3z"
					/>
			</g>
			<g>
				<path class="st25" d="M117.9,278.1l-2.3,6.7l-5.5-12c0-1.1,0.6-3.1,1.2-4.1L117.9,278.1z"/>
				<path class="st25" d="M115.6,283.4l4.1,5.8l-4.1,4.7c-1.1-1-1.8-1.8-2.3-3.2L115.6,283.4z"/>
				<path class="st25" d="M124.3,288.1l-1.2,0.5l-0.3-1.3l-4.6,1.3l9.3,13.3c1.2-0.6,2.2-1.6,2.9-2.7L124.3,288.1z"/>
				<path class="st25" d="M131.9,286.4l-7.6,1.7l0,0l-0.7-1.1l-0.8,0.3l-1.2-5.8l0.9,0.5l-0.1-1.5l7.7,0
					C131,282.3,131.6,284.4,131.9,286.4z"/>
				<path class="st25" d="M122.5,280.4l-1.2-0.4l0.3,1.4l-5-2.9l4.4-10.7c1.3,0.9,2.6,2.1,3.7,3.5L122.5,280.4z"/>
				<path class="st25" d="M124.5,286.7c-1.1,9.9-10.5,0.1-9.7-5.6C115.8,271.3,125.3,281.1,124.5,286.7z"/>
			</g>
		</g>
		<g>
			<path class="st25" d="M261.7,308.4l0,57.3l-110.1-63.1c3.8-30.6-52.8-90.5-59-34.2c-13.1-4.5-8.7-42.2-3.9-55.1
				c4.9-11.6,25.5-23.7,34.2-19.3c5.5,2.9,18.1,10.4,30.6,17.9l-3.1,1.8c0,0-7.5-4.3-16.4-9.5c-9.2-5.3-5.3,14.9-0.4,23.2
				c4.9,8.2,15.9,16.3,23.3,20.6l50.6,29L261.7,308.4z"/>
			<path class="st27" d="M261.7,308.4l0,57.3l-110.1-63.1c3.8-30.6-52.8-90.5-59-34.2c-13.1-4.5-8.7-42.2-3.9-55.1
				c4.9-11.6,25.5-23.7,34.2-19.3c5.5,2.9,18.1,10.4,30.6,17.9l-3.1,1.8c0,0-7.5-4.3-16.4-9.5c-9.2-5.3-5.3,14.9-0.4,23.2
				c4.9,8.2,15.9,16.3,23.3,20.6l50.6,29L261.7,308.4z"/>
		</g>
		<g id="XMLID_00000025439486425013302960000007360482768662417073_">
			<path id="XMLID_00000049935485943094279100000003789088085256671160_" class="st28" d="M253.6,307.9l-54.2-31c0,0-1.7,1-1.6,3.6
				L253.6,307.9z"/>
			<path class="st25" d="M209.2,290.3c0.8,0.4,0.4-1.5,0.5-1.8c0.1-2.2-4.9-5-7.1-6.2c-2.2-1.2-3.9-1.3-3.9-0.1
				c0,0.8-0.2,2.1,0.7,2.5L209.2,290.3z"/>
			<path id="XMLID_00000088815788468822438130000005627683564216823691_" class="st28" d="M166.3,257.3c3,1.8,23.5,13.9,25.7,15.3
				c0,0-2.2,2.1-2.8,4.5c-7.5-6.7-85.1-40.7-90.5-67.5c-0.6-7.4,9.5-11.4,15.5-12.3c4.8-0.7,10.4,0.6,11,6.2
				c0.4,3.8,0.2,7.6,0.6,11.4c0.7,5.7,2.9,11.1,6,15.9c3.4,5.3,7.8,10,13,13.5c5.7,3.9,11.8,7.3,17.8,10.8
				C163.8,255.9,165.1,256.6,166.3,257.3z"/>
			<path class="st25" d="M167.6,266.9c0.8,0.4,0.4-1.5,0.5-1.8c0.1-2.2-4.9-5-7.1-6.2c-2.2-1.2-3.9-1.3-3.9-0.1
				c0,0.8-0.2,2.1,0.7,2.5C157.8,261.3,167.6,266.9,167.6,266.9z"/>
		</g>
		<path class="st29" d="M257.4,310.6c-0.2-0.1,0.6,45.7-4.6,44.2c0,0-57.9-29.9-57.9-29.9s52.9,30.3,56.6,32.4c3.7,2.1,5,2,5.9-9.6
			C258.3,336.2,259,318.1,257.4,310.6z M194.2,273.3c0,0-4,4.4-2.9,12.3c1.1,7.8,2.8,32.8,2.8,32.8c0.7-0.2-2.1-39.3,3.2-43.4
			L194.2,273.3z M137.7,249.1c-1.9,2.5-3.3,9.3-3.3,9.3c3.4-7.4,8.2-10.9,15.6-13C149.9,245.3,139.6,246.6,137.7,249.1z M90,236.5
			c-2.2-3.9-3.1-16.7-3.1-16.7c-0.6,16.5-1,19.9,15.6,26.5C102.5,246.2,92.2,240.4,90,236.5z"/>
	</g>
	<g id="Front_Car_00000060001791017418289190000015009907389016313758_">
		<g id="XMLID_00000152984687511253373850000010555188806396428714_">
			<path id="XMLID_00000072989672567078482410000006731187872140943017_" class="st30" d="M372.5,224.8L372.5,224.8l0.9,3.7
				c6,10,11.1,11.6,11.4-0.6C385.8,212.8,369.1,201.6,372.5,224.8z"/>
			<path id="XMLID_00000070799225374558468870000013489464025200654999_" class="st31" d="M372.5,224.8L372.5,224.8
				c0.3,1.5,0.9,3.7,0.9,3.7c6,10,11.1,11.6,11.4-0.6C385.8,212.8,369.1,201.6,372.5,224.8z"/>
			<path id="XMLID_00000087384622569030622780000017246767542213008052_" class="st30" d="M373.4,228.6
				c16.1,27.4,13.9-23.3,0.6-16.2l0.8,1.8C380.6,215.3,382.4,236.4,373.4,228.6z"/>
			<path id="XMLID_00000150063636326372084610000008709058951564030646_" class="st30" d="M372.4,215.1c7.4-5.6,12.9,12.5,12.1,16.6
				c1-6,0-16.2-7-20.1C375.1,210.6,373.1,213,372.4,215.1z"/>
		</g>
		<g id="XMLID_00000033338043356421363140000011767756924053236136_">
			<polygon id="XMLID_00000095323610804941375630000014704561779063983018_" class="st30" points="266.4,368.4 306.1,345.4 
				279.6,329.7 266.4,342.9 			"/>
			<polygon id="XMLID_00000119802297960523756030000016600985980213150397_" class="st32" points="266.4,368.4 306.1,345.4 
				279.6,329.7 266.4,342.9 			"/>
		</g>
		<g>
			<g id="XMLID_00000178166051916781708380000006580808112125225917_">
				<path id="XMLID_00000106839085291144982540000002104920962544649124_" class="st30" d="M282.7,362.9l-5.7-11.4l13.6-7.9l0,0
					c26.4-10.4,54.9,47.3,33,64.1l0,0c-0.3,0.2-13.9,8-14.2,8.2l-6-12C292,395.2,283.2,378,282.7,362.9z"/>
				<path id="XMLID_00000103258246032042150100000009113561566554865846_" class="st30" d="M282.7,362.9l-5.7-11.4l13.6-7.9l0,0
					c26.4-10.4,54.9,47.3,33,64.1l0,0c-0.3,0.2-13.9,8-14.2,8.2l-6-12C292,395.2,283.2,378,282.7,362.9z"/>
				<path id="XMLID_00000145741244202591632340000015602579792733335732_" class="st30" d="M268.6,369.9c0,14.6,8.1,31.5,19,40.9
					c12.8,12,30.2,8.1,29.7-12.8c0-12.8-6.2-27.4-15.1-37.1C290.3,346.1,267.9,345.6,268.6,369.9z"/>
				<path id="XMLID_00000176742879292103890100000010141686132091423642_" class="st30" d="M268.6,369.9c0,14.6,8.1,31.5,18.9,40.8
					c-6.4-7-13.1-18.7-15.4-29.8c-5.6-27.2,11.6-36.4,30-20C290.3,346.1,267.9,345.6,268.6,369.9z"/>
			</g>
			<g>
				<path class="st30" d="M292.9,363.3c-8.5-4.9-15.5,0.3-15.5,11.7c0,11.4,6.9,24.6,15.5,29.6c8.5,4.9,15.5-0.3,15.5-11.7
					C308.4,381.5,301.4,368.2,292.9,363.3z M292.9,401c-7.1-4.1-12.8-15-12.8-24.5c0-9.4,5.7-13.8,12.8-9.7
					c7.1,4.1,12.8,15,12.8,24.5C305.7,400.8,300,405.1,292.9,401z"/>
				<path class="st30" d="M305.7,391.3c-2.5,26.3-27.5,0.6-25.6-14.8c0-9.4,5.7-13.8,12.8-9.7C300,370.9,305.7,381.9,305.7,391.3z"
					/>
				<path class="st33" d="M305.7,391.3c-2.5,26.3-27.5,0.6-25.6-14.8c0-9.4,5.7-13.8,12.8-9.7C300,370.9,305.7,381.9,305.7,391.3z"
					/>
				<path class="st30" d="M305.7,391.3c0,3.6-0.8,6.4-2.3,8.4c-13.3-0.2-23.3-22.9-16.5-34.3C298.2,365.5,305.4,380.3,305.7,391.3z"
					/>
			</g>
			<g>
				<path class="st30" d="M291.1,378l-2.3,6.7l-5.5-12c0-1.1,0.6-3.1,1.2-4.1L291.1,378z"/>
				<path class="st30" d="M288.9,383.3l4.1,5.8l-4.1,4.7c-1.1-1-1.8-1.8-2.3-3.2L288.9,383.3z"/>
				<path class="st30" d="M297.6,388.1l-1.2,0.5l-0.3-1.3l-4.6,1.3l9.3,13.3c1.2-0.6,2.2-1.6,2.9-2.7L297.6,388.1z"/>
				<path class="st30" d="M305.2,386.4l-7.6,1.7l0,0l-0.7-1.1l-0.8,0.3l-1.2-5.8l0.9,0.5l-0.1-1.5l7.7,0
					C304.2,382.3,304.8,384.4,305.2,386.4z"/>
				<path class="st30" d="M295.8,380.4l-1.2-0.4l0.3,1.4l-5-2.9l4.4-10.7c1.3,0.9,2.6,2.1,3.7,3.5L295.8,380.4z"/>
				<path class="st30" d="M297.7,386.7c-1.1,9.9-10.5,0.1-9.7-5.6C289.1,371.2,298.6,381.1,297.7,386.7z"/>
			</g>
		</g>
		<g id="Window_00000094604079818242805180000016907763867864889790_">
			<path class="st30" d="M261.7,308.4l-9-5.2c-0.2-5.7,0.8-7.7-3.3-18.6c-4.3-10.9-5.8-15.2-8.4-22.4c-0.8-2.3-2.1-5.2-3.5-9.3
				c-0.8-2.3-1.1-4.8-0.2-6.8c0.3,1,6.3,15.7,9.2,22.1c2.6,5.8,5.5,11.8,8,17.7c1.6,3.8,2.9,6.4,5.1,11.3
				C260.9,300.4,262.2,303.6,261.7,308.4z"/>
		</g>
		<g>
			<path class="st30" d="M387.6,239.3c-6.9-11.1-36.6-42.2-47-50.2c-1.7-1.3-2.3-1.2-5.2,1.8c-2.9,3-16.5,16-34.2,26.1
				c-17.7,10.1-44.3,22.2-61,26.9c-1.2,0.3-2,0.8-2.5,1.4c-1.3,1.7-0.1,3.9,0.7,5.9c0.8,1.9,1.9,4,2.4,5.2
				c3.6,8.4,16.9,37.8,18.2,40.9c1.3,3.2,3.2,6.5,2.6,11.3c-1.6,15-2.5,38.6,0,57.1l4.6,2.7c1-38.3,38.4-20.4,49,3.3
				c14,25.4-3.2,32.5,42.8,34.1c32.4,1.1,61.7-14.2,84.8-31c12.5-8.8,17.4-24.3,19-33.4C472.3,293.7,441.5,277.7,387.6,239.3z
				 M268.4,306.5c-4-7.1-17-41.3-26.5-56.3l0,0l-1.2-2.6c0,0,22.4-3.6,58.6-24.8c35.5-20.8,39.4-31.5,39.6-31.9
				c16.6,14.3,33,31.8,45.9,48.3C377.8,262.5,270.9,318.1,268.4,306.5z"/>
			<path class="st34" d="M387.6,239.3c-6.9-11.1-36.6-42.2-47-50.2c-1.7-1.3-2.3-1.2-5.2,1.8c-2.9,3-16.5,16-34.2,26.1
				c-17.7,10.1-44.3,22.2-61,26.9c-1.2,0.3-2,0.8-2.5,1.4c-1.3,1.7-0.1,3.9,0.7,5.9c0.8,1.9,1.9,4,2.4,5.2
				c3.6,8.4,16.9,37.8,18.2,40.9c1.3,3.2,3.2,6.5,2.6,11.3c-1.6,15-2.5,38.6,0,57.1l4.6,2.7c1-38.3,38.4-20.4,49,3.3
				c14,25.4-3.2,32.5,42.8,34.1c32.4,1.1,61.7-14.2,84.8-31c12.5-8.8,17.4-24.3,19-33.4C472.3,293.7,441.5,277.7,387.6,239.3z
				 M268.4,306.5c-4-7.1-17-41.3-26.5-56.3l0,0l-1.2-2.6c0,0,22.4-3.6,58.6-24.8c35.5-20.8,39.4-31.5,39.6-31.9
				c16.6,14.3,33,31.8,45.9,48.3C377.8,262.5,270.9,318.1,268.4,306.5z"/>
		</g>
		<g>
			<path class="st30" d="M401.5,360.1c2.4,3.2,3.9,6.9,4.7,9.4c2.1-1.2,4.2-2.3,6-3.4c2.6-1.5,5.2-3,7.7-4.4
				c-0.9-2.3-2.2-5.2-4.1-7.8c-4-5.4-41.6-43.4-86.9-70.3l-14.4,6.2C359.9,316.7,397.6,354.7,401.5,360.1z"/>
			<path class="st30" d="M435.9,349.2c2.2-1.8,4.3-3.6,6.1-5.7c1.7-2,3.4-4.4,5.2-6.6c-0.3-0.4-0.5-0.8-0.8-1.2
				c-4-5.4-41.6-43.4-86.9-70.3l-14.4,6.2c45.3,26.9,83,64.9,86.9,70.3C433.8,344.3,435,347,435.9,349.2z"/>
		</g>
		<g id="XMLID_00000030466002700975501010000015194047085708054442_">
			<path id="XMLID_00000039113373052917756040000005707499532059790497_" class="st30" d="M230.2,297.1c2.2,11.4,19.2,11.8,26.8,9
				C267.2,298.4,225.3,277.9,230.2,297.1z"/>
			<path id="XMLID_00000124883997127716158280000009919204839859778988_" class="st31" d="M230.2,297.1c2.2,11.4,19.2,11.8,26.8,9
				C267.2,298.4,225.3,277.9,230.2,297.1z"/>
			<path id="XMLID_00000171688111097544275730000010180517719740569746_" class="st30" d="M230.2,297.1c1.8,8.8,11.5,10.6,18.8,10.4
				c7.4,0.1,12.8-2,7.9-8.1c-0.1,8.1-28.1-0.8-21.1-10.3C231.6,288.9,228.9,290.9,230.2,297.1z"/>
			<path id="XMLID_00000114072985929060267470000014670961223268962997_" class="st30" d="M230.2,297.1c1.8,8.8,11.5,10.6,18.8,10.4
				c-10.7-0.6-21.9-12.8-13.1-18.4C231.6,288.9,228.9,290.9,230.2,297.1z"/>
		</g>
		<g id="XMLID_00000018198401328556512990000009668283413401741979_">
			<path id="XMLID_00000095329758092576569070000002187969574358876603_" class="st30" d="M321.4,260.3c47.6-28,62.1-20.9,62.1-20.9
				c-0.8,3.1-3.3,6.7-9.8,12c-4.6,3.7-11.3,8.2-17.2,12.2c-14.1,9.9-30.2,19-35.1,21.9c-24.3,13.2-48.3,24.2-52.4,19.3
				C269.1,304.8,273.8,288.3,321.4,260.3z"/>
			<path class="st30" d="M321.4,260.3c-47.6,28-52.4,44.5-52.4,44.5c18.5-18.3,79-61.5,114.2-65.5
				C380.7,238.4,364.8,234.8,321.4,260.3z"/>
		</g>
		<g>
			<path class="st30" d="M240.7,247.6l27.6,59.1c5.2,9,60-18.8,92.7-41.9c15.8-11.1,26.4-21.2,23.9-25.5
				c-12.9-16.6-29.4-34.1-46-48.4c-1.7,1.7-3.4,3.4-5.3,5.1c-4.2,3.9-8.7,7.6-13.6,11.3C299,223,272,236.2,240.7,247.6z M247.6,254
				c-1.1-2.3,0-5.1,2.5-6c29.6-11.4,53.3-23.8,72.1-37.8c5.1-3.8,9.7-7.6,13.9-11.5c0,0,0,0,0,0c1.7-1.6,4.3-1.6,6-0.1
				c14.5,13,28.7,28.6,39.5,42.4c-0.3,1.1-2.8,6.8-22.7,20.9c-30.8,21.7-73.4,42.9-86.2,42.9c-0.8,0-1.2-0.1-1.4-0.1L247.6,254z"/>
			<path class="st35" d="M271.3,304.7c0.2,0.1,0.7,0.1,1.4,0.1c12.7,0,55.4-21.3,86.2-42.9c19.9-14,22.4-19.7,22.7-20.9
				c-10.8-13.8-25-29.4-39.5-42.4c-1.7-1.5-4.3-1.5-6,0.1c0,0,0,0,0,0c-4.1,3.8-8.8,7.7-13.9,11.5c-18.8,14.1-42.5,26.5-72.1,37.8
				c-2.4,0.9-3.5,3.7-2.5,6L271.3,304.7z"/>
			<g>
				<path class="st35" d="M358.9,261.9c-5,3.5-10.2,7-15.6,10.4c-11.1-18-28.9-44.1-35.2-52.4c5-3.1,9.7-6.4,14.2-9.7
					c2.9-2.1,5.6-4.3,8.2-6.5c16.4,15.2,32.9,40.2,39.1,50.3C366.7,256.2,363.2,258.9,358.9,261.9z"/>
				<path class="st35" d="M297.9,225.8c2-1.1,4-2.3,5.9-3.4c5.6,7.3,20.1,27.3,35.1,52.5c-2.2,1.3-4.4,2.6-6.6,3.9
					C325.2,267.1,311.4,245.1,297.9,225.8z"/>
			</g>
			<path class="st31" d="M304.5,292.3c-15.5,7.4-31.7,12.5-33,9.1c-1.3-3.5-14-28.2-17.3-37.2c-3.2-9-4-10-1.9-12.7
				c2.1-2.7,13.9-7.1,33-16.1c19.1-9,36.9-25.2,36.9-25.2c-18.8,14.1-42.5,26.5-72.1,37.8c-2.4,0.9-3.5,3.7-2.5,6l23.7,50.7
				c0.2,0.1,0.7,0.1,1.4,0.1c12.7,0,55.4-21.3,86.2-42.9C352.6,266.5,320,284.8,304.5,292.3z"/>
		</g>
		<path class="st31" d="M298.2,340.4c-6.9-4.5-14.8-6.7-22.8-3.3c-3.9,1.7-8.6,4.6-8.8,9.3c0,0.2,0,0.5,0.1,0.7
			c0.3,0.6,0.7,0.8,1.2,0.7c0.9-0.1,1.8-1,2.3-1.3c5.3-4,11.8-4.6,18.2-3.2c9.3,2.1,16.1,9.6,23.7,15.3c0.6,0.5,1.6,0.9,2.1,0.2
			c0.2-0.3,0.2-0.6,0.1-0.9C313.2,353.3,303.5,344,298.2,340.4z M393.5,354.9c-8.2-2.2-30.1-13.9-36.2-18.1
			c-5.7-3.9-12.5-8.6-17.5-12.3c-5.1-3.7-10.2-7.3-15.3-10.9c-5.6-3.9-11.2-7.9-16.9-11.7c0,0-6.6,2.5-11.7,3.1
			c9.1,2.2,10.7,1.2,20.4,7c9.5,5.7,16.3,11,26.1,18c10.6,7.5,33.9,23.2,46.9,26.2c2.5,0.6,5,1,7.6,1.2c4.1,0.3,8.3,0.2,12.3-0.6
			C406.4,357.5,396.3,355.7,393.5,354.9z M405.7,331.2c-12.1-19.3-37.1-35.3-58-45.8C367.9,299.1,390.1,312.7,405.7,331.2z
			 M439.2,321.7c-2.3-7.5-5.4-13.2-7.9-16.5c-9.6-12.7-22-23.2-29.9-29.9c-3.2-2.7-6.6-5.6-9.6-8.7c-9.7-10.1-7.1-17.6-7.1-17.6
			s-2,3.5-2.3,7.9c-0.3,4.4,5.1,10,17.3,20.2c5.5,4.6,16.3,13.9,28.5,29c4.1,5,6.2,8.9,8.3,14.8c2.1,5.7,3.9,11.6,2.6,17.5
			C440.3,332.5,441.5,329.2,439.2,321.7z"/>
		<g>
			<g>
				<path class="st30" d="M355.6,360.7c36.1,19.9,2.9,21-17,13.8c-7.2-1.9-12.4-7.7-12.2-15.3c-0.2-3.2,0.1-6.9,4-7
					C339.6,352.1,347.9,356.5,355.6,360.7z"/>
			</g>
			<path class="st30" d="M340.9,375.2c-1.2-0.8-2.4-1.6-3.4-2.7c-3.3-3.3-4.9-8.5-3.4-13c0.2-0.8,0.6-1.5,1.1-2.1
				c0.9-1,2.2-1.3,3.5-1.6c2.5-0.4,5.1-0.4,7.7,0.1c-5-2.2-10.3-3.9-15.8-3.8c-3.9,0-4.3,3.8-4,7c-0.2,7.6,5,13.4,12.2,15.3
				C339.4,374.8,340.1,375,340.9,375.2z"/>
			<g>
				<path class="st30" d="M451.4,317.6c0.4,3.3,1.3,7,1.8,8.5c3.3,8.5,7.2-5.9,7.5-9.1c0.5-4.8-1.4-11.9-4.2-16.9
					c-2.8-5-5.6-5-5.8-1.9C450.5,300.9,450.4,309.4,451.4,317.6z"/>
			</g>
			<path class="st30" d="M456.5,300c-2.8-5-5.6-5-5.8-1.9c0,0.7-0.1,1.7-0.1,2.9c0.2-0.2,0.5-0.4,0.9-0.5c1.2-0.3,2.4,0.5,3.3,1.4
				c2.4,2.3,4,5.4,4.8,8.6c0.4,1.7,0.7,3.4,1,5.1c0.1,0.5,0.2,1,0.2,1.5c0,0,0-0.1,0-0.1C461.2,312.1,459.3,305,456.5,300z"/>
			<path class="st30" d="M353.1,386.5c1.7,1,3.2,2.2,4.1,3.5c0.6,0.9,1.1,2.1,0.6,3c-0.3,0.7-1.1,1.2-1.9,1.4
				c-1.6,0.6-3.4,0.5-5.1,0.4c-3-0.2-6.5-0.6-8.5-3.2c-1.6-2.1-1.8-4.8,0.8-6.2C346,383.9,350,384.7,353.1,386.5z"/>
		</g>
		<g>
			<path class="st34" d="M273.3,311.7c6.6,7.9,13.8,12.9,38.1,22.8c24.2,9.9,41.7,19.1,47,22.5c-16.1-6.8-30.5-13.2-48.1-19.9
				C290.8,329.7,280.6,326.9,273.3,311.7z"/>
			<path class="st34" d="M447.2,304.8c-2.6-11.3-11-22.2-22.7-34.7c-12.2-13.2-19.4-18.5-19.4-18.5l-11.3-7.9
				c0,0,19.3,17.9,29.2,28.1C434.7,283.7,442.1,292.5,447.2,304.8z"/>
		</g>
		<g>
			<path class="st30" d="M371.7,369.6c10.6,1.1,28.6-1.7,51-14.2c15.8-8.8,26.5-22.2,27.9-28.8c0,5.9,4.2,6.2,4.2,6.2
				s-4.3,14.7-32.3,30.3c-22.2,12.4-47.1,14.4-47.1,14.4S377.7,373.3,371.7,369.6z"/>
			<path class="st31" d="M371.7,369.6c10.6,1.1,28.6-1.7,51-14.2c15.8-8.8,26.5-22.2,27.9-28.8c0,5.9,4.2,6.2,4.2,6.2
				s-4.3,14.7-32.3,30.3c-22.2,12.4-47.1,14.4-47.1,14.4S377.7,373.3,371.7,369.6z"/>
		</g>
		<g>
			<path class="st30" d="M427.3,364.3c-26.8,15.8-42.3,14.7-45.7,18.3c-3.4,3.6,4.6,12.5,13.3,12c10.8-0.7,23.2-6.8,34-13
				c10.7-6.2,20.5-14.6,23.7-21.3c6.1-13,6.6-27,2.5-20.1C450.9,347,443.7,354.6,427.3,364.3z"/>
			<path class="st30" d="M445.1,366.4c-6.2,5.4-13.2,9.9-20.5,13.9c-9.6,5.3-19.9,9.7-30.6,12.3c18.2-2.9,46.2-16.9,56.8-32.1
				C449.1,362.6,447.2,364.6,445.1,366.4z M448.5,352.3c2.4-2.6,4.6-5.3,6.6-8.2c-17.4,22.4-44.8,33.8-71.6,40.4
				C407.4,379.9,431.5,370.4,448.5,352.3z M447.8,360c-15.7,14.9-36.5,24.6-57.3,29.8c21.4-3.8,49-16.8,61.7-34.9
				c0,0-1.4,1.7-1.4,1.7C450.1,357.7,448.6,359.1,447.8,360z M447.2,356.8c-16.5,15.8-38.2,24.9-60.2,30.4
				c24.7-4.7,51.8-16.7,66.7-37.6C451.6,352.1,449.5,354.6,447.2,356.8z"/>
		</g>
	</g>
</g>
</svg>
