<?xml version="1.0" encoding="utf-8"?>
<!-- Generator: Adobe Illustrator 19.0.0, SVG Export Plug-In . SVG Version: 6.00 Build 0)  -->
<svg version="1.1" id="Layer_1" xmlns="http://www.w3.org/2000/svg" xmlns:xlink="http://www.w3.org/1999/xlink" x="0px" y="0px"
	 viewBox="234 -144 1080 1080" style="enable-background:new 234 -144 1080 1080;" xml:space="preserve">
<style type="text/css">
	.st0{fill:#FFFFFF;}
	.st1{fill:#FC64B0;}
	.st2{fill:#C9C9C9;}
	.st3{fill:#FEC8C7;}
</style>
<g>
	<path d="M710.2,692.7c0,0,25.7,9.1,67.1,14.8s85.2,7.7,85.2,7.7l-5-26.2l-135.2-16.1L710.2,692.7z"/>
</g>
<g>
	<path d="M805.8,552c1.4,5.4,167.4,20,167.4,20l79.1,7.7l66-17.8l-21.1-37.5l-25.7-15.5l-184.1-10.7l-48.6,23.4L805.8,552z"/>
</g>
<g>
	<polygon class="st0" points="819.2,555 929.5,500.9 955.4,502.4 867.6,556.3 	"/>
</g>
<g>
	<polygon class="st0" points="886.6,560.5 969,502 973.7,502.7 901.8,561.6 	"/>
</g>
<g>
	<polygon class="st0" points="1025.7,580.9 1075.4,512.6 1080.1,513.2 1040.9,581.9 	"/>
</g>
<g>
	<path class="st1" d="M1143.5,615.4c-0.5-13.2-9.5-47.4-13.2-52.7c-3.7-5.2-10.3-5-11.3-7.7c-1.1-2.7-10.1-32-38.4-46.5
		c-28.4-14.6-166.4-20.3-201-10.5S795,553.5,795,553.5s-28.5,10.7-51.4,20.6c-22.3,9.8-29.7,20-29.7,20s12.5,12,12.6,17.3
		c0,2.2-2.9,4.7-11.8,6c-8.9,1.3-15.5-6.6-15.5-6.6s0.8,70.3,1.6,72.3c0.8,2,5.5,8.1,9.5,9.5c6.5,2.2,12-12.1,16-14
		c6.2-3,116.1,16,119.7,18.4c3.5,2.4,13,16.6,16.6,18.1s93.1,0.9,95.7-2c2.6-2.9-2.2-27.5,2.6-52.1c3.3-16.8,10.9-34.1,26.3-38.8
		c15.4-4.7,25.8,9.7,30,26.4c6.1,24.5-1.4,44.2-0.6,45.5s90.2-23.7,92.6-26.4c1-1.1-1.2-10.8-0.8-21.7c0.4-10.8,5.5-29.8,15.5-32.9
		c7.8-2.4,13.6,5.2,14.4,16.2c0.9,11.5-2,26.1-0.2,21.1C1139.8,645.7,1144,628.6,1143.5,615.4z M942.7,630.6
		c-7.7,8.1-73.8,12.2-83.6,8.3c-9.9-3.9-20.9-9.5-20.3-13.2c0.5-3.2,31.2-11.4,55.6-14c24.5-2.6,49.3-6.7,52.7-4.5
		C950.4,609.3,950.4,622.5,942.7,630.6z M975.1,563.5c-11.8,1-68.8-6.3-88.5-8.3c-15.6-1.6-57-1.6-73.7-1.6c-2.5,0-3.7-3.1-1.8-4.8
		c5-4.4,13.4-11.4,24.2-19.5c18.3-13.6,37.4-23.4,51.6-26.3s130.3,1.3,133.8,8.8c0.6,1.2-3.1,5.1-13.1,19.1
		C998.8,543.3,986.9,562.6,975.1,563.5z M1108.9,561.2c-2.4,4.3-60.9,10.8-60.9,10.8s0.3-4.8-9.1-9.7c-17.2-8.9-37.9,4.3-37.9,4.3
		s32-45.2,36.5-50c6.4-7,26.1-6.2,44.4,0.9S1111.3,556.8,1108.9,561.2z"/>
</g>
<g>
	<path d="M1026.2,588.8c-9.8,0-20.9-0.6-22.9-0.7c-0.8,0-1.5-0.8-1.4-1.6c0-0.8,0.7-1.4,1.6-1.4c8.5,0.5,31.7,1.3,36.4-0.2
		c5.4-1.8,6.6-6.9,6.6-7.1c0.2-0.8,1-1.3,1.8-1.2s1.3,1,1.2,1.8c-0.1,0.3-1.5,7-8.6,9.3C1038.4,588.6,1032.6,588.8,1026.2,588.8z"/>
</g>
<g>
	<path class="st0" d="M1042.3,666.9c-4.6,0-7.7-2.8-8.5-7.9c-1.4-8,4.9-19.5,16-29.5c10.4-9.2,22.2-14.9,33.8-16.7
		c-0.1-3.6-1.9-5.5-6-6.2c-30.4-5.6-58,14.2-58.3,14.4l-3.5-4.9c1.2-0.9,30-21.5,62.9-15.4c6.7,1.2,10.6,5.4,10.9,11.6
		c5.1-0.2,10.2,0.4,15,1.9l-1.7,5.8c-2.4-0.7-7.4-1.9-14-1.5c-4.8,18.5-31.6,47.6-45.9,48.4C1042.7,666.9,1042.5,666.9,1042.3,666.9
		z M1082.4,619.3c-8.3,1.6-18.3,5.7-28.7,14.8c-9.3,8.3-15.1,18.1-14.1,23.9c0.5,2.8,1.7,3,2.9,2.9
		C1052.8,660.4,1076.8,635.8,1082.4,619.3z"/>
</g>
<g>
	<path d="M994.5,733.3c-0.6,0-1.2,0-1.8-0.1c-7.5-0.9-13.7-7.7-17.5-19.1c-3.7-11-4.7-25.2-2.8-39.8c3.9-31.2,18.9-54.1,34.2-52.2
		c15.3,1.9,24.2,27.8,20.3,59C1023.1,710.9,1009.1,733.3,994.5,733.3z M1004.7,624.8c-12.9,0-25.9,21.7-29.4,49.7
		c-1.8,14.2-0.8,27.9,2.7,38.5c3.4,10.2,8.7,16.3,15,17.1c13.4,1.7,27.2-20.6,30.8-49.6c3.6-29-4.3-54-17.7-55.6
		C1005.7,624.9,1005.2,624.8,1004.7,624.8z M973.8,674.3L973.8,674.3L973.8,674.3z"/>
</g>
<g>
	<path d="M997.9,701.1c-0.2,0-0.3,0-0.5,0c-5.3-0.7-6.6-12.3-5.2-23.4c1.3-10.8,5.3-21.5,10.4-21.5c0.2,0,0.3,0,0.5,0
		c1.7,0.2,4,1.8,5.2,7.9c0.8,4.3,0.8,9.8,0.1,15.5C1006.9,690.5,1002.9,701.1,997.9,701.1z M1002.6,659.2c-1.8,0-5.8,6.5-7.4,18.8
		c-1.6,12.6,0.9,19.9,2.6,20.1c0,0,0,0,0.1,0c1.8,0,5.8-6.5,7.4-18.8c0.7-5.5,0.7-10.6-0.1-14.6
		C1004.5,660.5,1003.2,659.3,1002.6,659.2C1002.6,659.2,1002.6,659.2,1002.6,659.2z"/>
</g>
<g>
	<path d="M1115,681.4c-0.4,0-0.8,0-1.2-0.1c-5.1-0.6-9.3-5.2-11.8-12.8c-2.4-7.2-3.1-16.5-1.9-26.1l0,0c1.2-9.6,4.1-18.5,8.2-24.9
		c4.3-6.8,9.5-10.2,14.6-9.5c5.1,0.6,9.3,5.2,11.8,12.8c2.4,7.2,3.1,16.5,1.9,26.1s-4.1,18.5-8.2,24.9
		C1124.4,678.1,1119.7,681.4,1115,681.4z M1121.7,611c-3.6,0-7.5,2.9-10.9,8.2c-3.9,6.1-6.6,14.5-7.8,23.6l0,0
		c-1.1,9.2-0.5,18,1.8,24.8c2.1,6.4,5.5,10.3,9.3,10.8c3.8,0.5,8.1-2.5,11.7-8.2c3.9-6.1,6.6-14.5,7.8-23.6s0.5-18-1.8-24.8
		c-2.1-6.4-5.5-10.3-9.3-10.8C1122.3,611,1122,611,1121.7,611z M1101.6,642.6L1101.6,642.6L1101.6,642.6z"/>
</g>
<g>
	<path d="M1117.2,660.5c-0.1,0-0.2,0-0.4,0c-3.9-0.5-4.8-8.5-3.8-15.8l0,0c0.9-7.3,3.7-14.9,7.6-14.4c1.3,0.2,3,1.3,3.8,5.6
		c0.5,2.8,0.5,6.5,0.1,10.2c-0.5,3.8-1.4,7.3-2.6,9.9C1120.3,659.7,1118.5,660.5,1117.2,660.5z M1116,645.1
		c-1,7.8,0.5,12.2,1.3,12.5c0.7-0.1,3.3-4,4.2-11.8c1-7.8-0.5-12.2-1.3-12.5C1119.5,633.4,1117,637.3,1116,645.1L1116,645.1z"/>
</g>
<g>
	<path d="M980.4,732.3C980.4,732.3,980.4,732.3,980.4,732.3c-1,0-22.5-1-31.5-7.2c-5.2-3.6-6-6.7-6.1-7.1c-0.2-0.8,0.4-1.6,1.2-1.8
		c0.8-0.2,1.6,0.3,1.8,1.1c0,0.1,0.7,2.4,4.8,5.2c8.3,5.7,29.6,6.7,29.9,6.7c0.8,0,1.5,0.7,1.4,1.6
		C981.9,731.7,981.2,732.3,980.4,732.3z"/>
</g>
<g>
	<path d="M1103.7,680.5c-0.1,0-0.2,0-0.2,0l-8.7-1.4c-0.8-0.1-1.4-0.9-1.2-1.7c0.1-0.8,0.9-1.4,1.7-1.2l8.7,1.4
		c0.8,0.1,1.4,0.9,1.2,1.7C1105.1,680,1104.4,680.5,1103.7,680.5z"/>
</g>
<g>
	<path d="M801.8,630.4c-48.1,0-65.7-11.8-66.6-12.4c-0.7-0.5-0.8-1.4-0.4-2c0.5-0.7,1.4-0.8,2-0.4c0.1,0.1,6.2,4.1,20.5,7.5
		c13.3,3.1,36.8,6.2,72.5,3.2c0.8-0.1,1.5,0.5,1.6,1.3c0.1,0.8-0.5,1.5-1.3,1.6C819.8,630,810.3,630.4,801.8,630.4z"/>
</g>
<g>
	<path class="st1" d="M1080.3,511.9c-0.2,1.7-0.1,61.9-0.1,61.9l9-2.5l-3-57.6L1080.3,511.9z"/>
</g>
<g>
	<path d="M830.2,618.2c-0.2,0-0.3,0-0.5-0.1c-0.2-0.1-22.3-8.1-49.1-11.8c-26.5-3.7-43,2.2-43.2,2.2c-0.8,0.3-1.6-0.1-1.9-0.9
		s0.1-1.6,0.9-1.9c0.7-0.3,17.3-6.2,44.6-2.4c27.1,3.8,49.5,11.9,49.7,12c0.8,0.3,1.2,1.1,0.9,1.9
		C831.3,617.9,830.8,618.2,830.2,618.2z"/>
</g>
<g>
	<path d="M836.1,680.1C836,680.1,836,680.1,836.1,680.1c-3-0.1-28.6-3.2-52.7-6.5c-48.9-6.7-50.6-8-51.3-8.5
		c-3.2-2.5-17.6-27.7-20.4-32.7c-0.4-0.7-0.1-1.6,0.5-2c0.7-0.4,1.6-0.2,2,0.5c6.4,11.4,17.4,29.9,19.6,31.8
		c1.7,0.8,15.9,3.3,50.7,8.1c25.5,3.5,49,6.3,51.5,6.4c0,0,0,0,0,0c3.5,0,24.7-13.4,43-26.1c0.7-0.5,1.6-0.3,2,0.4
		c0.5,0.7,0.3,1.6-0.4,2C874.3,658,842,680.1,836.1,680.1z"/>
</g>
<g>
	<path class="st1" d="M448.1,335c0,0-30.3-13.7-51.7-7c-21.4,6.6-29,36-32.1,50.7c-3.1,14.7-8.6,60.2-7.4,61.8
		c1.1,1.6,0.2-2.6,16.2-4.8c21.8-3,63.1,35,63.1,35s-1.4,39,5.6,37.2c8.2-2.2,67-70.7,74.6-82.6c3.8-6-1.8-26.5-3.1-29.7
		s-1.2-10.8-0.1-13.7c2-5.5,7.6-8.9,18.8-14L505,352.1c0,0,0.1,12.3-11.2,12.3C462.2,364.4,448.1,335,448.1,335z"/>
</g>
<g>
	<path class="st2" d="M463.2,781.3h147c10.2,0,18-7.8,16.7-16.7c-6.8-45.4-25.9-168.6-38-178.7c-44.3-36.7-120.1-4.3-139.5,10
		c-19.4,14.3-34.8,59.5-32.1,83.4c2.1,18.7,21.5,70.1,30,91.9C449.6,777.3,456,781.3,463.2,781.3z"/>
</g>
<g>
	<path class="st1" d="M771,302h-37.9c-3.7,0-7.1,2.3-8.3,5.8l-29.1,80c-2.1,5.8,2.2,11.9,8.3,11.9h37.9c2.9,0,5.6-1.4,7.2-3.7
		l-0.8-0.3c0,0-23.7-10.5-22.5-15.3c1.2-4.8,22.8,1,22.8,1s-24.3-26.8-19.8-30.6s25.5,10.8,25.5,10.8v-7.9c0,0-4.7-20.6,1.1-19.5
		s12,12.8,12,12.8l0,0l12.1-33.2C781.5,308.1,777.2,302,771,302z"/>
</g>
<g>
	<g>
		<path d="M1130.7,517.4c-0.8,0-1.5-0.7-1.5-1.5V234.4l-94.3-66v301.1c0,0.8-0.7,1.5-1.5,1.5c-0.8,0-1.5-0.7-1.5-1.5v-304
			c0-0.6,0.3-1.1,0.8-1.3c0.5-0.3,1.1-0.2,1.5,0.1l97.4,68.1c0.4,0.3,0.6,0.7,0.6,1.2v282.3C1132.2,516.7,1131.5,517.4,1130.7,517.4
			z"/>
	</g>
	<g>
		<path d="M819.2,495.2c-0.8,0-1.5-0.7-1.5-1.5V311.5c0-0.5,0.2-1,0.6-1.2l97.3-68.1c0.7-0.5,1.6-0.3,2.1,0.4
			c0.5,0.7,0.3,1.6-0.4,2.1l-96.7,67.7v181.4C820.7,494.5,820,495.2,819.2,495.2z"/>
	</g>
	<g>
		<path d="M916.5,461.5c-0.8,0-1.5-0.7-1.5-1.5V107c0-0.8,0.7-1.5,1.5-1.5h146c0.8,0,1.5,0.7,1.5,1.5V146c0,0.8-0.7,1.5-1.5,1.5
			s-1.5-0.7-1.5-1.5v-37.4H918V460C918,460.8,917.3,461.5,916.5,461.5z"/>
	</g>
	<g>
		<path d="M1130.7,274h-54.3c-0.8,0-1.5-0.7-1.5-1.5s0.7-1.5,1.5-1.5h54.3c0.8,0,1.5,0.7,1.5,1.5S1131.5,274,1130.7,274z"/>
	</g>
	<g>
		<path d="M1130.7,322.7h-54.3c-0.8,0-1.5-0.7-1.5-1.5s0.7-1.5,1.5-1.5h54.3c0.8,0,1.5,0.7,1.5,1.5S1131.5,322.7,1130.7,322.7z"/>
	</g>
	<g>
		<path d="M1130.7,371.4h-54.3c-0.8,0-1.5-0.7-1.5-1.5s0.7-1.5,1.5-1.5h54.3c0.8,0,1.5,0.7,1.5,1.5S1131.5,371.4,1130.7,371.4z"/>
	</g>
	<g>
		<path d="M1227.9,471h-54.3c-0.8,0-1.5-0.7-1.5-1.5s0.7-1.5,1.5-1.5h54.3c0.8,0,1.5,0.7,1.5,1.5S1228.8,471,1227.9,471z"/>
	</g>
	<g>
		<path d="M1227.9,519.6h-54.3c-0.8,0-1.5-0.7-1.5-1.5s0.7-1.5,1.5-1.5h54.3c0.8,0,1.5,0.7,1.5,1.5S1228.8,519.6,1227.9,519.6z"/>
	</g>
	<g>
		<path d="M873.5,342.2h-54.3c-0.8,0-1.5-0.7-1.5-1.5s0.7-1.5,1.5-1.5h54.3c0.8,0,1.5,0.7,1.5,1.5S874.3,342.2,873.5,342.2z"/>
	</g>
	<g>
		<path d="M873.5,390.8h-54.3c-0.8,0-1.5-0.7-1.5-1.5s0.7-1.5,1.5-1.5h54.3c0.8,0,1.5,0.7,1.5,1.5S874.3,390.8,873.5,390.8z"/>
	</g>
	<g>
		<path d="M873.5,439.5h-54.3c-0.8,0-1.5-0.7-1.5-1.5s0.7-1.5,1.5-1.5h54.3c0.8,0,1.5,0.7,1.5,1.5S874.3,439.5,873.5,439.5z"/>
	</g>
	<g>
		<path d="M984.6,293.5h-68.1c-0.8,0-1.5-0.7-1.5-1.5s0.7-1.5,1.5-1.5h68.1c0.8,0,1.5,0.7,1.5,1.5S985.5,293.5,984.6,293.5z"/>
	</g>
	<g>
		<path d="M984.6,166.9h-68.1c-0.8,0-1.5-0.7-1.5-1.5s0.7-1.5,1.5-1.5h68.1c0.8,0,1.5,0.7,1.5,1.5S985.5,166.9,984.6,166.9z"/>
	</g>
	<g>
		<path d="M984.6,215.6h-68.1c-0.8,0-1.5-0.7-1.5-1.5s0.7-1.5,1.5-1.5h68.1c0.8,0,1.5,0.7,1.5,1.5S985.5,215.6,984.6,215.6z"/>
	</g>
	<g>
		<path d="M984.6,342.2h-68.1c-0.8,0-1.5-0.7-1.5-1.5s0.7-1.5,1.5-1.5h68.1c0.8,0,1.5,0.7,1.5,1.5S985.5,342.2,984.6,342.2z"/>
	</g>
</g>
<g>
	<path d="M1227.9,616.2c-0.8,0-1.5-0.7-1.5-1.5V416.3h-86.6c-0.8,0-1.5-0.7-1.5-1.5s0.7-1.5,1.5-1.5h88.1c0.8,0,1.5,0.7,1.5,1.5
		v199.9C1229.4,615.5,1228.8,616.2,1227.9,616.2z"/>
</g>
<g>
	<path d="M976.9,824.9c-0.6,0-1.1-0.3-1.4-0.9c-0.3-0.8,0-1.6,0.7-2c0.4-0.2,37.1-17.3,79.6-40.4c56.1-30.5,96.7-57.4,117.3-77.9
		c19.2-19.1,28.5-38.9,26.9-57.2c-1.2-13.8-8.3-22-8.3-22.1c-0.5-0.6-0.5-1.6,0.1-2.1c0.6-0.5,1.6-0.5,2.1,0.1
		c0.3,0.4,7.7,8.9,9,23.6c2.3,24.3-13.8,45.9-27.8,59.8c-14.5,14.4-46.8,39.8-118,78.5c-42.5,23.1-79.4,40.3-79.8,40.4
		C977.4,824.8,977.2,824.9,976.9,824.9z"/>
</g>
<g>
	<path class="st3" d="M473.5,255.6c0,0,15.4,1.2,19.3,18.3c4.8,21.1-9.6,32-9.6,32s-16.4-5.6-23.4-26.7c5.1-7.5,2.4-17,2.4-17
		S466.4,263.7,473.5,255.6z"/>
</g>
<g>
	<path d="M627.1,697.5c-0.7,0-1.3-0.5-1.5-1.2c-0.2-0.8,0.3-1.6,1.1-1.8l63.8-14.1c0.8-0.2,1.6,0.3,1.8,1.1c0.2,0.8-0.3,1.6-1.1,1.8
		l-63.8,14.1C627.3,697.5,627.2,697.5,627.1,697.5z"/>
</g>
<g>
	<path d="M449.8,155.7c-0.1,0-0.2,0-0.3,0c-0.4-0.1-35.9-6.7-54.1-38.3c-17.9-31-6.1-68.4,15.7-82.5c0.7-0.4,1.6-0.3,2.1,0.4
		s0.3,1.6-0.4,2.1c-9.9,6.4-17.9,18.6-21.3,32.4c-3.8,15.7-1.5,32.1,6.5,46c17.5,30.4,51.7,36.8,52,36.8c0.8,0.1,1.4,0.9,1.2,1.7
		C451.1,155.2,450.5,155.7,449.8,155.7z"/>
</g>
<g>
	<path d="M639,397.5c-0.7,0-1.4-0.5-1.5-1.3c-0.1-0.8,0.5-1.6,1.3-1.7c0.1,0,15.2-2.6,27.6-33.4c6.3-15.5,5.9-36.5,1.7-54.7
		c-4.4,2.6-9.7,3.1-15.4,1.3c-25.3-7.8-28.2-23.5-25.9-31.5c2.4-8.6,10.6-13.2,19.4-11c6.1,1.6,11.9,7.6,16.9,17.4
		c2.7,5.3,5,11.6,6.9,18.5c0.6-0.6,1.2-1.3,1.8-2.1c7.6-10.1,10.6-31,8-55.7c-2.6-25.2-10.7-50.1-21.6-66.7
		c-4.8-7.3-9.7-13.6-14.6-19c-3.1,3.7-7.1,6.6-11.8,8.6c-12.3,5.2-29.1,3.2-39-4.7c-5.7-4.6-8.2-10.4-7.1-16.5
		c1.4-7.8,6-12.9,13-14.3c7.9-1.6,18.1,1.5,28.8,8.8c5.4,3.6,10.7,8.2,15.9,13.6c2.8-4.1,4.9-9.7,5.6-16.9
		c2.1-21.8-5.3-47.7-21-72.9c-14.9-24.1-35.4-44.3-56.2-55.5c-28-15.1-58-19-82.3-10.8c-20.8,7.1-36.7,22.6-47.2,46.2
		c-11.3,25.3-10.1,49.9,3.3,73.2c10.1,17.5,23.7,27.6,23.9,27.7c0.7,0.5,0.8,1.4,0.3,2.1c-0.5,0.7-1.4,0.8-2.1,0.3
		c-0.6-0.4-14.2-10.6-24.6-28.5c-9.6-16.7-18.1-43.4-3.5-76.1c10.8-24.4,27.3-40.4,48.9-47.8c25.1-8.6,56-4.6,84.7,11
		c21.3,11.5,42.2,32.1,57.3,56.6c16,25.8,23.6,52.3,21.4,74.8c-0.7,7.4-2.9,13.7-6.5,18.8c5.3,5.8,10.5,12.4,15.3,19.7
		C684.1,210.9,691.3,278,674,301c-1,1.4-2.2,2.6-3.3,3.6c4.5,19,5.1,41.3-1.5,57.7c-13.2,32.6-29.3,35.1-30,35.2
		C639.1,397.5,639,397.5,639,397.5z M641.8,267.9c-5.2,0-10.4,2.9-12.2,9.3c-3.7,13,9.4,23.3,23.9,27.8c5.3,1.6,9.9,1.1,13.8-1.5
		c-1.8-7.1-4.2-13.7-7-19.3c-4.5-8.9-9.8-14.5-14.9-15.8C644.2,268,643,267.9,641.8,267.9z M602.8,133.4c-1.3,0-2.5,0.1-3.6,0.4
		c-5.8,1.2-9.5,5.3-10.7,11.9c-1.2,6.3,2.7,10.9,6,13.6c9.1,7.3,24.5,9.1,35.9,4.3c3.6-1.5,7.6-4,10.9-8
		C626.7,140.2,612.6,133.4,602.8,133.4z"/>
</g>
<g>
	<path d="M428.6,163c-11.7,0-32.2-3.6-46.4-26.3c-0.4-0.7-0.2-1.6,0.5-2.1s1.6-0.2,2.1,0.5c8.3,13.2,19.6,21.3,33.6,24
		c10.5,2.1,18.6,0.2,18.7,0.2c0.8-0.2,1.6,0.3,1.8,1.1s-0.3,1.6-1.1,1.8C437.6,162.2,434,163,428.6,163z"/>
</g>
<g>
	<path d="M429.7,274.3c-0.3,0-0.6-0.1-0.9-0.3c-9.3-7.2-16-21-17.8-37c-1.9-16.7,1.7-33.5,9.9-46.1c15.8-24.4,36.8-24.5,41.5-24.2
		c3.1-4,18.9-21.9,50.2-14c28.8,7.3,55.6,32.1,61,56.5c4.3,19.6-0.8,33.8-5.9,42.4c-5.5,9.3-12,13.8-12.2,14
		c-0.7,0.5-1.6,0.3-2.1-0.4c-0.5-0.7-0.3-1.6,0.4-2.1c0.3-0.2,24.7-17.7,16.9-53.2c-5.1-23.4-30.9-47.2-58.8-54.2
		c-32.8-8.3-46.9,12.6-47.5,13.5c-0.3,0.5-0.9,0.7-1.4,0.7c-0.1,0-5.8-0.7-13.5,1.8c-7.1,2.3-17.4,7.7-26,21
		c-14.3,22-13.7,62.8,7.3,79c0.7,0.5,0.8,1.5,0.3,2.1C430.6,274.1,430.2,274.3,429.7,274.3z"/>
</g>
<g>
	<path class="st3" d="M547.1,273c0,0-7.3,1.5-12.5,14.7c-5.2,13.2,0,27.7,0,27.7s7.2-3.8,10.9-16.2C549.2,286.8,547.1,273,547.1,273
		z"/>
</g>
<g>
	<path d="M443.5,295.7c-5,0-8.8-2.2-9-2.3c-0.7-0.4-1-1.3-0.6-2c0.4-0.7,1.3-1,2.1-0.5c0.1,0.1,6.1,3.4,12.1,1.1
		c4.5-1.7,8-6.2,10.4-13.3c1.6-4.8,2.3-9.8,2.4-14.8c-3,0.2-6.1-0.3-9.3-1.5c-16.3-6.2-20.9-16.7-19.7-24.3
		c1-6.5,5.8-11.3,11.8-11.7c3.9-0.3,7.7,1.9,11.2,6.4c4.8,6.2,8.4,16.6,9,27.6c2.7-0.8,5.3-2.3,7.7-4.6c12-11.4,17-40,10.6-59.9
		c-0.3-0.8,0.2-1.6,1-1.9c0.8-0.3,1.6,0.2,1.9,1c6.9,21.3,1.6,50.8-11.3,63c-3,2.8-6.2,4.6-9.7,5.5c0,5.5-0.8,11-2.5,16.3
		c-2.7,8-6.8,13.1-12.2,15.2C447.1,295.4,445.2,295.7,443.5,295.7z M444.1,229.2c-0.1,0-0.3,0-0.4,0c-4.6,0.3-8.3,4.1-9,9.1
		c-1,6.5,3.2,15.5,17.8,21.1c2.9,1.1,5.6,1.5,8.2,1.3c-0.5-10.5-3.9-20.4-8.4-26.3C450.4,232,447.5,229.2,444.1,229.2z"/>
</g>
<g>
	<path d="M547.1,234.1c-8.9,0-21.6-1.9-36.4-9.7c-28.5-15-25.4-46.9-25.4-47.2c0.1-0.8,0.8-1.4,1.6-1.3c0.8,0.1,1.4,0.8,1.3,1.6
		c0,0.3-2.9,30.2,23.8,44.3c27,14.2,47.2,7.9,47.4,7.8c0.8-0.3,1.6,0.2,1.9,1c0.3,0.8-0.2,1.6-1,1.9
		C560,232.5,555.1,234.1,547.1,234.1z"/>
</g>
<g>
	<path d="M471,299.2c-0.4,0-0.8-0.2-1.1-0.5c-9.1-10.9-11.5-18.9-11.6-19.2c-0.2-0.8,0.2-1.6,1-1.9c0.8-0.2,1.6,0.2,1.8,1
		c0,0.1,2.3,7.8,11,18.1c0.5,0.6,0.5,1.6-0.2,2.1C471.7,299.1,471.4,299.2,471,299.2z"/>
</g>
<g>
	<path d="M516.5,322.8c-13.7,0-22.8-7-23.2-7.3c-0.6-0.5-0.8-1.5-0.3-2.1c0.5-0.6,1.5-0.8,2.1-0.3l0,0c0.1,0.1,13,9.9,30.5,5.6
		c13.3-3.3,20-15.4,21.1-38c0.2-3,0.1-6.1,0.1-9.5c-0.1-10-0.2-22.5,4.7-39.3c0.2-0.8,1.1-1.3,1.9-1s1.3,1.1,1,1.9
		c-4.8,16.4-4.7,28.1-4.5,38.4c0,3.4,0.1,6.5-0.1,9.6c-1.2,23.9-8.8,37.2-23.4,40.8C522.9,322.4,519.6,322.8,516.5,322.8z"/>
</g>
<g>
	<path d="M493.3,365.3c-29.3,0-46.3-29.3-46.5-29.6c-0.3-0.5-0.3-1.1,0-1.5c0.1-0.1,5.8-9.2,9.2-21.8c3.5-12.6,3.5-30,3.5-30.1
		c0-0.8,0.7-1.5,1.5-1.5l0,0c0.8,0,1.5,0.7,1.5,1.5c0,0.7,0,17.9-3.6,31c-3,11-7.6,19.3-9.1,21.8c3,4.7,20.3,30.2,48.1,27.1
		c0.8-0.1,1.6,0.5,1.7,1.3c0.1,0.8-0.5,1.6-1.3,1.7C496.5,365.2,494.9,365.3,493.3,365.3z"/>
</g>
<g>
	<path d="M503.1,358.5c-0.1,0-0.1,0-0.2,0c-0.8-0.1-1.4-0.9-1.3-1.7l5.6-35.9c0.1-0.8,0.9-1.4,1.7-1.3c0.8,0.1,1.4,0.9,1.3,1.7
		l-5.6,35.9C504.4,358,503.8,358.5,503.1,358.5z"/>
</g>
<g>
	<path d="M524.5,277.2c-0.7,0-1.3-0.5-1.5-1.1c-0.2-0.8,0.3-1.6,1.1-1.8c1.9-0.5,7.5-2.4,8-5.2c0.6-3-0.7-4.8-2.1-6.9
		c-1.6-2.3-3.4-5-2.7-9.2c1-5.3,4.2-9.8,8.9-12.5c4.7-2.6,10.2-3.1,15.1-1.2c0.8,0.3,1.2,1.2,0.9,1.9c-0.3,0.8-1.2,1.2-1.9,0.9
		c-4.1-1.5-8.7-1.2-12.5,1c-3.9,2.2-6.6,6-7.4,10.4c-0.5,3,0.7,4.8,2.2,7c1.6,2.3,3.4,5,2.6,9.2c-1,5.2-9.4,7.3-10.3,7.5
		C524.7,277.2,524.6,277.2,524.5,277.2z"/>
</g>
<g>
	<path d="M521.4,237.6c-0.5,0-1-0.3-1.3-0.7c-0.1-0.2-2.3-3.5-10.1-3.9c-6.9-0.3-10.4,1.9-10.4,1.9c-0.7,0.4-1.6,0.3-2.1-0.5
		c-0.5-0.7-0.3-1.6,0.4-2.1c0.2-0.1,4.3-2.8,12.2-2.4c9.6,0.5,12.4,5.2,12.5,5.4c0.4,0.7,0.1,1.6-0.6,2
		C521.9,237.5,521.6,237.6,521.4,237.6z"/>
</g>
<g>
	<ellipse transform="matrix(-0.9879 -0.155 0.155 -0.9879 966.9519 573.3333)" cx="505.8" cy="249" rx="3.4" ry="4.4"/>
</g>
<g>
	<ellipse transform="matrix(-0.9879 -0.155 0.155 -0.9879 1031.2181 589.1878)" cx="538.6" cy="254.4" rx="3.4" ry="4.4"/>
</g>
<g>
	<path d="M515.3,301.1c-0.6,0-1.3,0-2-0.1c-6.6-0.8-10.2-9.8-11-15.6c-0.6-4.5,0.3-7.6,2.4-8.5c3.8-1.5,17.1,5.2,22.4,9.2
		c2.4,1.9,3.4,3.3,3.2,4.7C529.8,294.6,523.7,301.1,515.3,301.1z M505.8,279.7c-0.3,0.1-1,1.6-0.5,5.3c0.8,6,4.1,12.5,8.3,13
		c7.4,0.9,13.2-4.8,13.7-7.5c-0.3-0.7-2.8-3-8.8-6.2C511.9,280.8,506.8,279.4,505.8,279.7z M527.4,290.6L527.4,290.6L527.4,290.6z
		 M505.8,279.7L505.8,279.7L505.8,279.7L505.8,279.7z M505.3,278.3L505.3,278.3L505.3,278.3z"/>
</g>
<g>
	<path d="M433,475.3c-0.4,0-0.8-0.2-1.1-0.5c-0.2-0.3-24.7-25.2-49.7-31.2c-13.1-3.2-17.3-1.2-18.6,0.3c-1.5,1.6-0.7,3.9-0.6,4
		c0.3,0.8-0.1,1.6-0.9,1.9c-0.8,0.3-1.6-0.1-1.9-0.9c-0.1-0.2-1.5-4,1.2-7c3.1-3.5,10.4-4,21.6-1.3c13.5,3.3,26.7,11.8,35.4,18.4
		c9.4,7.1,15.5,13.4,15.7,13.6c0.6,0.6,0.6,1.5,0,2.1C433.8,475.2,433.4,475.3,433,475.3z"/>
</g>
<g>
	<path d="M422.9,616.5c-2.9,0-5.7-0.4-8.5-1.3c-13.8-4.4-24.1-19.1-29-41.3c-9-40.7-10.6-131.1-10.6-132c0-0.8,0.7-1.5,1.5-1.5
		c0.8,0,1.5,0.7,1.5,1.5c0,0.9,1.6,91,10.5,131.4c4.6,20.8,14.4,35.1,27,39.1c10,3.2,21.3-0.2,31.7-9.6
		c28.2-25.5,65.1-110,65.5-110.9c0.2-0.4,0.5-0.7,0.9-0.8c0.1,0,14.5-4.5,19.5-8.1c2.7-2,6.2-4.8,9.9-7.9
		c5.8-4.8,12.5-10.3,18.1-13.8c4.2-2.6,8.8-4.5,12.9-6.2c4.7-2,9.6-4,10.2-5.9c-1-0.4-4.4-0.7-15.2,0.4c-8.5,0.9-17,3.8-17.1,3.9
		c-0.7,0.3-1.5-0.1-1.9-0.8c-0.3-0.7-0.1-1.5,0.6-1.9c0.1,0,8.3-4.8,17.8-9.6c2.5-1.2,4.9-2.3,7-3.2c4.4-1.9,8.2-3.5,9.8-5.7
		c0.6-0.8,0.5-1.2,0.5-1.2c-0.5-0.7-5.4-1.1-14.2,1.1c-4.7,1.2-9,2.4-12.5,3.6c-7.8,6-10.7,8-12.6,7.1c-1.6-0.8-1.7-2-1.7-2.5
		c0.2-2.4,5.9-5,13-7.3c0.2-0.1,0.3-0.2,0.5-0.3c3.4-2.6,7.3-5.6,11.2-8.2c6.2-4.2,10.9-9.2,11.3-11.7c-2.1-0.8-12.5,2.3-17.7,5
		c-12,6.2-24.5,15.3-24.6,15.4c-0.6,0.4-1.4,0.4-1.9-0.1s-0.6-1.3-0.2-1.9c0.4-0.6,9.9-13.9,13.3-17.3c2.9-2.9,9.5-9.6,9.6-15.6
		c-2.4,0.6-9.9,5.2-16.8,11.5c-9.9,8.9-25,27-25.2,27.1c0,0,0,0.1-0.1,0.1c-5.2,5.3-31.2,32.3-54.7,58.8
		c-10.1,11.3-17.9,20.5-23.9,27.8c-2.8,17-10.3,32.9-16.7,34.3c-1.3,0.3-3.7,0.3-5.5-3c-1-1.7-2.9-5.3,19.4-32.6
		c0.3-2.2,0.6-4.4,0.8-6.6c1.8-23.7-4.7-103.2-4.7-104c-0.1-0.8,0.6-1.5,1.4-1.6c0.8-0.1,1.6,0.5,1.6,1.4
		c0.3,3.3,6.6,80.6,4.7,104.5c-0.1,0.7-0.1,1.4-0.2,2c5.6-6.7,12.4-14.7,20.9-24.1c23.5-26.4,49.5-53.4,54.8-58.8
		c0.9-1,15.7-18.6,25.4-27.4c4.1-3.7,16.5-13.7,20.5-12.1c0.8,0.3,1.3,1.1,1.4,2c0.3,6.6-5.1,13-10.5,18.5c-1.6,1.6-4.9,5.9-7.7,9.7
		c4.8-3.2,11.3-7.3,17.7-10.5c3.2-1.6,17.1-7.2,20.9-4.7c0.8,0.5,1.3,1.4,1.2,2.4c-0.3,5.6-11.3,13.4-12.6,14.3
		c-1.7,1.2-3.4,2.4-5.1,3.7c1.7-0.5,3.3-0.9,4.9-1.3c4.4-1.1,15-3.3,17.4,0.2c0.6,0.9,1,2.3-0.6,4.5c-2.1,3-6,4.6-11,6.8
		c-2.2,0.9-4.5,1.9-6.9,3.1c-2.5,1.2-4.9,2.5-7.1,3.6c1.9-0.4,3.9-0.7,6-0.9c11.3-1.2,16.1-1,17.8,0.5c0.5,0.5,0.8,1.1,0.8,1.7
		c0,4-5.3,6.2-12.1,9c-4,1.7-8.5,3.5-12.4,6c-5.4,3.4-12,8.8-17.7,13.6c-3.7,3.1-7.3,6-10,8c-4.8,3.5-16.8,7.3-19.7,8.3
		c-3.7,8.5-38.3,86.3-66,111.3C440.6,612.5,431.6,616.5,422.9,616.5z M434.2,528.3c-16.1,20.4-15.9,24.2-15.5,24.8
		c1,1.8,1.9,1.6,2.2,1.5C424.7,553.9,430.9,542.8,434.2,528.3z"/>
</g>
<g>
	<path class="st1" d="M589.8,493.7c0,0,9.8,45.5,11,66.3s-6.5,22.2-6.5,22.2s-6.8-15.5-43.7-18.6s-71.4,11-71.4,11
		s33.9-74.8,37.5-77.7c3.7-2.8,1.1,7.1,12.7,13.3c11.6,6.2,45.5,8.3,51.4,1.9C586.7,505.7,589.8,493.7,589.8,493.7z"/>
</g>
<g>
	<path class="st0" d="M616.9,767c-0.6,0-1.1-0.3-1.4-0.9l-64.9-148.7c-0.3-0.8,0-1.6,0.8-2c0.8-0.3,1.6,0,2,0.8l64.9,148.7
		c0.3,0.8,0,1.6-0.8,2C617.3,766.9,617.1,767,616.9,767z"/>
</g>
<g>
	<path d="M565.1,513.6c-6.7,0-13.8-0.9-18.6-1.8c-6.9-1.3-18.6-4.1-19.8-8.9c-0.4-1.5-0.1-2.8,0.9-3.9c3.6-4.1,16.5-3.7,26.7-2.6
		c11.1,1.2,22,5.2,22.4,5.3c0.8,0.3,1.2,1.2,0.9,1.9c-0.3,0.8-1.1,1.2-1.9,0.9c-0.1,0-11-4-21.7-5.2c-15.3-1.6-22.5-0.3-24.1,1.6
		c-0.3,0.3-0.4,0.7-0.3,1.2c0.4,1.4,5.4,4.5,17.5,6.7c15.4,2.9,30.1,2.1,32.8-1.7c3-4.2,12.1-66.2,17.5-107.2
		c-1.2-2-8.6-12.5-34.7-14.5c-15.1-1.1-25.4,2-31.4,4.8c-5.1,2.4-8,5-9,6l1.6,26.5c0.1,0.8-0.6,1.5-1.4,1.6c-0.8,0-1.5-0.6-1.6-1.4
		l-1.7-27.2c0-0.4,0.1-0.8,0.3-1.1c0.5-0.6,12.7-14.6,43.3-12.3c30.7,2.3,37.2,16,37.4,16.6c0.1,0.3,0.2,0.5,0.1,0.8
		c-1.4,10.5-13.8,102.9-18.1,109C579.7,512.5,572.7,513.6,565.1,513.6z"/>
</g>
<g>
	<path d="M603.8,401.2c0,0-0.1,0-0.2,0c-0.8-0.1-1.4-0.8-1.3-1.6l1-9.8c-0.7-1.2-3.2-5.2-8.7-9.3c-6-4.5-16.7-9.8-34.1-10.3
		c-30.5-0.7-41.1,11.9-42.7,14.1v10.3c0,0.8-0.7,1.5-1.5,1.5c-0.8,0-1.5-0.7-1.5-1.5v-10.7c0-0.3,0.1-0.5,0.2-0.8
		c0.4-0.7,10.5-16.7,45.6-15.8c35.1,0.9,45.2,20.7,45.6,21.6c0.1,0.3,0.2,0.5,0.1,0.8l-1,10.3C605.2,400.6,604.5,401.2,603.8,401.2z
		"/>
</g>
<g>
	<path d="M627,519.6c-0.4,0-0.8-0.1-1.3-0.3c-1.3-0.5-3-2.2-3.2-7c-0.2-4.6,1.3-10.7,4-17.8c-8.7-14.8-29.9-36.2-30.2-36.5
		c-0.6-0.6-0.6-1.5,0-2.1c0.6-0.6,1.5-0.6,2.1,0c1,1,20,20.2,29.5,35.1c14.3-33.8,51.9-85.1,56.1-90.9c0-2.8,0-15.8,4.5-23.4
		c4.8-8.2,10.8-15.9,10.8-16c0.5-0.6,1.5-0.8,2.1-0.3c0.7,0.5,0.8,1.5,0.3,2.1c-0.1,0.1-5.9,7.6-10.6,15.7c-4.5,7.7-4,22.2-4,22.3
		c0,0.3-0.1,0.7-0.3,1c-0.5,0.7-43,58.2-56.9,92.7c1.2,2.1,2.1,4.1,2.7,5.9c2.5,8,0.6,15.2-2.5,18.1C629,519.1,628,519.6,627,519.6z
		 M628.4,498c-2,5.6-3.1,10.5-2.9,14.1c0.2,3.1,1,4.3,1.4,4.4c0.2,0.1,0.6-0.1,1.1-0.5c2.1-1.9,4-7.8,1.7-15
		C629.3,500.1,628.9,499.1,628.4,498z"/>
</g>
<g>
	<path d="M633.7,570.1c-12.9,0-23.8-6.6-30-12.8c-0.6-0.6-0.6-1.5,0-2.1c0.6-0.6,1.5-0.6,2.1,0c10.1,10.1,33.5,21.2,57.2-1.4
		c10.1-9.7,22.6-34.3,36.1-71.3c10.2-28,17.5-53.5,17.5-53.7c0.2-0.8,1.1-1.3,1.8-1c0.8,0.2,1.3,1.1,1,1.8
		c-1.2,4.2-29.2,102.2-54.4,126.3C654.3,566.4,643.4,570.1,633.7,570.1z"/>
</g>
<g>
	<path d="M724.1,424.1c-7.8,0-13.9-0.9-14.4-0.9c-0.8-0.1-1.4-0.9-1.3-1.7c0.1-0.8,0.9-1.4,1.7-1.3c0.3,0,25.4,3.6,38.3-3.8
		c12.8-7.3,19.3-29.8,18.5-39.5c-0.1-0.8-2.5-4.2-8.5-9.6c-5.4-4.9-11.4-9.4-16.2-12.1c-5.6-3.2-7.2-2.7-7.5-2.6
		c-0.2,0.1-0.3,0.1-0.3,0.5c-0.6,3.7,9.9,20.5,22.3,31.8c0.6,0.6,0.7,1.5,0.1,2.1s-1.5,0.7-2.1,0.1c-7.3-6.7-24.4-27.1-23.2-34.5
		c0.2-1.3,1-2.3,2.1-2.8c2.2-1,5.8,0.1,11.1,3.3c9.3,5.6,24.9,19,25.3,23.6c0.8,10-5.6,34.1-20,42.4
		C742.8,423.1,732.5,424.1,724.1,424.1z"/>
</g>
<g>
	<path d="M768.5,371.4c-0.1,0-0.2,0-0.2,0c-0.8-0.1-1.4-0.9-1.2-1.7c1.1-7,2.5-18.5,1.4-21.6c-1.7-5-11.9-16.9-14.4-16.9
		c0,0,0,0-0.1,0c-1,1.8,1.3,12,5,22.7c0.1,0.2,0.1,0.4,0.1,0.7l-1,9.1c-0.1,0.8-0.8,1.4-1.7,1.3c-0.8-0.1-1.4-0.8-1.3-1.7l1-8.7
		c-3.8-10.8-7.5-24-3.5-26c0.9-0.5,1.9-0.4,3.1,0c5.2,2.1,14.2,14.4,15.7,18.6c1.6,4.7-1,21.1-1.3,23
		C769.8,370.9,769.2,371.4,768.5,371.4z"/>
</g>
<g>
	<path d="M748.4,412.9c-1.3,0-5.2-0.1-15.8-1c-10.2-0.9-16.6-3.5-17.6-7.1c-0.3-1-0.4-3,2.3-4.9c3.8-2.8,19.6-1.8,30.2-0.8
		c-4.6-2.2-10.2-4.8-13.8-6.5c-5.4-2.5-15.4-9-14.9-13.6c0.1-0.8,0.5-1.5,1.2-2c2.5-1.8,8.5-0.4,19.8,2.4l2.2,0.5
		c11.8,2.9,23.9,9.7,24.4,10c0.7,0.4,1,1.3,0.6,2s-1.3,1-2,0.6c-0.1-0.1-12.3-7-23.6-9.7l-2.2-0.5c-6.7-1.6-15.8-3.9-17.3-2.9
		c0,1.9,6.4,7.4,13.1,10.5c7.3,3.3,21.7,10.3,21.9,10.3c0.7,0.3,1,1.1,0.8,1.8s-0.9,1.2-1.6,1.1c-23.6-3-35.1-2.1-36.9-0.8
		c-0.5,0.4-1.3,1.1-1.1,1.7c0.4,1.5,4.8,4.1,15,4.9c13.3,1.1,15.9,1,16,1c0.8,0,1.5,0.6,1.6,1.4c0,0.8-0.6,1.5-1.4,1.6
		C748.9,412.9,748.8,412.9,748.4,412.9z"/>
</g>
<g>
	<path class="st0" d="M490.4,780c-0.5,0-1-0.3-1.3-0.7c-0.1-0.2-9.2-15.1-18.2-35.3c-8.3-18.6-18.2-45.6-18.2-68.3
		c0-43.4,21.3-81.9,21.5-82.3c0.4-0.7,1.3-1,2-0.6c0.7,0.4,1,1.3,0.6,2c-0.2,0.4-21.1,38.3-21.1,80.9c0,22.2,9.8,48.7,17.9,67
		c8.9,20,17.9,34.8,18,35c0.4,0.7,0.2,1.6-0.5,2.1C491,779.9,490.7,780,490.4,780z"/>
</g>
<g>
	<path class="st0" d="M470.6,697.6c-1.1,0-1.8-0.1-1.8-0.1c-0.8-0.1-1.4-0.9-1.3-1.7s0.9-1.4,1.7-1.3c0.8,0.1,18.8,2.3,30-21.7
		c4.7-10.1,5.1-25.6,1.1-45c-3-14.8-7.5-26.6-7.6-26.7c-0.3-0.8,0.1-1.6,0.9-1.9s1.6,0.1,1.9,0.9c0.8,2,18.3,48.3,6.4,74
		C491.9,695.7,475.9,697.6,470.6,697.6z"/>
</g>
<g>
	<path d="M359.9,446.1c-2.1,7.1,16.5,14.7,16.5,14.7V441C376.4,441,362.8,436.6,359.9,446.1z"/>
</g>
</svg>
