<svg width="398" height="267" viewBox="0 0 398 267" fill="none" xmlns="http://www.w3.org/2000/svg">
<path d="M232.334 264.872H143.368C141.86 264.872 140.674 263.656 140.674 262.184V258.472C140.674 256.968 141.892 255.784 143.368 255.784H232.334C233.841 255.784 235.028 257 235.028 258.472V262.184C235.06 263.656 233.841 264.872 232.334 264.872Z" fill="white"/>
<path d="M41.7021 152.52C41.7021 152.52 35.7368 154.024 32.0165 161.448C28.2962 168.872 -2.55648 245.896 7.89881 258.376C18.3541 270.856 39.2326 261.448 64.0879 257.224C88.9433 253 106.102 251.528 106.102 251.528C106.102 251.528 94.4916 232.68 106.262 221.736C106.262 221.736 145.389 215.528 161.072 218.504C161.072 218.504 172.586 224.04 177.845 229.576L186.44 187.24C186.44 187.24 170.758 158.952 159.34 152.488C147.891 146.024 130.7 141.064 130.7 141.064C130.7 141.064 124.254 151.496 106.615 149.512C88.9433 147.528 82.4969 143.048 82.4969 143.048C82.4969 143.048 49.752 146.28 41.7021 152.52Z" fill="#A4E62F"/>
<path d="M232.751 264.872H142.919C141.669 264.872 140.642 263.848 140.642 262.6V260.68C140.642 259.432 141.669 258.408 142.919 258.408H232.751C234.002 258.408 235.029 259.432 235.029 260.68V262.6C235.061 263.848 234.034 264.872 232.751 264.872Z" fill="#B6B6B6"/>
<path d="M91.1248 136.712C91.3813 136.712 91.6379 136.616 91.8303 136.424C93.0491 135.112 93.8188 133.48 94.2036 131.72C100.874 134.888 108.764 135.112 113.286 128.68C122.908 114.984 102.029 91.8798 101.131 90.9198C100.907 90.6958 100.618 90.5678 100.297 90.5998C95.9675 91.1758 92.5038 90.1838 90.323 87.7198C87.7893 84.9038 87.0838 80.3918 88.3346 75.3038C88.8156 73.3838 89.6816 72.2318 90.9965 71.7518C94.0754 70.6318 99.0464 73.5758 100.714 74.8238C100.907 74.9838 101.163 75.0478 101.42 75.0158C101.676 74.9838 101.901 74.8238 102.061 74.6318C103.536 72.6158 111.618 61.4158 117.84 51.2078C125.409 52.3918 141.83 43.0158 146.159 40.4558C148.468 44.6478 158.411 63.9118 158.411 86.4078C158.411 101.224 153.953 110.408 145.197 113.672C133.78 117.928 123.645 113.736 123.517 113.672C123.036 113.448 122.459 113.704 122.266 114.184C122.074 114.664 122.298 115.24 122.779 115.432C123.228 115.624 133.716 120.008 145.871 115.432C155.46 111.848 160.335 102.056 160.335 86.3758C160.367 60.5198 147.474 38.8238 147.346 38.5998C147.218 38.3758 146.993 38.2158 146.737 38.1518C146.48 38.0878 146.223 38.1198 145.999 38.2798C140.354 41.7358 125.602 49.6718 118.931 49.3838C122.811 42.8558 125.698 37.0318 125.281 34.6318C125.153 33.8638 124.736 33.4478 124.447 33.2238C123.357 32.4878 121.945 32.5198 120.47 33.3198C117.103 35.1758 113.222 41.2558 113.414 46.0238C113.511 48.1038 114.409 49.6718 116.012 50.5678C111.875 57.2878 106.519 65.2558 101.099 72.7438C99.1747 71.4958 94.1395 68.6158 90.3871 69.9598C88.4628 70.6638 87.1479 72.2958 86.5065 74.8558C85.0954 80.5518 85.9613 85.7038 88.9439 88.9998C90.7399 90.9838 94.1074 93.1918 100.105 92.5518C102.703 95.5278 119.925 115.976 111.779 127.56C107.77 133.288 100.714 132.872 94.5564 129.736C94.813 126.696 94.2036 123.464 93.2736 120.904C91.8304 116.872 89.6174 114.28 87.3724 113.992C86.4103 113.864 84.9991 114.12 83.7483 115.944C80.894 120.104 85.2557 125.864 90.4833 129.48C91.1248 129.928 91.7983 130.344 92.4718 130.728C92.1831 132.392 91.5417 133.896 90.4833 135.048C90.1306 135.432 90.1306 136.04 90.5154 136.392C90.6758 136.616 90.9003 136.712 91.1248 136.712ZM86.9234 115.912C86.9876 115.912 87.0517 115.912 87.1158 115.912C88.527 116.104 90.2909 118.408 91.4455 121.544C92.2473 123.72 92.7283 126.28 92.6642 128.648C92.2793 128.424 91.9266 128.168 91.5738 127.944C86.282 124.296 83.588 119.592 85.3519 117.064C85.9933 116.04 86.6027 115.912 86.9234 115.912ZM122.651 34.6318C122.908 34.6318 123.132 34.6958 123.324 34.8238C124.158 35.9438 121.464 41.5118 116.974 48.9358C115.916 48.3918 115.371 47.3998 115.307 45.9598C115.146 42.0238 118.546 36.5838 121.368 35.0158C121.849 34.7598 122.298 34.6318 122.651 34.6318Z" fill="black"/>
<path d="M24.6087 270.696C29.3873 270.696 34.8395 269.928 40.9331 268.392C82.1769 258.024 110.592 254.504 110.849 254.472C111.169 254.44 111.458 254.248 111.586 253.96C111.715 253.672 111.715 253.352 111.586 253.064C111.458 252.872 100.393 232.52 107.064 222.28C107.257 221.96 107.257 221.576 107.096 221.256C106.904 220.936 106.551 220.744 106.198 220.776C104.242 220.936 71.5292 223.72 49.3037 227.304C49.3358 227.24 49.3678 227.208 49.3999 227.144C50.1696 225.224 67.841 179.976 57.1933 164.392C56.9046 163.944 56.2952 163.848 55.8462 164.136C55.3972 164.424 55.3011 165.032 55.5897 165.48C65.4356 179.88 48.6623 223.752 47.636 226.344C47.2511 226.856 46.8021 227.368 46.289 227.816C38.1428 229.224 31.8568 230.728 29.7081 232.264C28.0403 233.448 27.3989 234.344 27.5913 235.24C27.6555 235.592 27.9441 236.232 28.9704 236.456C31.7606 237.064 41.7669 234.248 47.187 229.576C63.7038 226.792 88.5912 224.232 104.563 222.856C99.9124 232.776 107 248.232 109.277 252.744C103.12 253.576 76.7248 257.416 40.4841 266.536C25.1218 270.408 14.2496 269.288 8.18814 263.272C-0.182505 254.984 3.40946 239.848 3.44153 239.688C3.63396 238.952 21.3374 165.768 35.3847 152.968C42.7611 146.248 52.7353 144.84 62.3568 143.528C71.2085 142.312 79.5471 141.128 85.1596 135.912C85.5444 135.56 85.5765 134.952 85.2237 134.568C84.8709 134.184 84.2616 134.152 83.8767 134.504C78.6811 139.304 70.6312 140.424 62.1002 141.608C52.1901 142.984 41.9273 144.424 34.1018 151.528C19.6376 164.712 2.31907 236.168 1.58143 239.208C1.42107 239.88 -2.33132 255.496 6.80904 264.584C10.8821 268.68 16.8474 270.696 24.6087 270.696ZM42.6649 230.376C37.8863 233.128 31.8568 234.76 29.7722 234.632C29.9646 234.44 30.2853 234.152 30.7985 233.8C32.402 232.712 36.7317 231.528 42.6649 230.376Z" fill="black"/>
<path d="M128.52 134.696C128.552 134.696 128.584 134.696 128.616 134.696C129.161 134.632 129.546 134.184 129.482 133.64C129.161 130.248 131.599 116.616 131.631 116.488C131.727 115.976 131.374 115.464 130.861 115.368C130.316 115.304 129.835 115.624 129.738 116.136C129.642 116.712 127.237 130.152 127.558 133.8C127.622 134.312 128.039 134.696 128.52 134.696Z" fill="black"/>
<path d="M65.5955 136.36C65.9162 136.36 66.2369 136.2 66.4293 135.88C66.6859 135.432 66.5576 134.824 66.1086 134.568C57.5455 129.48 52.8631 124.168 51.7727 118.344C50.2333 110.152 56.3589 102.28 61.2979 95.9759C63.7674 92.8079 65.9162 90.0559 66.8783 87.6239C68.5781 83.2399 68.6423 77.128 68.7064 70.056C68.8026 60.232 68.8668 49.1279 73.453 39.4959C81.0218 23.5919 103.376 15.5599 126.595 20.4239C147.025 24.7119 167.551 47.5279 165.37 81.4479C164.472 95.0479 169.956 105.384 173.933 112.904C178.23 121.032 180.251 125.448 175.665 129.128C171.239 132.68 167.326 131.112 164.6 128.872C164.953 128.168 165.177 127.528 165.338 127.016C166.556 122.632 164.921 117.32 161.842 115.624C159.052 114.088 157.769 115.048 157.256 115.752C155.46 118.184 157.993 124.968 162.195 129.192C160.495 131.496 157.031 133.768 149.975 133.48C149.462 133.512 149.013 133.864 148.981 134.408C148.949 134.952 149.366 135.368 149.911 135.4C157.737 135.688 161.617 133.064 163.606 130.472C167.903 133.928 172.682 133.992 176.915 130.6C182.945 125.736 179.738 119.656 175.665 111.976C171.559 104.232 166.46 94.5999 167.326 81.5439C169.603 46.5359 148.276 22.9519 127.044 18.5039C102.959 13.4799 79.7069 21.9279 71.7532 38.6319C67.0066 48.6159 66.9104 59.9759 66.8142 69.992C66.75 76.872 66.718 82.8239 65.1144 86.8879C64.2806 89.0639 62.1959 91.6879 59.8226 94.7599C54.6591 101.384 48.2127 109.608 49.9125 118.664C51.0992 125.064 56.1023 130.792 65.1465 136.168C65.2747 136.296 65.4351 136.36 65.5955 136.36ZM159.212 116.776C159.661 116.776 160.302 117.032 160.88 117.352C162.932 118.472 164.504 122.728 163.477 126.536C163.381 126.824 163.285 127.176 163.157 127.496C159.436 123.496 157.929 118.12 158.795 116.936C158.859 116.84 159.02 116.776 159.212 116.776Z" fill="black"/>
<path d="M147.25 83.0799C147.378 83.0799 147.474 83.0479 147.603 83.0159C147.795 82.9519 152.413 81.0959 152.67 76.9679C152.83 74.1839 151.419 72.6479 149.912 71.0159C148.436 69.4159 146.769 67.6239 145.871 64.0399C145.229 61.4479 145.454 59.5599 146.544 58.4399C148.757 56.1999 153.857 57.3199 153.921 57.3519C154.434 57.4479 154.947 57.1599 155.075 56.6159C155.204 56.1039 154.883 55.5919 154.37 55.4639C154.113 55.3999 148.18 54.0559 145.197 57.0959C143.594 58.7279 143.177 61.2239 144.011 64.5199C145.037 68.5839 146.961 70.6639 148.501 72.3279C149.912 73.8639 150.874 74.8879 150.746 76.8399C150.553 79.7519 146.929 81.1919 146.897 81.1919C146.416 81.3839 146.159 81.9279 146.352 82.4399C146.512 82.8559 146.865 83.0799 147.25 83.0799Z" fill="black"/>
<path d="M129.192 69.0638C127.881 69.0638 126.819 67.7457 126.819 66.1198C126.819 64.4938 127.881 63.1758 129.192 63.1758C130.503 63.1758 131.565 64.4938 131.565 66.1198C131.565 67.7457 130.503 69.0638 129.192 69.0638Z" fill="black"/>
<path d="M147.411 65.8957C147.411 67.5277 148.469 68.8397 149.784 68.8397C151.099 68.8397 152.157 67.5277 152.157 65.8957C152.157 64.2637 151.099 62.9517 149.784 62.9517C148.469 62.9517 147.411 64.2637 147.411 65.8957Z" fill="black"/>
<path d="M118.32 60.168C118.513 60.168 118.737 60.104 118.897 59.976C118.93 59.944 123.708 56.328 128.198 55.88C132.367 55.464 134.388 57.896 134.484 57.992C134.805 58.408 135.414 58.472 135.831 58.152C136.248 57.832 136.312 57.224 135.992 56.808C135.895 56.68 133.265 53.416 128.006 53.96C122.97 54.472 117.935 58.28 117.743 58.44C117.326 58.76 117.23 59.368 117.55 59.784C117.743 60.04 118.032 60.168 118.32 60.168Z" fill="black"/>
<path d="M144.846 98.184C147.058 98.184 149.143 97.096 150.843 95.08C152.607 92.968 153.633 90.088 153.152 88.552C152.703 87.048 149.849 85.96 144.653 85.288C142.985 85.064 134.583 84.136 133.236 86.344C132.723 87.208 132.819 88.392 133.588 89.928C135.064 92.936 139.425 97.64 144.076 98.152C144.332 98.184 144.589 98.184 144.846 98.184ZM151.324 89.128C151.484 89.768 150.971 91.912 149.368 93.864C148.341 95.112 146.609 96.552 144.3 96.264C140.58 95.848 136.635 91.752 135.32 89.096C134.775 87.976 134.839 87.432 134.903 87.368C135.481 86.856 139.842 86.536 145.262 87.336C149.656 87.944 151.132 88.84 151.324 89.128Z" fill="black"/>
<path d="M277.907 234.728H190.48C185.445 234.728 181.693 230.088 182.783 225.192L208.985 105.512C209.787 101.896 212.962 99.3037 216.683 99.3037H388.457C393.46 99.3037 397.213 103.912 396.154 108.808L370.593 228.488C369.824 232.104 366.617 234.728 362.896 234.728H306.771" fill="white"/>
<path d="M300.711 254.568L294.714 196.424L277.877 195.88L284.227 254.6C268.672 255.592 254.529 259.304 243.528 264.872H284.227H300.679H341.378C330.41 259.304 316.266 255.56 300.711 254.568Z" fill="#B6B6B6"/>
<path d="M396.155 112.904L371.428 228.712C370.691 232.232 367.58 234.728 363.988 234.728H197.152C192.309 234.728 188.653 230.248 189.712 225.48L215.048 109.672C215.818 106.184 218.897 103.688 222.489 103.688H388.715C393.558 103.72 397.182 108.168 396.155 112.904Z" fill="#B6B6B6"/>
<path d="M190.45 235.688H277.909C278.454 235.688 278.871 235.272 278.871 234.728C278.871 234.184 278.454 233.768 277.909 233.768H190.482C188.365 233.768 186.409 232.84 185.094 231.176C183.779 229.544 183.298 227.432 183.747 225.384L209.949 105.704C210.655 102.504 213.413 100.264 216.684 100.264H388.459C390.544 100.264 392.5 101.192 393.815 102.824C395.13 104.456 395.643 106.568 395.226 108.616L369.665 228.296C368.992 231.464 366.137 233.768 362.898 233.768H306.773C306.228 233.768 305.811 234.184 305.811 234.728C305.811 235.272 306.228 235.688 306.773 235.688H362.898C367.035 235.688 370.691 232.744 371.557 228.712L397.118 109.032C397.663 106.408 397.022 103.72 395.322 101.64C393.622 99.56 391.121 98.376 388.459 98.376H216.652C212.483 98.376 208.923 101.224 208.025 105.32L181.823 225C181.245 227.624 181.887 230.312 183.554 232.424C185.254 234.504 187.756 235.688 190.45 235.688Z" fill="black"/>
<path d="M243.561 265.832H341.379C341.828 265.832 342.212 265.544 342.309 265.096C342.405 264.68 342.212 264.232 341.796 264.008C330.506 258.28 316.619 254.728 301.546 253.672L297.473 213.96C297.409 213.416 296.96 213.032 296.414 213.096C295.901 213.16 295.516 213.64 295.549 214.152L299.718 254.664C299.75 255.144 300.135 255.496 300.616 255.528C314.054 256.392 326.562 259.272 337.081 263.88H243.529C242.983 263.88 242.567 264.296 242.567 264.84C242.567 265.384 243.016 265.832 243.561 265.832Z" fill="black"/>
<path d="M284.226 255.528C284.258 255.528 284.291 255.528 284.323 255.528C284.836 255.464 285.221 254.984 285.189 254.472L280.185 208.04C280.121 207.528 279.672 207.08 279.127 207.176C278.614 207.24 278.229 207.72 278.261 208.232L283.264 254.664C283.328 255.176 283.745 255.528 284.226 255.528Z" fill="black"/>
<path d="M143.369 265.832H232.335C234.356 265.832 235.991 264.2 235.991 262.184V258.472C235.991 256.456 234.356 254.824 232.335 254.824H143.369C141.348 254.824 139.713 256.456 139.713 258.472V262.184C139.713 264.168 141.348 265.832 143.369 265.832ZM232.335 256.744C233.297 256.744 234.067 257.512 234.067 258.472V262.184C234.067 263.144 233.297 263.912 232.335 263.912H143.369C142.407 263.912 141.637 263.144 141.637 262.184V258.472C141.637 257.512 142.407 256.744 143.369 256.744H232.335Z" fill="black"/>
<path d="M162.837 255.016C163.703 255.016 164.12 254.568 164.313 254.248C164.922 253.288 164.409 251.56 163.447 249.64C167.167 251.528 170.342 252.904 171.272 253.128C171.946 253.288 172.555 253 172.844 252.456C173.325 251.592 172.876 249.608 171.849 247.144C176.179 250.536 179.996 252.872 181.246 252.264C181.599 252.072 181.856 251.752 181.92 251.368C182.209 250.088 180.06 246.376 177.077 241.992C182.209 247.08 187.051 250.92 189.072 249.768C189.938 249.288 190.868 248.264 190.579 246.088C189.489 238.44 171.785 220.168 161.234 217.64C149.399 214.824 116.43 219.656 115.019 219.848C114.506 219.912 114.121 220.424 114.217 220.936C114.281 221.448 114.794 221.8 115.308 221.736C115.66 221.672 149.335 216.744 160.785 219.496C170.567 221.832 187.693 239.336 188.687 246.344C188.879 247.656 188.334 247.944 188.142 248.072C186.217 248.744 175.474 238.344 164.601 225.256C164.281 224.84 163.671 224.776 163.254 225.128C162.837 225.448 162.773 226.056 163.094 226.472C170.855 236.296 178.841 247.4 179.899 250.44C178.2 249.864 174.191 246.888 170.021 243.336C167.488 238.472 163.864 233.064 161.298 230.44C159.021 228.136 157.225 227.368 155.814 228.136C155.365 228.392 154.403 229.128 155.429 231.08C156.616 233.416 162.485 239.304 168.354 244.296C169.893 247.304 170.984 249.896 171.112 251.112C169.188 250.504 165.403 248.712 161.587 246.6C160.336 244.712 158.925 242.952 157.866 241.768C155.397 238.984 151.933 235.88 149.56 237C148.758 237.352 148.373 238.024 148.437 238.824C148.694 241.096 154.467 244.904 160.175 248.008C161.683 250.344 162.613 252.36 162.613 253.16C162.581 253.16 162.517 253.128 162.453 253.128C160.977 252.744 158.861 251.528 156.391 250.12C150.073 246.504 141.414 241.544 134.903 246.248C125.089 253.32 114.506 248.168 114.377 248.104C113.896 247.848 113.319 248.04 113.095 248.52C112.87 249 113.03 249.576 113.512 249.8C113.993 250.056 125.25 255.56 136.026 247.784C141.542 243.784 149.239 248.232 155.429 251.752C157.995 253.224 160.208 254.504 161.939 254.952C162.356 254.984 162.613 255.016 162.837 255.016ZM150.554 238.536C151.067 238.536 152.254 238.952 154.082 240.552C155.301 241.608 156.487 242.856 157.546 244.168C153.697 241.832 150.554 239.56 150.458 238.536C150.458 238.536 150.522 238.536 150.554 238.536ZM157.032 229.736C157.417 229.736 158.027 230.024 158.732 230.568C160.913 232.264 163.447 235.72 165.66 239.336C161.17 235.208 157.321 231.176 157 229.704C157 229.736 157.032 229.736 157.032 229.736Z" fill="black"/>
<path d="M108.38 147.688C114.73 147.688 122.042 145.864 129.29 140.136C129.707 139.816 129.771 139.208 129.45 138.792C129.13 138.376 128.52 138.312 128.104 138.632C109.47 153.384 91.0289 141.096 90.2271 140.584C89.7781 140.264 89.2008 140.392 88.8801 140.84C88.5915 141.288 88.6877 141.864 89.1367 142.184C89.265 142.216 97.4111 147.688 108.38 147.688Z" fill="black"/>
<path d="M186.442 184.488C186.602 184.488 186.731 184.456 186.891 184.392C187.372 184.136 187.564 183.56 187.308 183.112C186.795 182.12 174.896 159.016 164.441 150.536C153.921 142.056 137.629 138.568 136.924 138.44C136.411 138.344 135.897 138.664 135.801 139.176C135.705 139.688 136.026 140.2 136.539 140.328C136.699 140.36 153.088 143.848 163.222 152.04C173.389 160.264 185.48 183.752 185.608 183.976C185.736 184.296 186.089 184.488 186.442 184.488Z" fill="black"/>
<path d="M161.554 212.552C161.618 212.552 161.682 212.552 161.779 212.52C162.292 212.392 162.612 211.88 162.516 211.368L150.842 158.76C150.714 158.248 150.233 157.928 149.688 158.024C149.174 158.152 148.854 158.664 148.95 159.176L160.624 211.784C160.72 212.232 161.105 212.552 161.554 212.552Z" fill="black"/>
<path d="M278.712 65.8319H194.588C189.585 65.8319 185.544 61.7999 185.544 56.8079V9.38386C185.544 4.39186 189.585 0.359863 194.588 0.359863H278.712C283.715 0.359863 287.756 4.39186 287.756 9.38386V56.8079C287.756 61.7999 283.715 65.8319 278.712 65.8319Z" fill="#A4E62F"/>
<path d="M202.508 62.8557V78.6957C202.508 80.0397 204.112 80.8077 205.138 79.9117L225.664 62.8237H202.508V62.8557Z" fill="#A4E62F"/>
<path d="M205.141 26.0238H267.423C269.829 26.0238 271.785 24.0718 271.785 21.6718C271.785 19.2718 269.829 17.3198 267.423 17.3198H205.109C202.703 17.3198 200.747 19.2718 200.747 21.6718C200.779 24.0718 202.735 26.0238 205.141 26.0238Z" fill="white"/>
<path d="M236.09 45.8959H267.423C269.829 45.8959 271.785 43.9439 271.785 41.5439C271.785 39.1439 269.829 37.1919 267.423 37.1919H236.09C233.684 37.1919 231.728 39.1439 231.728 41.5439C231.728 43.9759 233.684 45.8959 236.09 45.8959Z" fill="white"/>
<path d="M91.126 95.1758C80.3037 95.1758 71.5304 85.6197 71.5304 73.8318C71.5304 62.0438 80.3037 52.4878 91.126 52.4878C101.948 52.4878 110.722 62.0438 110.722 73.8318C110.722 85.6197 101.948 95.1758 91.126 95.1758Z" fill="#C0C0C0"/>
<path d="M88.0468 90.4079C96.5137 90.4079 103.377 82.9519 103.377 73.7999C103.377 64.6479 96.4816 57.1919 88.0468 57.1919C79.58 57.1919 72.7167 64.6479 72.7167 73.7999C72.7167 82.9519 79.612 90.4079 88.0468 90.4079ZM88.0468 59.1439C95.4553 59.1439 101.453 65.7359 101.453 73.8319C101.453 81.9279 95.4232 88.5199 88.0468 88.5199C80.6704 88.5199 74.641 81.9279 74.641 73.8319C74.641 65.7359 80.6704 59.1439 88.0468 59.1439Z" fill="black"/>
<path d="M84.2621 55.3357C84.2621 55.3357 84.9677 20.6157 107.514 14.6957C133.845 7.78372 141.285 23.0477 141.285 23.0477C141.285 23.0477 127.302 14.4717 114.57 19.6237C93.3384 28.1997 96.7059 56.0717 96.7059 56.0717L84.2621 55.3357Z" fill="#C0C0C0"/>
<path d="M96.6732 48.7762C97.1543 48.7762 97.5712 48.3922 97.6353 47.9122C97.6353 47.7202 99.4313 29.8962 110.56 22.0882C115.916 18.3442 122.619 17.4482 130.476 19.4642C130.99 19.5922 131.503 19.2722 131.663 18.7602C131.791 18.2482 131.471 17.7362 130.958 17.5762C122.523 15.4002 115.275 16.3922 109.438 20.4882C97.5712 28.8082 95.7752 46.9522 95.711 47.7202C95.6469 48.2642 96.0638 48.7122 96.577 48.7762C96.609 48.7762 96.6411 48.7762 96.6732 48.7762Z" fill="black"/>
</svg>
