<svg width="327" height="327" viewBox="0 0 327 327" fill="none" xmlns="http://www.w3.org/2000/svg">
<path d="M187.148 244.556H123.639C121.874 244.556 120.442 245.988 120.442 247.754V249.162C120.442 250.928 121.874 252.36 123.639 252.36H187.148C188.914 252.36 190.345 250.928 190.345 249.162V247.754C190.345 245.988 188.914 244.556 187.148 244.556Z" fill="white"/>
<path d="M306.304 133.603L302.676 131.097L176.492 130.382C173.656 130.366 171.192 132.328 170.573 135.093L156.928 195.955L154.875 192.152C151.962 186.654 142.993 173.35 138.24 168.419C133.486 163.486 116.062 158.455 116.062 158.455C116.062 158.455 129.833 157.201 133.342 156.168C136.85 155.136 137.518 152.562 137.518 152.562C137.518 152.562 138.177 153.44 139.629 154.276C141.08 155.112 143.682 155.46 146.884 153.398C150.086 151.336 149.685 148.619 146.401 141.878C143.117 135.137 139.826 127.163 139.629 119.85C139.435 112.537 140.772 109.386 135.937 95.0542C131.099 80.7222 114.13 67.0046 88.7178 73.3344C63.3052 79.6642 68.4975 109.594 67.7898 117.124C67.0821 124.655 62.2121 127.721 58.204 134.184C54.1959 140.647 54.5977 146.143 57.4122 150.436C60.2267 154.729 71.8329 161.447 71.8329 161.447C71.8329 161.447 59.8741 161.884 47.2986 167.074C34.7231 172.261 23.1169 222.01 20.6761 231.901C18.2353 241.793 21.9958 248.256 21.9958 248.256C30.2385 259.995 40.838 254.485 63.2795 249.97C85.7211 245.456 99.3032 244.073 99.3032 244.073L97.4183 239.527C97.4183 239.527 99.9689 240.231 106.827 241.375C113.684 242.517 117.421 237.154 122.347 237.593C127.271 238.033 135.507 243.982 137.252 243.881C138.996 243.781 136.415 239.749 136.415 239.749C136.415 239.749 142.037 242.625 143.504 242.552C144.971 242.48 142.514 237.117 142.514 237.117C142.514 237.117 148.185 242.256 149.834 241.861C151.483 241.466 144.987 231.705 144.987 231.705C144.987 231.705 154.351 242.454 156.33 239.948C158.308 237.442 150.967 229 150.967 229L151.513 225.98L154.627 229.785L285.502 229.418L289.059 225.364L307.803 136.473L306.297 133.605L306.304 133.603Z" fill="white"/>
<path d="M48.9418 169.776C48.9418 169.776 44.595 170.862 41.8786 176.297C39.1621 181.73 16.7019 237.939 24.3093 247.055C31.9168 256.172 47.1293 249.288 65.2427 246.21C83.3539 243.131 95.8523 242.045 95.8523 242.045C95.8523 242.045 87.3993 228.281 95.9737 220.312C95.9737 220.312 124.469 215.783 135.879 217.957C135.879 217.957 144.272 222.01 148.091 226.039L154.355 195.137C154.355 195.137 142.945 174.49 134.613 169.781C126.282 165.072 113.76 161.449 113.76 161.449C113.76 161.449 109.075 169.057 96.2166 167.606C83.3562 166.158 78.6474 162.879 78.6474 162.879C78.6474 162.879 54.8254 165.235 48.9441 169.781L48.9418 169.776Z" fill="#A7E92F"/>
<path d="M188.105 247.053H122.686C121.77 247.053 121.028 247.796 121.028 248.711V250.115C121.028 251.031 121.77 251.774 122.686 251.774H188.105C189.021 251.774 189.763 251.031 189.763 250.115V248.711C189.763 247.796 189.021 247.053 188.105 247.053Z" fill="#C2C2C2"/>
<path d="M84.9593 158.125C84.8168 158.125 84.672 158.074 84.5599 157.969C84.324 157.749 84.3123 157.38 84.5319 157.144C85.34 156.28 85.8142 155.131 86.0291 153.856C85.5175 153.564 85.0107 153.249 84.5155 152.905C80.6289 150.217 77.7093 146.015 79.6456 143.179C80.5331 141.881 81.5118 141.708 82.1775 141.794C83.7564 141.995 85.3237 143.85 86.3701 146.755C87.0638 148.678 87.4001 150.768 87.3207 152.641C87.3137 152.83 87.2997 153.02 87.2833 153.204C89.2407 154.204 91.2868 154.802 93.1296 154.891C96.1077 155.033 98.4387 153.935 100.053 151.628C106.039 143.074 94.2321 129.905 92.548 128.105C89.3435 128.446 86.4425 127.357 84.3497 125.021C81.6753 122.032 80.6242 117.365 81.673 113.128C82.1238 111.311 83.0464 110.138 84.4151 109.645C87.1736 108.655 90.8803 110.844 92.2024 111.72C93.3072 110.18 96.9742 105.028 100.532 99.5481C101.541 97.9949 102.426 96.5934 103.204 95.3275C102.01 94.7155 101.344 93.5897 101.279 92.0622C101.134 88.7198 103.949 84.2282 106.352 82.8922C107.674 82.1587 108.59 82.4437 109.127 82.8127C109.335 82.9552 109.603 83.2355 109.695 83.761C109.998 85.5128 107.859 89.8245 105.004 94.6174C109.816 95.0168 120.81 89.0514 124.977 86.5008C125.11 86.4191 125.269 86.3957 125.421 86.4308C125.573 86.4681 125.704 86.5639 125.783 86.697C125.876 86.8535 135.243 102.662 135.224 121.502C135.212 132.904 131.695 140.005 124.762 142.605C115.95 145.91 108.347 142.731 108.027 142.595C107.73 142.469 107.592 142.126 107.721 141.829C107.847 141.533 108.19 141.397 108.487 141.523C108.562 141.556 115.996 144.648 124.353 141.514C130.781 139.103 134.047 132.37 134.056 121.504C134.072 104.871 126.645 90.6374 125.071 87.8112C122.497 89.3457 111.332 95.7876 105.432 95.7876C105.049 95.7876 104.687 95.7596 104.353 95.7035C99.8121 103.166 93.8794 111.402 92.8143 112.871C92.7232 112.997 92.5854 113.081 92.4313 113.105C92.2771 113.128 92.1206 113.091 91.9945 112.997C91.9501 112.964 87.5613 109.755 84.8098 110.746C83.8171 111.103 83.1632 111.974 82.8058 113.408C81.8458 117.281 82.7941 121.532 85.2186 124.241C86.5546 125.734 88.937 127.411 92.6905 126.911C92.8727 126.888 93.0549 126.951 93.1857 127.082C93.3352 127.236 96.9018 130.896 99.693 135.817C103.456 142.453 103.911 148.152 101.008 152.298C99.1745 154.919 96.4323 156.217 93.0712 156.058C91.1466 155.967 89.0935 155.4 87.1012 154.428C86.8045 155.848 86.2206 157.046 85.3797 157.946C85.2653 158.069 85.1088 158.13 84.9523 158.13L84.9593 158.125ZM81.9019 142.941C81.4511 142.941 81.019 143.242 80.6125 143.836C79.3045 145.751 81.2689 149.236 85.1812 151.943C85.5012 152.165 85.8282 152.375 86.1599 152.576C86.2323 150.763 85.8749 148.82 85.2723 147.15C84.4174 144.777 83.1141 143.088 82.0303 142.95C81.986 142.946 81.9439 142.941 81.8995 142.941H81.9019ZM107.908 83.6045C107.62 83.6045 107.293 83.7073 106.924 83.9105C104.848 85.062 102.325 89.1075 102.451 92.0084C102.501 93.1343 102.961 93.912 103.818 94.3208C108.151 87.1361 108.686 84.749 108.55 83.9572C108.534 83.8638 108.506 83.7937 108.473 83.7727C108.309 83.6606 108.12 83.6045 107.908 83.6045Z" fill="black"/>
<path d="M36.4919 255.922C30.8721 255.922 26.5604 254.45 23.6057 251.512C20.8589 248.779 19.336 244.722 19.2006 239.777C19.0978 236.078 19.7915 233.216 19.8219 233.097C19.8546 232.966 23.1222 219.403 27.6325 204.844C33.71 185.222 39.0425 173.219 43.4756 169.166C49.1421 163.988 56.5977 162.949 63.8057 161.944C70.0351 161.076 75.921 160.256 79.7283 156.724C79.9642 156.505 80.3332 156.519 80.5528 156.754C80.7723 156.99 80.7583 157.359 80.5224 157.579C76.4442 161.36 70.3831 162.206 63.9669 163.101C56.934 164.082 49.663 165.093 44.2628 170.028C34.009 179.399 21.0855 232.836 20.957 233.375C20.929 233.49 18.292 244.584 24.4326 250.69C28.8961 255.125 36.8492 255.941 48.0723 253.112C74.7999 246.376 94.156 243.585 98.3229 243.024C96.7463 239.934 91.3111 228.29 94.9151 220.989C91.5844 221.281 81.2231 222.218 70.4952 223.483C62.8808 224.383 57.1583 225.198 52.8675 225.927C48.9552 229.325 41.7122 231.364 39.6871 230.93C38.9934 230.78 38.8112 230.371 38.7622 230.14C38.6384 229.538 39.0892 228.921 40.2687 228.078C41.8196 226.971 46.4046 225.868 52.3233 224.845C52.7321 224.471 53.0824 224.091 53.3651 223.712C54.0354 221.984 66.354 189.763 59.1413 179.166C58.9591 178.899 59.0292 178.535 59.2954 178.355C59.5617 178.173 59.9261 178.243 60.1059 178.509C63.3689 183.305 63.3946 192.475 60.183 205.762C57.8099 215.575 54.4582 224.126 54.4231 224.212C54.4045 224.259 54.3811 224.301 54.3531 224.341C54.3064 224.404 54.2596 224.467 54.2106 224.53C70.3877 221.895 94.49 219.851 95.9194 219.732C96.1413 219.714 96.3562 219.823 96.4707 220.015C96.5851 220.206 96.5804 220.447 96.459 220.634C91.5446 228.169 99.6589 243.066 99.7407 243.216C99.8341 243.386 99.8388 243.592 99.75 243.762C99.6612 243.933 99.4931 244.052 99.3016 244.075C99.096 244.101 78.4016 246.672 48.3573 254.245C43.9148 255.364 39.9534 255.924 36.4895 255.924L36.4919 255.922ZM40.0328 229.809C40.7709 229.914 42.9431 229.615 45.8721 228.512C47.5258 227.889 49.0113 227.167 50.2539 226.389C44.3095 227.501 41.8477 228.384 40.9507 229.024C40.4252 229.4 40.1636 229.654 40.0328 229.809Z" fill="black"/>
<path d="M112.186 156.647C111.887 156.647 111.633 156.42 111.605 156.117C111.359 153.473 113.109 143.667 113.184 143.252C113.24 142.934 113.543 142.724 113.861 142.78C114.179 142.836 114.389 143.14 114.333 143.457C114.314 143.558 112.534 153.522 112.765 156.009C112.796 156.329 112.56 156.614 112.238 156.645C112.219 156.645 112.2 156.647 112.184 156.647H112.186Z" fill="black"/>
<path d="M66.3608 157.855C66.2581 157.855 66.1553 157.829 66.0619 157.773C59.5008 153.853 55.8898 149.698 55.0233 145.069C53.7947 138.51 58.4615 132.528 62.2103 127.722C63.9574 125.482 65.4663 123.545 66.0899 121.95C67.2507 118.977 67.2858 114.623 67.3278 109.582C67.3886 102.283 67.4563 94.0102 70.9085 86.7438C76.6777 74.6027 93.5602 68.4504 111.045 72.1152C126.459 75.3455 141.949 92.527 140.3 118.005C139.681 127.567 143.4 134.621 146.387 140.29C149.321 145.856 151.64 150.252 147.328 153.739C144.28 156.206 140.812 156.135 137.705 153.587C137.133 154.365 136.407 155.035 135.538 155.575C133.585 156.789 130.962 157.341 127.741 157.219C127.419 157.208 127.166 156.937 127.181 156.614C127.192 156.292 127.463 156.037 127.785 156.054C133.06 156.255 135.608 154.545 136.834 152.8C133.767 149.745 131.892 144.819 133.176 143.065C133.534 142.577 134.424 141.92 136.376 142.992C138.815 144.333 139.651 148.374 138.878 151.163C138.74 151.66 138.555 152.137 138.327 152.583C140.34 154.293 143.281 155.512 146.597 152.83C150.003 150.074 148.515 146.821 145.357 140.832C142.3 135.035 138.497 127.82 139.137 117.928C140.744 93.1062 125.742 76.3872 110.809 73.2574C102.728 71.564 94.3754 72.0077 87.2912 74.5046C80.1089 77.0365 74.6666 81.5608 71.9666 87.2436C68.6241 94.2764 68.5564 102.412 68.498 109.589C68.456 114.747 68.4186 119.199 67.1807 122.373C66.4963 124.127 64.9384 126.124 63.1352 128.436C59.5312 133.059 55.0466 138.809 56.1771 144.849C56.9783 149.131 60.4094 153.027 66.6668 156.764C66.9448 156.93 67.0335 157.287 66.8677 157.565C66.7579 157.747 66.564 157.85 66.3655 157.85L66.3608 157.855ZM134.533 143.579C134.358 143.579 134.209 143.628 134.115 143.754C133.44 144.676 134.55 148.738 137.43 151.742C137.57 151.429 137.673 151.128 137.75 150.852C138.544 147.986 137.383 144.88 135.811 144.018C135.526 143.861 134.956 143.581 134.533 143.581V143.579Z" fill="black"/>
<path d="M125.831 118.977C125.597 118.977 125.378 118.836 125.287 118.605C125.17 118.304 125.317 117.965 125.618 117.848C125.644 117.839 128.353 116.739 128.489 114.562C128.582 113.072 127.844 112.275 126.823 111.173C125.7 109.961 124.303 108.454 123.574 105.525C122.986 103.164 123.268 101.379 124.408 100.221C126.531 98.065 130.801 99.025 130.983 99.067C131.296 99.1394 131.492 99.4547 131.42 99.7677C131.348 100.081 131.035 100.277 130.719 100.204C130.682 100.195 126.903 99.3496 125.24 101.041C124.404 101.891 124.226 103.304 124.707 105.243C125.364 107.882 126.595 109.209 127.681 110.379C128.76 111.544 129.78 112.645 129.657 114.635C129.472 117.559 126.186 118.881 126.046 118.937C125.976 118.965 125.903 118.977 125.833 118.977H125.831Z" fill="black"/>
<path d="M112.66 108.882C113.618 108.882 114.395 107.915 114.395 106.723C114.395 105.532 113.618 104.565 112.66 104.565C111.701 104.565 110.924 105.532 110.924 106.723C110.924 107.915 111.701 108.882 112.66 108.882Z" fill="black"/>
<path d="M127.665 108.702C128.624 108.702 129.401 107.736 129.401 106.544C129.401 105.352 128.624 104.385 127.665 104.385C126.707 104.385 125.93 105.352 125.93 106.544C125.93 107.736 126.707 108.702 127.665 108.702Z" fill="black"/>
<path d="M104.759 102.253C104.584 102.253 104.411 102.173 104.294 102.024C104.098 101.767 104.147 101.4 104.402 101.206C104.556 101.09 108.197 98.3242 111.82 97.9505C115.602 97.5604 117.456 99.8844 117.533 99.9849C117.732 100.239 117.685 100.606 117.431 100.805C117.176 101.003 116.812 100.957 116.613 100.704C116.545 100.62 115.046 98.7913 111.939 99.1136C108.639 99.4547 105.145 102.108 105.11 102.136C105.005 102.218 104.878 102.258 104.755 102.258L104.759 102.253Z" fill="black"/>
<path d="M124.058 130.001C123.88 130.001 123.703 129.992 123.525 129.971C121.68 129.763 120.029 128.639 118.97 127.736C117.698 126.647 116.579 125.262 115.976 124.031C115.448 122.952 115.362 122.109 115.719 121.525C115.943 121.158 116.523 120.658 118.928 120.556C120.351 120.495 122.17 120.591 123.918 120.812C126.475 121.139 129.607 121.805 130.002 123.108C130.334 124.199 129.603 126.245 128.337 127.766C127.127 129.221 125.623 130.001 124.055 130.001H124.058ZM119.849 121.702C118.139 121.702 116.943 121.885 116.707 122.146C116.644 122.249 116.618 122.686 117.025 123.517C117.987 125.484 120.9 128.502 123.654 128.81C125.48 129.013 126.809 127.775 127.44 127.018C128.587 125.64 129.054 124.012 128.886 123.449C128.801 123.265 127.891 122.632 124.873 122.132C123.014 121.826 121.257 121.7 119.849 121.7V121.702Z" fill="black"/>
<path d="M237.572 244.269L233.223 201.815L220.965 201.406L225.585 244.269C214.25 244.989 203.961 247.712 195.954 251.774H267.205C259.2 247.712 248.912 244.989 237.574 244.269H237.572Z" fill="#C2C2C2"/>
<path d="M307.103 140.867L289.102 225.387C288.558 227.949 286.294 229.783 283.674 229.783H162.165C158.627 229.783 155.983 226.513 156.749 223.044L175.203 138.524C175.759 135.974 178.011 134.152 180.62 134.152H301.675C305.202 134.152 307.834 137.41 307.103 140.867Z" fill="#C2C2C2"/>
<path d="M282.883 230.367H242.015C241.693 230.367 241.431 230.105 241.431 229.783C241.431 229.461 241.693 229.199 242.015 229.199H282.883C285.301 229.199 287.419 227.482 287.924 225.119L306.53 137.758C306.855 136.226 306.474 134.647 305.486 133.43C304.503 132.218 303.048 131.522 301.49 131.522H176.363C173.925 131.522 171.857 133.192 171.334 135.581L152.261 222.942C151.922 224.474 152.291 226.053 153.272 227.272C154.256 228.496 155.72 229.197 157.29 229.197H220.966C221.288 229.197 221.55 229.458 221.55 229.781C221.55 230.103 221.288 230.365 220.966 230.365H157.29C155.365 230.365 153.569 229.503 152.364 228.003C151.161 226.504 150.708 224.567 151.121 222.689L170.194 135.331C170.834 132.4 173.371 130.352 176.363 130.352H301.487C303.398 130.352 305.185 131.204 306.39 132.692C307.6 134.185 308.067 136.118 307.668 137.999L289.061 225.359C288.445 228.26 285.845 230.365 282.879 230.365L282.883 230.367Z" fill="black"/>
<path d="M267.206 252.358H195.956C195.633 252.358 195.372 252.096 195.372 251.774C195.372 251.451 195.633 251.19 195.956 251.19H264.64C256.859 247.668 247.551 245.486 237.538 244.851C237.253 244.832 237.024 244.612 236.994 244.328L233.965 214.757C233.932 214.437 234.165 214.15 234.485 214.117C234.808 214.085 235.093 214.318 235.125 214.638L238.106 243.718C249.093 244.472 259.237 247.074 267.47 251.253C267.711 251.374 267.837 251.648 267.774 251.909C267.711 252.171 267.477 252.358 267.206 252.358Z" fill="black"/>
<path d="M225.585 244.853C225.291 244.853 225.039 244.631 225.006 244.332L221.355 210.448C221.32 210.128 221.554 209.838 221.874 209.806C222.196 209.771 222.483 210.002 222.516 210.324L226.167 244.208C226.202 244.528 225.968 244.818 225.648 244.851C225.627 244.851 225.606 244.853 225.585 244.853Z" fill="black"/>
<path d="M187.796 252.358H122.996C121.59 252.358 120.446 251.213 120.446 249.807V247.107C120.446 245.701 121.59 244.556 122.996 244.556H187.796C189.202 244.556 190.346 245.701 190.346 247.107V249.807C190.346 251.213 189.202 252.358 187.796 252.358ZM122.996 245.722C122.232 245.722 121.613 246.343 121.613 247.105V249.805C121.613 250.568 122.235 251.187 122.996 251.187H187.796C188.56 251.187 189.179 250.566 189.179 249.805V247.105C189.179 246.341 188.557 245.722 187.796 245.722H122.996Z" fill="black"/>
<path d="M137.182 244.465C137.023 244.465 136.843 244.442 136.638 244.388C135.391 244.059 133.781 243.134 131.917 242.064C127.379 239.46 121.731 236.218 117.66 239.165C109.868 244.809 101.471 240.674 101.387 240.632C101.1 240.487 100.983 240.135 101.13 239.847C101.275 239.56 101.628 239.446 101.915 239.591C101.992 239.63 109.773 243.438 116.976 238.22C121.659 234.828 127.926 238.425 132.499 241.05C134.291 242.08 135.839 242.968 136.937 243.258C137.063 243.29 137.142 243.3 137.184 243.297C137.276 242.854 136.631 241.289 135.419 239.378C135.057 239.177 134.695 238.974 134.337 238.771C129.521 236.015 127.008 233.971 126.868 232.696C126.809 232.172 127.08 231.733 127.606 231.49C129.273 230.722 131.742 232.948 133.52 234.952C134.26 235.786 135.293 237.096 136.213 238.481C139.315 240.182 142.22 241.52 143.383 241.866C143.358 241.071 142.554 239.044 141.351 236.685C141.309 236.65 141.267 236.615 141.225 236.58C137.486 233.443 133.078 229.29 131.927 227.043C131.245 225.714 131.868 225.203 132.17 225.046C133.165 224.523 134.428 225.065 136.035 226.704C137.857 228.564 140.095 231.834 142.017 235.445C142.101 235.604 142.188 235.765 142.272 235.928C145.56 238.652 148.655 240.857 149.816 241.291C149.185 239.208 143.283 230.969 137.509 223.656C137.311 223.406 137.353 223.042 137.6 222.841C137.848 222.64 138.212 222.675 138.418 222.923C138.455 222.97 142.267 227.557 146.366 231.894C154.275 240.261 155.648 239.633 155.704 239.602C155.964 239.457 156.291 239.154 156.16 238.222C155.436 233.076 142.912 220.237 135.75 218.522C127.384 216.518 102.833 220.125 102.586 220.162C102.266 220.209 101.969 219.989 101.922 219.669C101.875 219.349 102.095 219.053 102.415 219.006C103.433 218.854 127.438 215.33 136.024 217.385C143.675 219.218 156.536 232.509 157.318 238.058C157.531 239.57 156.872 240.284 156.281 240.618C155.38 241.127 153.946 240.504 151.636 238.596C150.25 237.451 148.555 235.844 146.581 233.805C151.318 240.523 151.119 241.415 151.019 241.868C150.96 242.127 150.806 242.33 150.58 242.445C150.176 242.646 149.524 242.711 146.871 240.915C145.88 240.245 144.717 239.383 143.472 238.402C144.273 240.228 144.794 241.919 144.399 242.634C144.196 243.001 143.813 243.16 143.372 243.066C142.395 242.854 140.011 241.788 137.395 240.431C138.177 241.908 138.609 243.251 138.175 243.956C138.046 244.166 137.761 244.465 137.189 244.465H137.182ZM128.031 232.588C128.075 232.952 129.194 234.361 133.819 237.115C133.155 236.269 132.406 235.412 131.583 234.601C129.72 232.763 128.559 232.338 128.096 232.551C128.063 232.565 128.042 232.579 128.031 232.588ZM132.786 226.048C132.819 226.254 133.057 226.968 134.66 228.779C136.049 230.348 137.859 232.093 139.749 233.772C138.119 231.007 136.18 228.276 134.454 226.826C133.735 226.221 133.134 225.943 132.786 226.048Z" fill="black"/>
<path d="M97.4242 166.149C95.6818 166.149 94.0818 165.96 92.6804 165.686C87.2919 164.633 83.7182 162.211 83.5688 162.108C83.3025 161.926 83.2348 161.561 83.4169 161.297C83.5991 161.031 83.9635 160.963 84.2298 161.146C84.2648 161.169 87.7871 163.551 92.949 164.549C99.8323 165.882 106.223 164.257 111.941 159.721C112.193 159.52 112.56 159.562 112.761 159.814C112.961 160.067 112.919 160.433 112.667 160.634C107.283 164.904 101.885 166.149 97.4242 166.149Z" fill="black"/>
<path d="M154.353 193C154.14 193 153.934 192.883 153.832 192.682C153.811 192.638 151.585 188.291 148.462 183.253C144.351 176.617 140.56 171.801 137.503 169.325C130.096 163.329 118.128 160.774 118.009 160.748C117.694 160.683 117.49 160.372 117.556 160.057C117.621 159.742 117.932 159.539 118.247 159.604C118.749 159.709 130.608 162.239 138.236 168.417C145.853 174.581 154.507 191.435 154.871 192.15C155.018 192.437 154.904 192.79 154.616 192.935C154.532 192.979 154.441 192.998 154.353 192.998V193Z" fill="black"/>
<path d="M136.241 213.468C135.973 213.468 135.732 213.283 135.672 213.01L127.158 174.613C127.088 174.298 127.286 173.987 127.602 173.917C127.917 173.847 128.228 174.046 128.298 174.361L136.811 212.758C136.881 213.073 136.683 213.384 136.368 213.454C136.326 213.463 136.283 213.468 136.241 213.468Z" fill="black"/>
</svg>
