<svg width="268" height="195" viewBox="0 0 268 195" fill="none" xmlns="http://www.w3.org/2000/svg">
<path d="M78.7619 176.093C78.4114 176.093 78.0632 176.088 77.7151 176.081C71.7895 175.946 66.3476 173.773 61.9736 169.795C61.3544 169.231 60.7586 168.634 60.1884 168.004C46.863 173.398 35.075 173.945 25.1048 169.625C10.9335 163.481 6.14354 149.705 5.94727 149.122L16.7866 145.477L16.7749 145.445C16.8077 145.543 20.2798 155.156 29.785 159.209C36.4349 162.044 44.6456 161.657 54.2442 158.069C53.9755 157.35 53.7278 156.618 53.5012 155.87C51.3796 148.861 51.2978 141.063 53.2745 133.914C55.4896 125.907 60.0506 119.31 66.4692 114.838C70.0161 112.366 73.4695 110.797 76.7337 110.177C80.297 109.501 83.6827 109.958 86.5216 111.501C91.6878 114.309 94.4963 120.199 94.223 127.66C93.9753 134.485 91.1644 141.903 86.3066 148.541C82.3719 153.92 77.194 158.654 71.0815 162.492C72.9064 163.749 75.1705 164.607 77.9721 164.67C92.0196 164.987 110.172 156.625 127.795 141.725L135.188 150.435C126.213 158.022 116.628 164.343 107.469 168.713C97.2021 173.612 87.5474 176.093 78.7619 176.093ZM79.8811 121.281C78.4464 121.281 76.1262 122.029 73.0186 124.195C63.7167 130.68 61.6652 143.376 64.448 152.568C64.4971 152.727 64.5485 152.897 64.6069 153.074C69.6632 149.961 73.9065 146.137 77.0702 141.812C80.5447 137.062 82.6312 131.753 82.7948 127.245C82.9116 124.011 82.005 122.041 81.0517 121.523C80.7713 121.372 80.3788 121.281 79.8811 121.281Z" fill="#A7E92E"/>
<path d="M159.711 99.4292C159.711 99.4292 132.663 97.4636 103.951 124.458C102.337 125.976 103.307 128.084 105.456 127.734C110.795 126.869 118.156 126.925 122.282 132.342L159.711 99.4292Z" fill="#C8C8C8"/>
<path d="M188.329 136.998C188.329 136.998 181.703 161.84 145.474 178.969C143.437 179.932 141.63 178.394 142.663 176.579C145.229 172.072 147.514 165.466 143.387 160.05L188.329 136.998Z" fill="#C8C8C8"/>
<path d="M116.941 133.714C116.766 133.714 116.59 133.635 116.476 133.484C112.544 128.321 105.459 128.249 100.209 129.1C98.9727 129.298 97.9143 128.834 97.4469 127.883C96.9656 126.91 97.267 125.71 98.211 124.824C113.13 110.798 127.596 104.696 137.103 102.049C147.433 99.172 154.137 99.6173 154.415 99.6383C154.737 99.6616 154.978 99.9414 154.955 100.261C154.931 100.583 154.658 100.825 154.331 100.8C154.263 100.795 147.508 100.352 137.358 103.187C127.991 105.803 113.735 111.829 99.0124 125.67C98.4423 126.206 98.2437 126.857 98.4961 127.365C98.7344 127.845 99.3045 128.062 100.024 127.946C105.59 127.046 113.123 127.151 117.408 132.775C117.605 133.031 117.553 133.397 117.296 133.591C117.189 133.675 117.062 133.714 116.941 133.714Z" fill="black"/>
<path d="M138.876 180.64C138.147 180.64 137.481 180.379 137.009 179.868C136.327 179.134 136.252 178.066 136.813 177.079C139.325 172.668 141.495 166.33 137.579 161.191C137.383 160.934 137.435 160.568 137.692 160.375C137.949 160.179 138.315 160.23 138.509 160.487C140.883 163.604 142.694 169.114 137.827 177.658C137.516 178.201 137.53 178.719 137.862 179.078C138.22 179.46 138.981 179.658 139.879 179.234C158.45 170.453 169.027 159.61 174.63 152.06C180.698 143.882 182.402 137.699 182.418 137.638C182.502 137.328 182.822 137.141 183.133 137.225C183.444 137.309 183.631 137.626 183.547 137.939C183.479 138.198 181.79 144.353 175.609 152.699C169.927 160.372 159.2 171.388 140.376 180.288C139.876 180.523 139.362 180.64 138.876 180.64Z" fill="black"/>
<path d="M226.975 86.586C214.542 123.605 184.351 145.034 143.662 160.409C137.938 160.246 132.965 157.506 129.204 153.54C130.767 152.516 132.356 151.46 133.954 150.373C153.193 137.301 167.299 124.743 165.453 122.325C163.612 119.907 146.52 128.543 127.281 141.613C125.963 142.508 124.671 143.401 123.407 144.287C121.82 140.16 121.266 135.807 122.007 131.985C150.382 100.439 181.494 80.2157 222.608 80.8546C225.982 80.9082 227.996 83.5477 226.975 86.586Z" fill="#A7E92E"/>
<path d="M120.983 131.22C120.845 131.22 120.704 131.171 120.592 131.071C120.352 130.856 120.333 130.488 120.548 130.248C147.024 100.812 172.782 84.9488 201.618 80.3249C201.933 80.2736 202.234 80.4905 202.288 80.8076C202.34 81.1247 202.122 81.4255 201.805 81.4744C173.249 86.054 147.706 101.8 121.419 131.024C121.3 131.155 121.141 131.22 120.983 131.22Z" fill="black"/>
<path d="M142.637 159.647C142.401 159.647 142.179 159.502 142.09 159.269C141.975 158.968 142.127 158.632 142.429 158.518C178.947 144.716 202.43 127.611 216.33 104.68C216.496 104.405 216.856 104.317 217.131 104.484C217.407 104.65 217.496 105.009 217.328 105.284C203.287 128.448 179.618 145.71 142.842 159.607C142.775 159.633 142.704 159.647 142.637 159.647Z" fill="black"/>
<path d="M135.966 150.093C153.428 138.252 166.328 126.807 164.778 124.531C163.229 122.255 147.816 130.009 130.353 141.85C112.891 153.691 99.9908 165.135 101.541 167.411C103.09 169.688 118.503 161.934 135.966 150.093Z" fill="#C8C8C8"/>
<path d="M100.973 167.362C100.085 167.362 99.6693 167.08 99.4286 166.763C99.1949 166.458 99.1155 166.071 99.1903 165.613C99.8492 161.582 114.252 149.921 128.138 140.487C136.599 134.739 144.873 129.747 151.434 126.431C160.913 121.641 162.892 122.248 163.558 123.12C163.792 123.425 163.871 123.812 163.796 124.269C163.138 128.301 148.735 139.962 134.849 149.396C126.388 155.144 118.114 160.136 111.553 163.452C105.522 166.5 102.527 167.362 100.973 167.362ZM162 123.686C160.976 123.686 158.378 124.23 151.962 127.471C145.443 130.766 137.216 135.73 128.797 141.45C111.565 153.157 100.798 163.025 100.345 165.8C100.326 165.921 100.331 166.017 100.361 166.057C100.37 166.068 101.433 167.26 111.027 162.41C117.546 159.117 125.773 154.151 134.192 148.431C151.424 136.723 162.191 126.855 162.645 124.08C162.663 123.959 162.659 123.864 162.628 123.824C162.626 123.822 162.507 123.686 162 123.686Z" fill="black"/>
<path d="M219.458 102.118C219.35 102.118 219.24 102.087 219.145 102.027C211.698 97.2815 208.41 91.571 206.964 87.6141C205.387 83.305 205.585 80.1478 205.595 80.0149C205.618 79.6931 205.896 79.4529 206.219 79.4739C206.541 79.4973 206.782 79.7747 206.761 80.0942C206.758 80.1245 206.574 83.1814 208.083 87.2713C209.473 91.0417 212.63 96.491 219.775 101.043C220.046 101.215 220.126 101.577 219.953 101.847C219.839 102.022 219.649 102.118 219.458 102.118Z" fill="black"/>
<path d="M135.889 44.5518C135.847 44.5518 135.802 44.5495 135.76 44.5472C133.29 44.349 127.19 43.6471 123.89 41.453C119.946 38.8297 118.598 35.0057 119.878 30.088C120.446 27.9102 121.72 25.9165 122.173 25.2496C121.883 24.1141 120.972 19.8447 123.033 17.9163C123.841 17.1608 124.594 17.0979 125.084 17.1795C125.678 17.2797 126.168 17.6202 126.535 17.9863C126.69 17.5106 126.907 16.9486 127.204 16.3937C128.227 14.4816 129.68 13.6049 131.414 13.8637C132.746 14.0619 133.671 14.5889 134.164 15.433C134.281 15.6335 134.365 15.8364 134.424 16.0392C135.604 14.8547 137.466 13.9174 139.821 14.878C141.106 15.4003 141.933 16.2444 142.279 17.3847C142.863 19.3084 141.889 21.7357 140.784 23.3679C140.293 24.0931 139.66 24.753 139.048 25.3919C138.02 26.4645 137.05 27.4788 136.702 28.7543C136.491 29.5191 136.896 30.3841 137.361 31.3845C137.942 32.6366 138.601 34.0543 138.232 35.7169C138.155 36.0689 137.942 36.3674 137.639 36.5563C137.337 36.7428 136.98 36.8011 136.634 36.7172C136.012 36.5656 134.842 36.3954 133.996 36.941C133.456 37.2885 133.101 37.9017 132.94 38.7644C132.846 39.2658 132.923 39.6878 133.176 40.0516C133.634 40.7091 134.692 41.2128 136.157 41.4669C136.599 41.5439 136.987 41.8074 137.22 42.1898C137.454 42.5722 137.51 43.0362 137.377 43.4629C137.164 44.1181 136.566 44.5518 135.889 44.5518ZM124.745 18.3174C124.453 18.3174 124.152 18.4643 123.832 18.7651C122.327 20.1734 122.988 23.8856 123.369 25.196C123.421 25.3686 123.388 25.5574 123.28 25.702C123.264 25.7253 121.636 27.9778 121.009 30.3795C119.85 34.8285 121.007 38.1325 124.54 40.4829C127.699 42.5838 133.998 43.2344 135.856 43.3836C136.033 43.3976 136.202 43.2857 136.258 43.1108C136.305 42.9639 136.253 42.8473 136.218 42.7914C136.183 42.7354 136.104 42.6375 135.952 42.6118C134.695 42.3926 133.029 41.8867 132.211 40.7115C131.776 40.0865 131.634 39.359 131.786 38.5453C132.008 37.3561 132.536 36.484 133.356 35.957C134.568 35.1736 136.099 35.3857 136.905 35.5793C136.954 35.5909 136.994 35.5769 137.017 35.5606C137.038 35.5466 137.076 35.5163 137.09 35.458C137.375 34.1802 136.828 33.005 136.3 31.8695C135.786 30.7619 135.253 29.617 135.573 28.4418C136.001 26.8819 137.12 25.7113 138.202 24.5804C138.807 23.9485 139.377 23.3516 139.814 22.708C140.725 21.3626 141.625 19.2477 141.16 17.7158C140.917 16.916 140.335 16.34 139.379 15.9506C136.132 14.6285 134.384 17.9932 134.311 18.1378C134.171 18.4153 133.837 18.5342 133.552 18.4083C133.267 18.2824 133.131 17.9559 133.244 17.6668C133.246 17.6598 133.582 16.7364 133.15 16.0066C132.844 15.489 132.201 15.1532 131.241 15.0109C128.255 14.5679 127.381 19.3433 127.372 19.39C127.33 19.6348 127.133 19.826 126.888 19.8656C126.643 19.9053 126.397 19.7817 126.281 19.5625C126.117 19.2571 125.545 18.4339 124.89 18.3244C124.841 18.322 124.795 18.3174 124.745 18.3174Z" fill="black"/>
<path d="M136.187 49.0176C136.157 49.0176 136.126 49.0153 136.094 49.0106C135.776 48.9593 135.559 48.6608 135.61 48.3437L136.192 44.7085C136.243 44.3914 136.54 44.1722 136.86 44.2259C137.178 44.2772 137.395 44.5756 137.344 44.8927L136.762 48.5279C136.718 48.8124 136.47 49.0176 136.187 49.0176Z" fill="black"/>
<path d="M143.964 43.1621C143.522 43.1621 143.237 43.1411 143.186 43.1365C142.863 43.1108 142.625 42.8287 142.651 42.5092C142.676 42.1875 142.959 41.9496 143.279 41.9753C143.333 41.9799 148.752 42.3717 150.261 39.2844C151.717 36.3021 149.006 31.8695 148.978 31.8252C148.852 31.6223 148.864 31.3612 149.006 31.17C149.354 30.7036 149.749 29.8758 149.583 29.5401C149.436 29.3325 148.443 29.0691 147.908 28.9268C147.041 28.6983 146.223 28.4815 145.796 28.0594C145.216 27.4858 144.891 26.9005 144.55 26.2803C143.959 25.21 143.347 24.1001 141.204 22.6987C140.936 22.5215 140.859 22.1601 141.036 21.8919C141.214 21.6215 141.576 21.5468 141.845 21.7241C144.23 23.2863 144.973 24.6341 145.574 25.7183C145.887 26.2873 146.158 26.7769 146.618 27.234C146.822 27.4368 147.621 27.6467 148.205 27.8006C149.329 28.0967 150.298 28.3532 150.63 29.0247C151.06 29.8945 150.516 30.9834 150.163 31.543C150.819 32.7206 152.805 36.7288 151.308 39.7951C149.826 42.8287 145.702 43.1621 143.964 43.1621Z" fill="black"/>
<path d="M146.718 35.9943C146.386 35.9943 146.188 35.964 146.167 35.9617C145.849 35.9104 145.632 35.6119 145.681 35.2948C145.732 34.9777 146.029 34.7608 146.347 34.8098C146.372 34.8121 147.424 34.9544 148.809 34.4111C149.108 34.2922 149.45 34.4414 149.566 34.7399C149.683 35.0406 149.536 35.3787 149.237 35.4953C148.174 35.9127 147.265 35.9943 146.718 35.9943Z" fill="black"/>
<path d="M136.696 99.9188C136.696 99.9188 138.953 106.41 148.529 110.454C158.106 114.497 181.11 117.02 181.11 117.02C181.11 117.02 207.107 132.803 210.735 134.086C214.364 135.368 218.778 130.134 217.843 126.536C216.908 122.938 199.961 106.373 190.463 101.602C180.965 96.8316 177.089 95.3905 177.089 95.3905L166.282 90.8203C166.282 90.8203 165.467 93.4202 152.531 97.6873C145.206 100.105 136.696 99.9188 136.696 99.9188Z" fill="#016A2B"/>
<path d="M138.723 100.582C136.111 100.582 133.966 100.239 132.769 99.621C132.358 99.4088 131.106 98.7629 130.117 83.87C129.582 75.7928 129.423 67.5338 129.744 64.232C130.398 57.47 134.76 49.9781 134.945 49.661C135.108 49.3835 135.466 49.2902 135.744 49.4535C136.022 49.6167 136.115 49.9734 135.952 50.2509C135.907 50.3255 131.533 57.8407 130.905 64.344C130.599 67.5128 130.746 75.5317 131.258 83.4107C131.97 94.4258 132.893 98.131 133.333 98.602C135.438 99.6629 142.212 100.141 152.366 97.133C161.465 94.4375 164.353 91.686 164.381 91.6604C164.61 91.4365 164.981 91.4389 165.206 91.6674C165.432 91.8959 165.43 92.262 165.203 92.4881C165.082 92.6071 162.14 95.4541 152.698 98.2499C147.861 99.6816 143.275 100.486 139.436 100.575C139.195 100.579 138.957 100.582 138.723 100.582Z" fill="black"/>
<path d="M167.435 89.5504C167.182 89.5504 166.951 89.3872 166.876 89.1354L159.203 63.6331C159.109 63.3253 159.285 62.9988 159.595 62.9079C159.904 62.8146 160.231 62.9895 160.322 63.2996L167.995 88.8019C168.089 89.1097 167.914 89.4362 167.603 89.5271C167.547 89.5434 167.491 89.5504 167.435 89.5504Z" fill="black"/>
<path d="M170.816 69.0227C170.732 69.0227 170.645 69.004 170.564 68.9644C170.274 68.8245 170.15 68.477 170.29 68.1856C171.669 65.3269 172.636 62.4425 172.402 61.8875C171.951 60.8103 167.477 56.7227 164.414 55.0299C164.131 54.8736 164.031 54.5192 164.187 54.2371C164.344 53.9549 164.699 53.8547 164.981 54.0086C167.996 55.6758 172.842 59.9102 173.482 61.4375C174.068 62.8389 171.994 67.3438 171.344 68.6916C171.241 68.8991 171.033 69.0227 170.816 69.0227Z" fill="black"/>
<path d="M162.152 72.7559C162.047 72.7559 161.939 72.728 161.844 72.6673C161.57 72.4971 161.486 72.138 161.657 71.8652C161.673 71.8372 163.383 69.1138 165.57 66.4579C168.601 62.7784 171.094 60.969 172.975 61.0832C173.297 61.1019 173.543 61.3794 173.524 61.7011C173.505 62.0229 173.227 62.2654 172.907 62.2491C171.475 62.1628 169.18 63.9186 166.482 67.1924C164.341 69.79 162.666 72.4575 162.65 72.4855C162.538 72.658 162.348 72.7559 162.152 72.7559Z" fill="black"/>
<path d="M162.404 66.0718C162.289 66.0718 162.175 66.0392 162.074 65.9692C161.808 65.7873 161.74 65.4259 161.923 65.1601C165.869 59.396 169.668 58.8551 169.827 58.8341C170.147 58.7921 170.439 59.0206 170.479 59.3401C170.519 59.6572 170.295 59.9487 169.977 59.9906C169.928 59.9976 166.498 60.5432 162.885 65.8177C162.773 65.9809 162.589 66.0718 162.404 66.0718Z" fill="black"/>
<path d="M198.762 81.9692C198.579 81.9692 198.399 81.8829 198.285 81.7244C198.273 81.708 196.932 79.8986 193.862 79.0778C190.82 78.2664 187.361 80.4069 187.326 80.4302C187.142 80.5468 186.906 80.5515 186.719 80.4396L173.62 72.7425C173.559 72.7075 173.508 72.6609 173.463 72.6072L167.379 65.1526C167.176 64.9032 167.213 64.5347 167.463 64.3319C167.713 64.129 168.082 64.1663 168.286 64.4158L174.302 71.7888L187.016 79.2597C188.009 78.7048 191.165 77.1495 194.163 77.9516C197.661 78.8866 199.173 80.9596 199.236 81.0482C199.423 81.3093 199.362 81.6754 199.098 81.8619C198.998 81.9342 198.878 81.9692 198.762 81.9692Z" fill="black"/>
<path d="M183.992 85.8991C183.92 85.8991 183.845 85.8851 183.773 85.8571C183.214 85.6309 170.08 80.3052 167.816 78.7616C164.339 76.3902 161.778 72.6618 161.671 72.5032C161.489 72.2374 161.559 71.8736 161.825 71.6941C162.091 71.5122 162.456 71.5822 162.636 71.848C162.662 71.8853 165.183 75.5555 168.475 77.7986C170.636 79.2723 184.076 84.7216 184.212 84.7775C184.511 84.8988 184.656 85.2392 184.534 85.5377C184.441 85.7615 184.221 85.8991 183.992 85.8991Z" fill="black"/>
<path d="M220.603 140.874C217.922 140.874 213.548 136.225 213.055 135.691C212.836 135.455 212.852 135.085 213.088 134.868C213.326 134.648 213.696 134.665 213.913 134.9C215.642 136.77 218.967 139.708 220.596 139.708C220.61 139.708 220.624 139.708 220.635 139.708C221.958 139.662 229.313 131.281 232.449 125.317C233.704 122.929 233.419 122.432 233.416 122.428C231.797 120.942 228.255 123.074 225.715 125.349C222.92 127.854 218.841 127.788 218.67 127.784C218.348 127.777 218.093 127.509 218.1 127.187C218.107 126.87 218.366 126.618 218.684 126.618C218.691 126.618 218.684 126.618 218.733 126.618C219.123 126.618 222.619 126.557 224.935 124.482C226.411 123.16 231.444 119.037 234.213 121.577C234.891 122.199 234.571 123.34 234.271 124.146C233.255 126.872 230.124 131.302 227.75 134.266C226.173 136.236 222.327 140.823 220.673 140.874C220.649 140.874 220.626 140.874 220.603 140.874Z" fill="black"/>
<path d="M218.786 140.295C218.606 140.295 218.428 140.214 218.314 140.057C218.122 139.799 218.178 139.432 218.44 139.241C223.445 135.58 231.382 122.802 231.462 122.672C231.63 122.399 231.992 122.313 232.266 122.483C232.539 122.651 232.625 123.012 232.455 123.285C232.125 123.819 224.319 136.387 219.132 140.181C219.027 140.258 218.905 140.295 218.786 140.295Z" fill="black"/>
<path d="M210.07 136.038C208.799 136.038 207.395 135.52 205.402 134.44C200.92 132.015 182.015 120.07 179.816 118.68C178.741 118.792 174.04 118.918 158.937 115.728C141.326 112.009 139.293 106.448 139.216 106.215C139.115 105.909 139.281 105.58 139.587 105.478C139.891 105.378 140.218 105.541 140.323 105.839C140.356 105.928 142.471 111.058 159.18 114.588C176.11 118.165 179.685 117.533 179.828 117.505C179.975 117.477 180.136 117.503 180.262 117.582C180.473 117.715 201.336 130.912 205.958 133.414C210.042 135.625 211.012 135.315 214.619 132.577C214.876 132.381 215.243 132.433 215.437 132.689C215.633 132.946 215.582 133.312 215.325 133.505C213.143 135.166 211.72 136.038 210.07 136.038Z" fill="black"/>
<path d="M152.546 62.6505C152.352 62.6505 152.16 62.5526 152.051 62.3754C151.88 62.1026 151.964 61.7435 152.237 61.5732L191.945 36.908C191.964 36.8964 191.985 36.8847 192.006 36.8754C195.539 35.2222 199.551 32.9697 199.868 32.2142C200.14 31.5707 200.179 31.053 199.985 30.6776C199.728 30.1763 199.107 30.0294 199.1 30.0271C198.796 29.9571 198.597 29.661 198.651 29.3555C198.854 28.2106 197.738 27.9611 197.609 27.9355C197.427 27.9005 197.27 27.7793 197.191 27.6114C197.111 27.4435 197.118 27.2476 197.207 27.0844C197.324 26.8699 197.303 26.737 197.27 26.646C197.142 26.2776 196.581 25.9815 196.438 25.9232C196.235 25.8392 196.097 25.648 196.081 25.4312C196.065 25.2143 196.17 25.0045 196.357 24.8879C198.794 23.3909 200.953 21.6468 201.432 20.833C200.691 20.9776 198.595 21.8053 192.672 25.3356L192.403 25.4965C188.676 27.7116 187.496 30.153 187.391 31.1346C187.368 31.3562 187.218 31.552 187.008 31.6266L138.625 49.0798C138.321 49.1893 137.987 49.0331 137.877 48.73C137.767 48.4269 137.924 48.0934 138.227 47.9838L186.298 30.645C186.536 29.6703 187.557 27.0214 191.803 24.4962L192.071 24.3353C200.21 19.4852 201.584 19.4316 202.233 19.7627C202.499 19.898 202.665 20.1498 202.693 20.4506C202.817 21.8799 199.719 24.1207 197.749 25.3915C198.002 25.6131 198.245 25.9022 198.371 26.2636C198.455 26.5038 198.481 26.7533 198.448 27.0028C199.153 27.3339 199.833 28.0124 199.843 29.0687C200.217 29.2413 200.714 29.563 201.013 30.1367C201.38 30.8362 201.355 31.6896 200.941 32.6736C200.305 34.1846 194.385 37.0549 192.529 37.9247L152.852 62.5712C152.759 62.6225 152.651 62.6505 152.546 62.6505Z" fill="black"/>
<path d="M146.969 46.0046C146.674 46.0046 146.42 45.7831 146.389 45.4823L146.06 42.3601C146.027 42.0407 146.258 41.7539 146.578 41.7189C146.901 41.6863 147.186 41.9171 147.221 42.2365L147.55 45.3588C147.583 45.6782 147.352 45.965 147.032 46C147.011 46.0046 146.99 46.0046 146.969 46.0046Z" fill="black"/>
<path d="M154.747 64.964C154.347 64.964 154.006 64.8567 153.742 64.7262C149.604 62.6882 148.45 46.9652 148.33 45.1791C148.309 44.8573 148.552 44.5799 148.875 44.5589C149.195 44.5379 149.475 44.7804 149.496 45.1022C149.805 49.7703 151.263 62.2055 154.258 63.6815C154.52 63.8121 154.948 63.931 155.606 63.4927C155.941 63.2572 156.163 61.4314 156.074 59.6616C156.057 59.3398 156.305 59.067 156.628 59.0507C156.955 59.0367 157.223 59.2815 157.24 59.6033C157.303 60.8251 157.333 63.7468 156.254 64.4627C155.695 64.8357 155.186 64.964 154.747 64.964Z" fill="black"/>
<path d="M137.466 73.2562C137.242 73.2562 137.027 73.1256 136.931 72.9087C136.8 72.6149 136.933 72.2698 137.23 72.1393L154.051 64.7383C154.346 64.6077 154.691 64.743 154.822 65.0368C154.953 65.3306 154.82 65.6757 154.523 65.8062L137.702 73.2072C137.625 73.2422 137.546 73.2562 137.466 73.2562Z" fill="black"/>
<path d="M152.051 66.5938C151.9 66.5938 151.748 66.5355 151.633 66.4189C144.282 58.9247 145.355 48.117 145.404 47.6623C145.439 47.3429 145.729 47.112 146.046 47.1447C146.367 47.1797 146.6 47.4665 146.565 47.7859C146.553 47.8932 145.511 58.5096 152.467 65.6028C152.694 65.8336 152.689 66.202 152.458 66.4282C152.348 66.5378 152.199 66.5938 152.051 66.5938Z" fill="black"/>
<path d="M143.527 29.8117C143.878 29.6104 143.952 29.0805 143.692 28.6282C143.432 28.1758 142.936 27.9723 142.585 28.1736C142.233 28.3749 142.159 28.9048 142.419 29.3571C142.679 29.8095 143.175 30.013 143.527 29.8117Z" fill="black"/>
<path d="M139.87 29.4864C139.863 29.4864 139.858 29.4864 139.851 29.4864C139.528 29.4771 139.276 29.2089 139.285 28.8895C139.318 27.7213 140.035 25.4455 142.51 25.1983C142.835 25.1657 143.117 25.4012 143.15 25.7207C143.183 26.0401 142.947 26.3269 142.627 26.3595C140.561 26.5647 140.458 28.8289 140.454 28.9268C140.442 29.2393 140.183 29.4864 139.87 29.4864Z" fill="black"/>
</svg>
