<?xml version="1.0" encoding="utf-8"?>
<!-- Generator: Adobe Illustrator 19.0.0, SVG Export Plug-In . SVG Version: 6.00 Build 0)  -->
<svg version="1.1" id="Layer_1" xmlns="http://www.w3.org/2000/svg" xmlns:xlink="http://www.w3.org/1999/xlink" x="0px" y="0px"
	 viewBox="444 -56 1500 905" style="enable-background:new 444 -56 1500 905;" xml:space="preserve">
<style type="text/css">
	.st0{fill:none;stroke:#000000;stroke-width:3;stroke-linecap:round;stroke-linejoin:round;stroke-miterlimit:22.9256;}
	.st1{fill:#F4F4F4;stroke:#000000;stroke-width:3;stroke-linecap:round;stroke-linejoin:round;stroke-miterlimit:10;}
	.st2{fill:#C8C8C8;}
	.st3{fill:none;stroke:#FC64B0;stroke-width:40;stroke-miterlimit:10;}
	.st4{fill:#F4F4F4;}
	.st5{fill:none;stroke:#000000;stroke-width:3;stroke-linecap:round;stroke-linejoin:round;stroke-miterlimit:10;}
	.st6{fill:#FC64B0;}
	.st7{fill:none;stroke:#FFFFFF;stroke-width:3;stroke-miterlimit:10;}
	.st8{fill:#F4F4F4;stroke:#000000;stroke-width:3;stroke-linecap:round;stroke-linejoin:round;stroke-miterlimit:22.9256;}
	.st9{fill:none;stroke:#FC64B0;stroke-width:6;stroke-linejoin:round;stroke-miterlimit:10;}
	.st10{fill:none;stroke:#FFFFFF;stroke-width:3;stroke-linecap:round;stroke-linejoin:round;stroke-miterlimit:22.9256;}
</style>
<path class="st0" d="M1314.4,619.7l-42.1,171.9"/>
<path class="st0" d="M1393.1,619.7l42.1,171.9"/>
<path class="st0" d="M1310.7,637.9l105.4,75.7"/>
<path class="st0" d="M1397,637l-105.4,75.7"/>
<path class="st1" d="M1423.7,619.7h-143.3c-4.5,0-8.1-3.6-8.1-8.1c0-4.5,3.6-8.1,8.1-8.1h143.3c4.5,0,8.1,3.6,8.1,8.1
	C1431.8,616,1428.2,619.7,1423.7,619.7z"/>
<path class="st2" d="M1614.2,759.6l55.1-4.5l3.5,36.4h-106.8c0,0-1.7-5.4,5.2-11.6C1578,773.8,1611.4,769.5,1614.2,759.6z"/>
<path class="st2" d="M1470.5,753.1c0,0-14.1,11.3-36.4,16.4c-22.3,5.1-32.2,22-32.2,22h115.2l5.9-29.9L1470.5,753.1z"/>
<path class="st3" d="M1197.8,441.6C865.4,280,1329.4,29.8,1444,128.2c58.7,50.4-104.1,156.9-228.7,162.8
	c-205.1,9.8-298.9-157.4-144.6-261.2c67.9-45.7,178.1-38.5,230.2-15.4"/>
<path class="st4" d="M986,215l56.6,22.9c0,0-1,65.8-5.2,72c-4.2,6.2-43.8-1.8-57.5-14C966.3,283.7,986,215,986,215z"/>
<path class="st4" d="M1280.3,377.9c-30.2-23.3,5.8-43.2,8.7-50.3c4.9-11.9-8.4-32.5-7-46.4c1.4-13.9,19.7-41.7,48.4-47.8
	c22.9-4.9,50.7,4.4,58.3,27.3c7.5,22.9,5.8,32.8,19.7,40.9c13.9,8.1,53.4,29.3,30.7,53.6"/>
<path d="M1099.6,756.9c0,0,3.5,32.2,8.2,34.6c4.7,2.4,96.9,0,96.9,0s4.1-7.5-3.2-16c-7.3-8.5-51.5-22.7-51.5-22.7L1099.6,756.9z"/>
<path class="st2" d="M1061.4,551.5h46c0,0,12.3,1.3,14,20.6c3,33.3-94.1,184.5-104.4,188.4c-10.3,3.9-57.8-4.6-57.8-9.7
	s57.8-144.6,57.8-144.6L1061.4,551.5z"/>
<path class="st2" d="M860.8,552.3c0,0-11.1,44.1,36.5,55.2c47.6,11,129,2.8,129,2.8s3.4,26,25.6,68.9c22.2,42.9,30.9,76,54.6,79.8
	c23.7,3.8,41.4,1.1,47.8-12.1c6.4-13.2-38.8-146-50.4-168.3c-11.8-22.8-42.6-27.1-42.6-27.1L860.8,552.3z"/>
<path class="st5" d="M1042.5,247.7c0,0-1.2,39.9-2.5,48.5c-1.3,8.6,2.8,33.4-23,33.2c-25.8-0.2-45.3-20.3-44.7-43.1
	c-22.2-6.5-19.6-26.9-12.5-31.6c7.1-4.7,16.2,8.4,16.2,8.4"/>
<path d="M1040.1,296.2c0,0-4.6-8.2-24.3-13.1c-17.1-4.3-27.9,2.2-32.9,1c-5-1.2-5.6-7.8-5.2-10.8c0.4-3.9,6-19.2,6-19.2l-9.1,8.3
	c0,0-11,32.6,9,52.8c20,20.2,45,17.5,51.3,7.1C1041.2,311.9,1040.1,296.2,1040.1,296.2z M1012,304c-7.1-3-14.1-12.9-12.6-15.3
	c1.5-2.4,26.9,4.6,27.3,7.4C1027.1,300.2,1019.1,307,1012,304z"/>
<path class="st5" d="M972.3,286.4l-8.8,37.6"/>
<path class="st5" d="M1038.6,259.3c0,0-4.1-5.8-11-3.9c-5.5,1.6-7.5,8.6-1.5,14.7c6.2,6.3,1.1,12-4,12"/>
<path class="st5" d="M1012.9,252.4c0,0-4.2-3.8-10.6-2.7c-5.4,0.9-7.8,3.6-7.8,3.6"/>
<path d="M1007.9,261.5c0.1-2.2-1.3-4-3.2-4.1c-1.9-0.1-3.5,1.5-3.7,3.7c-0.1,2.2,1.3,4,3.2,4.1
	C1006.1,265.3,1007.7,263.6,1007.9,261.5z"/>
<path d="M1034.8,266.8c0.1-2.2-1.3-4-3.2-4.1c-1.9-0.1-3.5,1.5-3.7,3.7c-0.1,2.2,1.3,4,3.2,4.1
	C1033,270.6,1034.6,268.9,1034.8,266.8z"/>
<path d="M1027.7,213c16.6,8.6,24.4,21.2,17.9,30.2c-3.8,5.3-15.5,3.9-23.5,0.9c-8-3-23.2-14.3-29.1-11.9c-6,2.5-5.9,25.8-16.9,30.9
	c0,0-7.1-9-13.5-9.9c0,0-2.9-18,4.6-32.6C974.1,207,998.6,197.9,1027.7,213z"/>
<path class="st6" d="M857.7,530.1c0,0-25.6-3.8-26.4-27.5c-0.8-23.7,33.1-148.3,56.1-164.9c23-16.6,73.8-13.7,73.8-13.7
	s6.5,18.7,30.1,22c21.6,3,23.8-9.4,23.8-9.4s34.5,15.7,49.9,40.4c15.4,24.7,20.7,98.9,20.7,98.9l33.9,16.9l-20.3,37.3L857.7,530.1
	L857.7,530.1z"/>
<path class="st7" d="M859.7,312.7v226.2"/>
<path class="st7" d="M912.8,312.7v226.2"/>
<path class="st7" d="M965.9,312.7v226.2"/>
<path class="st7" d="M1019,312.7v226.2"/>
<path class="st7" d="M1072.1,312.7v226.2"/>
<path class="st7" d="M864.3,356.7h231.5"/>
<path class="st7" d="M842.8,406.4h260.9"/>
<path class="st7" d="M810.6,456.1h293.1"/>
<path class="st7" d="M810.6,505.8h334.9"/>
<path class="st4" d="M973.8,530.1c0,0-0.6-14.8,8.5-21.6c9-6.8,40.9-6,49.8-4.3c24.6,4.8,33,25.9,33,25.9H973.8z"/>
<path class="st2" d="M1333.1,403h-176.3c-4.6,0-8.8,2.5-11,6.6l-59.2,109.5h-91.9c-6.1,0-11,4.9-11,11h97h10.3h183.9l63.7-117.9
	C1340.8,408.1,1337.8,403,1333.1,403z"/>
<path class="st0" d="M1094.7,522.2l59.2-109.5c2.2-4,6.4-6.6,11-6.6h176.3c4.7,0,7.7,5.1,5.5,9.2l-60,106.8"/>
<path class="st7" d="M1225.3,480.1c8.1-6.1,11.8-14.7,8.4-19.3c-3.4-4.6-12.8-3.3-20.8,2.7s-11.8,14.7-8.4,19.3
	C1207.9,487.4,1217.3,486.2,1225.3,480.1z"/>
<path class="st5" d="M913.2,455.3c0,0-7.5,47.2-26.6,44c-10.5-1.7-5.5-20.4,38.9-8s53.1,16.2,53.1,16.2"/>
<path class="st5" d="M1048.6,412.6l-13.3,89.2"/>
<path class="st5" d="M972.8,526.8c5.7-30.9,49.8-25.8,64.5-22.4c16.3,3.8,21.4,14.6,21.4,14.6"/>
<path class="st5" d="M1007.5,513.5c0,0,13.7,0.9,18.8,4.1"/>
<path class="st5" d="M1020.3,508.4c0,0,21.6,3,28.3,9.2"/>
<path class="st5" d="M556.5,791.5h1277.4"/>
<path class="st0" d="M905.5,619.7l-42.1,171.9"/>
<path class="st0" d="M984.2,619.7l42.1,171.9"/>
<path class="st0" d="M901.8,637.9l105.4,75.7"/>
<path class="st0" d="M988.2,637l-105.4,75.7"/>
<path class="st1" d="M1014.8,619.7H871.5c-4.5,0-8.1-3.6-8.1-8.1c0-4.5,3.6-8.1,8.1-8.1h143.3c4.5,0,8.1,3.6,8.1,8.1
	C1022.9,616,1019.3,619.7,1014.8,619.7z"/>
<path class="st5" d="M1073.3,397c0,0,12.4,68.3,12.6,78.8c0.2,10.5-23,13-24.3,7.7c-1.5-6.2,12.5-10.6,41.9,1.1"/>
<path class="st0" d="M766,238c0,0,11.9-7.2,3.9-28.4c-5.9-15.8-26.5-24.6-53.7-15c-20.8,7.4-34,20.6-32,41.8
	c2,21.3,30.7,15.5,28.7,4.2s-28.6-3.2-41.6,18.3c-20,33.2-6.1,59.8,11.3,54.5c17.4-5.3,12.4-20.2,3.4-17.9c-9,2.3-16,28.4-10.2,43
	c5.8,14.6,13,15.6,13,15.6"/>
<path class="st0" d="M771.8,312.4c0,0-28-20.1-21.1-48.9c7.8-32.4,39.3-41.6,62.7-31.4c28.4,12.4,27.5,42.1,27.5,42.1
	c-1.3,8.2-7.2,12.6-7.5,18.5c-0.4,7.4,7.9,12.2,5.5,17.1c-1.3,2.7-7.1,3.6-7.1,3.6s-3.7,22.1-17.8,25.9c-7.8,2.1-17.9-4.3-25.3-16.5
	"/>
<path class="st0" d="M837.7,257.5c-9.6,21.8-35.4,21.9-39.4,12.7c-4-9.2,7.1-10.1,9.6,2c2.4,12.1-13.7,21.1-13.7,21.1
	s1.9-18.3-10.4-16.8c-12.3,1.5-15,21.6,0.2,29.1"/>
<path class="st0" d="M777.2,305.8c0,0-5.6,12.3-15.3,21c0,0,9.8,32.6,27,29.2l11.4-20.3"/>
<path class="st0" d="M834,277.7c0,0-4.7-2.7-15.3,2.3"/>
<path d="M826.7,291.8c0.5-1.8-0.2-3.5-1.5-3.9c-1.3-0.4-2.8,0.8-3.3,2.6c-0.5,1.8,0.2,3.5,1.5,3.9
	C824.8,294.7,826.2,293.6,826.7,291.8z"/>
<path class="st0" d="M817,312.3c0,0,1.7,7.3,7.1,8.9"/>
<path d="M759.8,331.6c-1-3-4-4.8-7.1-4.4c-10.8,1.7-34.7,7.2-51.1,23.6c-21.7,21.7-64.6,106.6-60,136c4.5,29.4,63.8,36.8,89.4,37.9
	c25.6,1.1,28.1-21,36.7-34.5s20.7-65.1,23-77.5c1.8-9.8-1.1-37.3-2.4-48.3c-0.3-2.6-2.1-4.7-4.6-5.4
	C777.5,357.1,766,351.1,759.8,331.6z"/>
<path class="st6" d="M957.7,89.6H835.6c-11,0-21.1,5.8-26.6,15.3l-29.9,51.8c-5.1,8.8,1.3,19.9,11.5,19.9h79.2l-1.1,15.3
	c-0.2,2.6,2.7,4.2,4.8,2.7l25.1-18h14.1c11,0,21.1-5.8,26.6-15.3l29.9-51.8C974.3,100.6,967.9,89.6,957.7,89.6z"/>
<path class="st6" d="M1672.5,101.7h-119.1c-10.7,0-20.6,5.7-25.9,15l-29.2,50.6c-5,8.6,1.2,19.4,11.2,19.4h77.3l-1.1,15
	c-0.2,2.5,2.6,4.1,4.7,2.6l24.4-17.6h13.8c10.7,0,20.6-5.7,25.9-15l29.2-50.6C1688.7,112.5,1682.5,101.7,1672.5,101.7z"/>
<path class="st6" d="M642.3,503c0,0-41.2,59.8-3.4,94.3c37.8,34.4,164.3,19.2,164.3,19.2s48,134,64.9,136.3
	c18.9,2.6,42.9-11.5,42.9-11.5s-26-141.9-48.2-173.1c-18.1-25.4-120.6-38.1-120.6-38.1l-11.3-5.4L642.3,503z"/>
<path class="st6" d="M775.6,609.1c0,0-57.3,113.5-51.1,132.1c3.2,9.4,34.7,16.9,34.7,16.9l75.1-104.5L818,600.1L775.6,609.1z"/>
<path class="st8" d="M1136.1,15h-140c-12.6,0-24.2,6.7-30.5,17.6L931.3,92c-5.8,10.1,1.5,22.8,13.1,22.8h140
	c12.6,0,24.2-6.7,30.5-17.6l34.3-59.4C1155.1,27.6,1147.8,15,1136.1,15z"/>
<path class="st0" d="M982.3,43h142"/>
<path class="st0" d="M1054.9,66.6h56.7"/>
<path class="st0" d="M969.6,66.6h49.9"/>
<path class="st0" d="M851.5,141.6c7.7-5.8,11.3-14,8-18.4c-3.3-4.4-12.2-3.2-19.9,2.6s-11.3,14-8,18.4
	C834.9,148.5,843.8,147.4,851.5,141.6z"/>
<path class="st0" d="M909.2,141.6c7.7-5.8,11.3-14,8-18.4c-3.3-4.4-12.2-3.2-19.9,2.6s-11.3,14-8,18.4
	C892.6,148.5,901.5,147.4,909.2,141.6z"/>
<path class="st0" d="M1545.8,131.5h101.9"/>
<path class="st0" d="M1533.1,153.2H1635"/>
<path class="st5" d="M874.1,755.4c0,0-0.3,26.8,7.9,33.9"/>
<path class="st5" d="M931.2,758.2c0,0,17.6,9.9,29.5,15.2s12.3,15.8,12.3,15.8"/>
<path d="M1062.1,783.1c-3-7-45.2-22.5-45.2-22.5l-53.9-6.8c0,0-2,6.2-4.1,13.5c3.6,1.5,12.7,5.6,16.9,10c3.3,3.5,4.2,10.9,4.5,15.8
	c31.8,0.4,81.8-1.5,81.8-1.5S1065.1,790,1062.1,783.1z"/>
<path class="st5" d="M722,747.1c0,0-18.1,31.4-17.1,37.1"/>
<path class="st5" d="M758.7,760.5c0,0,0.9,8,11.5,11.8c10.5,3.8,26.5,9,22.2,19.2"/>
<path d="M788,386.1l36.3,72.1l49.5-31.3l13.5,26.1c0,0-45.4,70.6-65.2,73.8c-19.8,3.3-58.2-52.9-58.2-52.9L788,386.1z"/>
<path class="st6" d="M1323.1,721c0,0,15.8,20.3,16.9,26.5c1.1,6.2-31.9,41.8-31.9,41.8h-50.5c0,0-0.6-7.1,5.1-11.9
	s18.6-10.2,18.6-10.2l2.8-23.4L1323.1,721z"/>
<path class="st6" d="M1215.8,757.7c0,0-4.2,33.9-7.6,33.9c-3.4,0-94,0-94,0s0.9-7.5,5.7-12.1c4.8-4.5,32.5-15.2,36-16.8
	c8.9-3.9,12.5-9.9,12.5-9.9L1215.8,757.7z"/>
<path d="M1168.3,752.8l76,23.2l54.5-167.6c0,0,108.6,2,122.3-1.4c27.9-6.8,25.3-55.4,25.3-55.4h-194.7c0,0-15.8,7.5-23,27.5
	C1221.7,599,1168.3,752.8,1168.3,752.8z"/>
<path d="M1210,551.5c0,0-19.6,5.4-21.9,26.8c-3.3,30.6,69.4,187.8,69.4,187.8l65.5-45.2L1257.6,595v-43.5L1210,551.5L1210,551.5z"/>
<path class="st0" d="M1268.6,399.6c0,0,13.3-20.9,21.5-26.3c8.2-5.4,32.8-10.4,32.8-10.4"/>
<path class="st0" d="M1396.8,355.3c0,0,10.3-11,27-3.2c21.3,9.9,32,73.5,32,73.5"/>
<path class="st0" d="M1292.4,505.5l34.7-4.2"/>
<path class="st0" d="M1294.1,526.5l11.3-8.8"/>
<path class="st0" d="M1309.8,527.1l8.5-4.9"/>
<path class="st0" d="M1342,345.4c-12.8,5.5-29.4,4.7-39.3-8.9c-10-13.6-4.9-49.5-4.9-49.5s5-19.9,15.3-25.6"/>
<path class="st0" d="M1324.9,348.6l-2.1,14.3c0,0-0.9,23.1,27.1,9.8"/>
<path class="st0" d="M1316.3,248.3c0,0-7.5,9.1,0,20.9c7.5,11.8,28.9,13,36.7,21.5c4.1,4.4,7.3,15.3,3.9,24.8
	c-3.4,9.6-17.3,20.7-6.7,32.2c10.6,11.6,24.2,4.8,20.2-2.3c-3.9-7.1-34.1,25.8-13.6,39c15.8,10.2,39.8-29.1,39.8-29.1"/>
<path class="st0" d="M1280.3,377.9c-30.2-23.3,5.8-43.2,8.7-50.3c4.9-11.9-8.4-32.5-7-46.4c1.4-13.9,19.7-41.7,48.4-47.8
	c22.9-4.9,50.7,4.4,58.3,27.3c7.5,22.9,5.8,32.8,19.7,40.9c13.9,8.1,53.4,29.3,30.7,53.6"/>
<path class="st0" d="M1300.9,286.5c0,0,5.4-5.6,13-2c7.6,3.5,6.6,13,3.4,18.4c-2.2,3.7-8.2,8.6,1.9,14.4"/>
<path class="st0" d="M1328.2,283.5c0,0,1.7-3.3,11.6-0.4"/>
<path class="st0" d="M1315.7,326.2c0,0,4.1,3.1,10,1c6.5-2.3,7.4-6,7.4-6"/>
<path d="M1336.3,300.4c1.6,0,3-1.6,3-3.5c0-1.9-1.3-3.5-3-3.5c-1.6,0-3,1.6-3,3.5C1333.4,298.9,1334.7,300.4,1336.3,300.4z"/>
<path d="M1309.3,301.1c1.6,0,3-1.6,3-3.5c0-1.9-1.3-3.5-3-3.5s-3,1.6-3,3.5C1306.3,299.5,1307.6,301.1,1309.3,301.1z"/>
<path class="st0" d="M1402,403c0,0-3,68.8,7.5,83.2c10.5,14.5,20.7,4.3,6.4-5.5c-14.3-9.8-86.6,17.3-86.6,17.3s16.2,8.8,12.6,28.5"
	/>
<path class="st0" d="M1455.8,528.6c0,0,8.4-1.9,11.4-27.3"/>
<path class="st9" d="M1775.5,548.5c0,0,13.2,33.1-3.8,42.5c-16.9,9.4-133.7-10.5-144.2,9c-9.6,17.7,29,148,29,148"/>
<path class="st9" d="M1744.3,560.6c0,0-120.1-2.3-138.9,18.8c-18.8,21.1,33.5,168.7,33.5,168.7"/>
<path class="st9" d="M1639.2,554.5c0,0-55,0-66.6,24.5c-11.7,24.5,50.1,169,50.1,169"/>
<path class="st9" d="M1558.8,644.9L1512.2,748"/>
<path class="st9" d="M1547,606.9L1487.1,748"/>
<path class="st0" d="M1792.9,547c0,0,10.4,42.9-8.8,55.9c-19.2,13-144.9,4.8-144.9,4.8l28.9,140.3"/>
<path class="st0" d="M1575.8,554.5c0,0-23.7,5.7-25.7,29.5c-2,23.7,61.3,170.8,61.3,170.8"/>
<path class="st0" d="M1522.9,757.7l48.2-86.1"/>
<path class="st0" d="M1472.4,748c0,0,50.8-170.7,86.4-187.5"/>
<path class="st6" d="M1487.1,419l9,18.1c0,0,3.4,18.1,16.9,47.1c13.6,29,27.9,45.3,58,43s60.2-16.6,60.2-16.6s3.8,36.9,16.2,41
	c12.4,4.2,129.9,4.9,144.9-10.7c15.1-15.6-44.4-121.8-59.9-141.2c-15.4-19.4-40.8-40.9-40.8-40.9s10.6-9.1,6.3-23.6
	c-4.1-13.8-25-16.6-39-13.9c-13.9,2.6-68.5,41-73.8,50.8c-5.3,9.8,13.2,68.5,13.2,68.5l-13.7,18.2l-50.6-40l-12.9-15.6L1487.1,419z"
	/>
<path class="st6" d="M1596.7,412.2l-51.2,59.5l-59.1-10.6l-11.7,30.1l21.1,16.2c0,0,26.8,22.6,64.8,22.6c38,0,84.3-35.8,84.3-35.8
	L1596.7,412.2z"/>
<path class="st1" d="M1622.1,551.5H792.7c-5.9,0-10.7-4.8-10.7-10.7s4.8-10.7,10.7-10.7h829.4c5.9,0,10.7,4.8,10.7,10.7
	C1632.8,546.7,1628,551.5,1622.1,551.5z"/>
<path class="st1" d="M1463.6,551.5l59.3,240h-17.1l-59.3-240H1463.6z"/>
<path class="st0" d="M1623.8,766.3c0,0-13.4-12.9-25.3-5.8s12.1,21,17.1,16.7c4.9-4.4-15.8-13-30.2-9"/>
<path class="st0" d="M1473.6,761c0,0-13.4-12.8-25.3-5.8c-11.9,7.1,12.1,21,17.1,16.7c4.9-4.4-15.8-13-30.2-9"/>
<path class="st0" d="M788.3,747.6c0,0-18.6,0-22.3,13.3c-3.7,13.3,23.3,6.8,23.9,0.3c0.6-6.6-20.4,1.5-28.1,14.4"/>
<path class="st0" d="M954.3,746.6c0,0-18.6,0-22.3,13.3c-3.7,13.3,23.3,6.8,23.9,0.3c0.6-6.6-20.4,1.5-28.1,14.4"/>
<path class="st0" d="M1586.2,405c0,0-50.8-15.6-53.7-3.7c-2.8,12,51.7,6.5,51.7,6.5s-27.9,16.1-22.6,25.1
	C1567,442,1586.2,405,1586.2,405z"/>
<path class="st0" d="M1553.3,279.2c0,0-12.6-18.7-2-30.7c10.5-12.1,26.5,0,21.3,7.9c-5.3,7.9-7.3-20.3,7.9-26
	c22-8.3,26.9,23.5,20.7,24.7c-6.2,1.1-5.1-20,13-23c30.7-5,27.9,32.2,17.7,32s4-18.2,18.5-11c17.1,8.5,2.9,37.9-7.3,36.8
	c-10.2-1.1,10.1-20.6,19-3.5c15.9,30.4-28.8,51.1-39,50.3c-10.2-0.9-13.3-8.8-13.3-8.8s16.4,2,18.9-13.8s-10.2-21.9-19.2-17.2
	c-9,4.7-9.3,18-9.3,18s-16.3-5.3-11.6-20.7c4.7-15.4,9.4-7.7,3.4,1.1c-6,8.9-25.4-8.5-17.3-19.4c8.1-10.9,6.4,6.2-6.8,7.9
	c-13.2,1.7-14-11.6-14-11.6"/>
<path class="st0" d="M1553.5,281.4c0,0-1.3,2.4-1.3,9c0,7.2,1.2,10.5-0.9,16.3c-0.6,1.7-11.8,3.9-11.8,7.8c0,4,4.7,11,4.7,11
	s-1.6,24.5,8.2,33.7c9.7,9.2,29.2,1.1,29.2,1.1l5.1,7.2"/>
<path class="st0" d="M1549.4,337c0,0,8.4,2.9,13.7-5.5"/>
<path class="st0" d="M1556.3,288.8c0,0,8.3-4.5,15.3,6.2"/>
<path d="M1561.9,308.4c1.7,0,3.1-1.8,3.1-4s-1.4-4-3.1-4s-3.1,1.8-3.1,4S1560.2,308.4,1561.9,308.4z"/>
<path class="st0" d="M1674.9,619.7l-15.5,63.4"/>
<path class="st0" d="M1753.7,619.7l42.1,171.9"/>
<path class="st0" d="M1671.2,637.9l105.4,75.7"/>
<path class="st0" d="M1757.6,637l-93.6,67.2"/>
<path class="st1" d="M1784.3,619.7h-143.3c-4.5,0-8.1-3.6-8.1-8.1c0-4.5,3.6-8.1,8.1-8.1h143.3c4.5,0,8.1,3.6,8.1,8.1
	C1792.3,616,1788.7,619.7,1784.3,619.7z"/>
<path class="st0" d="M661.9,619.7l-42.1,171.9"/>
<path class="st0" d="M740.7,619.7l42.1,171.9"/>
<path class="st0" d="M658.2,637.9l105.4,75.7"/>
<path class="st0" d="M744.6,637l-105.4,75.7"/>
<path class="st1" d="M771.3,619.7H627.9c-4.5,0-8.1-3.6-8.1-8.1c0-4.5,3.6-8.1,8.1-8.1h143.3c4.5,0,8.1,3.6,8.1,8.1
	C779.3,616,775.7,619.7,771.3,619.7z"/>
<path class="st1" d="M961.4,551.5l-59.3,240h17.1l59.3-240H961.4z"/>
<path class="st0" d="M1026.3,619.7l33.1,74.5"/>
<path class="st0" d="M1077.6,556.3c0,0,16.1,7.5,23.8,18c7.7,10.5,10.5,22.8,10.5,22.8"/>
<path class="st10" d="M877.8,556.3c0,0-3.4,13.2,6,21.5c9.4,8.3,56.5,9.4,56.5,9.4"/>
<path class="st10" d="M978.5,588.8c0,0,37,8.5,61.8,2.8s10.4-30,1.7-12.7c-15.7,31.3,64.1,170.3,64.1,170.3"/>
<path class="st10" d="M1030.6,653.5l-23.4,39.5"/>
<path class="st10" d="M997,713.6l-16.4,31.9"/>
<path class="st10" d="M1208.3,637.9c0,0,22.1-70.8,36.6-81.7"/>
<path class="st10" d="M1283,657l-29.6,91.1"/>
<path class="st0" d="M786,616.2c0,0,26.4-4.6,27.4-12.7c1.4-12.1-11.4-2.3-10.2,13s18.6,47.7,18.6,47.7"/>
<path d="M717.4,348.2c-28.8,4.6-88.6,110-80.7,143.4c7.9,33.4,112.7,30.5,163.6,7.4c-3.8-7.3,0-27.1,0-27.1l-82.2-16.7
	C718.2,455.3,788.6,337,717.4,348.2z"/>
<path class="st10" d="M746.8,389.1c0,0-21.6,72.4-38.1,75.7c-10.9,2.1-4.8-14,20.5-9.5c25.3,4.5,67.3,15.9,67.3,15.9"/>
<path class="st10" d="M791.2,403c0,0-0.8,33-9.2,55.3"/>
<path class="st0" d="M1506.7,469.5c0,0,17.9,48.3,40.4,57.7"/>
<path class="st0" d="M1569.6,448.6c0,0,29.9,32,16.7,33.7c-8.4,1.1-6.9-18.4,12.3-41.8c12.2-14.9,45.2-64.8,74.2-66.3"/>
<path class="st0" d="M1624.5,513.4c0,0,53.9-34.1,73.1-48.7"/>
<path class="st0" d="M1667.1,494.7l27.8,16.2l14.3,36.1"/>
<path class="st0" d="M667.9,521.4c0,0-19.6,42.2,0,55.7s143-2.6,163.4,6.4c20.4,9,45.9,151.5,45.9,151.5"/>
<path class="st0" d="M671.7,562.5c0,0,24.3-7.9,26.3-37"/>
<path class="st0" d="M1516.9,400.3c0,0,0-5.7,0.6-13.5c0.6-7.8,8.7-28.3,7.6-31.1c-3.3-8.4-15.2,17.2-15.2,17.2
	s-12.7-38.8-17.5-40.8c-4.8-2,3,37,3,37s-9.2-36.8-14.6-37.5c-5.4-0.7,3.3,43,4.7,40.3c1.4-2.7-11.5-34.6-16.3-33.7
	c-4.8,1,6.3,39.2,6.3,39.2s-11.8-21.8-14.8-18.4c-3,3.4,12.2,48.9,27.2,57.8"/>
<path class="st0" d="M1483.6,461.2c0,0-5.6-12.3-7.5-14.5c-1.9-2.3-20.3-19.1-23.8-17.2c-3.6,1.9,9.2,20.6,9.2,20.6
	s-35.7-17-43.3-14.1c-7.5,2.9,23.3,15.4,23.3,15.4s-27.7-6.2-32.8-1.3"/>
<path class="st0" d="M1438.8,461.7c0,0-26.5-10-31.1-5.8s28.8,16.2,28.8,16.2s-25.4-4.8-26.7-0.2c-1.3,4.5,52.3,17.5,62.3,15.4"/>
<path class="st4" d="M874.1,428.6c0,0,7.2-14,9.1-16.2c1.9-2.3,20.3-19.1,23.8-17.2c3.6,1.9-9.2,20.6-9.2,20.6s35.7-17,43.3-14.1
	S917.8,417,917.8,417s32.8-6.1,32.8-1.3c0,8-29.9,11.6-29.9,11.6s26.5-10,31.1-5.8c4.5,4.2-28.8,16.2-28.8,16.2s25.4-4.8,26.7-0.2
	c1.3,4.5-52.3,17.5-62.3,15.4"/>
<path class="st0" d="M1461.5,450c0,0-1,13.3,8,19.4"/>
<path class="st0" d="M875.8,426.9c0,0,5.6-12.3,7.5-14.5c1.9-2.3,20.3-19.1,23.8-17.2c3.6,1.9-9.2,20.6-9.2,20.6s35.7-17,43.3-14.1
	S917.8,417,917.8,417s27.7-6.2,32.8-1.3"/>
<path class="st0" d="M920.6,427.4c0,0,26.5-10,31.1-5.8c4.5,4.2-28.8,16.2-28.8,16.2s25.4-4.8,26.7-0.2c1.3,4.5-52.3,17.5-62.3,15.4
	"/>
<path class="st0" d="M897.9,415.7c0,0,1,13.3-8,19.4"/>
<path class="st0" d="M1245.3,397.1c0,0,0.1-13.7-4.4-24.7c-4.5-11-28.6-33.3-30.1-29.3c-2.2,6.1,10.3,23.5,10.3,23.5
	s-44.8-18.1-50.1-15.4c-8.3,4.1,26.1,18.5,26.1,18.5s-32.8-14.3-41.2-6.4"/>
<path class="st0" d="M1193.2,377c0,0-34.8-17.1-36.1-7.1c-0.3,2.2,12.5,7.1,12.5,7.1"/>
<path class="st0" d="M1189.7,383.8c0,0-26.5-10.3-29.2-4.1c-1.8,4.1,32.8,14.1,32.8,14.1l11.4,7.1"/>
<path class="st0" d="M1204.6,384.8c0,0,15.6,0,24.8,2.8"/>
<path class="st4" d="M803.1,472.3c0,0,19.6-3.4,25.7-5.9c6.1-2.5,44.9-4.1,43.9,1.1c-1.4,7.3-29.1,4.8-29.1,4.8s27.1,3.4,29.6,6.8
	c2.7,3.6-1.7,5.2-1.7,5.2s2.5,3.6,0,5.6c-2.4,2.1-29.5,3-29.5,3s21.6,5,21.1,8.9c-0.6,3.9-62.8-2.8-62.8-2.8
	S793.4,474.2,803.1,472.3z"/>
<path class="st5" d="M873.3,479.2c2.7,3.6-1.7,5.2-1.7,5.2s2.5,3.6,0,5.6c-2.4,2.1-29.5,3-29.5,3s22.6,4.5,21.1,8.9
	c-0.4,1.1-3.5,2-11.3,1.8"/>
<path class="st5" d="M841.1,481.7l29.5,2.3"/>
<path class="st0" d="M1600.3,386.1c0,0,61.6-10.2,87.8-26.3c26.2-16.1,6.2-43.3-19.2-39.6"/>
</svg>
