<?xml version="1.0" encoding="utf-8"?>
<!-- Generator: Adobe Illustrator 19.0.0, SVG Export Plug-In . SVG Version: 6.00 Build 0)  -->
<svg version="1.1" id="Layer_1" xmlns="http://www.w3.org/2000/svg" xmlns:xlink="http://www.w3.org/1999/xlink" x="0px" y="0px"
	 viewBox="34 214 680 365" style="enable-background:new 34 214 680 365;" xml:space="preserve">
<style type="text/css">
	.st0{fill:#FFFFFF;}
	.st1{fill:#FC64B0;}
	.st2{fill:#C9C9C9;}
	.st3{fill:none;stroke:#016A2B;stroke-width:13;}
</style>
<path class="st0" d="M577.9,551.4c0,0-7.6-51.3-5.2-41c-5.7-42.4-22.9-151.7-48.1-172.2C512,327.9,483,320.9,447.6,317
	c3.6-25,0.2-44.8,0.2-44.8c-1.9-0.2-3.8-0.4-5.7-0.6c-0.2-1.5-0.3-2.4-0.3-2.4c-15.8-1.4-28.8-5.3-39-10
	c-17.4-9.4-25.4-20.4-25.4-20.4s-0.5,0.7-1.6,2c-1.3-1.3-2.4-2.5-3.1-3.3c-0.7-0.8-2-0.8-2.7,0c-5.3,6.2-26.9,28.1-69.1,31.7
	c0,0-3.7,21.9,0.9,48.8c-38.9,4.8-73.3,11.4-81.7,26.1c-46,80.5-42.2,209.9-42.2,209.9 M178,526.1c0,0-4.6,25.3,0,27.8
	c4.6,2.4,182.1,0,182.1,0"/>
<path class="st1" d="M465.8,492.3v-11.4c0,0-8.9-6-12.1-13.5c-3.2-7.5-2.5-14-2.5-14.1c-2.6,0.7-4.3,1.5-4.9,2.3
	c-5.1,6.5-7.8,39.2-7,48.9L465.8,492.3z"/>
<path class="st1" d="M509.7,455.6c1,6.9-5,14.9-5,14.9s-0.4,12.5,2.9,19.6c1.2,2.7,14.6,3.3,14.6,3.3l23.8-32c0-2,0.3-3.4-1.7-5.8
	c-3-3.5-11.8-4.6-24.8-5.4C515.7,455,513.3,455.9,509.7,455.6z"/>
<path class="st1" d="M419.8,519c1.3-1.4,2.4-2.9,3.6-4.1c-9.8,0.6-19.3,2.3-23.2,6.3c-9.3,9.4-9.7,32.7-9.7,32.7s3,0,8.1,0.1
	C400.5,546.6,409.1,530.8,419.8,519z"/>
<path class="st2" d="M524.6,338.2c-42.3-34.5-269.7-33.2-304.3,5.8C185.6,382.9,178,526.1,178,526.1s7.4-41.9,16.9-61.1
	c9.3-18.7,42.6-16.8,42.6-16.8s0.4-3,1.5-7.1c-1.3,0.1-2.7,0.1-4.1-0.1c-5-1-3.7-6-3.7-6s-6.6,7.9-10.3,3
	c-3.7-4.9,4.9-12.7,7.6-20.9c2.6-8.2,0.3-9.7,0-16.3c-0.2-6.6,2.6-24.5,16.3-34.4c13.7-9.9,36.1-6.6,47.9,3.3
	c11.8,9.9-1.1,33.3,0,39.4c0.9,4.7,7.9,9.9,11.1,12.2c4.1,1.3,7.3,3,9.2,5.2c9.4,11.2,10.1,17.4,10.1,17.4h106.7
	c0,0,0.8-9.4,7.7-17.3c1.3-1.5,4.1-3,7.7-4.4c0-1.7,0.3-4.3,2-6.3c2.5-3,6.7-1,6.7-1s-4.6-18.2,8.2-25.6c12.7-7.5,25,1.9,25,1.9
	s2.3-4.3,13.8-3c20.4,2.3,13.8,28,13.8,28s6.8-1.1,9.8,4.4c3,5.4-3.6,18.9-3.6,18.9s2.2,4.2-1.3,10.6c8.9,0.1,29.3,1.5,37,11.6
	c4.9,6.4,11.8,29.6,16.3,48.6C567,468.1,549.8,358.8,524.6,338.2z"/>
<path class="st1" d="M178,526.1c0,0-4.6,25.3,0,27.8s182.1,0,182.1,0s-0.3-23.3-9.7-32.7c-9.3-9.4-50.7-6-50.7-6s8.6-2.3,10-9
	c1.4-6.8,5.4-42.2-6.7-50.5c-7.3-4.9-87.6-11.4-96.5-0.1c-8.9,11.3-7.8,49.5-5.7,53.3c2.2,3.8,11,5.7,11,5.7S187.2,512.7,178,526.1z
	"/>
<path d="M522.1,439.8c-0.2,0-0.5-0.1-0.6-0.3c-0.3-0.3-0.2-0.8,0.1-1.1c0.1-0.1,6.1-5.3,4.7-14.2c-1.3-8.7-9.3-8.2-9.6-8.2
	c-0.2,0-0.5-0.1-0.6-0.2c-0.2-0.2-0.3-0.4-0.2-0.6c0-0.2,0.6-16.3-9.6-22.4c-10-6-17.9,1.5-18.3,1.9c-0.3,0.3-0.7,0.3-1,0.1
	c-0.1-0.1-12.4-9.5-21.5-4c-5.9,3.6-9.3,9-10.3,16.1c-0.7,5.4,0.4,9.8,0.4,9.8c0.1,0.3,0,0.6-0.3,0.8c-0.3,0.2-0.6,0.2-0.9,0
	c0,0-2.2-1.3-4.1-0.4c-1.5,0.7-2.4,2.7-2.8,5.8c-1.1,9.5,3.4,12.1,3.6,12.2c0.4,0.2,0.5,0.7,0.3,1.1c-0.2,0.4-0.7,0.5-1.1,0.3
	c-0.2-0.1-5.7-3.2-4.4-13.8c0.4-3.7,1.7-6.1,3.7-7.1c1.5-0.7,3-0.5,4.1-0.1c-0.3-1.8-0.6-5.1-0.1-8.8c0.7-5.3,3.1-12.6,11-17.3
	c9.1-5.5,20.2,1.8,22.8,3.7c2.1-1.7,10.1-7.4,19.7-1.6c4.6,2.7,7.8,7.7,9.4,14.4c0.9,3.8,1,7,1,8.5c3.5,0.1,9.3,2.1,10.4,9.5
	c1.5,9.8-5,15.5-5.2,15.7C522.5,439.7,522.3,439.8,522.1,439.8z"/>
<path d="M574.7,543.8L574.7,543.8c-0.4,0-0.8-0.4-0.8-0.8c0-0.2,0-18.5-11.8-31.3c-3.6-3.9-8.7-7.4-15.2-10.3
	c-0.4-0.2-0.6-0.7-0.4-1.1c0.2-0.4,0.7-0.6,1.1-0.4c6.7,3,12,6.6,15.8,10.7c12.2,13.2,12.2,31.6,12.2,32.3
	C575.5,543.5,575.1,543.8,574.7,543.8z"/>
<path d="M522.1,494.2c-0.1,0-0.1,0-0.2,0c-0.9-0.2-1.8-0.4-2.7-0.6c-6.2-1.4-9.2-2.1-10.1-3.2c-2.6-3.2-3.3-20.5-3.3-22.4
	c0-0.4,0.3-0.8,0.8-0.8c0.4,0,0.8,0.3,0.8,0.8c0.4,13.7,2,20.3,3,21.5c0.6,0.7,4.8,1.7,9.2,2.7c0.9,0.2,1.7,0.4,2.7,0.6
	c0.4,0.1,0.7,0.5,0.6,1C522.8,493.9,522.5,494.2,522.1,494.2z"/>
<path d="M485.4,497.9c-2.6,0-4.9-0.3-6.9-0.7c-7.4-1.5-12-4.7-12.2-4.9c-0.2-0.2-0.4-0.5-0.3-0.8c1.3-8,1.3-16.1,0-24.8
	c-0.1-0.4,0.2-0.8,0.7-0.9c0.4-0.1,0.8,0.2,0.9,0.7c1.3,8.7,1.4,16.8,0.1,24.8c1.2,0.8,5.3,3.2,11.2,4.3c6.5,1.3,16.8,1.2,28.2-6.3
	c0.4-0.2,0.9-0.1,1.1,0.2c0.2,0.4,0.1,0.9-0.2,1.1C499.5,496.3,491.7,497.9,485.4,497.9z"/>
<path d="M400.5,554.6c-0.1,0-0.2,0-0.3-0.1c-0.4-0.2-0.6-0.7-0.4-1.1c0.1-0.2,9.5-21.1,21.3-34.7c4.4-5,12.8-10.7,25.1-16.9
	c9.1-4.6,17.1-7.8,17.1-7.8c0.4-0.2,0.9,0,1,0.4c0.2,0.4,0,0.9-0.4,1c-0.3,0.1-31.5,12.6-41.6,24.2c-11.7,13.4-21,34.1-21.1,34.3
	C401.1,554.5,400.8,554.6,400.5,554.6z"/>
<path d="M443.1,531.6c-0.1,0-0.3,0-0.4-0.1c-0.4-0.2-0.5-0.7-0.3-1.1c0.6-1.1,6-10.7,10.3-10c1.3,0.2,2.3,0.8,2.9,1.7
	c1.1,1.7,0.6,4,0.5,4.1c-0.1,0.4-0.5,0.7-1,0.6c-0.4-0.1-0.7-0.5-0.6-1c0,0,0.4-1.7-0.3-2.8c-0.4-0.5-0.9-0.9-1.8-1
	c-1.2-0.2-3.2,1.4-5.4,4.3c-1.8,2.4-3.2,4.9-3.3,4.9C443.6,531.5,443.4,531.6,443.1,531.6z"/>
<path d="M457.6,544.6c-0.4,0-0.7-0.3-0.8-0.6c0-0.1-1.7-8.6-5.4-10.8c-1.7-1-5.4-1.4-10.3-1.3c-4.1,0.1-8.4,0.7-10.5,1.4
	c-3,1-5.2,7.5-5.8,10c-0.1,0.4-0.5,0.7-1,0.6c-0.4-0.1-0.7-0.5-0.6-1c0.2-1,2.5-9.7,6.9-11.1c4-1.3,17.7-2.5,22,0.1
	c4.3,2.6,6.1,11.5,6.1,11.8c0.1,0.4-0.2,0.8-0.6,0.9C457.7,544.6,457.7,544.6,457.6,544.6z"/>
<path d="M418.3,553.3c-0.1,0-0.1,0-0.2,0c-0.4-0.1-0.7-0.6-0.6-1c0.1-0.4,2.6-9,8.6-10.7c5.2-1.4,22.3-3.4,25.9,0.9
	c0.3,0.3,0.2,0.8-0.1,1.1c-0.3,0.3-0.8,0.2-1.1-0.1c-2.9-3.3-18.5-2-24.3-0.4c-5.2,1.4-7.5,9.5-7.5,9.5
	C419,553,418.7,553.3,418.3,553.3z"/>
<path d="M551.7,539.1c-0.4,0-0.7-0.3-0.8-0.6c0-0.1-2.4-11.9-3.9-14.8c-1.4-2.7-13.9-11.5-18.2-11.6c-2.2-0.1-5.9,0.7-9.2,1.8
	c-3.8,1.3-6.6,2.9-7.8,4.5c-1.2,1.5-2,4.9-2.3,9c-0.3,4.3,0.3,6.8,0.7,7.1c1.3,1,2,0.8,2,0.8l0,0l0.5,1.5c-0.2,0.1-1.5,0.5-3.5-1.1
	c-1.6-1.3-1.4-7.2-1.3-8.4c0.1-1.7,0.6-7.3,2.6-9.9c3-3.9,13.4-7,18.3-6.9c5,0.1,17.9,9.2,19.6,12.4c1.6,3.1,3.9,14.7,4,15.2
	c0.1,0.4-0.2,0.9-0.6,0.9C551.8,539.1,551.8,539.1,551.7,539.1z"/>
<path d="M524.4,542.9c-0.8,0-1.6-0.3-2.3-0.8c-0.6-0.5-1.3-1.7-0.8-6c-0.9,2.1-1.8,3.8-2.2,4.2c-1.4,1.2-4.2,1.8-5.7-0.1
	c-1.6-2,0.7-13.4,2.1-17.5c1.7-4.8,12-7.6,12.4-7.7c0.4-0.1,0.9,0.1,1,0.6c0.1,0.4-0.1,0.9-0.6,1c-2.7,0.7-10.1,3.3-11.4,6.7
	c-1.8,4.9-3.3,14.7-2.4,15.9c1,1.2,2.8,0.4,3.5-0.1c0.6-0.6,3.1-6.5,5.2-11.8c0.2-0.4,0.6-0.6,1-0.5c0.4,0.1,0.6,0.6,0.5,1
	c-1.6,5.6-2.7,12.3-1.6,13.1c0.4,0.4,0.9,0.5,1.5,0.4c1.4-0.2,3-1.5,3.9-2.8c0.3-0.4,0.8-0.4,1.1-0.2c0.4,0.3,0.4,0.8,0.2,1.1
	c-1.1,1.5-3,3.1-5,3.4C524.6,542.9,524.5,542.9,524.4,542.9z"/>
<path d="M534.6,539.5c-2.1,0-4-0.6-4.4-3.1c-0.6-3.7,8.1-9.1,9.8-10.2c0.4-0.2,0.9-0.1,1.1,0.3c0.2,0.4,0.1,0.9-0.3,1.1
	c-4,2.4-9.4,6.6-9.1,8.6c0.3,2,2.1,2.1,6.1,1.4l0.6-0.1c2.9-0.4,6.6-4.3,6.7-4.3c0.3-0.3,0.8-0.3,1.1,0c0.3,0.3,0.3,0.8,0,1.1
	c-0.2,0.2-4.2,4.3-7.6,4.8l-0.6,0.1C537.1,539.3,535.8,539.5,534.6,539.5z"/>
<path d="M523.9,528.3c-0.2,0-0.4-0.1-0.5-0.2c-0.3-0.3-0.4-0.8-0.1-1.1c0.3-0.3,6.2-6.9,12.4-8.4c0.4-0.1,0.9,0.2,1,0.6
	c0.1,0.4-0.2,0.9-0.6,1c-5.7,1.4-11.5,7.9-11.6,8C524.4,528.2,524.2,528.3,523.9,528.3z"/>
<path d="M508.7,514.7c-0.3,0-0.6-0.1-0.7-0.4c-0.2-0.4-2-3.7-1-6c0.3-0.6,0.8-1.3,2.1-1.6c1.7-0.4,4.3,0.4,7.8,2.3
	c2.5,1.4,4.5,2.8,4.6,2.9c0.4,0.3,0.4,0.8,0.2,1.1c-0.3,0.4-0.8,0.4-1.1,0.2c-2.2-1.6-8.4-5.5-11.1-4.9c-0.7,0.2-0.9,0.5-1,0.7
	c-0.6,1.3,0.5,3.8,1,4.5c0.2,0.4,0.1,0.9-0.3,1.1C509,514.7,508.9,514.7,508.7,514.7z"/>
<path d="M449.3,531.1c0,0,11.7-11.2,28.7-15.3c16.9-4.1,36.4-1.2,36.4-1.2s-3.5,4-4.3,5.6c-0.9,2-1.8,8.8-1.8,8.8s-13.7-3.4-26.4,0
	c-12.7,3.4-24.2,13.2-24.2,13.2s-2-6.9-4-8.5C451.5,532.1,449.3,531.1,449.3,531.1z"/>
<path d="M516.6,506.1c-0.2,0-0.3,0-0.5-0.1c-0.4-0.3-0.4-0.8-0.2-1.1l43-59.5c0.3-0.4,0.8-0.4,1.1-0.2c0.4,0.3,0.4,0.8,0.2,1.1
	l-43,59.5C517.1,506,516.9,506.1,516.6,506.1z"/>
<path d="M534.8,511.5c-0.2,0-0.3-0.1-0.5-0.2c-0.3-0.3-0.4-0.8-0.1-1.1l24.9-31.8c0.3-0.3,0.8-0.4,1.1-0.1c0.3,0.3,0.4,0.8,0.1,1.1
	l-24.9,31.8C535.2,511.4,535,511.5,534.8,511.5z"/>
<path d="M531,539.6c0,0,5,4.2,7.4,6.9c2.9,0.1,18.4,5.1,21.2,5c-3.6-7.7-13.9-16.4-13.9-16.4s-4.2,4.5-8.8,4.5
	C532.3,539.5,531,539.6,531,539.6z"/>
<path d="M274.6,409.9c-0.4,0-0.7-0.3-0.8-0.6c-0.1-0.4,0.2-0.9,0.6-0.9c0.1,0,7.5-1.7,8.9-8c0.7-3.2-0.1-6.2-2.1-7.7
	c-1.7-1.2-3.9-1.1-6.2,0.3c-1,0.6-1.9,1.3-2.5,1.9c0.3,2,0.2,3.8-0.1,4.8c-0.4,1.2-1.2,1.3-1.5,1.2c-1-0.1-1.7-0.8-1.9-1.7
	c-0.3-1.2,0.1-3,1.8-4.8c-0.6-3.2-2-6.9-4.6-8.5c-1.3-0.9-3.9-1.3-6.8-1.8c-6.1-1-14.5-2.5-18.2-9.4c-0.2-0.4-0.1-0.9,0.3-1.1
	c0.4-0.2,0.9-0.1,1.1,0.3c3.4,6.3,11,7.6,17.1,8.6c3.1,0.5,5.8,1,7.4,2c2.7,1.7,4.3,5.3,5.1,8.6c0.6-0.5,1.2-0.9,2-1.4
	c2.8-1.8,5.8-1.9,8-0.3c2.6,1.8,3.6,5.4,2.7,9.3c-1.7,7.4-9.8,9.2-10.1,9.3C274.7,409.9,274.6,409.9,274.6,409.9z M271.1,396.5
	c-0.6,1-0.7,1.7-0.6,2.2c0,0.2,0.1,0.4,0.3,0.5C271,398.9,271.2,398,271.1,396.5z"/>
<path d="M250.7,431.2c-2.5,0-5.4-0.4-8.4-1.5c-7-2.6-10.5-9.8-10.6-21.2c0-18.8,9.3-34.6,9.4-34.8c0.2-0.4,0.7-0.5,1.1-0.3
	c0.4,0.2,0.5,0.7,0.3,1.1c-0.1,0.2-9.2,15.6-9.2,33.9c0,10.7,3.2,17.4,9.5,19.7c8.2,3.1,15.6,0,15.6,0c0.4-0.2,0.9,0,1,0.4
	c0.2,0.4,0,0.9-0.4,1C258.9,429.7,255.5,431.2,250.7,431.2z"/>
<path d="M343.4,518.5c-0.4,0-0.7-0.3-0.8-0.7c-0.1-0.5-6.3-47.1-16.4-56.4c-5.4-4.9-13.6-7.1-21.6-9.3c-7.3-2-14.2-3.8-18.2-7.6
	c-0.3-0.3-0.3-0.8,0-1.1c0.3-0.3,0.8-0.3,1.1,0c3.8,3.5,10.5,5.3,17.6,7.2c8.2,2.2,16.6,4.5,22.3,9.6c4.5,4.1,8.7,15,12.5,32.4
	c2.8,12.9,4.4,24.8,4.4,24.9c0.1,0.4-0.2,0.8-0.7,0.9C343.4,518.5,343.4,518.5,343.4,518.5z"/>
<path d="M254.9,443.7C254.9,443.7,254.9,443.7,254.9,443.7c-0.5,0-0.8-0.4-0.8-0.9c0.2-2-1.1-9.7-1.6-12.4c-0.1-0.4,0.2-0.8,0.6-0.9
	c0.4-0.1,0.8,0.2,0.9,0.6c0.1,0.4,1.8,10.2,1.6,12.9C255.7,443.4,255.3,443.7,254.9,443.7z"/>
<path d="M300.5,444.9c-0.3,0-0.5-0.1-0.7-0.4c-0.2-0.4-0.1-0.9,0.3-1.1c5.5-3.3,8.4-6.7,8.8-10.1c0.5-5.4-5.1-10.5-10-14.9
	c-3-2.7-5.7-5.1-6.5-7.3c-1.3-3.4,0-8.3,1.5-14c2-7.4,4.2-15.9,1-22.6c-5.5-11.5-21.6-17.3-38.4-13.8c-14.8,3.1-29.6,19.7-28,44.2
	c0.6,9.9-3.3,17.4-6.2,22.9c-3.2,6-4.6,9-1.3,11.7c3.1,2.5,5.9,1.5,7.8-0.1c-0.2-0.4-0.4-0.8-0.5-1.3c-0.9-3.2,0.3-7.1,2.6-8.4
	c2.1-1.1,3.1-0.4,3.5,0.1c1.3,1.8-0.4,6.7-3.5,9.8c1.6,2.1,4.6,3.2,8.7,3c0.4,0,0.8,0.3,0.8,0.8c0,0.4-0.3,0.8-0.8,0.8
	c-2.3,0.1-7.3-0.2-10-3.5c-3.1,2.5-6.6,2.5-9.7,0c-4.4-3.6-2.1-8,0.9-13.7c3-5.6,6.6-12.6,6-22.1c-1.7-25.5,13.9-42.7,29.3-45.9
	c17.5-3.7,34.4,2.5,40.2,14.7c3.5,7.3,1.2,16-0.9,23.7c-1.4,5.4-2.7,10.1-1.5,13c0.7,1.8,3.3,4.2,6.1,6.7c5,4.5,11.1,10,10.5,16.2
	c-0.4,4.1-3.5,7.8-9.5,11.4C300.8,444.8,300.7,444.9,300.5,444.9z M232.7,430.7c-0.3,0-0.7,0.1-1.2,0.4c-1.5,0.8-2.6,3.8-1.8,6.6
	c0.1,0.2,0.1,0.4,0.2,0.5c2.6-2.8,3.7-6.6,3.1-7.4C232.9,430.7,232.8,430.7,232.7,430.7z"/>
<path d="M282,445.1c-0.2,0-0.4-0.1-0.6-0.3c-0.7-0.8-1.3-1.9-1.7-3.3c-4.9,2.3-10.6,2.4-13.9-2.3c-7-10.1,10.2-27,10.9-27.7
	c0.3-0.3,0.8-0.3,1.1,0c0.3,0.3,0.3,0.8,0,1.1c-0.2,0.2-17,16.7-10.7,25.7c2.1,3.1,6.7,4.5,12.3,1.6c-0.2-1.8,0.1-4,0.9-6.4
	c1.1-3,2.7-4.9,4.4-5.1c0.7-0.1,1.8,0.1,2.7,1.5c1.5,2.2,0.6,6.2-4.9,10c-0.5,0.3-0.9,0.6-1.4,0.9c0.2,1.2,0.7,2.2,1.4,3
	c0.3,0.3,0.3,0.8,0,1.1C282.4,445.1,282.2,445.1,282,445.1z M285.1,430c0,0-0.1,0-0.1,0c-0.8,0.1-2.1,1.4-3,4
	c-0.5,1.5-0.9,3.3-0.9,4.9c0.2-0.1,0.4-0.3,0.6-0.4c3.8-2.6,5.7-6,4.5-7.8C285.7,430.1,285.3,430,285.1,430z"/>
<path d="M241.3,406.2c-0.1,0-0.2,0-0.3-0.1c-0.1-0.1-3.5-1.4-3.7-4.5c-0.1-2.1,0.9-3.2,2-4.4c1.1-1.1,2.3-2.4,2.9-5
	c0.5-1.9,0.3-3.2-0.5-4c-1.3-1.3-4.2-1-5.3-0.8c-0.4,0.1-0.9-0.2-1-0.6c-0.1-0.4,0.2-0.9,0.6-1c0.2,0,4.5-1,6.7,1.2
	c1.2,1.2,1.5,3.1,0.9,5.5c-0.7,3-2.2,4.5-3.3,5.7c-1,1.1-1.7,1.8-1.6,3.2c0.1,2,2.7,3.1,2.7,3.1c0.4,0.2,0.6,0.6,0.4,1
	C242,406,241.7,406.2,241.3,406.2z"/>
<path d="M254.5,395.9c1,0,1.7-1,1.7-2.1c0-1.2-0.8-2.1-1.7-2.1c-1,0-1.7,1-1.7,2.1C252.7,394.9,253.5,395.9,254.5,395.9z"/>
<path d="M239.5,395.7c1,0,1.7-1,1.7-2.1c0-1.2-0.8-2.1-1.7-2.1c-1,0-1.7,1-1.7,2.1C237.8,394.8,238.6,395.7,239.5,395.7z"/>
<path d="M262.3,389.5c-0.2,0-0.3-0.1-0.5-0.2c0,0-3.5-2.6-6.7-3c-3-0.3-4.4,1.4-4.5,1.5c-0.3,0.3-0.8,0.4-1.1,0.1
	c-0.3-0.3-0.4-0.8-0.1-1.1c0.1-0.1,2-2.5,5.9-2.1c3.7,0.4,7.3,3.2,7.5,3.3c0.4,0.3,0.4,0.8,0.1,1.1
	C262.8,389.4,262.6,389.5,262.3,389.5z"/>
<path d="M244.3,417.8c-1.8,0-3.4-0.9-4.7-2.5c-1.3-1.6-2-3.5-1.6-4.7c0.1-0.4,0.5-1.6,6.2-2.4c1.9-0.2,3.8-0.4,5.4-0.3
	c2.7,0.1,3.3,0.6,3.6,1.1c0.4,0.6,0.3,1.5-0.2,2.6c-1.1,2.3-4.6,5.8-8.1,6.2C244.7,417.8,244.5,417.8,244.3,417.8z M239.5,411.2
	c-0.1,0.4,0.3,1.8,1.3,3.1c0.6,0.8,2,2.1,3.9,1.9c2.5-0.3,5.3-2.7,6.5-4.8c0.5-0.9,0.6-1.3,0.5-1.5c-0.6-0.4-3.7-0.6-7.5-0.1
	C241.3,410.3,239.8,410.9,239.5,411.2z"/>
<path d="M218.7,448.3c-0.3,0-0.6-0.2-0.7-0.5l-20.2-46c-0.2-0.4,0-0.9,0.4-1.1c0.4-0.2,0.9,0,1.1,0.4l20.2,46c0.2,0.4,0,0.9-0.4,1.1
	C218.9,448.3,218.8,448.3,218.7,448.3z"/>
<path d="M207.5,451.1c-0.3,0-0.6-0.2-0.7-0.5l-13.1-31.6c-0.2-0.4,0-0.9,0.4-1c0.4-0.2,0.9,0,1,0.4l13.1,31.6c0.2,0.4,0,0.9-0.4,1
	C207.7,451,207.6,451.1,207.5,451.1z"/>
<path class="st1" d="M555.9,489.6l-7.6,9.1l9.2,5.5L555.9,489.6z"/>
<path d="M475.9,440.1c1.2,0,2.1-1.2,2.1-2.6c0-1.4-0.9-2.6-2.1-2.6s-2.1,1.2-2.1,2.6C473.8,439,474.7,440.1,475.9,440.1z"/>
<path d="M497.5,439.7c1.2,0,2.1-1.2,2.1-2.6s-0.9-2.6-2.1-2.6s-2.1,1.2-2.1,2.6S496.3,439.7,497.5,439.7z"/>
<path d="M486,479c-10.1,0-16.8-7.7-17-8c-6.1-6.7-7.7-15.8-8.1-18.8c-2.4,0.5-5-0.3-6.9-2.4c-2.8-3-3.5-7.3-1.8-11.1
	c0.8-1.7,1.9-2.2,2.7-2.2c2.2-0.2,4.7,2.2,6.3,4.1l-0.4-14.6c0-0.3,0.1-0.6,0.4-0.7c0.2-0.1,0.6-0.1,0.8,0c0,0,1,0.6,2.8,0.9
	c1.6,0.3,4.3,0.4,7.6-0.7c1.3-0.4,2.9-1.6,3.7-3.3c-2.9-1.6-4.9-3.6-5.3-5.2c-0.3-1.4,0.4-2.5,1.9-2.9c2.4-0.7,4.4,0.5,5.3,3.1
	c0.4,1.3,0.5,2.8,0.1,4.2c3.1,1.4,7.2,2.3,11.3,1.5c2.7-0.5,3.5-3.2,3.7-4.3c0-0.2,0.1-0.4,0.1-0.6c-3.6-2.5-3.7-3.4-3.7-3.9
	c0-0.5,0.2-0.9,0.6-1.2c1.5-1,2.5-0.6,3.1-0.2c1.1,0.7,1.7,2.5,1.7,4.5c3.4,2.2,8.7,5.2,14.5,8c0.3,0.1,0.4,0.4,0.4,0.7l0,11.5
	c1.6-1.7,3.9-2.6,6-2.1c2.5,0.6,3.7,3.1,3.3,6.7c-0.3,2.8-1.4,4.8-3.2,6.1c-1.9,1.4-4.2,1.4-5.4,1.3c-1,11.4-4.4,19.6-10.2,24.5
	c-3.5,3-7.7,4.6-12.7,5C487,479,486.5,479,486,479z M461.6,450.4c0.1,0,0.3,0,0.4,0.1c0.2,0.1,0.3,0.4,0.4,0.6
	c0,0.1,0.9,11.2,7.8,18.8c0.1,0.1,7,8.2,17.1,7.5c12.6-0.9,20.1-10.9,21.4-28.9c0-0.2,0.1-0.4,0.3-0.6c0.2-0.1,0.4-0.2,0.6-0.1
	c0,0,2.9,0.6,5.1-0.9c1.4-1,2.2-2.7,2.5-5c0.3-2.8-0.4-4.5-2.1-4.9c-1.9-0.5-4.7,0.9-5.6,3.5c-0.1,0.4-0.5,0.6-0.9,0.5
	c-0.4-0.1-0.7-0.4-0.7-0.8l0-13.7c-1.3-0.6-5.1-2.6-8.9-4.7c-1.9-1.1-3.4-2-4.7-2.8c-0.6,2.9-2.5,4.9-5,5.5c-4.3,0.9-8.6,0-12.1-1.6
	c-0.8,1.8-2.4,3.4-4.6,4.1c-5,1.6-8.7,0.8-10.5,0.2l0.5,15.8c0,0.4-0.2,0.7-0.5,0.8s-0.7,0-0.9-0.3c-1.5-2.2-4.5-5.5-6.3-5.4
	c-0.2,0-0.8,0.1-1.3,1.3c-1.6,3.7-0.4,7.4,1.5,9.4c1.7,1.8,4,2.5,6.2,1.7C461.4,450.4,461.5,450.4,461.6,450.4z M473.9,415.4
	c-0.3,0-0.5,0-0.8,0.1c-1,0.3-0.9,0.8-0.8,1c0.3,1.1,1.9,2.7,4.3,4c0.2-0.9,0.1-1.9-0.2-3C476.1,416.9,475.4,415.4,473.9,415.4z
	 M491,414.2c0.2,0.4,0.9,1.1,2.1,1.9c-0.2-1-0.5-1.7-0.9-2C492,414,491.6,413.8,491,414.2z"/>
<path d="M486.8,461.1c-4.3,0-7.6-2.3-7.6-2.3c-0.4-0.3-0.4-0.8-0.2-1.1c0.3-0.4,0.8-0.4,1.1-0.2c0.3,0.2,6.5,4.5,12.8,0
	c0.4-0.3,0.9-0.2,1.1,0.2c0.3,0.4,0.2,0.9-0.2,1.1C491.4,460.5,489,461.1,486.8,461.1z"/>
<path d="M486.9,452.8c-0.4,0-0.7-0.3-0.8-0.6c-0.1-0.4,0.2-0.9,0.6-1c0.1,0,2.8-0.7,3.5-3.3c0.2-0.8-0.1-2.8-0.5-4.8
	c-0.8-4.7-2-11.1,2-13.9c5.4-3.8,10.9-1.2,13.1,1.9c0.3,0.4,0.2,0.9-0.2,1.1c-0.4,0.3-0.9,0.2-1.1-0.2c-1.1-1.6-5.6-5.3-10.9-1.5
	c-3.1,2.2-2.1,7.8-1.3,12.4c0.4,2.4,0.8,4.3,0.5,5.5c-1,3.6-4.5,4.4-4.6,4.4C487,452.8,487,452.8,486.9,452.8z"/>
<path d="M466.8,432.4c-0.3,0-0.5-0.1-0.7-0.4c-0.2-0.4-0.1-0.9,0.2-1.1c4.6-3,8.5-2.8,11-2.2c2.7,0.7,4.3,2.2,4.4,2.2
	c0.3,0.3,0.4,0.8,0.1,1.1c-0.3,0.3-0.8,0.4-1.1,0.1c-0.2-0.2-5.7-5-13.5,0.1C467.1,432.3,466.9,432.4,466.8,432.4z"/>
<path class="st1" d="M371.5,405.2c-87.9-32.1-70.4-136-70.4-136c42.1-3.6,63.7-25.5,69.1-31.7c0.7-0.8,2-0.8,2.7,0
	c5.3,6.2,26.9,28.1,69.1,31.7C441.9,269.1,459.3,373.1,371.5,405.2z"/>
<path d="M377.5,409c-0.1,0-0.2,0-0.3,0c-20.2-7.4-36.5-19.2-48.4-35c-9.6-12.7-16.4-28-20.2-45.6c-6.6-29.8-2.3-56-2.3-56.3
	c0.1-0.4,0.4-0.6,0.7-0.7c25.2-2.2,42.9-11,53.2-18.1c11.2-7.7,16.6-14.9,16.6-15c0.1-0.2,0.4-0.3,0.6-0.3c0.3,0,0.5,0.1,0.6,0.3
	c0.1,0.1,5.4,7.3,16.6,15c10.4,7.1,28,15.9,53.2,18.1c0.4,0,0.7,0.3,0.7,0.7c0,0.3,4.3,26.5-2.3,56.3c-3.9,17.5-10.7,32.9-20.2,45.6
	c-11.9,15.9-28.2,27.7-48.4,35C377.6,409,377.5,409,377.5,409z M307.7,272.9c-0.6,4.1-3.6,28.1,2.4,55.1
	c3.8,17.3,10.5,32.4,19.9,44.9c11.7,15.6,27.7,27.1,47.4,34.4c19.8-7.3,35.7-18.8,47.4-34.4c9.4-12.5,16.1-27.6,19.9-44.9
	c6-27,2.9-51,2.4-55.1c-25.3-2.3-43-11.2-53.4-18.4c-9.3-6.4-14.6-12.3-16.3-14.5c-1.7,2.1-7,8.1-16.3,14.5
	C350.7,261.7,333,270.6,307.7,272.9z"/>
<path class="st3" d="M346,320.5l27,21.5l31.5-42"/>
</svg>
