<?xml version="1.0" encoding="utf-8"?>
<!-- Generator: Adobe Illustrator 19.0.0, SVG Export Plug-In . SVG Version: 6.00 Build 0)  -->
<svg version="1.1" id="Layer_1" xmlns="http://www.w3.org/2000/svg" xmlns:xlink="http://www.w3.org/1999/xlink" x="0px" y="0px"
	 viewBox="-159 306 180 181" style="enable-background:new -159 306 180 181;" xml:space="preserve">
<style type="text/css">
	.st0{fill:#FFFFFF;}
	.st1{fill:#FC64B0;}
	.st2{fill:#636E7A;}
	.st3{fill:#1C2024;}
</style>
<path class="st0" d="M-88.1,331.3l0.2,9.4c0,0-2.6-0.9-2.8,0c-0.1,0.9-1.6,4.9,0.6,6.6c2.2,1.6,3.4,1.9,3.4,1.9s-1.4,13-3.3,15.8
	c0,0-13.2,1.2-19.2,4.3c-5.9,3-21.9,20.1-21.9,20.1l0.9,1.4l1.6,0.3c0,0-20.1,23.4-20.7,29.7c0,0-1.1,4.4,6.4,12
	c7.5,7.7,24.1,19.1,26.9,19s6-2,6-2l-0.2,5.6l22.2,5l6.5-27.4l-23.7-8.6l-2.7,5l-0.2,3.2l-4.6,4.9l-14.3-18.2l16.1-13.5l1.5,1.5
	l5.4-4.5l51.5,6.4l3.1-3.1c0,0,6.1,18.2,15,17.8s12.2-7.4,14.1-11.6s4.5-16.2,5-20.1s1-12,1-12s1.2-0.1,2.3-0.6
	c1-0.4,4.7-3.5,5.9-5.7l4.6-5.5c0,0,2.1-2.1,1.5-3.1c-0.6-1.1-0.9-1.1-0.9-1.1s1.7-2.8-1.1-4c0,0,0.9-4.3-3-4.7c0,0-1-3-3.7-2.9
	c-2.7,0.1-3.7,1.4-3.7,1.4l-5.3-1.7l-3.6,6.8l0.5,1.2c0,0-3.8,6.4-1.8,14.1l-9.6,17.3l-1.1-2.5c0,0-2.5-7.9-14.1-17.9
	c0,0-0.8-0.9-4.3-1.8c-3.5-0.9-14.8-3.6-14.8-3.6l-1.3-0.5v-3.3c0,0,3.6-1.7,5.5-7.8c1.9-6.1,1.9-15.6,1.9-15.6s0.8,0.2,1.2-0.5
	c0.4-0.7-0.7-3.6-0.7-3.6l0.9-2.3c0,0,0.9-7.1-1.6-10.8c-2.5-3.7-6.1-5.1-9.2-5C-72.9,316.5-88.1,331.3-88.1,331.3L-88.1,331.3z"/>
<path class="st1" d="M-40.4,354.8c0,0-0.7,7.6,8.1,8c7.7,0.3,19.8-14.5,22.8-18.3c0.5-0.6,0.6-1.3,0.4-2.1c-0.6-1.8-2.1-5.3-5.6-6.6
	c-0.5-0.2-1-0.2-1.5,0C-20.4,337.6-41.9,346.5-40.4,354.8z"/>
<path class="st2" d="M-13.8,335.4c0,0,4.2,0.7,5.4,6.1l4.3-3.4c1.2-0.9,2-2.4,1.9-3.9c-0.1-0.7-0.3-1.4-0.8-2
	c-0.9-1-2.2-1.1-3.3-0.9c-1,0.2-2,0.6-2.8,1.1L-13.8,335.4L-13.8,335.4z"/>
<path class="st3" d="M-2.7,332.2c-0.1,0-0.2,0-0.3-0.1c-0.1-0.1-0.1-0.3,0-0.5l8.8-7.1c0.1-0.1,0.3-0.1,0.5,0c0.1,0.1,0.1,0.3,0,0.5
	l-8.8,7.1C-2.5,332.2-2.6,332.2-2.7,332.2z"/>
<path class="st1" d="M-12.6,369.7l3.4,4.8l-1.6,3.8l5.5,8.1l16.5-12.7L6.8,368l-7.6,0.7l-6.8,3.8L-12.6,369.7z"/>
<path class="st1" d="M-49.8,426.2l-3.8-57.5c0,0-0.8-1.5-1.6-1.6l-3.4-0.7c-1.4-0.3-2.6,0.9-2.4,2.2l1.6,15.4
	c0.2,1.7-1.2,3.3-2.9,3.3l-28,0.7c-1.6,0-3-1.2-3.1-2.9l-0.8-18.9c-0.1-1.2-1.2-2.2-2.4-1.9l-3.3,0.6c-0.9,0.2-1.6,0.9-1.7,1.8
	c-0.7,6.1-3.8,37.8-6.1,62.5c0.9-0.6,2.2-1.2,4.3-1.1c4.4,0.1,16.9,5.9,17.1,8.5c0.2,2.5-1.6,2.4-1.6,2.4s1.8,2.6,0.5,3.7
	c-1.2,1.1-3.4,0.8-3.4,0.8s4,1.5,2.9,3.1c-1.1,1.6-6,2.1-6,2.1s2.1,1.4,0.9,3.4c-1.2,1.9-9.2,1.1-12.7,0l-4.2,0.9
	c-0.3,3.5-0.5,15.6-0.5,16.2c0,2.2,0.6,2.9,2.7,2.9h57.3c1.5,0,2.7-1.2,2.6-2.7L-49.8,426.2L-49.8,426.2z"/>
<path class="st3" d="M-39.4,405.8c0,0-0.1,0-0.1,0c-0.2-0.1-0.2-0.3-0.2-0.4c5.3-10.9,10.7-21.1,16.5-31.2
	c-0.7-4.7-0.3-8.8,1.3-12.3c1.8-3.8,4.3-5.5,5.7-6.3c2.1-1.1,4.2-1.2,5.2-0.2c0.5,0.5,0.5,1.2-0.1,2.1c-0.4,0.7-1.2,1.4-1.9,2.2
	c-1.4,1.5-2.9,3-2.2,3.8c1.7,1.9,2.4,5.7,1.8,9.7c0,0.2-0.2,0.3-0.4,0.3c-0.2,0-0.3-0.2-0.3-0.4c0.6-3.7,0-7.3-1.6-9.1
	c-1.1-1.3,0.5-3,2.2-4.7c0.7-0.7,1.4-1.5,1.9-2.1c0.5-0.8,0.3-1.1,0.1-1.3c-0.8-0.8-2.6-0.7-4.5,0.3c-4.1,2.1-8.3,8.1-6.7,18
	c0,0.1,0,0.1,0,0.2c-5.9,10.1-11.3,20.3-16.5,31.2C-39.2,405.8-39.3,405.8-39.4,405.8L-39.4,405.8z"/>
<path class="st3" d="M-33.7,424.3c-1.5,0-3-0.4-4.4-1.1c-3-1.5-6-5.1-8.8-10.6c-2.1-4.1-3.3-7.7-3.3-7.8c0-0.1,0-0.2,0-0.2
	c0,0,1.5-3.2,4.4-6.7c2.6-3.1,6.8-7.2,12.5-8.8c-0.4-0.7-1.3-2.4-2.9-4.7c-1.9-2.8-5.1-7.1-9.7-11.6c-2.1-2-5.1-2.9-8-3.5l-12.6-2.7
	c-0.2,0-0.3-0.2-0.2-0.4c0-0.2,0.2-0.3,0.4-0.2l12.6,2.7c3,0.6,6.2,1.5,8.3,3.7c4.7,4.6,7.9,8.9,9.8,11.8c2.1,3.1,3.1,5.1,3.1,5.1
	c0,0.1,0,0.2,0,0.3s-0.1,0.2-0.2,0.2c-5.7,1.5-9.9,5.5-12.5,8.7c-2.5,3-4,5.8-4.3,6.4c0.5,1.4,5,14.5,11.7,17.9
	c2.6,1.3,5.4,1.3,8.3,0.1c2.2-0.9,3.6-2.3,3.6-2.3c4.3-3.9,7.7-12.1,9.7-23.8c1.5-8.9,1.8-16.7,1.8-16.7c0-0.2,0.2-0.3,0.3-0.3
	c0.2,0,0.3,0.2,0.3,0.3c0,0.1-0.2,7.9-1.8,16.8c-0.9,5.2-2.1,9.8-3.5,13.6c-1.8,4.8-3.9,8.3-6.4,10.6c-0.1,0.1-1.5,1.4-3.8,2.4
	C-30.8,424-32.2,424.3-33.7,424.3L-33.7,424.3z"/>
<path class="st1" d="M-59.5,336.3c-2.9,0.5-3.3-6.3-12.5-7.1c-10.7-0.9-12,5.2-14.9,6.2c-2.9,0.9-2.5-7.9-2.5-7.9
	c0.3-9.6,8.9-12.4,19.7-11C-57.4,318-60,330.7-60,331C-56.7,335.9-58.6,336.2-59.5,336.3L-59.5,336.3z"/>
<path class="st3" d="M-85.7,336.7c-0.4,0-0.8-0.1-1-0.4c-0.4-0.4-0.6-1.1-0.6-2c0-0.7,0.1-1.2,0.1-1.2c0-0.2,0.2-0.3,0.4-0.2
	c0.2,0,0.3,0.2,0.2,0.4c-0.1,0.5-0.3,2.1,0.3,2.6c0.3,0.2,0.7,0.3,1.3,0.1c0.8-0.3,1.8-1.1,2.9-2.1c2.5-2.2,6-5.2,11.6-4.9
	c5.9,0.4,8.1,3.2,9.5,5.1c0.9,1.2,1.5,1.8,2.3,1.7c0.1,0,0.4-0.1,0.3-0.7c-0.1-1.3-1.7-3.9-4.4-6.1c-1.8-1.5-5.3-4-9.5-3.7
	c-0.2,0-0.3-0.1-0.3-0.3c0-0.2,0.1-0.3,0.3-0.3c4.4-0.3,8.1,2.3,9.9,3.9c2.5,2.1,4.4,4.9,4.6,6.6c0.1,1.1-0.6,1.3-0.9,1.4
	c-1.3,0.2-2-0.7-2.9-1.9c-1.5-1.9-3.5-4.5-9.1-4.9c-5.3-0.3-8.7,2.6-11.1,4.7c-1.2,1-2.2,1.9-3.2,2.2
	C-85.1,336.6-85.4,336.7-85.7,336.7L-85.7,336.7z"/>
<path class="st3" d="M-58.7,331.4C-58.7,331.4-58.7,331.4-58.7,331.4c-0.2,0-0.3-0.2-0.3-0.4c0,0,0.3-3.3-0.7-6.7
	c-1.3-4.5-4.2-7-8.6-7.5c-6.5-0.7-11.6,0.3-14.7,3c-2.3,2-3.6,4.9-3.7,8.6c0,0.2-0.2,0.3-0.3,0.3c-0.2,0-0.3-0.2-0.3-0.3
	c0.1-3.9,1.4-6.9,3.9-9.1c3.3-2.8,8.5-3.9,15.2-3.2c4.6,0.5,7.7,3.3,9.1,8c1,3.5,0.7,6.8,0.7,7C-58.4,331.2-58.5,331.4-58.7,331.4
	L-58.7,331.4z"/>
<path class="st3" d="M-72.5,354.7c-2.7,0-4.4-1.9-4.5-1.9c-0.1-0.1-0.1-0.3,0-0.5c0.1-0.1,0.3-0.1,0.5,0c0.1,0.1,2.9,3.1,6.8,0.9
	c0.2-0.1,0.4,0,0.4,0.1c0.1,0.2,0,0.4-0.1,0.4C-70.5,354.4-71.5,354.7-72.5,354.7L-72.5,354.7z"/>
<path class="st3" d="M-72.1,351.4c-0.1,0-0.3-0.1-0.3-0.2c0-0.2,0.1-0.3,0.2-0.4c0,0,1.6-0.4,2.2-1.6c0.3-0.6,0.3-1.4,0-2.3
	c-0.2-0.6-2.2-5.5-0.4-7.8c0.7-0.9,2-1.4,3.4-1.4h0c1.7,0,3.2,0.7,4.1,1.9c0.1,0.1,0.1,0.3-0.1,0.5c-0.1,0.1-0.3,0.1-0.5-0.1
	c-0.8-1-2.1-1.6-3.6-1.6h0c-1.2,0-2.3,0.4-2.9,1.2c-1.2,1.6-0.3,5.3,0.5,7.2c0.4,1.1,0.4,2,0,2.8C-70.1,351-71.9,351.4-72.1,351.4
	C-72,351.4-72,351.4-72.1,351.4L-72.1,351.4z"/>
<path class="st3" d="M-81.7,340.1c-0.1,0-0.2,0-0.2-0.1c-0.1-0.1-0.1-0.3,0-0.5c0,0,3.2-3.3,7.1-1c0.2,0.1,0.2,0.3,0.1,0.4
	c-0.1,0.2-0.3,0.2-0.4,0.1c-3.5-2.1-6.2,0.8-6.3,0.9C-81.5,340.1-81.6,340.1-81.7,340.1L-81.7,340.1z"/>
<path class="st3" d="M-78.1,343.5c0.5,0,1-0.5,1-1.2s-0.4-1.2-1-1.2s-1,0.5-1,1.2S-78.6,343.5-78.1,343.5z"/>
<path class="st3" d="M-67.1,343.5c0.5,0,1-0.5,1-1.2s-0.4-1.2-1-1.2c-0.5,0-1,0.5-1,1.2S-67.6,343.5-67.1,343.5z"/>
<path class="st3" d="M-87,349.5C-87,349.5-87.1,349.5-87,349.5c-0.2,0-2.9-0.8-4.2-3.2c-0.7-1.4-0.8-3-0.3-4.8
	c0.4-1.4,1.2-1.7,1.7-1.7h0c0.7,0,1.3,0.5,1.8,0.9c0,0,0-0.1,0-0.1c-0.1-1.9-0.1-3.9,0-4.3c0-0.2,0.2-0.3,0.4-0.2
	c0.2,0,0.3,0.2,0.2,0.4c-0.1,0.3-0.1,2.2,0,4.2c0,0.3,0,0.6,0.1,0.9c0.5,0.7,1,1.5,1.2,2.1c0.3,0.9,0,1.3-0.2,1.5
	c-0.2,0.1-0.5,0.1-0.7,0c-0.2-0.1-0.6-0.4-0.9-3.4c0-0.1-0.1-0.1-0.1-0.2c-0.6-0.7-1.3-1.2-1.8-1.2h0c-0.5,0-0.8,0.4-1.1,1.2
	c-0.5,1.7-0.4,3.1,0.2,4.3c1.1,2.1,3.7,2.9,3.7,2.9c0.2,0.1,0.3,0.2,0.2,0.4C-86.7,349.4-86.9,349.5-87,349.5L-87,349.5z
	 M-87.1,342.9c0.2,1.1,0.4,1.5,0.4,1.6c0.1-0.1,0.1-0.3-0.1-0.7C-86.8,343.5-86.9,343.2-87.1,342.9L-87.1,342.9z"/>
<path class="st3" d="M-73.1,363.9c-0.2,0-0.4,0-0.6,0c-0.3,0-7.4-0.6-11-6.5c-0.1-0.2,0-0.3,0.1-0.4c0.2-0.1,0.3,0,0.4,0.1
	c3.4,5.6,10.4,6.2,10.4,6.2c3.1,0.1,5.7-0.8,7.7-2.9c5.9-6,5.3-19.6,5.2-21.2c-0.5-0.3-1.9-1.3-3.1-2.6c-0.2,0.2-0.4,0.3-0.7,0.4
	c-1.1,0.4-2.7-0.8-3.6-1.6c0,0,0,0-0.1-0.1c-0.2,0.4-0.6,0.9-1.4,1c-1.4,0.3-3-0.5-4.9-2.3c-1.4-1.3-2.4-2.7-2.4-2.8
	c-0.1-0.1-0.1-0.3,0.1-0.4c0.1-0.1,0.3-0.1,0.4,0.1c0,0,1,1.4,2.3,2.7c1.2,1.2,2.9,2.5,4.3,2.2c0.5-0.1,0.9-0.4,1-0.9
	c-1.1-1-1.9-2-2.3-2.8c-0.4-0.8-0.1-1.2,0.1-1.3c0.2-0.1,0.6-0.2,1.1,0.1c0.9,0.6,1.8,2.4,1.7,3.7c1.4,1.2,2.7,1.9,3.3,1.7
	c0.2-0.1,0.3-0.2,0.5-0.3c-0.7-0.9-1.2-1.9-1.2-2.8c0-0.7,0.3-0.8,0.5-0.8c0.7-0.1,1.4,1.2,1.6,2.1c0.1,0.6,0.1,1-0.1,1.4
	c0.3,0.3,0.6,0.6,0.9,0.9c1.2,1.1,2.3,1.8,2.4,1.8c0.1,0.1,0.1,0.1,0.1,0.2c0,0,0.3,3.8-0.3,8.4c-0.9,7.6-3.3,11.5-5.1,13.4
	C-67.6,362.9-70.1,363.9-73.1,363.9L-73.1,363.9z M-64.9,333.2c0,0,0,0.1,0,0.1c0,0.6,0.3,1.3,0.9,2.1c0-0.1,0-0.1,0-0.2
	C-64,334.3-64.6,333.4-64.9,333.2z M-70.5,331.3C-70.5,331.3-70.6,331.3-70.5,331.3c-0.1,0.1-0.1,0.6,0.9,1.8c0.3,0.3,0.6,0.7,0.9,1
	c-0.1-1-0.8-2.1-1.4-2.6C-70.2,331.4-70.4,331.3-70.5,331.3z"/>
<path class="st3" d="M-85.3,343.2c-0.1,0-0.2-0.1-0.3-0.2c-0.1-0.2,0-0.4,0.1-0.4c1-0.6,1.4-2.1,1.5-3.3c0.2-1.3,0.1-2.6,0.1-2.6
	c0-0.2,0.1-0.3,0.3-0.3c0.2,0,0.3,0.1,0.3,0.3c0,0.2,0.3,5.2-1.9,6.5C-85.2,343.2-85.2,343.2-85.3,343.2L-85.3,343.2z"/>
<path class="st3" d="M-89.9,365.6c0,0-0.1,0-0.1,0c-0.2-0.1-0.3-0.2-0.2-0.4c2.6-7,2.9-15.9,2.9-16c0-0.2,0.2-0.3,0.3-0.3
	c0.2,0,0.3,0.2,0.3,0.3c0,0.1-0.3,9.1-2.9,16.2C-89.7,365.6-89.8,365.6-89.9,365.6L-89.9,365.6z"/>
<path class="st3" d="M-13.5,380.3c-0.5,0-0.8-0.1-0.8-0.1c-0.2-0.1-0.2-0.3-0.2-0.4s0.3-0.2,0.4-0.2c0,0,3.4,1.2,8-7.1
	c0.1-0.2,0.3-0.2,0.4-0.1c0.2,0.1,0.2,0.3,0.1,0.4C-9.1,379.4-12.1,380.3-13.5,380.3L-13.5,380.3z"/>
<path class="st3" d="M-95.9,452.5c-1.2,0-3.1-0.3-6.3-1.2c-2.8-0.8-5.5-1.9-6.2-2.1c-0.7,0.6-3.8,2.9-7,2.9c-0.9,0-1.8-0.2-2.7-0.7
	c-3.7-2-12.3-7.4-19.2-13.3c-4.2-3.5-7.3-6.7-9.3-9.6c-2.5-3.5-3.3-6.5-2.4-8.9c1.6-4.2,5.2-9.9,10.8-16.9c4.2-5.2,8-9.3,8-9.4
	c0.1-0.1,0.3-0.1,0.5,0c0.1,0.1,0.1,0.3,0,0.5c0,0-3.8,4.1-8,9.3c-3.8,4.8-8.8,11.6-10.7,16.8c-1.9,5.2,5.2,12.5,11.5,17.8
	c7,5.8,15.4,11.2,19.1,13.2c3.9,2.1,9.1-2.2,9.1-2.3c0.1-0.1,0.2-0.1,0.3-0.1c4.7,1.8,12.6,4.3,13.9,3.1c0.1-0.1,0.2-0.2,0.1-0.8
	c-0.3-1-1.6-2.2-3.5-3.4c-0.4-0.1-0.9-0.1-1.3-0.2c-3.4-0.6-7.9-1.8-9-3.1c-0.1-0.1-0.4-0.5-0.3-0.9c0.2-0.4,0.7-0.4,1-0.3
	c1.5,0.1,4.6,1.2,7.4,2.6c0.7,0.3,1.5,0.8,2.4,1.3c3.7,0.6,6.6,0.5,7.5-0.1c0.2-0.1,0.3-0.3,0.1-0.7c-0.5-1-2.4-2.2-5.1-3.5
	c-1.2-0.2-2.4-0.4-3.5-0.6c-3.2-0.7-7.3-1.8-8.1-2.8c-0.2-0.3-0.2-0.5-0.1-0.6c0.1-0.3,0.5-0.3,0.6-0.3c0,0,0.1,0,0.1,0
	c1.3,0,4.9,1.1,8.4,2.5c0.8,0.3,1.7,0.7,2.7,1.2c2.6,0.4,4.7,0.4,5.7,0.1c0.3-0.1,0.6-0.2,0.6-0.4c0-0.5-1-1.6-3.9-3.1
	c-3.2-0.4-7.2-1.3-9.5-2.2c-2.3-0.9-2.6-1.5-2.7-1.9c0-0.2,0.1-0.5,0.3-0.6c0.8-0.5,3.5,0.3,5.6,1.1c2.2,0.8,4.6,1.9,6.4,2.9
	c2.1,0.2,3.7,0.2,4.2-0.3c0.1-0.1,0.1-0.1,0.1-0.3c-0.9-2.8-12.9-7.4-16.7-6.4c-2.8,0.7-7.5,7-7.6,7c-0.1,0.1-0.2,0.1-0.3,0.1
	c-0.1,0-0.2,0-0.3-0.1l-14-18.3c-1.7,0.3-10.1,1.7-11-1.2c-0.1-0.3,0-0.6,0.2-0.8c0.4-0.4,1.4-0.8,6.1,0.2c2.1,0.4,4.2,1,4.7,1.1
	l15.5-12.9c0.7-0.6,0.9-1.7,0.3-2.4c-5.7-7.7-15.2-11.5-19-12.8c-0.4-0.1-0.8-0.5-0.9-1c-0.1-0.4,0-0.9,0.4-1.2
	c2.9-2.9,10.4-10.2,16.2-16c3.9-3.9,10.4-5.7,15.1-6.6c5.1-0.9,9.3-0.9,9.4-0.9c0.1,0,0.2,0.1,0.3,0.2c0.1,0.1,5.3,10.9,11.6,11.3
	c2.5,0.2,4.6-0.5,6.2-1.9c3.2-2.8,3.5-7.7,3.5-7.8c0-0.2,0.2-0.3,0.3-0.3c0.2,0,0.3,0.2,0.3,0.3c0,0.2-0.3,5.2-3.7,8.2
	c-1.7,1.6-4,2.3-6.7,2.1c-2.8-0.2-5.7-2.2-8.6-6c-1.8-2.4-3.1-4.8-3.4-5.5c-0.9,0-4.7,0.1-9.1,0.9c-4.6,0.8-10.9,2.6-14.7,6.4
	c-5.9,5.9-13.3,13.2-16.2,16c-0.2,0.2-0.2,0.4-0.2,0.6c0.1,0.2,0.2,0.4,0.4,0.5c3.9,1.3,13.5,5.2,19.3,13.1c0.8,1,0.6,2.5-0.4,3.3
	l-15.4,12.8l13.7,17.9c1.1-1.4,5-6.3,7.7-6.9c2.3-0.6,6.8,0.6,9.9,1.8c3.3,1.3,7.1,3.3,7.6,5c0.1,0.4,0,0.7-0.2,1
	c-0.5,0.5-1.7,0.6-3.3,0.5c2.1,1.3,3.1,2.3,3,3.1c0,0.3-0.2,0.8-1,1c-0.9,0.3-2.5,0.3-4.3,0.1c1.7,0.9,3.2,2,3.8,3
	c0.3,0.6,0.2,1.1-0.3,1.5c-1,0.7-3.8,0.7-6.7,0.4c1.2,0.9,2.3,2,2.7,3c0.3,0.8,0,1.2-0.2,1.4C-94.3,452.2-94.7,452.5-95.9,452.5
	L-95.9,452.5z M-108,443.5c0,0,0.1,0.1,0.1,0.2c0.8,0.9,4.1,2.1,8.2,2.8c-1.5-0.8-3.1-1.5-4.7-2.1
	C-106.4,443.6-107.6,443.4-108,443.5z M-106.2,438.8c0.8,0.7,3.9,1.7,7.6,2.5c0.4,0.1,0.7,0.1,1.1,0.2c-0.3-0.1-0.6-0.3-1-0.4
	C-102.3,439.6-105.3,438.9-106.2,438.8z M-104.1,434.3c0,0.1,0.3,0.6,2.2,1.3c2.1,0.8,4.9,1.5,7.5,1.9c-1.9-0.9-4.1-1.9-6-2.5
	C-103.3,434.1-104,434.3-104.1,434.3L-104.1,434.3z M-136.2,417.8c-0.8,0-1.1,0.1-1.2,0.2c0,0-0.1,0.1,0,0.2c0.3,1,2.2,1.5,5.4,1.4
	c1.3-0.1,2.6-0.2,3.6-0.4c-0.9-0.2-2.2-0.5-3.4-0.8C-134,417.9-135.4,417.8-136.2,417.8L-136.2,417.8z"/>
<path class="st3" d="M-10.9,367.3c-0.9,0-1.3-0.4-1.5-0.7c-0.5-0.8-0.2-2.1,0.7-3c0.1-0.1,0.3-0.1,0.5,0c0.1,0.1,0.1,0.3,0,0.5
	c-0.7,0.6-1,1.6-0.6,2.2c0.4,0.6,1.4,0.6,2.7,0c2.7-1.1,6.8-4.2,6.9-6.6c0.1-1.3-0.2-2.3-0.8-3c-0.8-0.9-2-0.9-2.1-0.9c0,0,0,0,0,0
	c-0.2,0-0.3-0.1-0.3-0.3c0-0.2,0.1-0.3,0.3-0.3c0.1,0,1.5,0,2.5,1.1c0.8,0.8,1.1,2,1,3.5c-0.1,1.6-1.5,3.1-2.7,4.1
	c-1.4,1.2-3.1,2.4-4.7,3C-9.8,367.1-10.4,367.3-10.9,367.3L-10.9,367.3z"/>
<path class="st3" d="M-9.4,369.6c-1,0-1.8-0.3-2-0.9c-0.2-0.3-0.3-1,0.6-1.8c0.1-0.1,0.3-0.1,0.5,0c0.1,0.1,0.1,0.3,0,0.5
	c-0.4,0.4-0.6,0.8-0.5,1.1c0.2,0.4,1,0.7,2.2,0.5c1.5-0.2,3.4-1.1,5-2.3c1.7-1.2,2.7-2.6,2.8-3.7c0.1-1-0.1-1.7-0.4-2.1
	c-0.3-0.3-0.7-0.3-0.7-0.3c-0.2,0-0.3-0.1-0.3-0.3c0-0.2,0.1-0.3,0.3-0.3c0,0,0.7,0,1.2,0.5c0.5,0.5,0.7,1.4,0.6,2.6
	c-0.1,1.2-1.3,2.7-3.1,4.1c-1.7,1.3-3.7,2.2-5.2,2.4C-8.8,369.6-9.1,369.6-9.4,369.6L-9.4,369.6z"/>
<path class="st3" d="M-7.6,371.6c-0.7,0-1.3-0.3-1.6-0.9c-0.3-0.6-0.1-1.2,0.5-1.8c0.1-0.1,0.3-0.1,0.5,0c0.1,0.1,0.1,0.3,0,0.5
	c-0.4,0.3-0.5,0.7-0.3,1c0.2,0.4,0.7,0.6,1.4,0.5c2.3-0.4,5.7-2.3,6.5-3.7c0.5-0.9,0.7-1.5,0.5-1.9c-0.2-0.4-0.8-0.5-0.8-0.5
	c-0.2,0-0.3-0.2-0.3-0.3c0-0.2,0.2-0.3,0.3-0.3c0,0,0.9,0.1,1.3,0.8c0.3,0.6,0.2,1.5-0.5,2.6c-1,1.7-4.7,3.7-7,4
	C-7.4,371.6-7.5,371.6-7.6,371.6L-7.6,371.6z"/>
<path class="st3" d="M-12.8,364.4c-0.6,0-1-0.2-1.3-0.6c-0.6-1.1,0.1-2.6,2.1-4.4c1.4-1.3,3-2.2,3-2.3c0.2-0.1,0.4,0,0.4,0.1
	c0.1,0.2,0,0.3-0.1,0.4c0,0-1.6,1-2.9,2.2c-1.2,1.1-2.5,2.6-1.9,3.6c0.3,0.5,1.3,0.4,2.7-0.3c3-1.5,6.5-5.1,5.4-7.6
	c-0.6-1.4-1.4-2.2-2.3-2.5c-1.1-0.3-2.4,0.1-4,1.2c-0.1,0.1-0.3,0.1-0.4-0.1c-0.1-0.1-0.1-0.3,0.1-0.4c1.8-1.2,3.3-1.7,4.6-1.3
	c1.1,0.3,2,1.3,2.7,2.8c0.6,1.4,0.2,3.1-1.2,4.9c-1.1,1.4-2.9,2.8-4.5,3.6C-11.4,364.2-12.2,364.4-12.8,364.4L-12.8,364.4z"/>
<path class="st3" d="M-71.9,422.2c-0.2,0-0.3-0.1-0.3-0.3c0-0.2,0.1-0.3,0.3-0.4c2.6-0.5,4.8-2.1,6.5-4.7c1.4-2.2,2.5-5,3.2-8.5
	c1.1-5.1,1.1-10.1,1-11.4l-30.8,0.6c0,0,0,0,0,0c-0.2,0-0.3-0.1-0.3-0.3c0-0.2,0.1-0.3,0.3-0.3l31.1-0.7c0.2,0,0.3,0.1,0.3,0.3
	c0,0.1,0.2,5.9-1,11.9c-0.7,3.5-1.8,6.5-3.3,8.7C-66.7,419.9-69,421.6-71.9,422.2C-71.9,422.2-71.9,422.2-71.9,422.2L-71.9,422.2z"
	/>
<path class="st3" d="M-115.6,443.6C-115.6,443.6-115.6,443.6-115.6,443.6c-0.2,0-0.4-0.2-0.3-0.4c0-0.1,0.7-3.1,2.9-5.7
	c0.1-0.1,0.3-0.2,0.5,0c0.1,0.1,0.2,0.3,0,0.5c-2,2.5-2.7,5.4-2.7,5.4C-115.3,443.5-115.4,443.6-115.6,443.6L-115.6,443.6z"/>
<path class="st1" d="M-22.8,357.1l1.5,2c0,0,4.8-4.7,7.8-4.9c3.7-0.2,3.1,3,3.1,3l1.7-1l-5.4-8.1L-22.8,357.1L-22.8,357.1z"/>
<path class="st3" d="M-21.1,356.7c-0.1,0-0.2,0-0.2-0.1c-0.1-0.1-0.1-0.3,0-0.5c0.1-0.1,7.2-6.1,11.6-11.8c0.1-0.1,0.3-0.2,0.5-0.1
	s0.2,0.3,0.1,0.5c-4.5,5.8-11.6,11.8-11.7,11.9C-20.9,356.7-21,356.7-21.1,356.7L-21.1,356.7z"/>
<path class="st3" d="M-38.6,359.7c-0.1,0-0.2-0.1-0.3-0.2c0-0.1-0.9-1.7-0.9-4c0-2.2,0.9-5.4,4.7-8.4c0.1-0.1,0.2-0.1,0.3-0.1
	c0.2,0,4.8,1.1,8.9,9.3c0.1,0.2,0,0.4-0.1,0.4c-0.2,0.1-0.4,0-0.4-0.1c-3.5-7.1-7.5-8.7-8.3-8.9c-2.8,2.3-4.3,4.8-4.3,7.7
	c0,2.2,0.8,3.7,0.8,3.7c0.1,0.2,0,0.4-0.1,0.4C-38.4,359.7-38.5,359.7-38.6,359.7L-38.6,359.7z"/>
<path class="st3" d="M-32.6,346c-0.1,0-0.2,0-0.3-0.1c-0.1-0.1-0.1-0.3,0.1-0.4c0.1-0.1,8.6-6,17.9-9c0.2-0.1,0.3,0,0.4,0.2
	c0.1,0.2,0,0.3-0.2,0.4c-9.3,3-17.7,8.9-17.7,8.9C-32.5,346-32.5,346-32.6,346L-32.6,346z"/>
</svg>
