<svg width="268" height="195" viewBox="0 0 268 195" fill="none" xmlns="http://www.w3.org/2000/svg">
<path d="M149.161 179.416C133.225 179.416 116.668 177.303 99.6255 173.076C76.5006 167.343 59.3312 158.483 48.5988 146.744C41.4546 138.93 37.3031 129.909 36.3155 120.229C23.0544 116.004 9.18544 107.974 2.02637 95.4279L9.71896 91.0499C13.3394 97.3951 19.3744 102.799 27.6526 107.107C30.6378 108.663 33.5858 109.905 36.3353 110.893C36.3899 110.353 36.4544 109.81 36.5289 109.268C38.9086 91.8081 50.8172 74.0536 69.1976 60.5556C78.2252 53.928 88.1908 48.7572 98.8215 45.1895C110.117 41.3987 121.574 39.6322 132.88 39.9394C142.329 40.1971 150.498 41.5424 157.164 43.9383C164.397 46.5398 169.668 50.3107 172.829 55.1494C175.631 59.4357 178.085 66.7124 173.866 77.0391C168.765 89.5287 152.709 103.54 132.964 112.736C115.075 121.069 85.6672 129.594 47.162 122.897C46.6434 122.808 46.1198 122.711 45.5937 122.607C46.8866 129.16 50.0753 135.243 55.1375 140.78C64.6714 151.209 80.3568 159.187 101.757 164.491C131.495 171.864 159.586 172.533 185.252 166.481C197.289 163.641 208.714 159.305 219.208 153.59C229.454 148.013 238.876 141.088 247.219 133.008L253.386 139.353C244.47 147.988 234.397 155.391 223.449 161.352C212.26 167.444 200.093 172.065 187.286 175.085C175.055 177.974 162.318 179.416 149.161 179.416ZM45.0081 113.445C46.4374 113.775 47.6807 114.017 48.6832 114.191C84.9252 120.494 112.485 112.526 129.222 104.729C149.503 95.2817 162.141 82.3412 165.668 73.7042C167.891 68.2609 167.807 63.6451 165.415 59.9857C161.055 53.3135 149.109 49.2304 132.639 48.782C122.381 48.5045 111.951 50.115 101.643 53.5737C92.0198 56.8045 82.615 61.6804 74.4434 67.6812C66.4605 73.5432 59.5893 80.5176 54.5717 87.8464C49.445 95.3387 46.3258 102.947 45.3009 110.462C45.1669 111.465 45.0677 112.459 45.0081 113.445Z" fill="#A7E92F"/>
<path d="M145.978 93.2567L152.286 88.3164L159.963 98.1252L148.568 106.291L145.114 93.787L145.978 93.2567Z" fill="white"/>
<path d="M84.8584 109.257C84.8584 109.257 93.422 119.489 98.6058 118.657C103.79 117.824 109.13 109.257 109.13 109.257H84.8584Z" fill="white"/>
<path d="M52.1851 67.2224L80.5534 46.584C80.5534 46.584 89.0599 51.8192 85.5238 60.5725C85.5238 60.5725 58.699 86.4263 50.0684 83.7778C50.0708 83.7778 53.7534 78.9886 52.1851 67.2224Z" fill="white"/>
<path d="M164.136 128.254C163.863 128.254 163.59 128.246 163.315 128.229C151.781 127.52 144.778 94.5037 144.485 93.0989C144.433 92.8461 144.595 92.6009 144.848 92.5488C145.098 92.4968 145.346 92.6578 145.399 92.9106C145.416 92.9948 147.203 101.5 150.342 109.971C154.441 121.036 158.947 127.027 163.372 127.3C167.901 127.575 172.01 125.484 175.576 121.073C175.737 120.873 176.032 120.843 176.231 121.004C176.432 121.165 176.462 121.457 176.3 121.658C172.802 125.987 168.61 128.254 164.136 128.254Z" fill="black"/>
<path d="M173.81 98.9157L165.331 148.552C165.132 149.719 165.708 150.883 166.763 151.421C171.472 153.824 186.227 159.149 217.194 153.165C218.494 152.915 219.43 151.768 219.405 150.445L218.494 100.558C218.484 100.036 218.32 99.5301 218.033 99.094C217.464 98.2368 216.521 96.438 216.268 93.6656C216 90.7123 216.179 83.329 216.293 79.5482C216.335 78.2153 215.4 77.0483 214.087 76.7956L213.104 76.6073C211.717 76.3397 210.352 77.1772 209.973 78.5374C208.796 82.7592 205.437 90.8956 197.188 89.7188C190.664 88.7897 188.756 83.3018 188.287 78.9536C188.131 77.5091 186.225 77.1003 185.498 78.359C181.292 85.6555 173.875 98.5415 173.81 98.9157Z" fill="#A7E92E"/>
<path d="M210.215 77.8901C210.197 77.8901 210.18 77.8901 210.163 77.8876C209.907 77.8603 209.723 77.6299 209.751 77.3723L211.706 59.8358C211.721 59.6945 211.803 59.5682 211.922 59.4914C212.044 59.4171 212.193 59.3997 212.327 59.4493C213.86 60.0018 216.359 59.2783 217.783 57.8686C218.543 57.1154 219.324 55.8617 218.726 54.1645C218.069 52.2964 216.624 51.8752 215.49 52.1032C214.284 52.346 213.113 53.3643 213.205 54.8409C213.22 55.0986 213.026 55.3191 212.768 55.334C212.515 55.3513 212.289 55.1556 212.274 54.8979C212.18 53.3791 213.193 51.6176 215.307 51.1914C216.753 50.899 218.749 51.4218 219.607 53.8573C220.2 55.5396 219.786 57.1996 218.441 58.5325C216.922 60.0365 214.418 60.8392 212.575 60.4824L210.679 77.4788C210.649 77.7142 210.448 77.8901 210.215 77.8901Z" fill="black"/>
<path d="M198.262 69.442C197.371 69.442 196.425 69.338 195.443 69.0828C191.075 67.9505 188.735 63.3174 189.882 58.0649C190.899 53.4045 191.877 47.8373 192.132 46.3681C190.76 45.7809 186.102 43.4321 187.142 38.9675C187.485 37.5007 188.155 36.5964 189.14 36.2768C190.048 35.982 191.046 36.2694 191.855 36.6608C191.706 36.3536 191.552 36.0167 191.405 35.6624C190.574 33.6332 190.443 32.0649 191.013 30.997C191.522 30.0432 192.549 29.5452 194.063 29.5154C195.875 29.4783 197.688 29.8177 199.284 30.4767C199.334 30.3405 199.393 30.2067 199.463 30.0778C199.949 29.1735 201.093 28.1552 203.788 28.4476C207.932 28.896 212.163 32.4712 213.87 35.7763C214.93 35.541 216.205 35.6326 217.61 36.0687C221.091 37.1489 223.498 40.1196 223.89 43.8261C224.292 47.6292 222.474 51.1474 219.148 53.0105C218.923 53.1369 218.64 53.0551 218.513 52.8322C218.387 52.6092 218.466 52.3242 218.692 52.1979C221.689 50.5205 223.325 47.3492 222.962 43.9227C222.61 40.5928 220.454 37.9244 217.334 36.9581C216.017 36.5493 215.014 36.5023 214.257 36.6385C214.364 36.9136 214.448 37.1861 214.513 37.4512C214.843 38.8139 214.528 39.8916 213.627 40.4838C212.463 41.2494 211.744 40.7662 211.488 40.5259C210.806 39.8792 210.768 38.5785 211.401 37.4983C211.771 36.8665 212.304 36.3933 212.964 36.0835C211.409 33.2269 207.627 29.8028 203.689 29.3767C201.967 29.1909 200.788 29.5873 200.284 30.5238C200.225 30.6353 200.175 30.7542 200.135 30.8756C200.16 30.888 200.187 30.9029 200.212 30.9153C201.8 31.7477 202.88 32.8329 203.031 33.7447C203.14 34.4037 202.783 34.9339 202.078 35.1594C201.373 35.3849 200.627 35.0999 200.029 34.3814C199.428 33.6605 199.009 32.5183 199.088 31.4058C197.755 30.8286 196.036 30.4074 194.08 30.4495C192.929 30.4718 192.175 30.8038 191.835 31.438C190.949 33.0956 192.77 36.5989 193.549 37.808C193.673 38.0037 193.636 38.2589 193.463 38.41C193.286 38.5612 193.028 38.5612 192.852 38.41C192.299 37.9343 190.604 36.7798 189.428 37.1613C188.777 37.3719 188.313 38.0508 188.053 39.1781C187.033 43.5585 192.574 45.5554 192.812 45.6372C193.026 45.7115 193.155 45.932 193.118 46.155C193.105 46.2219 191.979 52.847 190.795 58.2631C189.743 63.0845 191.753 67.1626 195.678 68.1809C200.51 69.4321 204.565 66.625 204.604 66.5952C204.815 66.4466 205.106 66.4961 205.255 66.7067C205.403 66.9173 205.354 67.2072 205.145 67.3559C205.001 67.4599 202.155 69.442 198.262 69.442ZM213.364 36.921C212.726 37.2307 212.379 37.6742 212.205 37.9665C211.766 38.7172 211.811 39.5448 212.131 39.847C212.404 40.1072 212.865 39.8693 213.116 39.7033C213.679 39.3317 213.845 38.6479 213.607 37.6667C213.55 37.4289 213.468 37.1787 213.364 36.921ZM200.024 31.8667C200.068 32.5901 200.354 33.3136 200.746 33.7843C200.947 34.0271 201.351 34.4112 201.795 34.2699C202.155 34.156 202.13 33.9999 202.113 33.8958C202.029 33.3805 201.274 32.5728 200.024 31.8667Z" fill="black"/>
<path d="M195.307 57.4062C195.262 57.4062 195.215 57.3988 195.17 57.3864C194.307 57.1213 192.768 56.1872 193.13 54.5371C193.341 53.5709 194.21 53.0481 195.049 52.5451C195.917 52.0224 196.664 51.5714 196.709 50.734C196.781 49.3416 194.778 48.0805 194.001 47.7138C193.768 47.6048 193.669 47.3273 193.778 47.0944C193.887 46.8615 194.165 46.7624 194.398 46.8714C194.535 46.9358 197.758 48.4794 197.639 50.7811C197.57 52.1115 196.485 52.7656 195.53 53.3404C194.83 53.7616 194.168 54.1605 194.041 54.7353C193.773 55.9593 195.376 56.4746 195.446 56.4944C195.691 56.5712 195.828 56.8314 195.753 57.0767C195.689 57.2774 195.505 57.4062 195.307 57.4062Z" fill="black"/>
<path d="M196.721 60.8919C196.12 60.8919 195.475 60.8027 194.788 60.5846C194.542 60.5078 194.405 60.2452 194.482 59.9999C194.559 59.7546 194.822 59.6184 195.068 59.6952C198.492 60.7705 200.639 58.2557 200.728 58.1491C200.892 57.9509 201.187 57.9237 201.383 58.0872C201.582 58.2507 201.609 58.5431 201.445 58.7413C201.426 58.771 199.634 60.8919 196.721 60.8919Z" fill="black"/>
<path d="M203.454 52.1728C203.528 51.5642 203.163 51.0196 202.639 50.9564C202.115 50.8932 201.631 51.3353 201.557 51.9439C201.484 52.5525 201.848 53.0971 202.372 53.1604C202.896 53.2236 203.381 52.7814 203.454 52.1728Z" fill="black"/>
<path d="M195.398 51.1992C195.471 50.5906 195.106 50.046 194.582 49.9828C194.059 49.9196 193.574 50.3617 193.501 50.9703C193.427 51.5789 193.792 52.1235 194.316 52.1867C194.84 52.2499 195.324 51.8078 195.398 51.1992Z" fill="black"/>
<path d="M210.134 52.5392C208.067 52.5392 205.769 50.7503 204.139 48.5378C203.514 49.2563 202.62 49.4967 201.588 49.1919C197.168 47.8912 194.771 42.381 194.67 42.1481C194.568 41.9127 194.679 41.6377 194.915 41.5386C195.153 41.437 195.426 41.5485 195.526 41.7839C195.548 41.8359 197.856 47.1256 201.848 48.3C202.484 48.4858 202.973 48.3941 203.347 48.02C203.432 47.9358 203.509 47.8392 203.581 47.7301C203.32 47.3189 203.084 46.9001 202.878 46.4814C201.915 44.5192 201.806 42.9087 202.583 42.0639C203.012 41.5956 203.536 41.4965 203.987 41.7988C205.107 42.547 205.459 45.7703 204.66 47.6732C206.189 49.8807 208.459 51.7587 210.338 51.6026C211.248 51.5283 211.881 51.2137 212.216 50.6661C212.988 49.405 212.112 47.2643 212.102 47.242C212.003 47.0042 212.117 46.7317 212.353 46.6326C212.591 46.5335 212.861 46.6449 212.963 46.8828C213.008 46.9869 214.03 49.4793 213.013 51.1468C212.514 51.9644 211.64 52.4302 210.415 52.5293C210.325 52.5367 210.231 52.5392 210.134 52.5392ZM203.447 42.5569C203.434 42.5594 203.37 42.5866 203.275 42.6907C202.789 43.2209 202.96 44.5167 203.722 46.0701C203.814 46.2584 203.913 46.4467 204.02 46.635C204.251 45.6192 204.201 44.3581 203.92 43.4191C203.722 42.7526 203.494 42.5668 203.447 42.5569Z" fill="black"/>
<path d="M193.13 74.9551C193.105 74.9551 193.078 74.9526 193.051 74.9476C192.798 74.9055 192.626 74.6652 192.668 74.41L193.745 68.0549C193.788 67.8022 194.026 67.6313 194.284 67.6734C194.537 67.7155 194.708 67.9558 194.666 68.211L193.589 74.5661C193.552 74.794 193.353 74.9551 193.13 74.9551Z" fill="black"/>
<path d="M201.123 90.4869C200.594 90.4869 200.051 90.4473 199.5 90.368C196.639 89.9592 194.378 88.6659 192.782 86.5252C190.849 83.9312 190.264 80.5418 190.115 78.1534C189.953 75.5866 190.239 73.6491 190.251 73.5674C190.288 73.3122 190.527 73.1387 190.782 73.1759C191.038 73.2131 191.211 73.4509 191.174 73.7061C191.164 73.7829 190.077 81.3396 193.532 85.9703C194.973 87.9028 197.026 89.0722 199.631 89.4439C204.001 90.0682 207.475 88.0638 209.962 83.4902C211.855 80.0042 212.433 76.2655 212.438 76.2283C212.475 75.9731 212.714 75.7997 212.969 75.8369C213.225 75.874 213.398 76.1119 213.361 76.3646C213.336 76.5232 212.761 80.2842 210.793 83.9138C208.448 88.2422 205.128 90.4869 201.123 90.4869Z" fill="black"/>
<path d="M221.818 153.368C221.565 153.368 221.356 153.165 221.351 152.912L220.386 100.052C219.949 99.5171 218.503 97.5004 218.175 93.9004C217.808 89.8669 218.257 77.9149 218.277 77.4095C218.287 77.1518 218.498 76.9561 218.761 76.961C219.019 76.9709 219.22 77.1865 219.21 77.4442C219.205 77.568 218.743 89.8396 219.106 93.8162C219.453 97.6391 221.175 99.5419 221.193 99.5617C221.27 99.646 221.314 99.755 221.317 99.8689L222.285 152.897C222.289 153.155 222.084 153.365 221.828 153.37C221.825 153.368 221.823 153.368 221.818 153.368Z" fill="black"/>
<path d="M167.392 151.04C167.375 151.04 167.355 151.04 167.335 151.037C167.079 151.008 166.898 150.775 166.928 150.52C167.169 148.508 172.869 101.178 175.444 97.4444C177.923 93.8519 184.916 74.757 184.986 74.5662C185.075 74.3234 185.341 74.1995 185.584 74.2887C185.824 74.3779 185.951 74.643 185.862 74.8858C185.574 75.6762 178.757 94.2854 176.211 97.9746C175.64 98.7996 174.221 103.487 171.117 125.587C169.345 138.194 167.866 150.51 167.851 150.631C167.826 150.866 167.625 151.04 167.392 151.04Z" fill="black"/>
<path d="M194.424 156.53C189.642 156.53 185.58 156.188 182.359 155.757C174.12 154.657 169.574 152.803 169.386 152.727C169.147 152.627 169.036 152.355 169.132 152.119C169.232 151.882 169.505 151.77 169.74 151.867C169.924 151.941 188.307 159.309 217.305 153.111C217.556 153.056 217.804 153.217 217.859 153.467C217.913 153.718 217.752 153.965 217.501 154.02C208.697 155.903 200.9 156.53 194.424 156.53Z" fill="black"/>
<path d="M236.023 113.115C235.909 113.115 235.792 113.072 235.703 112.988C235.594 112.887 224.812 102.711 221.526 100.528C221.313 100.387 221.253 100.097 221.397 99.8842C221.539 99.6711 221.829 99.6116 222.042 99.7553C225.392 101.983 235.899 111.893 236.343 112.314C236.529 112.49 236.539 112.785 236.36 112.973C236.271 113.067 236.147 113.115 236.023 113.115Z" fill="black"/>
<path d="M236.023 151.274C246.562 151.274 255.106 142.744 255.106 132.222C255.106 121.699 246.562 113.169 236.023 113.169C225.484 113.169 216.94 121.699 216.94 132.222C216.94 142.744 225.484 151.274 236.023 151.274Z" fill="#016A2B"/>
<path d="M219.467 128.454C219.432 128.454 219.397 128.449 219.36 128.441C219.132 128.384 218.993 128.151 219.05 127.921C221.698 117.51 232.333 111.187 242.76 113.831C242.989 113.888 243.128 114.121 243.071 114.351C243.011 114.579 242.78 114.718 242.55 114.661C232.579 112.134 222.41 118.176 219.879 128.131C219.832 128.325 219.658 128.454 219.467 128.454Z" fill="black"/>
<path d="M237.961 152.196C236.376 152.196 234.768 152.003 233.165 151.594C222.738 148.95 216.407 138.331 219.053 127.92C219.11 127.692 219.343 127.554 219.574 127.611C219.802 127.668 219.941 127.9 219.884 128.131C217.353 138.086 223.405 148.239 233.376 150.766C234.909 151.155 236.448 151.341 237.964 151.341C246.297 151.341 253.907 145.719 256.049 137.296C257.275 132.474 256.545 127.462 253.997 123.188C251.448 118.912 247.386 115.884 242.555 114.66C242.326 114.603 242.187 114.37 242.244 114.14C242.302 113.912 242.535 113.773 242.766 113.83C247.818 115.111 252.066 118.277 254.731 122.75C257.396 127.222 258.158 132.462 256.875 137.506C254.634 146.314 246.674 152.196 237.961 152.196Z" fill="black"/>
<path d="M234.624 150.091C234.515 150.091 234.403 150.049 234.319 149.964C234.152 149.796 234.152 149.526 234.321 149.36C234.346 149.335 236.748 146.917 238.967 141.662C241.016 136.806 243.324 128.469 242.676 116.321C242.664 116.086 242.845 115.885 243.081 115.873C243.317 115.86 243.518 116.041 243.53 116.277C244.188 128.62 241.828 137.106 239.731 142.051C237.445 147.44 235.023 149.868 234.922 149.969C234.842 150.049 234.733 150.091 234.624 150.091Z" fill="black"/>
<path d="M242.353 135.378C240.956 135.378 239.673 134.65 238.536 133.208C232.539 125.592 231.727 117.363 231.72 117.282C231.697 117.046 231.871 116.838 232.107 116.818C232.345 116.796 232.551 116.969 232.573 117.205C232.581 117.284 233.375 125.272 239.211 132.68C240.296 134.058 241.447 134.652 242.74 134.501C244.633 134.278 246.842 132.395 249.125 129.053C250.884 126.476 252.063 123.944 252.075 123.917C252.175 123.701 252.428 123.609 252.644 123.709C252.859 123.808 252.951 124.06 252.852 124.276C252.656 124.702 247.959 134.749 242.839 135.351C242.675 135.368 242.512 135.378 242.353 135.378Z" fill="black"/>
<path d="M243.455 150.794C243.45 150.794 243.448 150.794 243.443 150.794C243.207 150.787 243.021 150.591 243.026 150.356C243.028 150.269 243.192 141.773 237.219 140.837C231.043 139.868 225.924 143.173 225.874 143.208C225.678 143.337 225.412 143.282 225.281 143.086C225.152 142.891 225.206 142.626 225.402 142.494C225.621 142.351 230.842 138.971 237.353 139.994C244.071 141.047 243.887 150.289 243.882 150.383C243.877 150.611 243.686 150.794 243.455 150.794Z" fill="black"/>
<path d="M256.401 142.762C256.401 142.762 255.749 139.028 252.458 139.023C249.652 139.021 245.12 140.503 241.651 142.361C236.996 144.856 237.832 145.77 240.319 146.3C242.805 146.83 244.664 146.265 244.664 146.265C244.664 146.265 240.741 149.246 235.549 150.232C229.137 151.451 231.408 152.725 231.408 152.725C231.408 152.725 229.304 153.059 231.544 154.231C237.222 157.199 251.935 159.897 256.401 142.762Z" fill="white"/>
<path d="M233.963 153.745C232.586 153.745 231.476 153.552 231.045 153.019C230.68 152.568 230.566 152.137 230.702 151.741C231.027 150.795 232.648 150.415 235.591 149.727C236.194 149.585 236.849 149.432 237.546 149.261C240.082 148.639 242.281 147.313 243.742 146.251C242.554 146.585 241.179 146.877 240.263 146.763C239.117 146.622 238.787 146.119 238.71 145.72C238.529 144.769 239.68 143.637 242.224 142.259C248.896 138.649 252.311 138.56 252.452 138.558C252.455 138.558 252.457 138.558 252.46 138.558C252.713 138.558 252.921 138.761 252.926 139.016C252.929 139.274 252.725 139.484 252.467 139.487C252.435 139.487 249.102 139.593 242.668 143.077C240.055 144.491 239.586 145.339 239.626 145.544C239.641 145.624 239.859 145.772 240.375 145.837C241.745 146.003 244.747 144.994 245.787 144.591C245.993 144.511 246.226 144.586 246.348 144.771C246.467 144.957 246.442 145.2 246.286 145.356C246.137 145.502 242.589 148.983 237.767 150.165C237.065 150.336 236.407 150.49 235.802 150.633C233.807 151.099 231.742 151.582 231.583 152.043C231.563 152.098 231.603 152.229 231.769 152.435C232.417 153.237 237.601 152.675 242.03 151.694C242.281 151.639 242.531 151.798 242.586 152.048C242.641 152.298 242.484 152.549 242.231 152.603C240.693 152.943 236.772 153.745 233.963 153.745Z" fill="black"/>
<path d="M236.646 155.708C235.698 155.708 234.659 155.673 233.542 155.586C233.286 155.566 233.093 155.343 233.113 155.086C233.133 154.828 233.358 154.637 233.614 154.657C238.897 155.066 242.473 154.263 242.508 154.256C242.758 154.196 243.009 154.355 243.066 154.605C243.123 154.855 242.967 155.105 242.716 155.162C242.599 155.19 240.309 155.708 236.646 155.708Z" fill="black"/>
<path d="M249.658 154.179C249.509 154.179 249.36 154.107 249.271 153.974C249.127 153.761 249.184 153.471 249.398 153.327C257.1 148.146 261.331 140.82 261.639 132.141C262.192 116.507 250.293 98.0046 228.99 81.3749C222.895 76.6154 215.818 76.7641 215.744 76.7665C215.488 76.774 215.272 76.5708 215.265 76.3156C215.257 76.0604 215.458 75.8449 215.716 75.8374C216.017 75.8275 223.193 75.6714 229.563 80.644C251.102 97.4595 263.133 116.242 262.569 132.178C262.252 141.167 257.877 148.748 249.916 154.105C249.839 154.155 249.75 154.179 249.658 154.179Z" fill="black"/>
<path d="M163.092 113.103C162.797 113.103 162.539 112.967 162.377 112.722C162.01 112.169 161.849 110.747 164.608 104.818L148.851 84.6875C148.692 84.4843 148.729 84.192 148.93 84.0334C149.134 83.8748 149.426 83.912 149.585 84.1127L165.045 103.862C165.596 102.613 166.164 101.134 166.807 99.4639C169.561 92.3061 173.333 82.5047 181.013 77.0416C181.222 76.893 181.514 76.94 181.663 77.1506C181.812 77.3612 181.765 77.6511 181.554 77.7998C174.102 83.0994 170.39 92.7496 167.678 99.7984C166.923 101.761 166.268 103.46 165.621 104.855C165.638 106.907 165.487 113.009 163.132 113.101C163.117 113.103 163.104 113.103 163.092 113.103ZM164.621 107.068C162.928 111.007 163.057 111.968 163.134 112.167C163.898 112.055 164.439 109.739 164.621 107.068Z" fill="black"/>
<path d="M136.683 95.333C134.472 95.333 133.088 94.7433 132.822 93.621C132.75 93.3137 132.812 93.0189 133.003 92.7687C133.497 92.122 134.802 91.9535 135.378 91.9114L137.676 88.9358L136.371 88.1157L134.954 89.5428C135.331 89.6865 135.755 89.9368 136.083 90.3604C136.239 90.5636 136.202 90.856 135.998 91.0121C135.795 91.1681 135.502 91.131 135.346 90.9278C134.877 90.3183 134.028 90.2712 134.021 90.2712C133.835 90.2638 133.673 90.1498 133.604 89.9764C133.537 89.8055 133.576 89.6097 133.705 89.4784L135.971 87.1965C136.125 87.0429 136.366 87.0132 136.549 87.1296L138.606 88.4205C138.718 88.4899 138.795 88.6038 138.817 88.7327C138.84 88.8615 138.807 88.9953 138.728 89.0993L135.986 92.6497C135.902 92.7588 135.773 92.8257 135.636 92.8306C134.983 92.8554 133.964 93.0462 133.745 93.336C133.725 93.3608 133.723 93.3732 133.73 93.4128C133.921 94.2255 135.877 94.7879 139.721 94.1041C143.75 93.3881 144.619 92.6745 144.629 92.6671C144.81 92.4837 145.098 92.4912 145.282 92.672C145.465 92.8529 145.458 93.1552 145.277 93.336C145.13 93.4822 144.18 94.2552 139.887 95.0183C138.686 95.2289 137.611 95.333 136.683 95.333Z" fill="black"/>
<path d="M133.413 93.4704C133.361 93.4704 133.307 93.4605 133.255 93.4431C132.418 93.1409 130.428 92.3629 130.021 91.6766C129.88 91.4363 129.666 91.0746 131.503 86.1293C131.87 85.1432 133.302 81.3846 133.632 81.0105C134.093 80.4828 135.081 80.6389 135.433 80.7132C136.111 80.7553 143.664 81.2781 149.416 83.9787C149.65 84.0877 149.749 84.3652 149.64 84.5981C149.531 84.831 149.253 84.9301 149.019 84.8211C143.287 82.1279 135.418 81.6448 135.341 81.6398C135.314 81.6374 135.289 81.6349 135.265 81.6299C134.905 81.5482 134.458 81.5457 134.339 81.62C133.87 82.3905 130.895 90.1132 130.862 91.248C131.13 91.528 132.341 92.1201 133.572 92.5661C133.815 92.6528 133.939 92.9204 133.853 93.1632C133.783 93.3515 133.604 93.4704 133.413 93.4704Z" fill="black"/>
<path d="M99.8265 109.073C99.8216 109.073 99.8166 109.073 99.8116 109.073C99.4096 109.065 99.0597 108.895 98.7992 108.58C97.886 107.48 98.2309 104.725 98.3476 103.967C96.7098 101.543 95.0075 99.2789 93.2853 97.2349C93.1414 97.064 93.1637 96.8063 93.335 96.6626C93.5062 96.5189 93.7643 96.5412 93.9082 96.7121C95.5733 98.6893 97.221 100.867 98.8091 103.196L113.097 86.0411C113.241 85.8677 113.497 85.8454 113.671 85.9891C113.844 86.1328 113.867 86.388 113.723 86.5614L99.2806 103.902C101.179 106.821 100.849 108.131 100.611 108.565C100.437 108.882 100.144 109.073 99.8265 109.073ZM99.0399 105.064C98.953 106.219 99.0002 107.549 99.4245 108.062C99.5362 108.196 99.6603 108.258 99.824 108.26C99.8315 108.258 99.8836 108.221 99.9283 108.099C100.099 107.631 99.9283 106.613 99.0399 105.064Z" fill="black"/>
<path d="M123.232 95.1434C122.475 95.1434 121.614 95.0691 120.662 94.9204C116.9 94.3283 116.056 93.6717 115.927 93.5453C115.766 93.3893 115.761 93.1316 115.917 92.9705C116.068 92.812 116.319 92.8045 116.48 92.9507C116.517 92.9804 117.329 93.5751 120.788 94.1177C122.483 94.3852 125.754 94.5785 126.004 93.4066C126.012 93.3744 126.007 93.362 125.989 93.3397C125.793 93.0919 124.897 92.9433 124.329 92.9334C124.208 92.9309 124.096 92.8764 124.019 92.7822L121.562 89.7323C121.49 89.6431 121.461 89.5267 121.478 89.4152C121.495 89.3012 121.56 89.2021 121.657 89.1377L123.428 87.9757C123.587 87.8716 123.798 87.8914 123.935 88.0228L125.952 89.9751C126.069 90.0866 126.106 90.2576 126.051 90.4087C125.994 90.5598 125.855 90.6639 125.694 90.6738C125.689 90.6738 124.95 90.7308 124.55 91.2709C124.416 91.4518 124.16 91.4889 123.982 91.3551C123.801 91.2213 123.763 90.9662 123.897 90.7878C124.175 90.4112 124.543 90.1882 124.868 90.0544L123.607 88.8329L122.48 89.5713L124.54 92.1282C125.044 92.1554 126.188 92.2793 126.629 92.8343C126.801 93.0498 126.86 93.305 126.803 93.5751C126.582 94.6008 125.294 95.1434 123.232 95.1434Z" fill="black"/>
<path d="M126.272 93.4593C126.108 93.4593 125.954 93.3602 125.892 93.1992C125.81 92.9886 125.917 92.7557 126.126 92.6739C127.19 92.2651 128.24 91.725 128.468 91.4772C128.421 90.4862 125.681 83.7867 125.262 83.1327C125.163 83.0707 124.771 83.0806 124.455 83.1599C124.446 83.1624 124.436 83.1649 124.426 83.1649C124.369 83.1748 118.562 84.2055 113.589 86.6682C113.388 86.7673 113.142 86.6855 113.043 86.4849C112.944 86.2842 113.026 86.0389 113.227 85.9398C118.185 83.487 123.934 82.429 124.272 82.3671C124.557 82.2977 125.446 82.1267 125.87 82.5901C126.163 82.9097 127.48 86.1652 127.818 87.02C129.508 91.3038 129.329 91.6234 129.21 91.8365C128.868 92.4435 127.143 93.157 126.418 93.437C126.371 93.4494 126.322 93.4593 126.272 93.4593Z" fill="black"/>
<path d="M98.2266 119.078C93.2264 119.078 87.4272 111.935 87.1766 111.623C87.0351 111.447 87.0649 111.192 87.2386 111.05C87.4148 110.909 87.6704 110.936 87.8118 111.112C87.8714 111.187 93.9163 118.627 98.5715 118.248C108.048 117.472 115.743 93.3751 115.82 93.1323C115.887 92.9192 116.113 92.7978 116.331 92.8672C116.545 92.9341 116.664 93.1621 116.597 93.3776C116.577 93.4395 114.614 99.6286 111.468 105.837C107.195 114.266 102.879 118.714 98.6385 119.06C98.5021 119.073 98.3631 119.078 98.2266 119.078Z" fill="black"/>
<path d="M94.1126 95.9669C94.1126 95.9669 95.1648 98.9525 90.847 105.496C90.847 105.496 92.0232 108.543 90.7949 111.467C89.5666 114.39 87.3035 116.913 87.3035 116.913L86.5739 135.998C86.5565 136.426 86.3382 136.82 85.9833 137.06C84.0626 138.354 76.8291 141.805 57.6696 138.148C56.9748 138.017 56.5008 137.368 56.5901 136.667C57.0418 133.067 58.2776 122.658 57.9078 119.462C57.0194 111.774 56.0169 108.813 56.0169 108.813C56.0169 108.813 47.1754 105.233 41.7062 100.471C41.205 100.035 41.1082 99.2968 41.463 98.7369C43.0065 96.2915 47.4062 89.9365 52.6769 87.8231C57.3941 85.9302 61.2131 84.6691 62.9973 84.1067C63.6425 83.9035 64.3448 84.0274 64.8833 84.4362C66.4813 85.6502 70.3276 88.0014 74.9308 86.8419C80.6307 85.4049 81.4099 83.9679 81.4869 83.792C89.301 86.0565 91.3706 91.0712 94.1126 95.9669Z" fill="#016A2B"/>
<path d="M44.7716 80.0097L42.9229 81.3174L56.8924 101.005L58.7412 99.6972L44.7716 80.0097Z" fill="#016A2B"/>
<path d="M52.17 90.4374L50.3213 91.7451L62.5493 108.978L64.3981 107.671L52.17 90.4374Z" fill="black"/>
<path d="M43.1229 81.6045C51.0652 75.9865 51.4997 62.9708 44.0935 52.5332C36.6873 42.0955 24.2449 38.1883 16.3026 43.8063C8.36036 49.4243 7.92579 62.4399 15.332 72.8776C22.7382 83.3153 35.1806 87.2224 43.1229 81.6045Z" stroke="#016A2B" stroke-width="4.659" stroke-miterlimit="10"/>
<path d="M35.5 83.9521C28.6139 83.9521 20.9883 79.812 15.8193 72.5279C8.31783 61.9584 8.78931 48.7082 16.869 42.9923C20.7972 40.2149 25.9066 39.6079 31.2566 41.2877C36.5745 42.9576 41.5002 46.6889 45.1232 51.7977C48.7461 56.9041 50.6395 62.781 50.4559 68.3432C50.2698 73.9401 48.0017 78.5534 44.076 81.3308C41.5622 83.1097 38.6068 83.9521 35.5 83.9521ZM25.4525 41.0226C22.4151 41.0226 19.6086 41.8675 17.2536 43.5349C9.4742 49.0377 9.07468 61.8717 16.3628 72.1438C21.4027 79.2471 28.8223 83.293 35.4901 83.293C38.4653 83.293 41.2893 82.4878 43.6889 80.7907C47.4433 78.1347 49.6097 73.7072 49.7908 68.3209C49.972 62.9024 48.1208 57.1692 44.5822 52.1818C41.0411 47.1919 36.2395 43.5498 31.0581 41.922C29.1399 41.3224 27.2565 41.0226 25.4525 41.0226Z" fill="black"/>
<path d="M33.2018 82.3379C33.1075 82.3379 33.0157 82.2933 32.9587 82.2116L14.5088 56.2141C14.4145 56.0803 14.4443 55.8944 14.5808 55.7978C14.7148 55.7037 14.9009 55.7334 14.9977 55.8697L33.445 81.8672C33.5393 82.001 33.5095 82.1868 33.3731 82.2834C33.321 82.3206 33.2614 82.3379 33.2018 82.3379Z" fill="black"/>
<path d="M41.8739 78.5664C41.7697 78.5664 41.668 78.5169 41.6034 78.4252L18.7961 46.2857C18.6894 46.1371 18.7242 45.929 18.8756 45.8224C19.0244 45.7159 19.2329 45.7506 19.3396 45.9017L42.1469 78.0412C42.2536 78.1898 42.2189 78.398 42.0675 78.5045C42.0079 78.5466 41.9409 78.5664 41.8739 78.5664Z" fill="black"/>
<path d="M47.3636 70.3234C47.2693 70.3234 47.175 70.2788 47.1154 70.1946L28.1271 43.434C28.0303 43.2977 28.0626 43.1094 28.1991 43.0128C28.3356 42.9161 28.5241 42.9484 28.6209 43.0846L47.6092 69.8452C47.706 69.9815 47.6737 70.1698 47.5373 70.2664C47.4852 70.3036 47.4231 70.3234 47.3636 70.3234Z" fill="black"/>
<path d="M14.3966 63.027C14.3023 63.027 14.2104 62.9824 14.1534 62.9006C14.0591 62.7669 14.0889 62.581 14.2253 62.4844L35.1144 47.708C35.2484 47.6138 35.4346 47.6436 35.5313 47.7798C35.6256 47.9136 35.5959 48.0994 35.4594 48.1961L14.5703 62.9725C14.5182 63.0097 14.4586 63.027 14.3966 63.027Z" fill="black"/>
<path d="M17.5528 71.3076C17.4585 71.3076 17.3667 71.263 17.3096 71.1812C17.2153 71.0474 17.2451 70.8616 17.3816 70.765L42.0823 53.2929C42.2163 53.1988 42.4024 53.2285 42.4991 53.3648C42.5934 53.4986 42.5637 53.6844 42.4272 53.781L17.7265 71.2531C17.6744 71.2903 17.6124 71.3076 17.5528 71.3076Z" fill="black"/>
<path d="M23.9268 76.4548C23.8325 76.4548 23.7407 76.4102 23.6836 76.3285C23.5894 76.1947 23.6191 76.0088 23.7556 75.9122L45.7887 60.3281C45.9227 60.2339 46.1088 60.2637 46.2056 60.3999C46.2999 60.5337 46.2701 60.7196 46.1336 60.8162L24.1005 76.4003C24.0459 76.4375 23.9864 76.4548 23.9268 76.4548Z" fill="black"/>
<path d="M34.0108 79.7633C33.9165 79.7633 33.8247 79.7187 33.7676 79.637C33.6733 79.5032 33.7031 79.3174 33.8396 79.2207L44.7134 71.5302C44.8474 71.4361 45.0336 71.4658 45.1303 71.6021C45.2246 71.7359 45.1949 71.9217 45.0584 72.0183L34.1845 79.7088C34.1299 79.746 34.0704 79.7633 34.0108 79.7633Z" fill="black"/>
<path d="M77.7516 76.4459C76.4091 76.4459 74.7838 76.1065 72.9996 75.0312C72.806 74.9148 72.744 74.6621 72.8606 74.4688C72.9772 74.2756 73.2304 74.2136 73.4239 74.3301C75.9873 75.8761 78.1735 75.7596 79.5557 75.3905C81.3051 74.9222 82.7965 73.7776 83.6451 72.2464C85.5335 68.8397 85.0621 58.5304 85.0571 58.4288C85.0472 58.2033 85.2209 58.0101 85.4467 58.0002C85.67 57.9828 85.8661 58.1637 85.876 58.3892C85.8958 58.8227 86.3648 69.0354 84.3623 72.6453C83.4069 74.3697 81.7319 75.6605 79.7666 76.1858C79.2058 76.3344 78.5258 76.4459 77.7516 76.4459Z" fill="black"/>
<path d="M79.4492 67.9619C79.2507 67.9619 79.0769 67.8182 79.0447 67.6175C79.0075 67.3945 79.1588 67.1839 79.3846 67.1468C79.3971 67.1443 80.7817 66.9015 80.9232 66.0021C81.0026 65.4967 80.7445 64.8748 80.4691 64.2158C80.0149 63.1182 79.4467 61.7555 80.345 60.3953C81.4517 58.7204 84.3699 59.263 84.4915 59.2878C84.7149 59.3299 84.8588 59.5455 84.8166 59.7685C84.7744 59.9914 84.5585 60.1376 84.3352 60.093C84.3104 60.0881 81.8339 59.6297 81.0299 60.8462C80.3723 61.8422 80.7867 62.8432 81.2259 63.9011C81.5311 64.6369 81.8463 65.3951 81.7321 66.1285C81.4989 67.615 79.5956 67.9421 79.5137 67.9569C79.4938 67.9594 79.4715 67.9619 79.4492 67.9619Z" fill="black"/>
<path d="M76.83 62.6986C76.9527 62.2046 76.7081 61.7189 76.2838 61.6139C75.8595 61.5089 75.4161 61.8243 75.2934 62.3183C75.1707 62.8124 75.4153 63.298 75.8396 63.4031C76.2639 63.5081 76.7074 63.1927 76.83 62.6986Z" fill="black"/>
<path d="M83.5839 62.8773C83.7066 62.3833 83.462 61.8976 83.0377 61.7926C82.6134 61.6876 82.17 62.003 82.0473 62.497C81.9246 62.9911 82.1692 63.4767 82.5935 63.5818C83.0178 63.6868 83.4613 63.3714 83.5839 62.8773Z" fill="black"/>
<path d="M73.7052 60.8186C73.601 60.8186 73.4943 60.7789 73.4149 60.6996C73.2536 60.5386 73.2536 60.2809 73.4149 60.1199C75.3405 58.1898 77.889 59.0173 77.9957 59.0545C78.2116 59.1264 78.3258 59.3592 78.2538 59.5748C78.1818 59.7879 77.9486 59.9043 77.7352 59.8325C77.6434 59.8027 75.5564 59.1387 73.9981 60.6996C73.9162 60.7789 73.812 60.8186 73.7052 60.8186Z" fill="black"/>
<path d="M79.0844 70.929C78.7544 70.929 78.3747 70.877 77.9504 70.7407C75.9354 70.0866 75.722 68.6645 75.7146 68.605C75.6848 68.3796 75.8411 68.1739 76.0669 68.1442C76.2928 68.1145 76.4987 68.273 76.5285 68.496C76.5335 68.5307 76.7072 69.4722 78.206 69.9603C79.3822 70.3418 80.0348 69.876 80.0621 69.8562C80.2433 69.7224 80.4989 69.7571 80.6354 69.9355C80.7718 70.1139 80.7421 70.3666 80.5634 70.5054C80.5336 70.5277 80.0051 70.929 79.0844 70.929Z" fill="black"/>
<path d="M66.0322 71.2079C65.99 71.2079 65.9454 71.2004 65.9007 71.1856C60.2926 69.3026 57.5977 64.9891 57.893 58.3615C58.1585 52.383 61.7095 45.027 70.8413 43.974C78.6406 43.0747 84.8568 47.3485 86.6831 54.8631C86.7352 55.0836 86.6012 55.3041 86.3804 55.3586C86.157 55.4131 85.9387 55.2769 85.8841 55.0564C84.1619 47.9704 78.2957 43.9394 70.9356 44.7892C62.3175 45.7852 58.965 52.7423 58.7119 58.3987C58.4315 64.7042 60.8683 68.6336 66.1613 70.4076C66.3772 70.4794 66.4913 70.7123 66.4193 70.9279C66.3623 71.0989 66.2035 71.2079 66.0322 71.2079Z" fill="black"/>
<path d="M65.2524 81.661C65.1978 81.661 65.1407 81.6486 65.0861 81.6263C64.8777 81.5346 64.7858 81.2918 64.8777 81.0837C67.3145 75.6033 67.1135 69.6075 67.0117 68.0515C65.8281 68.049 62.5947 67.6303 61.9222 63.188C61.5773 60.9136 62.8304 59.5608 64.1382 59.2659C65.5749 58.9414 67.3591 59.7268 68.3517 62.1276C69.4262 60.5939 72.064 56.5654 72.4139 53.5229C72.0243 53.1933 71.6868 52.8539 71.4188 52.5021C70.3444 51.0923 69.9548 49.9204 70.3518 49.2862C70.5354 48.9938 70.858 48.8625 71.2178 48.9343C71.9499 49.0805 72.8854 50.1236 73.208 52.0685C73.2651 52.4129 73.2824 52.7771 73.2626 53.1562C77.0394 56.0525 85.4615 57.985 85.5558 58.0073C85.7767 58.0569 85.9156 58.2774 85.866 58.4979C85.8164 58.7184 85.5955 58.8571 85.3747 58.8076C84.9901 58.7209 77.223 56.937 73.1534 54.0878C72.4462 58.0717 68.7364 63.0046 68.5527 63.2475C68.4584 63.3713 68.3046 63.4308 68.1532 63.4035C68.0018 63.3763 67.8778 63.2673 67.8331 63.1186C67.0787 60.6311 65.5204 59.7912 64.3168 60.0637C63.3367 60.2842 62.4657 61.2976 62.7312 63.0641C63.4309 67.6824 67.173 67.2389 67.3318 67.2166C67.441 67.2017 67.5527 67.2314 67.642 67.3008C67.7289 67.3702 67.7859 67.4693 67.7984 67.5808C67.8306 67.8756 68.5354 74.8823 65.6271 81.4157C65.5601 81.5693 65.4087 81.661 65.2524 81.661ZM71.0392 49.7371C70.9771 49.8808 70.9945 50.5894 72.0715 52.0041C72.1782 52.1428 72.2973 52.2816 72.4263 52.4178C72.4189 52.346 72.4089 52.2741 72.3965 52.2048C72.1782 50.8991 71.6719 50.1285 71.2699 49.8436C71.1558 49.7643 71.0764 49.742 71.0392 49.7371Z" fill="black"/>
<path d="M73.4163 86.1213C71.2673 86.1213 69.039 85.4301 67.024 84.0277C66.8379 83.8989 66.7932 83.6437 66.9223 83.4554C67.0513 83.2696 67.3069 83.225 67.493 83.3538C71.5403 86.1709 76.4983 85.8958 79.625 82.7072C79.2701 80.8093 78.955 78.9957 79.1932 76.7485C79.218 76.5231 79.4165 76.3595 79.6448 76.3843C79.8706 76.4091 80.0344 76.6098 80.0096 76.8352C79.7739 79.0428 80.1138 80.8514 80.4712 82.7641C80.496 82.893 80.4563 83.0243 80.3669 83.1184C78.5058 85.1104 76.0169 86.1213 73.4163 86.1213Z" fill="black"/>
<path d="M50.4456 84.1956C50.2099 84.1956 50.0709 84.1881 50.0486 84.1881C49.8451 84.1782 49.654 84.0246 49.6366 83.8215C49.6193 83.6233 49.7235 83.4473 49.9146 83.3953C50.0411 83.3136 51.1752 82.4365 51.87 77.563C52.1678 75.467 51.9816 71.5226 51.7806 67.3454C51.4283 59.9745 51.066 52.3509 52.8204 49.7965C53.8552 48.2901 55.1629 47.3833 56.7113 47.0984C59.5551 46.5756 62.1532 48.3446 62.2624 48.419C62.4485 48.5478 62.4957 48.803 62.3666 48.9888C62.2376 49.1746 61.982 49.2217 61.7959 49.0929C61.7711 49.0755 59.3566 47.4403 56.8553 47.9036C55.5326 48.1489 54.4036 48.9393 53.4978 50.2574C51.8973 52.5863 52.2869 60.7475 52.602 67.3033C52.803 71.5202 52.9941 75.5017 52.6839 77.677C52.2223 80.9103 51.5623 82.5356 51.0312 83.3532C53.1703 83.2541 58.3739 82.5827 60.5254 78.4525C63.2997 73.1306 62.5949 69.3795 62.5875 69.3423C62.5428 69.1194 62.6868 68.9038 62.9101 68.8592C63.1334 68.8146 63.3493 68.9583 63.394 69.1788C63.4262 69.3423 64.1732 73.2297 61.2549 78.8316C60.0192 81.2026 57.6841 82.88 54.5003 83.6827C52.7162 84.1361 51.1528 84.1956 50.4456 84.1956Z" fill="black"/>
<path d="M39.4459 99.7057C39.4459 99.7057 23.5396 123.793 34.0089 129.848C44.4808 135.904 53.7863 111.269 53.7863 111.269C58.6227 110.615 65.1093 106.257 63.9505 104.148C63.5931 103.499 62.7221 103.003 62.7221 103.003C62.7221 103.003 62.804 101.376 61.8809 100.548C60.7618 99.5422 60.263 99.7057 60.263 99.7057C60.263 99.7057 60.469 99.0566 59.9751 97.6642C59.4838 96.2718 57.3572 96.4972 57.3572 96.4972C57.3572 96.4972 58.9304 94.4309 55.98 94.1039C53.0295 93.7768 50.0988 99.7057 50.0988 99.7057L47.3643 106.197L35.2869 115.649" fill="white"/>
<path d="M37.3958 131.213C36.1724 131.213 34.9714 130.876 33.8051 130.2C32.0035 129.159 30.8348 127.542 30.3261 125.393C29.4104 121.519 30.6164 115.971 33.9068 108.91C36.3412 103.685 39.0782 99.5248 39.1055 99.4827C39.2296 99.2944 39.4827 99.2449 39.6688 99.3663C39.8574 99.4901 39.9071 99.7429 39.7855 99.9287C39.6788 100.092 29.0307 116.355 31.1201 125.208C31.5742 127.128 32.614 128.572 34.2145 129.496C35.9292 130.487 37.7283 130.661 39.5597 130.009C47.2225 127.281 53.3443 111.288 53.4038 111.127C53.456 110.989 53.5825 110.887 53.7289 110.867C57.6918 110.33 62.4885 107.337 63.4886 105.352C63.697 104.941 63.7318 104.601 63.5903 104.344C63.3422 103.893 62.7317 103.477 62.5158 103.355C62.3818 103.278 62.3024 103.135 62.3099 102.981C62.3099 102.969 62.3694 101.534 61.6051 100.848C60.7912 100.117 60.3967 100.097 60.347 100.1C60.213 100.129 60.0716 100.09 59.9723 99.9931C59.8631 99.8865 59.8234 99.728 59.8706 99.5818C59.8706 99.5818 60.0145 99.0045 59.5877 97.7979C59.2105 96.7276 57.4139 96.8986 57.3965 96.901C57.2328 96.9184 57.0789 96.8366 56.9995 96.6954C56.9201 96.5542 56.9325 96.3807 57.0293 96.2494C57.1658 96.0686 57.4859 95.5086 57.3171 95.1246C57.1782 94.805 56.6992 94.5919 55.93 94.5077C53.7364 94.2673 51.2375 98.3083 50.4583 99.8865L47.7337 106.356C47.7064 106.42 47.6642 106.474 47.6096 106.519L35.5322 115.971C35.356 116.11 35.1004 116.078 34.9615 115.902C34.8225 115.726 34.8548 115.471 35.0309 115.332L47.024 105.944L49.7188 99.5521C49.8528 99.2771 52.8157 93.3482 56.0193 93.7049C57.1137 93.8263 57.8035 94.198 58.0665 94.8124C58.2601 95.2633 58.1757 95.7316 58.0368 96.0958C58.8085 96.1528 59.9649 96.4278 60.357 97.5353C60.6522 98.3703 60.7143 98.9723 60.7093 99.3514C61.0443 99.4455 61.5232 99.6883 62.1511 100.256C62.9848 101.004 63.1114 102.26 63.1263 102.788C63.434 102.993 64.0097 103.425 64.305 103.962C64.4961 104.309 64.635 104.899 64.2157 105.726C63.0196 108.095 57.9673 111.028 54.0763 111.645C53.714 112.564 52.2475 116.164 50.0662 119.98C46.6592 125.944 43.2149 129.576 39.8301 130.782C39.0137 131.067 38.1998 131.213 37.3958 131.213Z" fill="black"/>
<path d="M46.3241 105.902C46.2744 105.902 46.2223 105.892 46.1727 105.872C45.9866 105.798 41.6068 104.016 39.098 99.9157C39.0161 99.7819 39.0186 99.6159 39.1029 99.4846C39.1451 99.4177 43.3364 92.8818 46.6814 89.4652C50.0761 85.9965 61.7167 83.0581 62.2105 82.9342C62.4289 82.8797 62.6497 83.011 62.7043 83.229C62.7589 83.4471 62.6274 83.6676 62.409 83.7221C62.2899 83.7518 50.5004 86.7274 47.2645 90.0325C44.319 93.0428 40.6812 98.553 39.9293 99.7076C42.3165 103.419 46.4332 105.099 46.4754 105.116C46.6839 105.2 46.7856 105.436 46.7012 105.644C46.6367 105.805 46.4854 105.902 46.3241 105.902Z" fill="black"/>
<path d="M70.5033 142.096C67.2823 142.096 63.6296 141.798 59.6046 141.005C59.3838 140.961 59.2398 140.748 59.2845 140.527C59.3292 140.307 59.5401 140.163 59.7634 140.208C69.0094 142.029 76.2653 141.199 80.722 140.183C84.8264 139.246 87.3773 137.985 88.0697 137.619C88.4022 129.958 88.5833 115.783 88.5858 115.64C88.5858 115.57 88.6057 115.503 88.6404 115.442C88.6702 115.39 91.6529 110.152 90.8167 106.961C88.1317 96.701 86.2458 93.6708 86.2284 93.6411C86.1068 93.4528 86.1639 93.2001 86.3525 93.0812C86.5411 92.9622 86.7942 93.0143 86.9133 93.2026C86.9927 93.324 88.8737 96.3219 91.6058 106.755C92.4693 110.06 89.8266 114.988 89.3998 115.754C89.3824 117.079 89.1988 130.607 88.8737 137.884C88.8687 138.02 88.7918 138.146 88.6727 138.216C88.561 138.28 85.886 139.836 80.9454 140.968C78.3448 141.563 74.8111 142.096 70.5033 142.096Z" fill="black"/>
<path d="M55.0139 138.272C54.9816 138.272 54.9469 138.267 54.9121 138.26C54.6938 138.205 54.5622 137.982 54.6168 137.767C56.6318 129.865 56.7633 123.436 56.5201 119.432C56.2546 115.094 55.5052 112.594 55.4978 112.569C55.4332 112.354 55.5524 112.128 55.7682 112.061C55.9817 111.997 56.2099 112.116 56.2769 112.331C56.3092 112.436 57.0586 114.926 57.3316 119.348C57.5822 123.414 57.4532 129.947 55.4084 137.967C55.3613 138.148 55.195 138.272 55.0139 138.272Z" fill="black"/>
<path d="M56.0166 140.147C56.0166 140.147 68.8359 154.862 94.8071 161.787C95.5888 159.138 92.6706 145.97 89.3082 139.778C89.3082 139.778 70.7516 146.257 56.0166 140.147Z" fill="#C8C8C8"/>
<path d="M166.11 155.989L164.753 161.393C160.762 176.269 208.92 156.472 208.92 156.472C208.92 156.472 190.423 162.094 168.84 154.53C167.673 154.121 166.41 154.795 166.11 155.989Z" fill="#C8C8C8"/>
<path d="M122.943 79.6256C122.824 79.6256 122.705 79.5736 122.625 79.472L117.861 73.5034C117.722 73.3275 117.749 73.0723 117.925 72.9311C118.102 72.7899 118.357 72.8196 118.499 72.9955L123.263 78.9641C123.402 79.14 123.375 79.3952 123.199 79.5364C123.122 79.5984 123.032 79.6256 122.943 79.6256Z" fill="black"/>
<path d="M130.399 77.2006C130.173 77.2006 129.992 77.0197 129.992 76.7943V67.5528C129.992 67.3273 130.173 67.1465 130.399 67.1465C130.625 67.1465 130.806 67.3273 130.806 67.5528V76.7943C130.806 77.0173 130.622 77.2006 130.399 77.2006Z" fill="black"/>
<path d="M138.169 78.3199C138.063 78.3199 137.959 78.2778 137.879 78.1961C137.723 78.035 137.725 77.7774 137.887 77.6213L143.323 72.3291C143.485 72.173 143.743 72.1755 143.899 72.3365C144.056 72.4976 144.053 72.7553 143.892 72.9113L138.455 78.2035C138.375 78.2828 138.271 78.3199 138.169 78.3199Z" fill="black"/>
</svg>
