<?xml version="1.0" encoding="utf-8"?>
<!-- Generator: Adobe Illustrator 19.0.0, SVG Export Plug-In . SVG Version: 6.00 Build 0)  -->
<svg version="1.1" id="Layer_1" xmlns="http://www.w3.org/2000/svg" xmlns:xlink="http://www.w3.org/1999/xlink" x="0px" y="0px"
	 viewBox="444 -104 1500 1000" style="enable-background:new 444 -104 1500 1000;" xml:space="preserve">
<style type="text/css">
	.st0{fill:#A7E92F;}
	.st1{fill:#FC64B0;}
	.st2{fill:#C8C8C8;}
	.st3{fill:#FFFFFF;}
</style>
<path class="st0" d="M1329.2,61.5c0,0,2.2-5.1,5-10.7c-3.9-2.1-8-4.1-12.3-5.9c3.9,6.4,5.3,22.3,5.3,22.3L1329.2,61.5z"/>
<path class="st1" d="M1072.3,61.2l0.9,5.9c0,0,8-27.8,14.8-22c3.3,2.8-2.7,26.1-2.9,30.6c-0.4,6-0.5,11.6-0.6,14.4
	c19-4.9,38-8.6,57.2-11c92.2-12,162.5,0.3,192.7,33.8c16.6,18.3,21.1,44,13.5,76.4c-1.1,4.9-2.7,10-4.7,15.4
	c4.5-1,10.5-1.9,17.9-2.2c12.9-0.5,27.3,3.6,33.5,5.7c0.7-2.5,1.3-5,1.9-7.4c14.4-61.4-5.7-99.9-25.1-121.4
	c-1.1-1.2-2.1-2.3-3.3-3.4c-7.4,7.4-17.3,15.5-17.3,15.5l-14.7,10.8c0,0-14.6-3.3-24.8-12.7c0,0,1.4-7.5,2.5-16.1
	c0.6-4.5-0.7-28.3,2.9-30.6c-12.9-5.2-27.1-9.3-42.7-12.3c-39.3-7.5-86-7.9-139-1c-22.8,3-45.4,7.4-67.8,13.4
	C1070.1,51.1,1072.3,61.2,1072.3,61.2z"/>
<path class="st0" d="M1343.2,55.9c-0.4,1.1-0.7,1.8-0.7,1.8s0.4-0.6,1.2-1.5C1343.5,56.1,1343.4,56,1343.2,55.9z"/>
<path class="st0" d="M1351.5,61.5c-0.2,0.3-0.4,0.5-0.4,0.5S1351.3,61.9,1351.5,61.5C1351.6,61.6,1351.6,61.6,1351.5,61.5z"/>
<path class="st1" d="M950.3,544.7c14.1-3.4,27.9-7.1,41.1-11.1l15.3-57.4c-17.1,5.9-35,11.3-53.8,16.2c4.2,8.5,9.8,22.3,8.5,32.5
	C959.9,536.5,954.6,542,950.3,544.7z"/>
<path class="st0" d="M1359.7,67.9c-1.3,1.3-2.1,2.2-2.1,2.2s1.1-0.7,2.8-1.6C1360.1,68.3,1359.9,68.1,1359.7,67.9z"/>
<path class="st1" d="M786.5,658c-25.1-20.8-44.3-44.8-57.3-71.4c-2.9-6-5.6-12.2-7.9-18.5c3.2,0.1,6.2,0.2,8.9,0.2
	c5.2,0.1,10.2,0.1,15.3,0.1c53.7,0,103.6-4.6,149.5-12.4c0.5-1.6,1-3.4,1.4-5.3c1.8-8.5,0.6-18.2,0.6-18.2s-12.5,5-18.6-7.5
	c-3.9-7.9,3-13,3-13s0.3-1.8,1.1-4.6c-46.3,7.6-96.7,11.7-151.4,10.9c-5.8-0.1-12.9-0.4-21.2-0.9c-0.5-5.6-0.9-11.2-1-16.9
	c-0.9-42.9,9.8-88.1,31.8-134.5c21.5-45.4,53.7-90.4,93.1-130.1c22.1-22.3,46.6-43.1,72.6-61.7c-0.7-5.1-0.8-10.8,0.5-16.1
	c2.8-11,13.5-22,31-22c10.4,0,17,3.8,19.6,5.6c5.2-2.9,10.4-5.8,15.7-8.5c27.2-14.2,55-25.9,83.2-34.9l-10.9-11.9
	c0,0-20.6-25-20-30.4c-25.5,9-50.7,20-75.5,32.9c-56.2,29.3-107.2,66.9-151.7,111.9c-90.6,91.6-141.4,201.2-139.3,300.9
	c0.1,3.1,0.2,6.2,0.3,9.3c-16.2-3.1-33.7-7.5-51.8-13.5c-50-16.8-88.4-41.7-114.2-73.9l-39,31.2c31.9,39.9,78.1,70.2,137.3,90.1
	c27,9.1,53,14.7,75.8,18.2c14,53.2,45.1,100,91.9,137.4c6.7,5.4,13.7,10.5,21,15.5C777.7,695.7,782.6,672.2,786.5,658z"/>
<path class="st0" d="M1050.7,57.5c0,0-2-3.9-4.2-8.6c-0.8,0.2-1.6,0.5-2.3,0.7C1047.7,53.7,1050.7,57.5,1050.7,57.5z"/>
<path class="st1" d="M1898.9,413.3c-39.4,52.5-88.2,101.4-145,145.2c-58.3,45-123.5,83.5-193.7,114.3
	c-152.2,66.8-321.3,94.4-488.8,79.8c-61.7-5.4-116.1-15.7-162.9-30.8c-12.1,8.2-37.2,23.5-63.6,29.3
	c60.6,26.5,134.9,43.8,222.1,51.4c30.6,2.7,61.3,4,91.8,4c145.3,0,289.3-29.9,421.4-87.8c73.9-32.5,142.6-73,204.1-120.5
	c60.3-46.6,112.3-98.6,154.4-154.7L1898.9,413.3z"/>
<path class="st1" d="M1323.2,328.2c-5.4-3-15.3-9.9-18.1-21.8c-2.2-9.2-1.9-23.2-1.2-33.7c-4.5,5.9-9.3,11.9-14.4,18
	c0,0,0.1,0.1,0.1,0.1c4.5,4.5-3.8,19.6-3.8,19.6s8,1.8,11,8.3c3,6.5-4.8,18.6-10.3,22.3c-5.5,3.7-13,5.1-13,5.1l0.6,31.9
	C1291.9,362,1308.4,345.3,1323.2,328.2z"/>
<path class="st0" d="M1060,55c0,0-0.9-4.5-1.8-9.6c-1,0.3-2,0.6-2.9,0.9C1058,50.9,1060,55,1060,55z"/>
<path class="st0" d="M1042.8,64.2c0,0-3.9-5.9-7.4-11.8c-2.3,0.8-4.7,1.6-7,2.4C1033.8,56,1042.8,64.2,1042.8,64.2z"/>
<path d="M1525,401.5c0,0,17-0.1,31.2,2.4s22.2,12.4,27.5,13.7c5.2,1.3,10-7.5,10-7.5l3.7-15.7l4.3,7.1c0,0-5.4,35.4-33.5,44.5
	c-28.1,9.1-49.9-5.4-50.8-18C1516.4,415.4,1525,401.5,1525,401.5z"/>
<path class="st2" d="M903.5,247.1c0,0,4.3,4.9,5.3,10.2s3.2,19.1,3.2,19.1s3.7-0.4,6.8,4.6c3.1,5,4.5,21.5,3.5,27.3s-2,6.9-2,6.9
	s0.2,28.9-11,41.7c-11.2,12.8-28.3,15.3-28.3,15.3s-7.8,46.9-0.8,49.7c7,2.8,23.2-1,31-0.7s33.9,4.5,38.2,3.3
	c4.2-1.2,8.2-114.6-0.8-147.9c-7-26-25.8-31.1-25.8-31.1s-1.1,1.8-2.5,2.5S903.5,247.1,903.5,247.1z"/>
<path class="st2" d="M874.9,255.4c0,0,8.7,0.3,13.1,7.3c4.4,7,5.6,15,5.6,15s-4.6,4-6.4,11.5c-1.8,7.5-1.6,24.5-1.6,24.5l-17.2,5.8
	c0,0-4.8,3.5-5.2,12.3c-0.3,8.8,0,15.8,3.7,20.6c3.7,4.8,9.2,8,9.2,8s-21.8,13.6-40.9,6.6c-14.1-5.2-15.5-16.9-12.2-28.7
	C826.3,326.5,848.1,272.9,874.9,255.4z"/>
<path class="st2" d="M971.7,244.4c0,0,3.1,9.1,2.6,17.7c-0.5,8.6-1.9,11.4-1.5,19.3c0.3,6.4,5.9,60.5,8,80.5c0.4,4.1,3.9,7.1,8,7
	c5.9-0.1,13.6,0,16.4,1.3c3.9,1.9,5.6,12.5,8.7,21c1.2,3.5,3.3,6.6,6,9c4.2,3.8,8.5,7.1,11.8,9.3c3,2.1,7,2.1,9.9-0.1
	c3.4-2.4,4.5-7,2.6-10.7c-3.6-7.4-9-20.2-10-33.4c-1.5-20.2,1.8-48.1,1.8-48.1s-14.5-47.4-35.9-60.1
	C978.6,244.6,971.7,244.4,971.7,244.4z"/>
<path class="st1" d="M1164.2,484.4c0.2-1.7,1.3-3.2,2.9-4c3-1.4,8.7-3.4,17.1-3.1c13.4,0.4,25,5.7,31.2,9.6c2.9,1.8,5.4,4,7.2,5.8
	c2.2,2.1,2.8,5.3,1.8,8.1c-2.3,6-6.2,16-7.1,15.3c-1.3-0.9-15.4-28.3-21.2-29s-4.6,5.9-4,8.7c0.8,3.4,6.4,14.5,6.4,14.5
	s-13.2-13.1-21.5-14.6c-8.3-1.5-6,4.1-5.1,7c0.9,2.9,6.9,11.2,6.9,11.2s-15.4-8.8-16.7-4.9c-2.1,6.2,13.4,17.1,13.4,17.1
	s-14.9-4.6-15.5,1c-0.6,5.6,13.8,13.2,17.5,18.6c3.6,5.4,20.7,28.1,20.7,28.1s1.7,9.5-4.2,10.6c-5.8,1.2-37.8-3.2-39.4-8
	C1153.1,572.2,1162.3,498.9,1164.2,484.4z"/>
<path class="st1" d="M1125.8,262.8c0,0,17.2,8.2,21.7,23.5c4.5,15.3,2.3,53.3,5.5,65.8c3.2,12.5,8.7,29.7,18.5,29.4
	s18.5-6.5,17.5-9.9s-12.8-9-13-19.5c-0.2-10.5,1.8-11.9,1.8-11.9s-17.2-21,0-40.3s35.7-11.2,35.7-11.2s8.5-15,28.6-15.7
	c20.1-0.8,23.2,10.5,23.2,10.5l8.6-0.5l-2-31.4c0,0,20.4-21.8,38.6-49.1s26.9-61.9,26.5-73.5c-0.4-11.6-2.4-14.9-2.4-14.9
	s-8.7,1.1-16.2-2.4c-7.5-3.5-11.9-7.4-11.9-7.4s-5.7,3.3-11.5,16.9c-5.7,13.6-15,28.2-27.7,46.1c-12.7,17.8-37.4,32.1-37.4,32.1
	s-18.8,19.3-40.8,14c-8.3-2-11.5-11.8-11.5-11.8s-36.7-5.4-59.4-40.4c-18-27.8-21.3-48.6-25-53c-3.7-4.4-10,5.2-19.1,6.1
	s-13.6-1.8-15.8-0.1c-6.4,4.9-3.4,31,12.3,67.4c15.6,36.3,51.3,58.9,51.3,58.9L1125.8,262.8z"/>
<path class="st1" d="M1413.7,163.9c-5.6-12.2,8.2-30.9,29.7-51.6c21.5-20.6,40.2-26.9,63.1-21.5c23,5.5,38.3,20.7,44.4,40.2
	c6,19.5,9.8,52.5-1.9,58.7s-51.2,10.2-58.7-8.5s11.3-38.3,11.3-38.3s-18.3-7.9-21.5-23.6c-3.2-15.7,8.4-21.2,8.4-21.2
	s-13.4-5.7-31.7,16s-27.5,35.7-24.8,49.8c2.8,14.1,5.7,17.3,5.7,17.3S1419.9,177.5,1413.7,163.9z"/>
<path class="st1" d="M1122.6,407.3c0,0-17.7,45.8-42,40.5c-18.6-4.1-12-30.8-7.9-43.1c0.7-2.2-1.6-4.2-3.6-3.1l-13.8,7.2
	c-5.1,12.6-8.5,24-8.5,24s8.6,10.3,13.6,18.8c5,8.5,29.9,53.9,29.9,53.9s16.6-35.1,26.4-45.1c9.7-10,21.7-19.4,21.7-19.4v-3.5
	c0,0,1.7-25.3,12.2-36.2L1122.6,407.3z"/>
<path class="st1" d="M1454.5,256.1c0,0,2.1-0.3,4.6,1.4c2.4,1.6,17.9,21.3,17.9,21.3s-7.2-23.1-4.5-23.8s9.9,7,14,15.4
	c4.1,8.4,7.1,14.2,7.1,14.2s1.6-9.5,8.1-16.6l-1.5-37.6c-0.1-2.7-2.1-4.9-4.8-5.3l-35.8-4.8c-3.4-0.5-6.4,2.3-6.3,5.7L1454.5,256.1z
	"/>
<path class="st1" d="M1372.4,533.2c0,0-2.5,115.1-10.7,141.1c-8.2,26-55.7,22.8-55.7,22.8s10.8-77,19.8-114.5
	c8.8-36.7,16.5-64.8,16.5-64.8l21.2-12.4C1363.5,505.4,1346.1,535.2,1372.4,533.2z"/>
<path class="st1" d="M1439.4,498.5c0,0-3.7,16.4-7.6,24.3c-5.3,10.7-12,15.3-12,15.3c-6.3,17-12.6,35.9-15.1,50
	c-6,33.4-11.7,82.5,7,99.8s61.2,11,61.2,11s-14-65.6-10-108.2c4-42.6,12.8-68.3,12.8-68.3S1456.9,505.4,1439.4,498.5z"/>
<path d="M1272.2,685.1c-0.2,0-0.4,0-0.6-0.1c-18.2-8.7-34.5-29.2-48.4-61c-9.3-21.4-14.4-40.9-15.3-44.5c-2-1.3-8.9-5.9-12.2-10
	c-1.9-2.4-4.2-5.7-6.7-9.2c-3.8-5.4-8-11.6-11.9-15.7c-2.8-3-6.2-5.7-9.1-8c-5.1-4.1-9.2-7.3-8.2-10.8c0.2-0.6,0.6-1.1,1.2-1.4
	c1.9-0.9,5.9,0.1,15.4,3.8c1.3,0.5,2.6,1.1,3.8,1.7c-1.4-1.3-2.8-2.6-4.3-4c-1.7-1.6-3.4-2.9-5.1-4.3c-3.8-3-6.8-5.4-7.9-8.5
	c-0.8-2.3-0.1-3.6,0.6-4.2c2.8-2.4,10.7,1.5,15.1,4c1,0.6,2.1,1.2,3.1,1.8c-1-1.2-2-2.5-2.9-3.6c-0.9-1-8.5-10.3-7.4-15.3
	c0.2-0.9,0.8-1.6,1.7-1.9c3.9-1.2,14.5,6.8,16.8,9c4.4,4,8.6,8.7,11.9,12.4c-1.4-3.7-3-7.5-3.9-9.1c-3.3-5.9-6.4-12.8-4.6-18.4
	c0.3-0.9,1-1.4,1.8-1.5c4.5-0.5,14.6,15.1,14.7,15.3c6.3,9.9,14.6,28.1,15.2,29.4c1.8,3.3,7.3,19.5,8.5,23
	c4.8,2.2,33.4,15.6,49.7,30.6c-1-20.3,0-66.2,0-66.6c0-0.8,0.7-1.5,1.5-1.5c0,0,0,0,0,0c0.8,0,1.5,0.7,1.5,1.5
	c0,0.5-1.1,51.9,0.2,69.7c6.3,6.7,9.8,13.5,7.3,19.7c-1.2,2.9-2.7,3.3-3.8,3.1c-1.3-0.2-4.7-0.7-6.4-21.6
	c-13.1-13.2-39.1-26.8-51.8-32.5c-0.4-0.2-0.7-0.5-0.8-0.9c-1.9-5.5-7.1-20.5-8.6-23.1c0,0,0-0.1,0-0.1c-0.1-0.2-8.7-19.2-15-29.1
	c-4.3-6.8-9.3-12.3-11.4-13.6c-1.1,5.1,2.8,12.1,4.6,15.2c2,3.7,7,17.3,7.2,17.9c0.3,0.7,0,1.5-0.7,1.8c-0.6,0.4-1.4,0.2-1.9-0.4
	c-0.1-0.1-8.5-10.9-17.3-18.9c-3.7-3.4-11.4-8.3-13.6-8.4c-0.1,2.3,2.8,7.5,6.8,12.4c2.6,3.1,5.3,6.6,7.6,9.7
	c0.1,0.2,0.2,0.3,0.4,0.5c1,0.7,1.9,1.3,2.7,1.9c5.8,4.2,6.9,6.1,6.6,7.5c-0.1,0.5-0.5,1.6-2.1,1.9c-1.9,0.3-4-2.1-9.3-9.1
	c-2.7-1.8-6-3.9-9.8-6c-6.6-3.7-10.7-4.6-11.6-4.3c0,0.1,0,0.4,0.2,0.9c0.8,2.3,3.6,4.5,6.9,7.1c1.6,1.3,3.4,2.7,5.3,4.4
	c7,6.3,12.8,12.3,12.9,12.4c0.5,0.6,0.6,1.4,0.1,2c-0.5,0.6-1.4,0.7-2,0.3c-0.1,0-6.6-4.6-13.6-7.3c-8.4-3.3-11.5-4-12.6-4
	c0,0,0,0,0,0c0.3,1.7,3.9,4.6,7.2,7.1c3.1,2.4,6.5,5.2,9.5,8.4c4,4.3,8.3,10.5,12.1,16.1c2.4,3.5,4.7,6.8,6.5,9.1
	c3.4,4.3,11.9,9.6,11.9,9.7c0.3,0.2,0.6,0.5,0.7,0.9c0.2,0.8,20.3,84.2,62.2,104.1c0.8,0.4,1.1,1.3,0.7,2
	C1273.3,684.8,1272.8,685.1,1272.2,685.1z M1287,592.5c1.2,11.3,2.9,14.2,3.4,14.8c0.2-0.2,0.4-0.5,0.6-1.1
	C1292.7,602.1,1290.9,597.4,1287,592.5z"/>
<path d="M1186.6,589.6c-2.5,0-5-0.2-7-0.3c-9.3-0.8-27.5-4.2-29.9-11.1c-2.3-6.3,9.1-87.9,10.4-97.2c0-0.3,0.2-0.5,0.3-0.8
	c0.4-0.4,9.1-10.6,36-5.3c26.7,5.3,33.8,20.2,34.1,20.9c0.2,0.4,0.2,0.8,0.1,1.1l-7.9,22.7c-0.3,0.8-1.1,1.2-1.9,0.9
	c-0.8-0.3-1.2-1.1-0.9-1.9l7.7-22.1c-1.5-2.5-9.3-14.2-31.7-18.7c-22.4-4.5-31.2,2.5-32.8,4c-4.9,34.8-12,91.1-10.5,95.3
	c1.4,3.8,13.6,7.9,27.3,9.1c10.7,1,15.7-0.4,16.3-1.5c0.2-0.4,0.2-0.7,0.1-0.9c-0.9-1.8-6.6-4.8-20-7c-9.4-1.6-19.6-0.8-19.7-0.8
	c-0.8,0.1-1.5-0.6-1.6-1.4c-0.1-0.8,0.6-1.6,1.4-1.6c0.4,0,10.7-0.8,20.4,0.8c9,1.5,20.1,4.2,22.2,8.7c0.6,1.2,0.5,2.5-0.2,3.7
	C1197.3,589,1191.9,589.6,1186.6,589.6z"/>
<path d="M1233.2,497.9c-0.1,0-0.3,0-0.4,0c-0.8-0.2-1.3-1-1-1.9l2.4-8.7c-0.9-2.3-7.1-15.4-32.9-22c-14.8-3.7-25.2-1.7-31.3,0.6
	c-5.5,2.1-8.6,4.9-9.5,5.8l-1.5,8.6c-0.1,0.8-0.9,1.4-1.7,1.2c-0.8-0.1-1.4-0.9-1.2-1.7l1.6-9c0-0.3,0.2-0.5,0.3-0.7
	c0.6-0.6,13.9-15.3,44.1-7.6c30.1,7.6,35,23.7,35.2,24.4c0.1,0.3,0.1,0.5,0,0.8l-2.5,9.1C1234.5,497.5,1233.9,497.9,1233.2,497.9z"
	/>
<path d="M1197.9,451.7c-2,0-3.7-1.3-4.4-3.3c-0.5-1.6-1.4-6.8,7.1-13.8c-2.3-13-11.5-24.1-11.7-24.2c-0.3-0.4-0.4-0.8-0.3-1.3
	l8.1-39c-6-0.4-13.1-4.9-16.6-10.8c-3.1-5.3-3-10.8,0.2-15.5c4.7-6.9,11.3-6.9,15.6-4.8c4.7,2.3,8.4,7.9,6.4,14
	c-0.3,0.8-1.1,1.2-1.9,1c-0.8-0.3-1.2-1.1-1-1.9c1.5-4.5-1.3-8.7-4.9-10.4c-3.3-1.6-8.2-1.5-11.8,3.8c-3.3,4.8-1.8,9.4-0.1,12.3
	c3.3,5.5,10.5,9.8,15.7,9.4c0.5-0.1,0.9,0.1,1.3,0.5c0.3,0.4,0.4,0.8,0.3,1.3l-8.3,40.1c1.1,1.4,4.2,5.5,6.9,11
	c2.2,4.3,3.7,8.5,4.6,12.6c0.5-0.4,1.1-0.7,1.7-1.1c21.3-13.9,55.2-23.4,55.6-23.5c0.8-0.2,1.6,0.2,1.8,1c0.2,0.8-0.3,1.6-1.1,1.8
	c-0.3,0.1-33.9,9.4-54.7,23.1c-1,0.7-1.9,1.3-2.7,1.9c0.4,3.3,0.4,6.6-0.1,9.6c-0.8,4.3-3.3,6.1-5.4,6.2
	C1198.1,451.6,1198,451.7,1197.9,451.7z M1201,438.1c-4.3,4-5.3,7.3-4.7,9.2c0.3,0.9,0.9,1.4,1.7,1.3c0.9-0.1,2.2-1.1,2.6-3.8
	C1201.1,442.6,1201.1,440.4,1201,438.1z"/>
<path d="M1243.1,410.9C1243.1,410.9,1243,410.9,1243.1,410.9c-17.5,0-28.4-12.7-28.8-13.3c-0.5-0.6-0.4-1.6,0.2-2.1
	c0.6-0.5,1.6-0.5,2.1,0.2c0.1,0.1,10.4,12.2,26.5,12.2c0,0,0,0,0,0c13,0,22.6-11.1,23.3-26.9c0.7-17.9,2.6-39.4,2.6-39.6
	c0.1-0.7,0.6-1.3,1.4-1.4c0.8-0.1,19.7-1.8,20.1-16.3c0.1-3.7-0.8-6.2-2.6-7.4c-3.4-2.2-9.6,0.1-11.7,1.1c-0.7,0.3-1.5,0.1-1.9-0.5
	c-0.4-0.6-0.3-1.4,0.2-1.9c3.4-3.1,11.9-12.6,10.5-18.5c-0.5-2.3-2.6-3.9-6.2-4.9c-6.1-1.7-11.8-1.8-16.4-1.1
	c-0.7,3.5-2.9,6.8-5.3,8.5c-2.5,1.8-5,2-7,0.8c-2-1.3-2.7-3.2-1.8-5.2c1.2-2.7,5.5-5.2,11.1-6.5c0.1,0,0.2,0,0.3-0.1
	c0-0.4-0.1-0.8-0.2-1.2c-0.8-3.3-4.1-5.5-9.7-6.3c-12.6-1.9-27.2,5.7-34.3,13.4c1.8,1.5,3.1,3.4,3.7,5.7c1.1,3.9-0.1,7.9-2.7,9.4
	c-1,0.5-3.6,1.5-6.6-1.9c-2.3-2.6-2.4-6.2-0.3-10.2c0.4-0.8,0.9-1.5,1.5-2.3c-2.2-1-5.4-1.7-9.8-1.5c-10.5,0.5-19.4,7-23.2,17.1
	c-3.9,10.4-1.4,21.6,6.5,29.3c0.6,0.6,0.6,1.5,0,2.1c-0.6,0.6-1.5,0.6-2.1,0c-8.8-8.5-11.6-21-7.3-32.5
	c4.2-11.2,14.1-18.5,25.9-19.1c4.7-0.2,8.8,0.5,11.9,2.1c8-8.9,24.1-16.6,37.3-14.6c8.6,1.3,11.4,5.4,12.1,8.6
	c0.1,0.5,0.2,0.9,0.2,1.4c5.5-0.8,11.4-0.3,17,1.3c4.7,1.3,7.5,3.7,8.3,7.1c1.3,5.6-3.5,12.5-7.2,17c2.8-0.6,6.2-0.6,8.8,1
	c2.8,1.8,4.2,5.2,4,10c-0.4,14.8-16.8,18.3-21.6,19c-0.4,4.8-1.9,22.9-2.5,38.3C1268.6,398.3,1257.6,410.9,1243.1,410.9z
	 M1213.5,296c-0.5,0.7-1,1.4-1.4,2.1c-1.5,2.9-1.6,5.1-0.1,6.8c0.7,0.7,1.9,1.8,2.9,1.3c1.2-0.7,2.1-3.2,1.3-5.9
	C1215.9,299.1,1215.2,297.5,1213.5,296z M1259.1,291.1c-4.5,1.2-7.5,3.1-8.2,4.6c-0.1,0.3-0.3,0.8,0.7,1.4c1.3,0.8,2.8-0.1,3.7-0.7
	C1256.9,295.3,1258.4,293.3,1259.1,291.1z"/>
<path d="M1253.4,374.6c-0.8,0-1.5-0.6-1.5-1.4c0-0.8,0.6-1.5,1.4-1.6c0.2,0,5.6-0.3,5.8-4.3c0.1-1.9-1.7-3.7-3.5-5.6
	c-2.5-2.6-5.3-5.5-4.5-9.7c1.5-7.3,12.8-9.5,13.3-9.5c0.8-0.2,1.6,0.4,1.8,1.2c0.2,0.8-0.4,1.6-1.2,1.8c-2.7,0.5-10,2.8-10.9,7.2
	c-0.6,2.7,1.4,4.7,3.7,7c2.2,2.3,4.5,4.6,4.3,7.8C1261.9,372.8,1256.3,374.5,1253.4,374.6C1253.4,374.6,1253.4,374.6,1253.4,374.6z"
	/>
<path d="M1250.9,384.9c-12.8,0-18.1-11.1-18.1-11.2c-0.3-0.8,0-1.6,0.7-2s1.6,0,2,0.7c0.2,0.4,4.8,10,16.4,9.4
	c0.8-0.1,1.5,0.6,1.6,1.4c0,0.8-0.6,1.5-1.4,1.6C1251.6,384.9,1251.3,384.9,1250.9,384.9z"/>
<path d="M1238,352.5c0.3-2-0.9-3.7-2.6-4c-1.7-0.2-3.3,1.2-3.5,3.1c-0.3,2,0.9,3.7,2.6,4C1236.2,355.8,1237.8,354.4,1238,352.5z"/>
<path d="M1263.9,356c0.3-2-0.9-3.7-2.6-4c-1.7-0.2-3.3,1.2-3.5,3.1c-0.3,2,0.9,3.7,2.6,4C1262.1,359.3,1263.6,357.9,1263.9,356z"/>
<path d="M1214.1,347.7c-1.5,0-2.9-0.2-4.2-0.7c-3.7-1.3-6.1-3.5-7-6.4c-1.8-6,3.4-13,3.6-13.3c0.5-0.7,1.4-0.8,2.1-0.3
	c0.7,0.5,0.8,1.4,0.3,2.1c0,0.1-4.5,6-3.1,10.6c0.6,2,2.3,3.5,5.1,4.4c5.7,2,14.3-2,20.9-7.6c-0.9-6.6,2.8-16.3,6.9-17.8
	c1.7-0.6,3.2,0.2,4.2,2c1.7,3.3,0.1,8.2-4.5,13.5c-1,1.1-2.1,2.3-3.2,3.3c0.1,0.4,0.3,0.8,0.5,1.1c0.9,1.5,2.3,2.1,4.4,2.1
	c13.4-0.4,24.9-15,25-15.2c0.5-0.6,1.4-0.8,2.1-0.3c0.7,0.5,0.8,1.4,0.3,2.1c-0.5,0.6-12.5,15.9-27.3,16.3c-3.4,0.1-6-1.4-7.4-4.1
	C1227,344.4,1220,347.7,1214.1,347.7z M1239.7,321.6c-0.1,0-1,0.4-2.2,2.3c-1.6,2.7-2.8,6.6-2.9,10c0.5-0.5,1-1,1.4-1.5
	c3.6-4.2,5.2-8.1,4.1-10.2C1240,321.8,1239.8,321.7,1239.7,321.6z"/>
<path d="M1224.6,461.4c-0.8,0-1.5-0.6-1.5-1.5c0-0.8,0.6-1.5,1.5-1.5c27.1-0.9,55.2-18.5,60-37.6c3-12-3.3-23-18.4-31.8
	c-0.7-0.4-1-1.3-0.5-2c0.4-0.7,1.3-1,2-0.5c20.6,12.1,22.1,25.8,19.8,35.1C1282.3,441.9,1253,460.5,1224.6,461.4
	C1224.6,461.4,1224.6,461.4,1224.6,461.4z"/>
<path d="M1177,452.5c-0.3,0-0.6-0.1-0.9-0.3c-0.3-0.2-26.5-20-17.8-45.7c8.6-25.6,37.4-28.1,37.7-28.2c0.8-0.1,1.6,0.5,1.6,1.4
	c0.1,0.8-0.5,1.6-1.4,1.6c-0.3,0-27.1,2.4-35.1,26.1c-8,23.6,16.5,42.1,16.8,42.3c0.7,0.5,0.8,1.4,0.3,2.1
	C1177.9,452.3,1177.5,452.5,1177,452.5z"/>
<path d="M1337.4,519c-0.6,0-1.2-0.4-1.4-1c-0.1-0.2-7.4-19.5-20.9-42.3c-13.3-22.7-37.9-37.2-38.1-37.3c-0.7-0.4-1-1.3-0.5-2.1
	c0.4-0.7,1.3-1,2.1-0.5c1,0.6,25.5,15.1,39.2,38.4c13.6,23.1,21,42.6,21.1,42.8c0.3,0.8-0.1,1.6-0.9,1.9
	C1337.8,519,1337.6,519,1337.4,519z"/>
<path d="M1075.7,539.6c-0.2,0-0.4,0-0.6-0.1c-0.8-0.3-1.1-1.2-0.8-2c0.9-2.1,21.8-52.8,38.7-74.9c17-22.3,45.2-35.1,46.4-35.6
	c0.8-0.3,1.6,0,2,0.8c0.3,0.8,0,1.6-0.8,2c-0.3,0.1-28.7,13.1-45.2,34.7c-16.7,21.8-38.1,73.7-38.3,74.2
	C1076.9,539.2,1076.3,539.6,1075.7,539.6z"/>
<path d="M1107.2,680.8c-0.3,0-0.5-0.1-0.8-0.2c-0.4-0.3-11-6.7-11.8-36.2c-0.7-26.8,32.3-136,33.7-140.6c0.2-0.8,1.1-1.2,1.9-1
	s1.2,1.1,1,1.9c-0.3,1.1-34.3,113.3-33.5,139.7c0.4,14.4,3.2,22.8,5.5,27.3c2.4,4.8,4.8,6.3,4.8,6.3c0.7,0.4,0.9,1.3,0.5,2
	C1108.2,680.5,1107.7,680.8,1107.2,680.8z"/>
<path class="st2" d="M1108.1,681.5l-12.3,63.4c0,0,33.6,6.9,74,4.5s80.4-9.4,93.1-26.3c6.1-8.1,8-36.9,8-36.9s-35.4-14.8-98.8-13.3
	C1132.6,673.8,1108.1,681.5,1108.1,681.5z"/>
<path d="M1210.2,580c-0.7,0-1.1,0-1.2,0c-0.8-0.1-1.4-0.9-1.3-1.7c0.1-0.8,0.9-1.4,1.7-1.3c0.7,0.1,17.1,1.7,21.6-22.3
	c0.2-0.8,0.9-1.3,1.8-1.2c0.8,0.2,1.4,0.9,1.2,1.8C1229.6,578.3,1214.5,580,1210.2,580z"/>
<path d="M1221.3,595.8c-4.7,0-8.3-1.4-8.6-1.5c-0.8-0.3-1.1-1.2-0.8-2c0.3-0.8,1.2-1.2,1.9-0.8c0.1,0,8.8,3.4,16.3-0.9
	c5.7-3.3,9.3-10,10.9-20c0.1-0.8,0.9-1.4,1.7-1.3c0.8,0.1,1.4,0.9,1.3,1.7c-1.7,11-5.9,18.4-12.4,22.1
	C1228.1,595.2,1224.4,595.8,1221.3,595.8z"/>
<path d="M1384.9,494.1c-1.9,0-4-0.1-6.3-0.4c-11.2-1.3-19.6-6.3-24.5-14.4c-10.3-17.1,9.2-56.4,10-58.1c0.4-0.7,1.3-1,2-0.7
	s1,1.3,0.7,2c-0.2,0.4-19.6,39.5-10.1,55.2c10.6,17.7,36.5,12.7,36.7,12.7c0.8-0.2,1.6,0.4,1.8,1.2c0.2,0.8-0.4,1.6-1.2,1.8
	C1393.8,493.4,1390.1,494.1,1384.9,494.1z"/>
<path d="M1391.6,515.2c-3.5,0-6.3-1.2-8.5-3.5c-6-6.3-4.8-19.1-4.8-19.6c0.1-0.8,0.8-1.4,1.6-1.3c0.8,0.1,1.4,0.8,1.3,1.6
	c0,0.1-1.1,11.9,4,17.3c1.8,1.9,4.1,2.7,7,2.5c21-1,31.5-27.7,32.6-30.7l-1-13.4c0-0.5,0.2-1,0.5-1.3c0.4-0.3,0.9-0.4,1.3-0.3
	c10.1,2.8,18.5-1.4,22.5-6.7c2.9-3.9,3.3-8.2,1.2-11.4c-1.9-2.9-4-4.4-6.5-4.5c-6.7-0.3-13.9,9-14,9.1c-0.4,0.5-1.1,0.7-1.8,0.5
	c-0.4-0.2-10.1-4.5-5.6-23.3c0.2-0.8,1-1.3,1.8-1.1s1.3,1,1.1,1.8c-3.1,12.8,1,17.7,3,19.2c2.3-2.7,8.8-9.5,15.6-9.3
	c3.5,0.1,6.5,2.1,8.9,5.8c2.8,4.3,2.2,10-1.3,14.8c-4.3,5.8-13.1,10.4-23.6,8.3l0.9,11.7c0,0.2,0,0.4-0.1,0.6
	c-0.1,0.3-2.8,8-8.4,15.9c-7.6,10.7-16.9,16.6-27,17.1C1392.1,515.2,1391.8,515.2,1391.6,515.2z"/>
<path d="M1274.5,728c-0.6,0-1.2-0.4-1.4-1c-4.7-12.6,27.6-154.3,44.7-184.4c17.5-30.9,55.9-44,57.5-44.5c0.7-0.2,1.5,0.1,1.8,0.7
	c0.3,0.7,0.1,1.5-0.5,1.9c-0.2,0.1-18.8,13.7-12.6,25.3c0.9,1.6,2.1,2.6,3.8,2.9c6.4,1.3,17.4-6.5,21.2-9.6c0.4-0.3,0.9-0.4,1.4-0.3
	c0.5,0.2,0.9,0.5,1,1c0.2,0.8,5.5,18.9,18.1,15.3c20.8-5.8,24.8-42.9,24.9-43.3c0.1-0.5,0.3-0.9,0.7-1.1c0.4-0.3,0.9-0.3,1.3-0.2
	c0.4,0.1,35,12.7,59.5,46.9c10.3,14.4,19.5,42.4,27.5,83.4c5.9,30.4,8.9,57,9,57.2c0.1,0.8-0.5,1.6-1.3,1.7
	c-0.8,0.1-1.6-0.5-1.7-1.3c-0.1-1-12-105.7-35.9-139.2c-20.8-29.1-49-42.2-56.3-45.2c-0.5,3.4-1.8,10.6-4.6,18.4
	c-5.1,14-12.8,22.9-22.2,25.5c-11.3,3.2-18.4-7.7-21.1-15.3c-4.1,3.1-14.6,10.3-21.9,8.9c-2.6-0.5-4.6-2-5.9-4.5
	c-4.6-8.6,1.4-17.5,6.8-23.2c-12.3,5.6-35.6,18.4-47.7,39.9c-17.8,31.3-48.3,171.8-44.5,181.9c0.3,0.8-0.1,1.6-0.9,1.9
	C1274.8,728,1274.7,728,1274.5,728z"/>
<path d="M918.2,187c0,0,31.7-49.7,57.2-45.7c28.4,4.4-4.5,34.5-4.5,34.5s-3.7-6.3-20.1-3.8C934.3,174.4,918.2,187,918.2,187z"/>
<path d="M1426.9,431.9c-8.3,0-16.3-2.3-22.5-6.8c-7-5-11-12.1-11.1-19.9c-0.2-14.2,15.7-16.9,15.8-16.9c0.8-0.1,1.6,0.4,1.7,1.3
	c0.1,0.8-0.4,1.6-1.3,1.7c0,0-3.5,0.6-6.9,2.6c-4.3,2.6-6.5,6.4-6.4,11.3c0.1,6.8,3.6,13.1,9.8,17.5c9,6.4,21.8,8.1,33.4,4.3
	c0.8-0.3,1.6,0.2,1.9,1c0.3,0.8-0.2,1.6-1,1.9C1435.9,431.2,1431.4,431.9,1426.9,431.9z"/>
<path d="M1450.6,449c-0.3,0-0.7-0.1-1-0.4c-0.6-0.5-0.7-1.5-0.1-2.1c0.1-0.1,5.7-6.6,8.9-16.2c4.3-12.7,2.6-24.4-5.1-34.8
	c-12.2-16.5-39.6-27.8-66.5-16.2c-25,10.7-22.6,30.4-22.6,30.6c0.1,0.8-0.5,1.6-1.3,1.7c-0.8,0.1-1.6-0.5-1.7-1.3
	c0-0.2-0.7-5.7,2-12.6c2.5-6.3,8.4-15.1,22.4-21.2c28.3-12.2,57.3-0.2,70.1,17.2c19.9,26.9-3.7,54.5-4,54.8
	C1451.5,448.9,1451.1,449,1450.6,449z"/>
<path d="M1457.9,399.4c-0.8,0-1.4-0.6-1.5-1.4c0-0.8,0.6-1.5,1.4-1.6c9.7-0.6,16.2-4.2,18.9-10.4c3.1-7.2,0.7-17.5-6.1-25.6
	c-6.8-8.2-16.1-11.9-24.8-10c-18,4.1-13.8,23.5-13.6,24.4c0.2,0.8-0.3,1.6-1.1,1.8c-0.8,0.2-1.6-0.3-1.8-1.1
	c-0.1-0.4-2.4-10.9,2.8-19.2c2.8-4.4,7.2-7.4,13.1-8.7c9.9-2.2,20.2,1.9,27.8,11c7.4,9,10,20.5,6.5,28.7
	c-2.2,5.1-7.7,11.3-21.5,12.2C1458,399.4,1458,399.4,1457.9,399.4z"/>
<path d="M1364.1,444.6c-9,0-16.2-7.8-16.2-17.4s7.3-17.4,16.2-17.4s16.2,7.8,16.2,17.4S1373.1,444.6,1364.1,444.6z M1364.1,412.9
	c-7.3,0-13.2,6.5-13.2,14.4s5.9,14.4,13.2,14.4s13.2-6.5,13.2-14.4S1371.4,412.9,1364.1,412.9z"/>
<path d="M1401.1,458c-9.6,0-17.4-7.8-17.4-17.4c0-9.6,7.8-17.4,17.4-17.4c9.6,0,17.4,7.8,17.4,17.4
	C1418.4,450.2,1410.7,458,1401.1,458z M1401.1,426.2c-7.9,0-14.4,6.5-14.4,14.4s6.5,14.4,14.4,14.4c7.9,0,14.4-6.5,14.4-14.4
	S1409,426.2,1401.1,426.2z"/>
<path d="M1371.2,453.6c-0.4,0-0.7-0.1-1-0.4c-0.1-0.1-3.5-3.2-3.2-8c0.3-3.8,3.1-5.4,5.4-6.7c1-0.6,2-1.1,2.6-1.8
	c0.5-0.6,1.5-0.7,2.1-0.1c0.6,0.5,0.7,1.5,0.1,2.1c-0.9,1-2.2,1.7-3.4,2.4c-2.3,1.3-3.8,2.2-3.9,4.3c-0.3,3.2,2.2,5.5,2.2,5.5
	c0.6,0.6,0.7,1.5,0.1,2.1C1372,453.5,1371.6,453.6,1371.2,453.6z"/>
<path d="M1374.2,472c-6,0-8.6-6.3-8.7-6.5c-0.3-0.8,0.1-1.6,0.8-1.9c0.8-0.3,1.6,0.1,1.9,0.9c0.1,0.2,1.9,4.6,5.9,4.6c0,0,0,0,0.1,0
	c5.9-0.1,9.6-4.4,11.6-7.7c-2.8,0.9-6.7,1.9-10.9,1.6c-7.5-0.5-10.4-3.1-10.7-3.4c-0.6-0.6-0.6-1.5-0.1-2.1c0.6-0.6,1.5-0.6,2.1-0.1
	c0.1,0.1,2.5,2.2,8.9,2.6c6.6,0.5,13-2.8,13-2.8c0.6-0.3,1.2-0.2,1.7,0.2c0.5,0.4,0.6,1,0.4,1.6
	C1390.2,459.5,1385.8,471.9,1374.2,472C1374.3,472,1374.3,472,1374.2,472z"/>
<path d="M1373.2,432.9c1-2,0.4-4.4-1.3-5.2c-1.7-0.9-3.9,0.1-5,2.1c-1,2-0.4,4.4,1.3,5.2C1369.9,435.9,1372.2,435,1373.2,432.9z"/>
<path d="M1399.9,440.5c1-2,0.4-4.4-1.3-5.2c-1.7-0.9-3.9,0.1-5,2.1c-1,2-0.4,4.4,1.3,5.2C1396.7,443.5,1398.9,442.6,1399.9,440.5z"
	/>
<path d="M1370,410.9c-0.3,0-0.6-0.1-0.8-0.3c-0.7-0.5-0.9-1.4-0.4-2.1c0.5-0.7,12.2-17.7,31.6-16.4c0.8,0.1,1.5,0.8,1.4,1.6
	c-0.1,0.8-0.8,1.5-1.6,1.4c-17.7-1.2-28.8,14.9-28.9,15.1C1371,410.6,1370.5,410.9,1370,410.9z"/>
<path d="M1386.2,436.5c-0.6,0-1.1-0.3-1.4-0.9c-0.8-1.6-1.6-2.6-2.6-2.8c-1.3-0.3-2.9,0.9-3.4,1.3c-0.6,0.6-1.5,0.5-2.1,0
	c-0.6-0.6-0.6-1.5,0-2.1c0.3-0.3,2.9-2.7,6-2.1c2,0.4,3.6,1.9,4.8,4.5c0.3,0.8,0,1.6-0.8,2C1386.6,436.4,1386.4,436.5,1386.2,436.5z
	"/>
<path d="M1077.8,379c-1.6,0-3-0.1-4.3-0.3c-7.3-1.1-13.9-5.2-18.1-11c-8.7-12.3-11-49.6-11.1-51.2c-0.1-0.8,0.6-1.5,1.4-1.6
	c0.8,0,1.5,0.6,1.6,1.4c0,0.4,2.4,38,10.6,49.7c3.7,5.2,9.6,8.8,16.1,9.8c5.2,0.8,13.1,0.3,21.8-6.3c0.7-0.5,1.6-0.4,2.1,0.3
	c0.5,0.7,0.4,1.6-0.3,2.1C1090.3,377.5,1083.3,379,1077.8,379z"/>
<path d="M1071.3,348.7C1071.3,348.7,1071.2,348.7,1071.3,348.7c-0.4,0-7.4-0.5-8.9-5.8c-0.7-2.6,0.1-5.5,1-8.3
	c1.2-4,2.3-7.8-0.5-11.2c-3.4-4.1-12.2-1.5-12.3-1.4c-0.8,0.2-1.6-0.2-1.9-1s0.2-1.6,1-1.9c0.4-0.1,10.8-3.3,15.5,2.4
	c3.8,4.6,2.3,9.8,1.1,13.9c-0.7,2.5-1.4,4.9-0.9,6.7c0.9,3.2,6,3.5,6,3.5c0.8,0,1.5,0.8,1.4,1.6
	C1072.7,348.1,1072.1,348.7,1071.3,348.7z"/>
<path d="M1082.7,330.7c1.5-0.5,2.2-2.4,1.6-4.2c-0.6-1.7-2.4-2.7-3.9-2.2c-1.5,0.5-2.2,2.4-1.6,4.2
	C1079.5,330.3,1081.2,331.2,1082.7,330.7z"/>
<path d="M1058.3,334c1.5-0.5,2.2-2.4,1.6-4.2c-0.6-1.7-2.4-2.7-3.9-2.2c-1.5,0.5-2.2,2.4-1.6,4.2
	C1055,333.6,1056.8,334.6,1058.3,334z"/>
<path d="M1089.3,320.5c-0.3,0-0.7-0.1-0.9-0.3c-6.3-5.1-13.6-1.8-13.9-1.7c-0.8,0.3-1.6,0-2-0.7c-0.3-0.8,0-1.6,0.7-2
	c0.4-0.2,9.3-4.2,17.1,2.1c0.7,0.5,0.8,1.5,0.2,2.1C1090.2,320.3,1089.8,320.5,1089.3,320.5z"/>
<path d="M1072.7,359.4c-2.6,0-4.2-1-4.3-1c-0.7-0.4-0.9-1.4-0.5-2.1c0.4-0.7,1.4-0.9,2.1-0.5c0.1,0.1,2.7,1.5,6.8-0.4
	c5.3-2.4,5.5-5.9,5.5-6c0.1-0.8,0.8-1.5,1.6-1.4c0.8,0,1.5,0.7,1.4,1.5c0,0.2-0.2,5.5-7.3,8.6C1076,359.1,1074.2,359.4,1072.7,359.4
	z"/>
<path d="M1057.6,407.9c-0.3,0-0.6-0.1-0.9-0.3c-0.4-0.3-8.8-6.6-15.4-22.5c-10.9-26.4-8-58.2-3.6-80.3c5.4-27.5,28.1-46.6,55.2-46.6
	c0.1,0,0.3,0,0.4,0c33.6,0.2,49.4,25.6,52.7,47.2c0.8,5.5,0.9,12.5,0.9,19.9c0.2,22.8,0.3,51.1,21.8,67.2c0.7,0.5,0.8,1.4,0.3,2.1
	c-0.5,0.7-1.4,0.8-2.1,0.3c-22.6-17-22.8-46.1-23-69.6c0-7.3-0.1-14.2-0.9-19.4c-3.1-20.5-18.1-44.4-49.7-44.6c-0.1,0-0.2,0-0.4,0
	c-25.7,0-47.1,18.1-52.3,44.2c-4.3,21.6-7.1,52.7,3.4,78.3c6.3,15.3,14.4,21.4,14.5,21.5c0.7,0.5,0.8,1.4,0.3,2.1
	C1058.5,407.7,1058,407.9,1057.6,407.9z"/>
<path d="M1122.6,408.8c-4.3,0-8.4-0.6-11.9-2.2c-4.7-2.1-8-5.7-9.6-10.6c-3.4-10.4-2.2-23,3.3-36.6c4.2-10.2,9.3-17.2,9.5-17.5
	c0.3-0.4,0.8-0.6,1.3-0.6c0.6,0,14.3,0.2,15-16.9c0.3-6.5-3.3-9.9-6.9-10.3c-4.5-0.5-9.8,3.1-11.6,12.5c-0.1,0.6-0.5,1-1,1.2
	c-0.5,0.2-1.1,0-1.5-0.4c-0.8-0.8-16.2-17.3-20.3-31.5c-13.7,12-41.1,21.5-42.5,22c-0.8,0.3-1.6-0.1-1.9-0.9
	c-0.3-0.8,0.2-1.6,0.9-1.9c0.3-0.1,30.1-10.5,42.7-22.5c-0.2-1.4-0.3-2.7-0.2-4c0.4-7.2,3.4-11.4,6-12.2c1.3-0.4,2.5-0.1,3.3,0.9
	c1.7,2.1,0.7,6.6-2.6,12.1c-0.8,1.4-1.9,2.8-3.2,4.1c2.5,10.9,13.6,24.5,18.1,29.7c2.7-9.1,8.8-12.7,14.2-12.1
	c4.9,0.6,9.9,5,9.6,13.4c-0.7,17.5-13.8,19.5-17.3,19.8c-2.8,4.1-19,29.2-12,50.8c1.4,4.2,4,7.1,7.9,8.8c15.3,6.7,44.7-6.5,45-6.7
	c0.8-0.4,1.6,0,2,0.7s0,1.6-0.7,2C1157.1,400.4,1138.5,408.8,1122.6,408.8z M1094.8,279.1c-0.1,0-0.4,0.1-0.8,0.5
	c-1.3,1.2-2.9,4.2-3.2,9c0,0.3,0,0.5,0,0.8c0.4-0.5,0.8-1.1,1.1-1.6C1095.3,282.2,1095.1,279.6,1094.8,279.1z"/>
<path d="M1095.9,409.7c-1.3,0-2.6-0.1-4.1-0.4c-7-1.4-10.8-8.2-11-8.5c-0.1-0.2-0.2-0.4-0.2-0.6l-1.5-22.7c0-0.8,0.6-1.5,1.4-1.6
	c0.8-0.1,1.5,0.6,1.6,1.4l1.5,22.3c0.7,1.2,3.8,5.8,8.8,6.8c8.7,1.7,13.5-3.4,13.7-3.6c0.6-0.6,1.5-0.6,2.1-0.1
	c0.6,0.6,0.6,1.5,0.1,2.1C1108.2,405,1103.8,409.7,1095.9,409.7z"/>
<path class="st1" d="M967.1,371.6H999c2.9,0,5.5,1.8,6.5,4.5l7.5,20.7c-4-2.3-9-4.4-11.8-3.5c-5.2,1.7,17.4,25.2,17.4,25.2
	s-30.3-9.6-33.6-5.7c-3.2,3.9,10.4,8.9,10.4,8.9s-11.6-1-12.2,2.3c-0.6,3.3,17.7,11.7,17.7,11.7s-10.8,0.8-10.7,4.5
	c0.1,2.4,6.3,5.6,10.8,7.6h-9c-2.3,0-4.7-0.8-5.6-2.9l-14.2-38.2l-10.2-28C960.9,375.2,963.4,371.6,967.1,371.6z"/>
<path d="M1057.3,543.1c-0.5,0-1-0.2-1.2-0.7c-9.4-13.7-16.4-44-18.2-54.5c-1.6-8.7-2.5-14.9-3-19.2c-2.1,0.7-4.6,0.7-7.2,0
	c-9.6-2.9-14.5-12.5-15.6-15.2c-1.8-0.6-7.2-2.4-12.6-4.5c-13-5.1-14-7.4-13.8-9c0.1-1.2,1.1-2.1,2.8-2.6c1.3-0.4,3.3-0.6,5.6-0.7
	c-1.9-1.2-3.7-2.4-5.2-3.6c-4.3-3.3-6-5.8-5.1-7.9c0.6-1.4,2.3-2.2,5.3-2.4c0.4,0,0.9,0,1.3,0c-4-2.9-7.3-6-6.5-7.9
	c0.5-1.2,1.5-3.8,28.3,2.5c-1.4-1.3-2.9-2.7-4.4-4.3c-6.3-6.4-9.3-11.1-9-14.4c0.1-1.5,0.9-2.7,2.2-3.5c9.8-5.8,49.7,38.8,54.7,45.9
	c7.1,10.2,28,48.3,28.9,49.9c0.4,0.7,0.1,1.6-0.6,2c-0.7,0.4-1.6,0.1-2-0.6c-0.2-0.4-21.7-39.5-28.8-49.6c-3.6-5.1-14.8-17.6-26-28
	c-20.1-18.9-24.3-17.2-24.7-17c-0.5,0.3-0.7,0.6-0.8,1.2c-0.3,4.3,10.3,14.7,17,20.2c0.5,0.4,0.7,1.2,0.4,1.8
	c-0.3,0.6-1,0.9-1.7,0.8c-12.1-3-26-5.8-30.2-5.5c1.3,1.5,4.9,4.3,9.1,7c8.1,1.1,18,4,19.8,7c0.5,0.9,0.5,1.9-0.1,2.7
	c-1,1.5-3.5,2.6-13.5-2.6c-0.1,0-3.4-1.8-7.2-4.3c-6-0.8-8.3-0.1-8.7,0.2c0.1,0.5,1.2,2.2,5.1,5.1c2.7,2,5.7,3.8,8.6,5.3
	c5.8,0.4,11.6,1.5,13,3.2c0.6,0.8,0.7,1.7,0.2,2.5c-0.5,0.9-1.8,3.2-12.9-2.2c-0.4-0.2-0.8-0.4-1.2-0.6c-0.7,0-1.3-0.1-2-0.1
	c-4.7-0.1-7.5,0.3-8.5,0.8c1.8,1.9,11.2,6.2,24.7,10.5c0.4,0.1,0.8,0.5,0.9,0.9c0,0.1,4.4,11.3,14,14.1c2.7,0.8,4.7,0.5,6.1-0.2
	c-0.4-5.8,0.2-7.3,1-8.1c0.9-1,2.1-0.7,2.6-0.7c1.3,0.2,2.2,1.1,2.7,2.4c0.7,2.2-0.2,5.1-2.3,7.2c-0.3,0.3-0.5,0.5-0.8,0.8
	c0.4,4.2,1.3,10.5,3.1,20.3c2.6,14.4,9.7,41.5,17.8,53.3c0.5,0.7,0.3,1.6-0.4,2.1C1057.9,543,1057.6,543.1,1057.3,543.1z
	 M1037.7,459.9c-0.2,0.4-0.3,1.3-0.3,3.1c0.6-1.1,0.8-2.2,0.6-2.8C1037.9,459.9,1037.8,459.9,1037.7,459.9z M1004.2,427.9
	c1.5,0.8,3,1.5,4.3,2c2.4,1,3.7,1.3,4.4,1.3C1011.7,430.3,1008.4,429,1004.2,427.9z"/>
<path d="M985.1,580.8c-0.1,0-0.3,0-0.4,0c-0.8-0.2-1.3-1-1-1.8c15.2-54.9,31.4-115.2,31.5-115.8c0.2-0.8,1-1.3,1.8-1.1
	c0.8,0.2,1.3,1,1.1,1.8c-0.2,0.6-16.4,60.9-31.5,115.8C986.3,580.4,985.7,580.8,985.1,580.8z"/>
<path d="M1440.3,491.1c-0.3,0-0.6-0.1-0.9-0.3c-0.6-0.5-0.7-1.4-0.2-2c0.6-0.7,15.1-18.2,39.9-28c21-8.3,40.8-8.9,45.1-8.9l5-9.4
	c0.4-0.7,1.2-0.9,1.9-0.6c0.7,0.4,0.9,1.2,0.6,1.9l-5.4,10.2c-0.2,0.5-0.7,0.8-1.2,0.8c0,0,0,0-0.5,0c-3.3,0-23.2,0.4-44.4,8.7
	c-24.2,9.5-38.7,27-38.8,27.2C1441.1,491,1440.7,491.1,1440.3,491.1z"/>
<path d="M1629.3,618.7c-0.1,0-0.2,0-0.2,0c-0.8-0.1-1.3-0.8-1.2-1.6c5.7-35.8,7.7-72.5,7.7-72.9c0-0.6,0.4-1.1,0.9-1.3
	c0.4-0.1,36.1-12.7,69.9-45.5c38.7-37.5,47.9-76.6,44-98.6c-1.1-6-17.8-17.9-24.4-18.4c-13.4-1.1-28.4,15.1-44.3,32.2
	c-6.3,6.8-12.8,13.8-19.3,19.8c-43,39.5-78.7,33-80.2,32.7c-0.8-0.2-1.3-0.9-1.1-1.7s0.9-1.3,1.7-1.1c0.4,0.1,36,6.5,77.8-32
	c6.4-5.9,12.9-12.9,19.1-19.6c16.4-17.6,31.8-34.3,46.6-33.1c7.9,0.6,25.6,13.4,26.9,20.7c4,22.7-5.3,62.9-44.8,101.1
	c-31.3,30.3-64.2,43.6-70,45.8c-0.4,6-2.5,39.5-7.7,72.2C1630.6,618.3,1630,618.7,1629.3,618.7z"/>
<path d="M1473.4,706.7c-0.6,0-1.2-0.4-1.4-1c-0.2-0.5-4.5-13.9-9.7-53c-3.2-23.7-3-41.5-2.3-52.3c0.8-11.8,2.3-17.9,2.3-18.1
	c0.2-0.8,1-1.3,1.8-1.1c0.8,0.2,1.3,1,1.1,1.8c-0.1,0.2-5.9,24.6,0,69.3c5.2,38.7,9.5,52.3,9.6,52.5c0.3,0.8-0.2,1.6-1,1.9
	C1473.7,706.6,1473.5,706.7,1473.4,706.7z"/>
<path d="M1552.7,450c-7.8,0-15.6-1.9-22.9-5.6c-21.3-10.8-12.8-28.8-8.2-38.5c0.9-1.9,1.7-3.6,2.1-4.9c2.9-8.5,17.7-39.7,18.3-41
	c0.3-0.7,1.2-1,1.9-0.7c0.7,0.3,1,1.2,0.7,1.9c-0.2,0.3-15.3,32.3-18.2,40.7c-0.5,1.5-1.3,3.2-2.3,5.2c-4.7,10-11.9,25.2,7,34.8
	c11.5,5.8,24.4,6.9,36.1,2.9c10.7-3.6,19.2-11,23.9-20.7c0.3-0.6,0.9-0.9,1.5-0.8c13.5,2.6,20.1-3.3,22.8-7c3.8-5.2,4-11.2,2.3-14.2
	c-3.6-6.4-16.9,0.5-17.1,0.6c-0.7,0.4-1.5,0.1-1.9-0.6c-0.1-0.2-3.2-5.9-1.8-15.3c0.4-2.6,0.8-4.9,1.1-7c1.8-10.8,2-13.5-1.9-15.6
	c-3.8-2.1-9.1-1.6-15.3-1.1c-10.8,0.9-24.3,2-34.8-11.3c-0.5-0.6-0.4-1.5,0.2-2c0.6-0.5,1.5-0.4,2,0.2c9.6,12,21.7,11.1,32.4,10.2
	c6.4-0.5,12.4-1,16.9,1.5c5.8,3.2,5,8,3.3,18.5c-0.3,2.1-0.7,4.4-1.1,7c-0.9,6,0.3,10.3,1,12.3c4-1.8,15.3-6.2,19.5,1.2
	c2.5,4.5,1.5,11.7-2.5,17.2c-3,4.2-10.2,10.7-24.6,8.3c-5.1,9.9-14,17.4-25,21.2C1563.1,449.1,1557.9,450,1552.7,450z"/>
<path class="st3" d="M1538.8,410.4c0,0,28.4,3.2,28.7,6.2s-11,8.8-19,8.1C1540.5,424.1,1538.8,410.4,1538.8,410.4z"/>
<path d="M1582.5,465.1c-0.1,0-0.2,0-0.3,0c-0.8-0.2-1.2-1-1-1.7l9.8-38.9c0.2-0.8,1-1.2,1.7-1s1.2,1,1,1.7l-9.8,38.9
	C1583.7,464.6,1583.2,465.1,1582.5,465.1z"/>
<path d="M1552.9,472.4c-4.7,0-9.6-0.5-14.6-2c-7.8-2.3-12.8-5.7-14.6-10c-1.8-4.1,0-7.5,0-7.6c0.4-0.7,1.2-1,1.9-0.6
	c0.7,0.4,0.9,1.2,0.6,1.9c-0.1,0.1-1.2,2.4,0.1,5.3c1.5,3.5,5.9,6.4,12.8,8.4c18.3,5.4,37.5-2.6,37.7-2.7c0.7-0.3,1.5,0,1.8,0.8
	c0.3,0.7,0,1.5-0.8,1.8C1577.4,467.8,1566.4,472.4,1552.9,472.4z"/>
<path d="M1548.7,400.9c-0.4,0-0.7-0.1-1-0.4c-2.5-2.6-3.5-5.3-3-7.8c0.6-2.8,3-5.1,7.2-6.8c2.1-0.9,3.8-3.2,4.3-6.1
	c0.5-2.8-0.1-5.5-1.8-7c-4.6-4.3-13.1-0.2-13.2-0.2c-0.7,0.3-1.5,0.1-1.9-0.6c-0.3-0.7-0.1-1.5,0.6-1.9c0.4-0.2,10.4-5,16.4,0.6
	c2.3,2.2,3.3,5.8,2.6,9.6c-0.7,3.8-3,7-6,8.2c-3.2,1.3-5.1,3-5.5,4.8c-0.4,2.1,1.2,4.2,2.3,5.3c0.5,0.6,0.5,1.5,0,2
	C1549.3,400.8,1549,400.9,1548.7,400.9z"/>
<path d="M1589,388.5c-0.7,0-1.3-0.6-1.4-1.3c0-0.1-0.7-7.6-5.8-10.7c-5.1-3-10.7,0-10.8,0c-0.7,0.4-1.5,0.1-1.9-0.6
	s-0.1-1.5,0.6-1.9c0.3-0.2,7.2-3.8,13.6,0c6.3,3.8,7.1,12.5,7.1,12.9c0.1,0.8-0.5,1.5-1.3,1.5C1589.1,388.5,1589,388.5,1589,388.5z"
	/>
<path d="M1577.8,389.2c0.9-2.1,0.2-4.4-1.6-5.2c-1.8-0.8-4,0.2-4.9,2.3c-0.9,2.1-0.2,4.4,1.6,5.2
	C1574.7,392.3,1576.9,391.3,1577.8,389.2z"/>
<path d="M1550.3,383.1c0.9-2.1,0.2-4.4-1.6-5.2c-1.8-0.8-4,0.2-4.9,2.3c-0.9,2.1-0.2,4.4,1.6,5.2
	C1547.2,386.2,1549.4,385.1,1550.3,383.1z"/>
<path d="M1752.3,396.9c-0.5,0-1-0.3-1.3-0.8c-0.3-0.7,0-1.5,0.7-1.9c25.1-11.7,41.2-21.2,43.2-24.1c-3.9-2-13.3,0.9-16.7,2.2
	c-0.7,0.3-1.5,0-1.8-0.7c-0.3-0.7,0-1.5,0.6-1.8c12.9-7,23.9-14.6,25-17.2c-3.2-0.5-17.8,4.1-30.2,8.9c-0.7,0.3-1.4,0-1.8-0.7
	c-0.3-0.7-0.1-1.4,0.6-1.8c12.2-7.2,25.6-16.2,27.5-19c-2.8-1.4-14.6,2.5-30.5,11.5c-1.7,1-2.9,1.7-3.4,2c-0.7,0.4-1.5,0.1-1.9-0.5
	c-0.4-0.7-0.2-1.5,0.5-1.9c0.9-0.5,2.1-1.2,3.4-2c8.2-4.9,18.6-12.2,19.3-15.8c0-0.2,0-0.3,0-0.3c-1.8-1.8-18.4,4.3-28.7,11.3
	c-3.6,2.5-6.4,4.9-8.6,7.2c-1.5,4.7-3.3,8.9-4.7,10.6c-0.4,0.5-1.6,1.9-3,1.5c-0.7-0.2-1.2-0.8-1.3-1.6c-0.3-1.7,1-4.8,3.4-8.1
	c0.8-1.1,1.9-2.5,3.2-3.9c2-6.9,3.2-14.6,2.2-16c-0.5,0.1-3.1,1.4-10,13c-4.1,6.8-8,14.5-9,16.9c-3.5,8.7-1.6,14.8-1.6,14.9
	c0.2,0.7-0.2,1.5-0.9,1.8s-1.5-0.1-1.8-0.9c-0.1-0.3-2.3-7.1,1.6-16.8c0.9-2.1,15.1-31.4,21.5-31.7c1.1,0,2,0.6,2.6,1.7
	c1.1,2.3,0.5,7.8-0.8,13.5c1.6-1.4,3.4-2.8,5.5-4.2c7.3-5,27-14.4,31.8-11.3c1,0.7,1.5,1.8,1.2,3.1c-0.3,2-2.4,4.4-5.1,6.8
	c7.6-3.2,14.8-5,17.4-2.2c0.4,0.4,0.6,1,0.5,1.7c-0.2,1.4-3,5-17.2,14.1c15-5,18.7-4.4,19.6-4c0.7,0.3,1.1,0.8,1.2,1.2
	c0.7,2-0.3,4.9-12.8,12.9c-1.5,0.9-2.9,1.9-4.4,2.7c3.5-0.5,7.1-0.4,9.4,1.2c0.7,0.5,1,1.2,0.9,2c-0.1,1.3-0.4,4-23,15.8
	c-10.9,5.7-21.9,10.8-22,10.9C1752.7,396.9,1752.5,396.9,1752.3,396.9z"/>
<path class="st1" d="M1505.3,457.1c1.7-0.3,3.5,0.7,4,2.4c2.3,8.1,9.6,31,22.8,50.3c16,23.5,47.1,59.6,94.2,77.9
	c1.5,0.6,2.4,2.2,2.2,3.8c-1,5.5-2.2,10.1-3,12.9c-0.5,1.7-2.2,2.8-4,2.4c-12.1-2.5-57.1-14.7-91.1-60.7
	c-32.5-43.9-37.9-73.8-38.8-83.1c-0.2-1.8,1-3.3,2.7-3.7L1505.3,457.1z"/>
<path class="st1" d="M1553.3,593.5l-43.4-43.4c-6.2-6.2-6.2-16.2,0-22.4l16.1-16.1c6.2-6.2,16.2-6.2,22.4,0l43.4,43.4
	c6.2,6.2,6.2,16.2,0,22.4l-16.1,16.1C1569.5,599.7,1559.5,599.7,1553.3,593.5z"/>
<path d="M1745.2,375.1c-0.4,0-0.9-0.2-1.1-0.6c-0.5-0.6-0.3-1.5,0.3-2c0.4-0.3,9.2-6.6,25-1.7c0.7,0.2,1.2,1,0.9,1.8
	c-0.2,0.7-1,1.1-1.8,0.9c-14.3-4.4-22.4,1.3-22.5,1.3C1745.7,375,1745.4,375.1,1745.2,375.1z"/>
<path d="M1576.2,571.5c-0.3,0-0.5-0.1-0.7-0.2c-25.2-15.5-46-44.3-46.2-44.6c-0.5-0.6-0.3-1.5,0.3-2s1.5-0.3,2,0.3
	c0.2,0.3,20.6,28.6,45.4,43.8c0.7,0.4,0.9,1.3,0.5,1.9C1577.1,571.3,1576.7,571.5,1576.2,571.5z"/>
<path d="M1516.3,522.8c-0.4,0-0.7-0.1-1-0.4c-0.5-0.5-0.5-1.4,0-2l11.2-11.1c0.6-0.5,1.4-0.5,2,0c0.5,0.6,0.5,1.4,0,2l-11.2,11.1
	C1517,522.7,1516.7,522.8,1516.3,522.8z"/>
<path d="M1581.1,589.5c-0.4,0-0.7-0.1-1-0.4c-0.5-0.5-0.5-1.4,0-2l10.8-10.8c0.6-0.5,1.4-0.5,2,0c0.6,0.6,0.6,1.4,0,2l-10.8,10.8
	C1581.8,589.4,1581.5,589.5,1581.1,589.5z"/>
<path d="M1300.9,727.5c-0.1,0-0.2,0-0.3,0c-0.8-0.1-1.4-0.9-1.2-1.7l28.7-159.3c0.2-0.8,0.9-1.3,1.7-1.2c0.8,0.1,1.4,0.9,1.2,1.7
	l-28.7,159.3C1302.3,727,1301.6,727.5,1300.9,727.5z"/>
<path d="M1532.8,362.3c-0.5,0-1-0.2-1.3-0.7l-27.3-40.6c-0.2-0.3-0.3-0.6-0.3-1c1.7-21.8,2.8-46.4,1.7-49.5c-0.2-0.1-0.2-0.1-0.4,0
	c-3.1,1.2-7.9,13.4-9.5,23.1c1.9,5.2,2.7,9.3,1.8,10.7c-0.4,0.7-1.4,1.3-2.7,0.8c-2.4-0.9-2.5-4.5-2.6-5.7c0-1.5,0.1-3.3,0.4-5.3
	c-4.2-11.2-13.3-29.8-19.9-35.9c-0.2-0.2-0.4-0.3-0.5-0.5c-0.4,3.5,3.2,16.9,7.2,28.3c0.3,0.7-0.1,1.5-0.8,1.8
	c-0.7,0.3-1.5,0.1-1.9-0.5c-6.1-9.6-17.2-25.3-20.8-26.6c-0.8-0.3-1-0.2-1-0.2c-1.4,1.9,4.5,16,12.9,30.7c0.4,0.7,0.2,1.6-0.6,2
	s-1.6,0.2-2.1-0.6c-5-8.8-16.3-29.7-12.5-34.2c0.7-0.8,1.9-1.5,4.3-0.6c3.6,1.3,10.9,11.1,16.3,18.9c-0.4-1.4-0.8-2.8-1.2-4.3
	c-4-14.6-2.9-16.8-1.5-17.7c1.2-0.8,2.6-0.4,4.2,1.2c5.1,4.7,13.8,20.1,19,32.4c0.6-2.4,1.3-4.8,2.1-7.2c1.5-4.4,4.5-11.9,8.1-13.5
	c1.3-0.6,2.7-0.4,3.8,0.7c0.8,0.8,2,1.9,0.7,27.3c-0.6,10.8-1.3,21.5-1.5,24l27,40.2c0.5,0.7,0.3,1.6-0.4,2.1
	C1533.3,362.2,1533.1,362.3,1532.8,362.3z"/>
<path d="M1513.8,426.3c-0.3,0-0.6-0.1-0.9-0.3c-12.1-8.3-22.6-25.8-31.3-51.9c-5.9-17.7-8.9-33.5-9.4-36.2
	c-2.7-3.2-22.8-27.4-24.3-43.2c-0.3-2.8,1.6-7.1,2.3-8.6c-0.5-2.1-2-8.9-1.5-11.9c1.1-6.1,4.3-9.2,4.4-9.3c0.6-0.6,1.5-0.6,2.1,0
	c0.6,0.6,0.6,1.5,0,2.1c-0.1,0.1-2.6,2.7-3.5,7.7c-0.4,2.4,1,8.9,1.5,11.2c0.1,0.3,0,0.7-0.1,1c-1,1.9-2.4,5.6-2.3,7.5
	c1.4,15.6,23.6,41.6,23.8,41.8c0.2,0.2,0.3,0.5,0.3,0.7c0.1,0.7,12,67.5,39.6,86.5c0.7,0.5,0.8,1.4,0.4,2.1
	C1514.7,426,1514.3,426.3,1513.8,426.3z"/>
<path d="M1593.7,327c-0.7,0-1.3-0.5-1.5-1.2c-0.1-0.5-10.6-52.5-26.1-81.5c-14.3-26.8-54.5-44.7-60-47c-4.5,2.3-30.9,15.5-43.5,13.1
	c-3.9-0.7-6.7-2.4-8.2-5c-2.2-3.8-1-8.4-0.1-11.2c-4.2,0.6-14.4,2.4-28.6,7.6c-18.8,7-27.5,17.9-27.5,18c-0.5,0.6-1.4,0.8-2.1,0.3
	c-0.7-0.5-0.8-1.4-0.3-2.1c0.4-0.5,9.2-11.7,28.9-19c19.5-7.2,31.1-8,31.6-8.1c0.5,0,0.9,0.1,1.2,0.5c0.3,0.3,0.4,0.8,0.4,1.2
	c0,0.4-0.2,0.8-0.4,1.5c-0.7,2.2-2.3,6.6-0.4,9.8c1,1.8,3.1,3,6.1,3.5c12.6,2.3,41.9-13,42.2-13.2c0.4-0.2,0.8-0.2,1.3-0.1
	c1.9,0.8,46.4,19.1,62.2,48.7c15.7,29.3,26.2,81.8,26.3,82.3c0.2,0.8-0.4,1.6-1.2,1.8C1593.8,327,1593.8,327,1593.7,327z"/>
<path d="M1432.9,118.6l27.6,12.6c1.2,0.6,1.3,2.2,0.2,2.9c-3.1,2-9.2,4.4-18.3,0.3c-9-4.1-11.3-10.4-11.8-14
	C1430.4,119,1431.7,118,1432.9,118.6z"/>
<path d="M1470.9,134.1l27.6,12.6c1.2,0.6,1.3,2.2,0.2,2.9c-3.1,2-9.2,4.4-18.3,0.3c-9-4.1-11.3-10.4-11.8-14
	C1468.3,134.5,1469.7,133.5,1470.9,134.1z"/>
<path d="M1467.6,191.2c-12.2,0-27-3.5-32.5-19.2c-6.5-18.3,5.2-34.2,5.7-34.8s1.4-0.8,2.1-0.3c0.7,0.5,0.8,1.4,0.3,2.1
	c-0.1,0.1-11.2,15.3-5.3,32c9,25.5,46.4,15.1,46.7,15c0.8-0.2,1.6,0.2,1.9,1c0.2,0.8-0.2,1.6-1,1.9
	C1485.2,189,1477.3,191.2,1467.6,191.2z"/>
<path d="M1456.4,150.9c-0.3,0-0.7-0.1-0.9-0.3c-1.7-1.4-4.4-5.3-2.3-10.5c1.2-2.9,3.9-4.2,6.5-5.4c3.1-1.5,5.8-2.7,6-6.5
	c0.4-6.7-8.3-8.3-8.6-8.4c-0.8-0.1-1.4-0.9-1.2-1.7c0.1-0.8,0.9-1.4,1.7-1.2c4,0.7,11.6,4,11.1,11.5c-0.3,5.5-4.4,7.4-7.7,9
	c-2.3,1.1-4.3,2-5,3.8c-1.8,4.3,1.3,6.9,1.4,7c0.6,0.5,0.7,1.5,0.2,2.1C1457.3,150.7,1456.8,150.9,1456.4,150.9z"/>
<path d="M1459.9,163.6c-6.8,0-8.9-4.6-9-4.8c-0.3-0.8,0-1.6,0.8-2c0.8-0.3,1.6,0,2,0.8c0.1,0.2,2,4,9,2.8c3.8-0.7,6.3-4.1,6.4-4.1
	c0.5-0.7,1.4-0.8,2.1-0.3c0.7,0.5,0.8,1.4,0.3,2.1c-0.1,0.2-3.2,4.3-8.2,5.3C1462,163.5,1460.9,163.6,1459.9,163.6z"/>
<path d="M1459.8,130.4c1-1.8,0.6-4-0.9-4.9c-1.6-0.9-3.7-0.2-4.7,1.6c-1,1.8-0.6,4,0.9,4.9C1456.6,132.9,1458.7,132.2,1459.8,130.4z
	"/>
<path d="M1484,139.7c1-1.8,0.6-4-0.9-4.9c-1.6-0.9-3.7-0.2-4.7,1.6c-1,1.8-0.6,4,0.9,4.9C1480.8,142.2,1482.9,141.5,1484,139.7z"/>
<path d="M1497.7,142.3c-0.2,0-0.4,0-0.6-0.1c-0.6-0.3-15.5-6.4-18.4-22.5c-3-16.4,5.3-20.9,5.6-21.1c0.7-0.4,1.6-0.1,2,0.6
	c0.4,0.7,0.1,1.6-0.6,2c-0.3,0.2-6.6,3.9-4,17.9c2.7,14.5,16.4,20.2,16.6,20.3c0.8,0.3,1.1,1.2,0.8,2
	C1498.8,141.9,1498.3,142.3,1497.7,142.3z"/>
<path d="M1460.5,115.6c-0.3,0-0.5-0.1-0.8-0.2c-0.7-0.4-0.9-1.4-0.5-2.1c0.3-0.6,8.6-13.8,25.7-14.9c0.8-0.1,1.5,0.6,1.6,1.4
	c0.1,0.8-0.6,1.5-1.4,1.6c-15.5,1.1-23.3,13.4-23.3,13.5C1461.5,115.4,1461,115.6,1460.5,115.6z"/>
<path d="M1520.3,197.1c-6.3,0-11.7-1.5-14.8-3.3c-2.2-1.3-3.7-3-4.6-4.9c-2.1,0.8-4.4,1.3-6.7,1.2c-0.1,0-0.2,0-0.2,0
	c-0.4-0.1-9.5-2-11.6-11.4c-3.4-15.2,16.1-41.8,16.9-42.9c0.5-0.7,1.4-0.8,2.1-0.3c0.7,0.5,0.8,1.4,0.3,2.1
	c-0.2,0.3-19.5,26.6-16.4,40.4c1.6,7,8.2,8.9,9.1,9.1c1.9,0.1,3.8-0.4,5.7-1.1c-0.1-1.4,0-2.9,0.5-4.4c1.9-6.7,8.6-13.2,12.3-13.2
	c0,0,0,0,0,0c1.4,0,2.4,0.8,2.7,2.2c0.7,2.7-0.7,6.4-3.7,10.2c-2,2.5-4.9,5.1-8.3,7c0.6,1.4,1.7,2.7,3.4,3.6
	c7.2,4.3,29.1,6.7,40.9-12.5c4.9-8-3.5-44.9-7.1-57.4c-2.6-9-8.7-29.9-45.1-33.6c-35.8-3.6-56.3,28.2-56.5,28.5
	c-0.4,0.7-1.4,0.9-2.1,0.5s-0.9-1.4-0.5-2.1c0.2-0.3,21.7-33.7,59.3-29.9c38.5,3.9,45,26.2,47.7,35.8c0.1,0.5,13.6,48.9,6.8,59.9
	C1542.6,193.2,1530.3,197.1,1520.3,197.1z M1512.9,171.2c-1.5,0.1-6.7,4.2-8.9,9.9c-0.4,1.1-0.7,2.2-0.8,3.2
	c2.5-1.5,4.8-3.6,6.5-5.7C1512,175.8,1513.2,172.9,1512.9,171.2z"/>
<path d="M1443.4,189c-0.1,0-0.3,0-0.4,0c-1.2-0.3-30.1-8.1-34.5-24.8c-4.4-16.6,18.1-39.7,19.1-40.6c0.6-0.6,1.5-0.6,2.1,0
	c0.6,0.6,0.6,1.5,0,2.1c-0.2,0.2-22.3,22.8-18.3,37.7c4,14.9,32.1,22.6,32.4,22.6c0.8,0.2,1.3,1,1.1,1.8
	C1444.7,188.5,1444.1,189,1443.4,189z"/>
<path d="M1459.1,302.7c-0.6,0-1.1-0.3-1.4-0.9l-7.2-14.9c-0.4-0.8-0.1-1.6,0.7-2c0.8-0.4,1.6,0,2,0.7l7.2,14.9c0.4,0.8,0,1.6-0.7,2
	C1459.5,302.7,1459.3,302.7,1459.1,302.7z"/>
<path d="M1190,191.1c-0.1,0-0.2,0-0.2,0c-16.4-2.8-27.5-15.4-28.3-32.1c-0.8-16.1,5.9-37.1,6.2-38c0.1-0.2,5.8-15.5,21.3-13.5
	c0.8,0.1,1.3,0.8,1.2,1.6c-0.1,0.8-0.8,1.3-1.6,1.2c-13.3-1.7-18.1,11.1-18.3,11.7c-0.1,0.2-6.8,21.4-6,36.9
	c0.8,15.6,10.8,27,26,29.5c0.8,0.1,1.3,0.9,1.2,1.6C1191.2,190.7,1190.7,191.1,1190,191.1z"/>
<path d="M1216.3,184.6c-0.4,0-0.7-0.1-1-0.4c-0.5-0.6-0.5-1.4,0-2c0.1-0.1,10.6-10.6,11-22.3c0-0.4,0.2-0.8,0.5-1
	c0.3-0.3,0.7-0.4,1.1-0.3c3.9,0.6,7.7-3.6,9.6-7.8c2-4.3,2.6-9.9-0.4-12.5c-1.4-1.2-2.6-1.6-3.8-1.3c-2.5,0.7-4.4,4.6-4.9,6.1
	c-0.2,0.5-0.6,0.8-1.1,0.9c-0.5,0.1-1-0.1-1.3-0.5c-0.3-0.4-7.7-10.3-10.8-23c-3,1.2-6.7,1.5-10.4,0.9c-7.6-1.4-13.1-6.6-15.2-14.3
	c-0.2-0.8,0.2-1.5,1-1.7c0.8-0.2,1.5,0.2,1.7,1c1.8,6.6,6.5,11.1,13,12.3c3.3,0.6,6.7,0.2,9.3-0.9c-0.1-0.3-0.1-0.7-0.2-1
	c-1.2-7.2,0.9-9.3,2.3-9.9c1.4-0.6,3.1-0.1,4.3,1.3c1.5,1.8,2,5.2-0.4,8.5c-0.7,1-1.7,1.9-2.9,2.7c2.1,9.2,6.8,17.1,9.1,20.6
	c1.1-2,3-4.7,5.8-5.4c2.1-0.6,4.2,0.1,6.3,1.9c4.4,3.8,3.4,10.9,1.1,15.8c-2.2,4.7-6.3,9.2-11,9.4c-1.1,12.2-11.3,22.3-11.7,22.8
	C1217.1,184.5,1216.7,184.6,1216.3,184.6z M1218.1,109.3c0,0-0.1,0-0.1,0c-0.5,0.2-1.5,1.8-0.7,6.8c0.4-0.4,0.8-0.8,1.2-1.3
	c1.5-2.1,1.3-4,0.5-5C1218.6,109.5,1218.3,109.3,1218.1,109.3z"/>
<path d="M1240.1,141c-0.4,0-0.8-0.2-1.1-0.5c-0.5-0.6-0.4-1.5,0.2-2c0.3-0.3,6.6-5.9,5.1-15.6c-1.4-9.3-10-8.8-10.3-8.8
	c-0.4,0-0.8-0.1-1.1-0.4c-0.3-0.3-0.4-0.7-0.4-1.1c0-0.2,0.6-18.1-10.6-24.8c-11-6.5-19.7,1.7-20,2c-0.5,0.5-1.3,0.5-1.8,0.1
	c-0.1-0.1-13.8-10.5-23.8-4.5c-15.6,9.5-11,28.6-10.9,28.8c0.1,0.6-0.1,1.1-0.5,1.5c-0.5,0.3-1.1,0.4-1.6,0.1c0,0-2.3-1.3-4.1-0.5
	c-1.5,0.7-2.5,2.9-2.9,6.2c-1.2,10.3,3.6,13.2,3.8,13.3c0.7,0.4,0.9,1.2,0.6,1.9c-0.4,0.7-1.2,0.9-1.9,0.6
	c-0.3-0.2-6.7-3.7-5.3-16.1c0.5-4.4,2-7.2,4.5-8.4c1.5-0.7,3-0.7,4.3-0.4c-0.8-5.9-1.2-21,12.6-29.3c10.2-6.2,22.6,1.5,26,4
	c2.8-2.2,11.8-8,22.5-1.7c10.8,6.4,11.9,21.3,12,25.9c3.2,0.3,10.4,1.9,11.8,11.1c1.7,11.4-5.8,17.9-6.1,18.2
	C1240.7,140.9,1240.4,141,1240.1,141z"/>
<path d="M1162.8,156.4c-0.1,0-0.1,0-0.2,0c-2.7-0.3-8-3-8.7-10.5c-0.5-5.2,1.3-9.5,4.5-10.9c2.5-1.1,5.2-0.2,7.4,2.3
	c0.5,0.6,0.5,1.5-0.1,2c-0.6,0.5-1.5,0.5-2-0.1c-1.4-1.6-2.9-2.2-4.2-1.6c-1.6,0.7-3.2,3.6-2.8,8.1c0.7,7.2,6,8,6.2,8
	c0.8,0.1,1.3,0.8,1.2,1.6C1164,155.9,1163.4,156.4,1162.8,156.4z"/>
<path d="M1184.7,146.4c-0.2,0-0.3,0-0.5-0.1c-0.1-0.1-3.7-1.5-4.6-5.3c-1-3.9,1.5-6.5,3.6-8.6c0.9-1,1.8-1.9,2.1-2.7
	c1.1-2.4,0-6.3-3-7.8c-4.9-2.4-10.4,2.2-10.4,2.2c-0.6,0.5-1.5,0.4-2-0.2c-0.5-0.6-0.4-1.5,0.1-2c0.3-0.2,6.9-5.8,13.5-2.6
	c4.6,2.2,6.1,7.9,4.4,11.5c-0.6,1.2-1.6,2.3-2.6,3.4c-2.1,2.2-3.4,3.8-2.9,6.1c0.6,2.4,2.9,3.3,3,3.4c0.7,0.3,1.1,1.1,0.8,1.8
	C1185.8,146,1185.3,146.4,1184.7,146.4z"/>
<path d="M1190.7,166.3c-0.3,0-0.6,0-0.8,0c-5.2-0.4-8.4-3.6-9.6-6.2c-1-2.2-0.8-4.4,0.4-5.9c2-2.5,13.2-3.7,18.4-3.7
	c4.5,0,5.8,0.9,6.3,1.6c0.7,1,0.5,2.6-0.7,4.8C1202.8,160.5,1197.7,166.3,1190.7,166.3z M1182.9,155.9c-0.5,0.7-0.5,1.8,0,3
	c0.8,1.9,3.3,4.3,7.2,4.6c4,0.3,7.2-2,9.1-4c2.5-2.5,3.6-4.9,3.8-5.8C1200.4,152.4,1184.7,154.1,1182.9,155.9z"/>
<path d="M1274.7,283.1c-0.8,0-1.4-0.6-1.4-1.4l-0.6-29.3c0-0.4,0.1-0.7,0.4-1c0.4-0.4,36.6-38.3,50.3-70.6
	c16.6-39.1,14.4-56.8,11.6-63.8c-0.3-0.7,0.1-1.5,0.8-1.8c0.7-0.3,1.5,0.1,1.8,0.8c5.1,12.9,1,36.3-11.6,66
	c-13.1,30.9-46.4,66.7-50.4,71l0.6,28.8C1276.1,282.4,1275.5,283.1,1274.7,283.1C1274.7,283.1,1274.7,283.1,1274.7,283.1z"/>
<path d="M1226.2,198.5c-0.4,0-0.9-0.2-1.1-0.5c-3-3.6-3.8-19.6-3.9-22.7c0-0.8,0.6-1.4,1.4-1.5c0.8,0,1.4,0.6,1.4,1.4
	c0.2,6.3,1.2,16.5,2.7,20.1c4.6-2.9,24.1-17.7,38.9-37.7c7.8-10.5,14.4-22.2,20.2-32.4c7.4-13.2,13.3-23.6,18.8-26
	c0.7-0.3,1.5,0,1.8,0.7c0.3,0.7,0,1.5-0.7,1.9c-4.6,2.1-10.6,12.6-17.5,24.8c-5.8,10.3-12.5,22.1-20.4,32.7
	C1251.9,180.7,1228.7,198.4,1226.2,198.5C1226.2,198.5,1226.2,198.5,1226.2,198.5z"/>
<path d="M1196.3,212.5c-2.9,0-5.5-0.5-7.9-1.4c-8.4-3.3-10.6-11.2-10.7-11.5c0-0.1-0.1-0.3-0.1-0.4l0.8-12.8
	c0.1-0.8,0.7-1.4,1.5-1.3c0.8,0.1,1.4,0.7,1.3,1.5l-0.7,12.5c0.4,1.1,2.6,7,9,9.5c7.7,3,18.9,0.2,32.3-8.1c0.7-0.4,1.5-0.2,1.9,0.5
	c0.4,0.7,0.2,1.5-0.4,1.9C1212.8,209.2,1203.8,212.5,1196.3,212.5z"/>
<path d="M1122.4,263.5c0,0-0.1,0-0.1,0c-0.8-0.1-1.3-0.8-1.3-1.5l2-21.5c-3.9-3-25-20-41-40.8c-17.8-23.2-32-76.8-24.1-89.7
	l-1.5-9.1c-0.1-0.8,0.4-1.5,1.2-1.6c0.8-0.1,1.5,0.4,1.6,1.1l1.6,9.6c0.1,0.4,0,0.8-0.3,1.1c-3.5,4.8-2.5,19.9,2.4,38.6
	c5.1,19.3,13.3,37.8,21.3,48.3c17.3,22.6,40.8,40.6,41,40.8c0.4,0.3,0.6,0.8,0.5,1.3l-2.1,22.3
	C1123.8,262.9,1123.2,263.5,1122.4,263.5z"/>
<path d="M1179.1,200.6c-0.1,0-0.2,0-0.3,0c-0.4-0.1-40.4-8.5-63.2-44.8c-3.2-5.2-6.9-14-10.8-23.3c-4.8-11.6-11.4-27.5-14.9-28.2
	c-0.1,0-0.3-0.1-0.6,0.3c-12.6,12.8-26.9,8-27.5,7.8c-0.7-0.3-1.1-1.1-0.9-1.8c0.3-0.7,1.1-1.1,1.8-0.9c0.6,0.2,13.3,4.4,24.6-7.1
	c1.1-1.2,2.3-1.2,3.1-1.1c4.7,0.9,9.5,11.9,16.9,29.9c3.7,8.8,7.4,18,10.6,22.9c22.2,35.3,61,43.5,61.4,43.6
	c0.8,0.1,1.3,0.9,1.1,1.6C1180.3,200.1,1179.7,200.6,1179.1,200.6z"/>
<path d="M1088.8,104.2c-0.5,0-1.1-0.3-1.3-0.8l-4-9.2c-0.3-0.7,0-1.5,0.7-1.8c0.7-0.3,1.5,0,1.8,0.7l4,9.2c0.3,0.7,0,1.5-0.7,1.8
	C1089.2,104.2,1089,104.2,1088.8,104.2z"/>
<path d="M1330.8,112.9c-16.6,0-26.3-11.1-26.7-11.6c-0.4-0.4-0.4-1-0.2-1.5l5.5-11.1c0.3-0.7,1.2-1,1.9-0.6c0.7,0.3,1,1.2,0.6,1.9
	l-5,10.2c2.5,2.5,12,10.9,26.5,9.9l1.5-8.2c0.1-0.8,0.9-1.3,1.6-1.1c0.8,0.1,1.3,0.9,1.1,1.6l-1.7,9.2c-0.1,0.6-0.6,1.1-1.2,1.1
	C1333.3,112.9,1332,112.9,1330.8,112.9z"/>
<path d="M1337.5,328.7c-3.8,0-7-0.7-9.6-1.6c-8.4-3-15-10.4-18-20.2c-5.1-16.6-0.4-48.9-0.2-50.3c0.1-0.8,0.9-1.4,1.7-1.3
	c0.8,0.1,1.4,0.9,1.3,1.7c-0.1,0.3-4.7,33,0.1,49c2.7,8.9,8.6,15.5,16.1,18.2c9.3,3.4,20.7,0.9,32.9-7.2c0.7-0.5,1.6-0.3,2.1,0.4
	c0.5,0.7,0.3,1.6-0.4,2.1C1352.9,326.5,1344.2,328.7,1337.5,328.7z"/>
<path d="M1375.4,283.3c-0.2,0-0.4,0-0.5-0.1c-0.5-0.2-13.1-5.1-18.2-17.4c-3.2-7.7-2.6-16.5,1.7-26.2c0.3-0.8,1.2-1.1,2-0.8
	s1.1,1.2,0.8,2c-4,8.9-4.5,16.9-1.7,23.8c4.6,11,16.4,15.7,16.5,15.7c0.8,0.3,1.2,1.2,0.9,1.9C1376.6,282.9,1376,283.3,1375.4,283.3
	z"/>
<path d="M1325.6,296.5c-0.1,0-0.2,0-0.3,0c-2-0.4-5.7-2.6-5.6-7.7c0.1-2.6,1.8-4.6,3.6-6.8c2.3-2.8,4.8-5.7,3.7-10.3
	c-0.8-3.3-2.3-5.6-4.5-6.9c-3.6-2-8.1-0.7-8.1-0.6c-0.8,0.3-1.6-0.2-1.9-1c-0.3-0.8,0.2-1.6,1-1.9c0.2-0.1,5.7-1.8,10.5,0.9
	c3,1.7,5,4.6,6,8.8c1.4,6-1.8,9.8-4.3,12.9c-1.5,1.8-2.8,3.4-2.9,4.9c-0.1,3.8,2.9,4.6,3.3,4.7c0.8,0.2,1.3,1,1.1,1.8
	C1326.9,296,1326.3,296.5,1325.6,296.5z"/>
<path d="M1353.6,270c-0.4,0-0.7-0.1-1-0.4c-8.5-7.8-14.2-4.8-14.3-4.8c-0.7,0.4-1.6,0.1-2-0.6c-0.4-0.7-0.1-1.6,0.6-2
	c0.3-0.2,7.7-4,17.8,5.2c0.6,0.6,0.7,1.5,0.1,2.1C1354.4,269.9,1354,270,1353.6,270z"/>
<path d="M1346.2,278.1c0-2-1.3-3.6-2.9-3.6s-2.9,1.6-2.9,3.6c0,2,1.3,3.6,2.9,3.6S1346.2,280.1,1346.2,278.1z"/>
<path d="M1322.2,276.5c0-2-1.3-3.6-2.9-3.6c-1.6,0-2.9,1.6-2.9,3.6c0,2,1.3,3.6,2.9,3.6S1322.1,278.5,1322.2,276.5z"/>
<path d="M1329.1,308c-0.8,0-1.7-0.1-2.6-0.3c-0.8-0.2-1.4-0.9-1.2-1.8c0.1-0.8,0.9-1.4,1.8-1.2c8,1.5,10.1-6.4,10.2-6.7
	c0.2-0.8,1-1.3,1.8-1.1c0.8,0.2,1.3,1,1.1,1.8C1339.3,302.2,1335.9,308,1329.1,308z"/>
<path d="M1397,287.8c-0.3,0-0.6-0.1-0.9-0.3c-0.7-0.5-0.8-1.4-0.3-2.1c0.2-0.3,19.1-25.9,11.8-44.6c-6.5-16.8-15.4-24.5-31.5-27.6
	c-0.8-0.2-1.4-0.9-1.2-1.8s0.9-1.4,1.8-1.2c17.1,3.3,26.9,11.8,33.8,29.4c3.3,8.4,2.2,19.3-3.1,31.6c-4,9.1-8.8,15.7-9.1,15.9
	C1397.9,287.6,1397.4,287.8,1397,287.8z"/>
<path d="M1311.1,258.3c-0.3,0-0.6-0.1-0.8-0.3c-0.3-0.2-7-4.9-8.4-13.5c-1-6.4,1.2-13.2,6.6-20.1c6-7.7,17.4-12.9,32.8-14.8
	c0.8-0.1,1.6,0.5,1.7,1.3c0.1,0.8-0.5,1.6-1.3,1.7c-14.7,1.9-25.3,6.6-30.8,13.7c-4.8,6.2-6.9,12.2-6,17.8c0.8,5.2,4,8.8,5.8,10.5
	c15.9-27.6,49.2-15.8,49.6-15.6c0.8,0.3,1.2,1.1,0.9,1.9c-0.3,0.8-1.2,1.2-1.9,0.9c-0.1,0-8.3-3-18.2-2.4
	c-13,0.7-22.6,6.9-28.6,18.3c-0.2,0.4-0.6,0.7-1,0.8C1311.4,258.3,1311.2,258.3,1311.1,258.3z"/>
<path class="st2" d="M1425.3,362.7C1425.3,362.7,1425.3,362.6,1425.3,362.7c-5.5-10.7-31.1-18.3-43.5-17.3
	c-10.9,0.9-37.4,16.4-49.5-2c0,0-16.7,0.6-35.1,10.1c-8.4,4.3-18.3,19.9-22.9,27.7c-1.4,2.3-0.8,5.4,1.4,7
	c3.1,2.3,7.5,6.4,11.1,13.3c5.2,9.9,3.2,22.4-0.3,29.5c-1.2,2.4-0.5,5.3,1.7,6.8c14.5,10.2,22.7,21.2,30.1,31.3
	c6.8,9.2,15.4,29.2,19.4,39c1.2,3,4.8,4.2,7.6,2.6l16.5-9.5c3.4-2,3.6-6.8,0.3-9c-5-3.4-10.9-9-12.7-17.2c-2.3-10.1,0.8-23.3,2.4-29
	c0.5-1.7,0.1-3.4-1-4.8c-2.8-3.4-7.3-10.9-4-20.1c2.7-7.4,6.6-10.1,9.3-11.1c1.9-0.7,3.2-2.4,3.4-4.4c0.7-6.2,3.4-18.5,13.6-25.7
	c15.4-10.8,28.8-12.8,46.5-9.6C1423.9,371,1427.3,366.6,1425.3,362.7z"/>
<path d="M1430.7,362.3c-0.4,0-0.8-0.2-1.1-0.5c-14.4-15.7-46.7-19.8-47-19.8c-0.5-0.1-1-0.4-1.2-0.8c-0.3-0.6-6.6-14.1-3.2-36
	c0.1-0.8,0.9-1.4,1.7-1.3c0.8,0.1,1.4,0.9,1.3,1.7c-2.8,18.2,1.4,30.5,2.7,33.5c2.4,0.3,9.4,1.5,17.7,4c13.7,4.1,23.8,9.7,30.2,16.7
	c0.6,0.6,0.5,1.6-0.1,2.1C1431.4,362.1,1431,362.3,1430.7,362.3z"/>
<path class="st1" d="M1402.9,288.7c1.9-11.2-3.9-21.5-12.9-23.1c-9.1-1.5-18,6.3-19.9,17.5c-1.9,11.2,3.9,21.5,12.9,23.1
	C1392.1,307.7,1401,299.9,1402.9,288.7z"/>
<path class="st1" d="M1345.1,207.4c-1.5,0.1-1.7,2.2-0.2,2.5c6.4,1.6,15.2,4.1,23,10.3c20.4,16.4,11.5,59.8,11.5,59.8h11.9
	c0,0,8.6-38.3-4.8-56.9C1375.4,207.8,1356.1,206.8,1345.1,207.4z"/>
<path d="M1173.4,132.8c-0.2,0-0.5-0.1-0.7-0.2c-0.7-0.4-0.9-1.3-0.5-1.9c0.1-0.1,1.9-3.2,5-3.6c1.8-0.2,3.5,0.5,5.2,2.2
	c0.5,0.6,0.5,1.4,0,2c-0.6,0.6-1.4,0.5-2,0c-1-1-2-1.5-2.9-1.3c-1.4,0.2-2.6,1.7-2.9,2.2C1174.3,132.6,1173.8,132.8,1173.4,132.8z"
	/>
<path d="M1206,132.8c-0.5,0-1-0.3-1.3-0.8c-0.7-1.4-1.6-2.3-2.6-2.5c-1.6-0.4-3.3,0.8-3.3,0.8c-0.6,0.5-1.5,0.3-2-0.3
	c-0.5-0.6-0.3-1.5,0.3-2c0.1-0.1,2.7-1.9,5.6-1.3c1.9,0.4,3.3,1.8,4.4,4c0.4,0.7,0.1,1.5-0.6,1.9
	C1206.4,132.8,1206.2,132.8,1206,132.8z"/>
<path class="st1" d="M872.4,252.9c0,0,4.6-5.1,14.8,3.5s12.3,23.5,12.3,23.5s7.5-2.6,11.4-0.9c0,0-2.2-32.3-15.8-34.7
	C895.1,244.3,878.7,243.2,872.4,252.9z"/>
<path d="M1018.7,395.2c0,0-0.1,0-0.1,0c-0.8-0.1-1.3-0.8-1.3-1.5c1.7-16.6-3.3-73.3-14.7-107.1c-0.3-0.7,0.1-1.5,0.9-1.8
	c0.7-0.3,1.5,0.2,1.8,0.9c11.7,34.7,16.6,91,14.8,108.3C1020,394.7,1019.4,395.2,1018.7,395.2z"/>
<path d="M978.7,373c-0.7,0-1.3-0.5-1.4-1.2c-6.5-41-9.7-92.2-8.2-102.5c2.4-16.4-1.7-24.8-1.7-24.9c-0.2-0.5-0.2-1.1,0.2-1.5
	c0.3-0.4,0.9-0.6,1.4-0.5l9.4,2c0.5,0.1,11.3,2.5,24.2,13c11.8,9.7,27.5,28.3,35.5,62.4c0.2,0.8-0.3,1.5-1,1.7
	c-0.8,0.2-1.5-0.3-1.7-1c-15-63.6-57.1-73.2-57.5-73.3l-6.9-1.5c1.2,3.8,2.8,11.8,1,24c-1.5,10.2,1.7,60.9,8.2,101.7
	c0.1,0.8-0.4,1.5-1.2,1.6C978.8,373,978.8,373,978.7,373z"/>
<path d="M883.6,350c-0.6,0-1.2-0.4-1.3-1c-0.2-0.7,0.2-1.5,1-1.7c15.8-4.5,18.9-14.9,18.9-15c0.2-0.8,1-1.2,1.7-1s1.2,1,1,1.7
	c-0.1,0.5-3.6,12.1-20.9,17C883.9,350,883.8,350,883.6,350z"/>
<path d="M889.8,355.2c-2,0-4.4-0.8-7.1-2.5c-9.5-5.7-9.5-17.2-9.1-21.8c0.5-5.2,2.3-11,4.9-12l9.6-3.8c0.7-0.3,1.5,0.1,1.8,0.8
	c0.3,0.7-0.1,1.5-0.8,1.8l-9.6,3.8c-0.8,0.4-2.8,4.4-3.2,10.6c-0.2,3.9,0.1,13.5,7.9,18.2c2.3,1.4,5.5,2.8,7.4,1.6
	c2.4-1.5,2.5-6.4,2.4-8.2c-0.1-0.8,0.5-1.5,1.3-1.5c0.8-0.1,1.4,0.5,1.5,1.3c0.1,0.8,0.6,8.2-3.7,10.8
	C892.1,354.9,891.1,355.2,889.8,355.2z"/>
<path d="M845.8,373.6c-9.4,0-17.1-2.9-22.9-8.6c-4.8-4.8-6.3-12.5-4.6-23.1c2.4-14.7,11.3-34.8,24.3-55.3
	c11.8-18.4,24.1-32.7,31.5-36.4c0.7-0.3,1.5-0.1,1.9,0.6c0.3,0.7,0.1,1.5-0.6,1.9c-13.2,6.6-48.9,56.4-54.3,89.6
	c-1.6,9.6-0.3,16.6,3.8,20.6c16.6,16.6,46.6,2.5,56.6-3c-6.4-1.4-11-4.4-13.6-9.1c-6.7-11.5,0.7-28.5,1-29.2c0.2-0.4,0.5-0.7,1-0.8
	l8.9-2.2c0.8-0.2,1.5,0.3,1.7,1c0.2,0.8-0.3,1.5-1,1.7l-8.2,2c-1.2,3.1-6.2,16.9-0.9,26c2.8,4.8,8,7.5,15.5,8.3
	c0.6,0.1,1.1,0.5,1.2,1.1c0.1,0.6-0.1,1.2-0.6,1.5c-0.4,0.3-10.5,6.6-23.3,10.4C856.8,372.7,851,373.6,845.8,373.6z"/>
<path d="M949.7,429.1c-0.3,0-0.5,0-0.8-0.1c-24.3-4.4-41.4-4.5-65.7-0.5c-2.6,0.4-4.8,0-6.4-1.2c-1.2-0.9-1.9-2.2-2-3.8
	c-1.3-11.9-2.8-34.4,1.6-51.6c0.2-0.8,0.9-1.2,1.7-1c0.8,0.2,1.2,1,1,1.7c-4.2,16.7-2.8,38.8-1.5,50.6c0.1,0.8,0.4,1.4,1,1.8
	c0.9,0.7,2.5,0.9,4.2,0.6c24.3-4,42.3-3.9,66.6,0.5c0.5,0.1,1,0,1.4-0.4c0.7-0.5,1.3-1.5,1.4-2.5c3.7-29.7,10.4-104.4-6.5-155.7
	c-3.6-11.1-16.1-18.7-24.5-23.7l-0.1,1.7c0,0.4-0.2,0.8-0.5,1c-0.3,0.3-0.7,0.4-1.1,0.3c-0.1,0-7.4-0.9-16.9-0.4
	c-0.8,0.1-1.4-0.5-1.5-1.3c0-0.8,0.6-1.4,1.3-1.5c7.3-0.4,13.2,0,15.8,0.2l0.1-1.7c-2.3-1.4-3.9-2.6-4.7-3.6c-1.1-1.5-1-2.8-0.7-3.7
	c1.1-3.2,6.4-4.9,7-5.1c0.4-0.1,0.9,0,1.3,0.2c0.4,0.3,0.6,0.7,0.5,1.2l-0.5,9.5c0.4,0.2,0.8,0.5,1.2,0.7
	c8.7,5.3,21.8,13.2,25.8,25.3c17,51.8,10.3,127,6.6,156.9c-0.2,1.8-1.2,3.5-2.5,4.5C951.6,428.7,950.7,429.1,949.7,429.1z
	 M919.1,233.3c-1.5,0.7-2.9,1.6-3.2,2.5c0,0.2-0.2,0.5,0.3,1.2c0.4,0.5,1.3,1.2,2.6,2.1L919.1,233.3z"/>
<path d="M837.9,326.9c-0.7,0-1.3-0.5-1.4-1.2c-0.1-0.8,0.5-1.5,1.2-1.6l27.3-3.2c0.8-0.1,1.5,0.5,1.6,1.2c0.1,0.8-0.5,1.5-1.2,1.6
	l-27.3,3.2C838,326.9,837.9,326.9,837.9,326.9z"/>
<path d="M854.3,322.5c-0.2,0-0.4,0-0.5-0.1l-11.7-4.8c-0.7-0.3-1.1-1.1-0.8-1.8c0.3-0.7,1.1-1.1,1.8-0.8l11.7,4.8
	c0.7,0.3,1.1,1.1,0.8,1.8C855.4,322.1,854.9,322.5,854.3,322.5z"/>
<path class="st1" d="M878.7,369.1c1,1.9,10.9,1.7,23.6-7.4c12.8-9.1,16.8-29.9,16-49.5c0,0-7-5.1-11,0.8c0,0,0.4,29-10.2,42.5
	C889.6,365,877.5,366.8,878.7,369.1z"/>
<path d="M918,296.5c-0.2,0-0.4,0-0.6-0.1c-0.7-0.3-1-1.1-0.7-1.9c0.4-0.9,1.2-3.5,0.4-5.1c-0.5-0.9-1.4-1.4-2.8-1.6
	c-8.9-1.4-16.4,4.1-16.4,4.2c-0.6,0.5-1.5,0.3-2-0.3c-0.5-0.6-0.3-1.5,0.3-2c0.3-0.3,8.5-6.3,18.6-4.7c2.3,0.4,3.9,1.4,4.8,3
	c1.7,3.1-0.1,7.2-0.3,7.6C919,296.1,918.5,296.5,918,296.5z"/>
<path d="M917.3,303.9c-0.4,0-0.8-0.2-1-0.5c-0.5-0.6-0.5-1.5,0.1-2c0.5-0.5,1.9-2.1,1.6-3.3c-0.2-1.2-1.9-2-3.3-2.5
	c-8.1-2.9-14.1,3.8-14.3,4.1c-0.5,0.6-1.4,0.6-2,0.1c-0.6-0.5-0.6-1.4-0.1-2c0.3-0.4,7.4-8.4,17.4-4.9c3,1,4.7,2.6,5.1,4.6
	c0.6,3.1-2.2,5.7-2.5,6C917.9,303.8,917.6,303.9,917.3,303.9z"/>
<path d="M894.6,330c-0.4,0-0.8-0.2-1.1-0.5c-1.5-2-9.1-12.8-6.3-31.3c0.1-1.5,1.5-20.1,18.2-20.9c5.2-0.2,9,1,11.3,3.5
	c2.8,3.1,2.2,7,2.1,7.2c-0.1,0.8-0.8,1.3-1.6,1.2c-0.8-0.1-1.3-0.8-1.2-1.6c0,0,0.4-2.8-1.5-4.9c-1.7-1.9-4.8-2.8-9.1-2.6
	c-6.1,0.3-10.6,3.4-13.3,9.2c-2.1,4.5-2.3,9-2.3,9.1c0,0,0,0.1,0,0.2c-2.6,17.4,4.3,27.4,5.7,29.3c0.5,0.6,0.4,1.5-0.3,2
	C895.2,329.9,894.9,330,894.6,330z"/>
<path d="M903.5,334c-0.2,0-0.5-0.1-0.7-0.2c-0.7-0.4-0.9-1.2-0.6-1.9c1.6-2.9,1.2-12.1,0.9-15.4c0-0.3,0.1-0.6,0.2-0.9
	c4.2-6.1,7.5-8.6,14.4-5.3c0.6-1.1,1.3-2.8,1-4.2c-0.2-1-1-1.8-2.2-2.5c-7.3-3.8-13,4.2-13.3,4.5c-0.4,0.6-1.3,0.8-1.9,0.3
	c-0.6-0.5-0.8-1.3-0.3-2c2.5-3.6,9.3-9.3,16.8-5.4c2,1.1,3.3,2.5,3.7,4.4c0.8,3.6-2,7.3-2.1,7.4c-0.4,0.5-1.2,0.7-1.8,0.4
	c-5.7-3.1-7.8-2-11.6,3.4c0.2,2.6,0.8,12.6-1.3,16.4C904.5,333.8,904,334,903.5,334z"/>
<path d="M910.4,191.3c-0.5,0-1.1-0.3-1.3-0.9c-0.3-0.7-7.4-17.8-3.6-32.8c2.9-11.5,14-23,32.3-23c0,0,0,0,0,0
	c14,0,21.4,6.6,21.7,6.9c0.6,0.5,0.6,1.4,0.1,2c-0.5,0.6-1.4,0.6-2,0.1c-0.1-0.1-7-6.1-19.8-6.1c0,0,0,0,0,0
	c-16.8,0-27,10.5-29.6,20.9c-3.5,14,3.4,30.8,3.5,31c0.3,0.7,0,1.5-0.8,1.8C910.7,191.3,910.5,191.3,910.4,191.3z"/>
<path d="M921.2,229.9c-0.8,0-1.4-0.6-1.4-1.4l-0.3-14.3c-6.3-2.5-16-9.1-13.2-19.2c1.8-6.7,5.6-7.5,7.8-7.4c3.9,0.2,8,3.8,9.8,8.2
	c2.1-2.8,5.7-8.8,6.9-17.7c0.1-0.8,0.8-1.3,1.6-1.2c0.8,0.1,1.3,0.8,1.2,1.6c-1.9,13.8-9,20.9-9.3,21.2c-0.4,0.4-0.9,0.5-1.4,0.3
	s-0.9-0.6-1-1.1c-0.8-4.3-4.7-8.5-8-8.6c-2.8-0.1-4.3,2.9-4.9,5.4c-2.9,10.7,11.8,16,12.4,16.2c0.5,0.2,0.9,0.7,0.9,1.3l0.3,15.3
	C922.7,229.3,922,229.9,921.2,229.9C921.3,229.9,921.2,229.9,921.2,229.9z"/>
<path d="M953.8,237.9c-4.6,0-10.3-1.4-17.2-5.2c-0.7-0.4-0.9-1.2-0.5-1.9c0.4-0.7,1.2-0.9,1.9-0.5c9.4,5.3,17.8,6.3,24.2,2.8
	c6.4-3.5,9-10.4,9.3-15.3c0.6-11-1.8-38.5-2-41.6c-0.4-0.6-3.5-3.6-18.7-2.8c-18,1-32.5,16.3-32.7,16.5c-0.5,0.5-1.3,0.6-1.9,0.2
	c-0.6-0.4-0.7-1.2-0.4-1.8c0.2-0.3,17.1-29.9,43.5-44.5c10.8-6,22-5.5,26.6,1.2c6.3,9.1-2.9,22.2-13.7,31.6c0.4,4.8,2.6,30.6,2,41.5
	c-0.4,7.3-4.6,14.2-10.8,17.6C961.2,236.8,957.9,237.9,953.8,237.9z M974,142.2c-3.8,0-8.3,1.1-13.2,3.9
	c-17.1,9.5-30.2,25.4-37,35.1c6.3-4.6,15.9-10.1,26.9-10.7c13.3-0.7,18.4,1.5,20.4,3.2c9.3-8.2,17.8-19.9,12.6-27.4
	C981.9,143.9,978.5,142.2,974,142.2z"/>
<path d="M952,258.7c-1.4,0-3-0.1-4.7-0.3c-0.8-0.1-1.3-0.8-1.3-1.5c0.1-0.8,0.8-1.3,1.5-1.3c15,1.6,17-4.7,17.2-5.7l-1.1-14.2
	c-0.1-0.8,0.5-1.5,1.3-1.5c0.8-0.1,1.5,0.5,1.5,1.3l1.1,14.4c0,0.1,0,0.2,0,0.3C967.5,250.6,966.4,258.7,952,258.7z"/>
<path d="M959.7,211c-0.5,0-1-0.3-1.3-0.8c-0.3-0.7-0.1-1.5,0.6-1.9c0.2-0.1,4.8-2.5,3.8-6.3c-0.1-0.3-0.7-1.1-1.2-1.7
	c-2.1-2.5-5.6-6.6-4.2-14.3c1.3-7.1,8.2-8.8,11.7-8.8c0.8,0,1.4,0.7,1.4,1.4c0,0.8-0.7,1.4-1.4,1.4c-0.3,0-7.6,0-8.8,6.5
	c-1.2,6.4,1.5,9.6,3.5,12c0.9,1,1.6,1.8,1.8,2.8c1.3,4.8-2.9,8.4-5.3,9.5C960.1,210.9,959.9,211,959.7,211z"/>
<path d="M935.5,186.7c-0.2,0-0.5-0.1-0.7-0.2c-0.7-0.4-0.9-1.3-0.5-1.9c2-3.4,7.8-8.8,15.7-5.5c0.7,0.3,1,1.1,0.8,1.8
	c-0.3,0.7-1.1,1-1.8,0.8c-7.7-3.2-12,4-12.2,4.3C936.5,186.4,936,186.7,935.5,186.7z"/>
<path d="M946.1,190.8c0.1-1.4-0.7-2.6-1.8-2.7c-1.1-0.1-2.1,1-2.2,2.4c-0.1,1.4,0.7,2.6,1.8,2.7C945,193.3,946,192.2,946.1,190.8z"
	/>
<path d="M967.5,190.6c0.1-1.4-0.7-2.6-1.8-2.7c-1.1-0.1-2.1,1-2.2,2.4c-0.1,1.4,0.7,2.6,1.8,2.7C966.4,193.1,967.4,192,967.5,190.6z
	"/>
<path d="M954,224.5c-8.3,0-10.9-6.6-11.2-10.2c0-0.5,0.2-0.9,0.5-1.2c0.4-0.3,0.8-0.4,1.3-0.3c0.1,0,7.9,2.4,13.8,1.3
	c0.8-0.1,1.5,0.4,1.6,1.1c0,0.2,0,0.4,0,0.5c0.2,0,0.4,0,0.6,0c0.8,0.2,1.2,1,1,1.7c-0.1,0.3-1.9,6.8-7.2,6.9
	C954.3,224.5,954.2,224.5,954,224.5z M946,216.2c0.8,2.3,2.8,5.7,8.4,5.5c2.9-0.1,4.3-4.1,4.5-4.8C954.4,217.8,949,216.9,946,216.2z
	"/>
<path class="st1" d="M863.1,414.2l-12.4,0.8c-27,1.6-48.9-21.5-45.7-48.4l10.3-87.8c3.6-33.1,46.4-37.7,57-36.6
	c8.6,0.9,0.9,5.5-12.1,16.6c-22.1,18.9-60.8,91.9-40,110.1c14.3,12.5,31.9,9.5,41.5,6.4c3.5-1.1,7,1.5,7,5.2l-0.7,28.7
	C868,411.8,865.8,414,863.1,414.2z"/>
<path class="st1" d="M934,450c-1.7-2.7-10.5-8.4-17.8-10.7s-41.8-4.3-54.6,8c-13.5,13-3.3,38.2-0.3,46.7c3,8.5,11.8,21.3,16.6,21.2
	c4.8-0.1-1.1-29.1,24.1-49.2C927.3,446.1,937.4,455.4,934,450z"/>
<path d="M941.5,534c-5.5,0-11.7-3.5-13.3-6.6c-0.7-1.3-0.7-2.7,0.3-3.6c2.2-2.2,15.6-5.8,19.9-5.6c0.7,0,1.8,0.1,2.4,0.9
	c1.3,1.5,1.1,4.8,0.3,7.3c-1.3,3.9-3.8,6.6-7,7.3C943.2,533.9,942.4,534,941.5,534z M930.7,525.8c0.2,0.4,0.8,1.2,2.2,2.2
	c2.7,2,7,3.5,10.5,2.8c2.7-0.6,4.1-3.3,4.6-4.8c0.8-2.2,0.8-4.2,0.6-4.8C945.8,520.7,932.8,524.3,930.7,525.8z"/>
<path d="M936.1,551.3c-4.1,0-8.4-0.9-12.8-2.6c-0.8-0.3-1.1-1.2-0.8-2s1.2-1.1,1.9-0.8c8.3,3.3,16.5,3.2,22.9-0.4
	c6.6-3.7,11-10.9,12.6-20.7c1.3-7.8-2.6-16.5-6.8-25.7c-3.3-7.2-6.7-14.7-8.2-22.9c-0.2-0.8,0.4-1.6,1.2-1.8
	c0.8-0.1,1.6,0.4,1.8,1.2c1.5,7.8,4.8,15.1,8,22.2c4.4,9.6,8.5,18.7,7.1,27.5c-1.8,10.8-6.6,18.6-14.1,22.8
	C945,550.2,940.7,551.3,936.1,551.3z"/>
<path d="M929.4,580.8c-0.9,0-1.8,0-2.7-0.1c-13.8-1.1-27.7-11.3-28.3-11.8c-0.7-0.5-0.8-1.4-0.3-2.1c0.5-0.7,1.4-0.8,2.1-0.3
	c0.1,0.1,13.8,10.2,26.7,11.2c10.2,0.8,14.3-3.4,15.3-4.6l0.7-23.7c0-0.8,0.7-1.5,1.5-1.5c0.8,0,1.5,0.7,1.4,1.5l-0.7,24.1
	c0,0.3-0.1,0.5-0.2,0.8C944.7,574.7,940.8,580.8,929.4,580.8z"/>
<path d="M823.1,754.4c-4.1,0-8.1-0.3-11.8-1c-13.2-2.5-22.5-9.1-27.5-19.9c-20.5-43.7,18.9-124.6,41-147
	c16.1-16.3,46.2-24.6,59.9-23.1c0.8,0.1,1.4,0.8,1.3,1.7c-0.1,0.8-0.8,1.4-1.7,1.3c-12.8-1.4-42.2,6.7-57.4,22.2
	c-9.8,9.9-25.1,34.3-35.8,64.3c-11.6,32.8-13.3,61-4.7,79.4c4.6,9.8,13.1,15.9,25.3,18.2c34.6,6.4,86.5-19.1,103.2-35.1
	c9.9-9.5,10.2-16.3,10.2-16.3c0-0.5,0.3-1,0.7-1.3l17.6-10.8c0.2-0.2,0.5-0.2,0.8-0.2c0.4,0,10.7-0.4,14.9-21c0.2-0.8,1-1.3,1.8-1.2
	c0.8,0.2,1.3,1,1.2,1.8c-4.3,20.9-15,23.1-17.4,23.3l-16.7,10.2c-0.3,2.3-2.1,9-11,17.6C899.7,734.2,856,754.4,823.1,754.4z"/>
<path d="M892.7,564.3c-0.2,0-0.4,0-0.6-0.1c-0.8-0.3-1.1-1.2-0.8-2c5.5-13.4,4.8-24.3,4.4-28c-4,0.4-14.5,0.5-18.7-8.5
	c-2.4-5.2-1.7-9.7,1.9-12.1c4.4-3,11.6-1.8,15.8,2.6c0.6,0.6,0.5,1.6-0.1,2.1c-0.6,0.6-1.6,0.5-2.1-0.1c-3.5-3.7-9.1-4.2-12-2.2
	c-2.3,1.6-2.6,4.6-0.8,8.4c4.2,9,16.5,6.7,17,6.6c0.8-0.2,1.6,0.4,1.8,1.2c0.1,0.5,2.8,13.7-4.3,31.2
	C893.9,563.9,893.3,564.3,892.7,564.3z"/>
<path d="M951.1,487.7c-0.7,0-1.3-0.5-1.5-1.2c-0.2-0.8,0.4-1.6,1.2-1.8c0.2,0,6-1.4,7.4-8.5c0.7-3.4-0.1-6.5-2.2-8.9
	c-1.5-1.6-3.5-2.8-5.8-3.2c-0.3,1.4-1,2.8-1.8,3.8c-3.1,3.6-5.7,2.7-6.5,2.4c-1.6-0.8-2.5-2.6-2.2-4.5c0.2-1,1.1-4.3,6.6-4.8
	c0.4,0,0.8-0.1,1.1-0.1c0-0.1,0-0.3-0.1-0.4c-0.4-2.2-2.1-5.4-7.4-8.1c-0.7-0.4-1-1.3-0.7-2s1.3-1,2-0.7c6.4,3.3,8.4,7.3,9,10.2
	c0.1,0.4,0.1,0.8,0.2,1.2c3,0.5,5.8,2,7.8,4.2c2.8,3.1,3.8,7.1,3,11.5c-1.8,9.2-9.4,10.8-9.7,10.9
	C951.3,487.6,951.2,487.7,951.1,487.7z M947.1,463.8c-0.2,0-0.4,0-0.6,0c-2.6,0.3-3.7,1.4-3.9,2.3c-0.1,0.6,0.1,1.1,0.5,1.3
	c0.5,0.2,1.6,0,2.9-1.6C946.4,465.4,946.8,464.7,947.1,463.8z"/>
<path d="M887.9,511.6c-0.7,0-1.3-0.5-1.5-1.2c-0.2-0.8,0.4-1.6,1.2-1.8c0.1,0,13.6-2.8,16-13.4c0.4-1.7,0.5-3.2,0.4-4.5
	c-3.7-0.3-7.6-1.3-9.1-3.9c-1.6-2.8-0.5-4.5,0.1-5c1.4-1.5,4.2-1.5,6.7-0.2c2,1.1,3.9,3.2,4.8,6.2c0.6,0,1.3,0,2,0
	c10.4-0.3,23.5-4.2,26.4-10c1.1-2.3,1.4-4.3,0.6-6.3c-1.5-4.2-6.7-6.5-6.7-6.5c-0.8-0.3-1.1-1.2-0.8-2c0.3-0.8,1.2-1.1,2-0.8
	c0.3,0.1,6.4,2.9,8.3,8.3c1,2.8,0.7,5.7-0.8,8.7c-3.6,7.2-17.6,11.4-29,11.7c-0.5,0-1,0-1.6,0c0.1,1.5-0.1,3.2-0.5,5
	c-2.9,12.6-17.8,15.6-18.4,15.7C888.1,511.6,888,511.6,887.9,511.6z M898.2,483.7c-0.5,0-0.8,0.1-0.9,0.2c-0.2,0.2-0.1,0.7,0.3,1.4
	c0.5,0.9,2.3,1.8,5.8,2.3c-0.9-2-2.3-3-3-3.3C899.5,483.9,898.8,483.7,898.2,483.7z"/>
<path d="M866.3,499c-0.7,0-1.3-0.5-1.5-1.2c-0.2-0.9-4.9-22.2,18.5-45.2c14.2-14,28.6-12.8,29.2-12.8c0.8,0.1,1.4,0.8,1.4,1.6
	c-0.1,0.8-0.8,1.4-1.6,1.3c-0.1,0-13.7-1-26.9,11.9c-11.5,11.4-15.7,22.3-17.2,29.5c-1.6,7.8-0.5,12.9-0.4,13
	c0.2,0.8-0.3,1.6-1.1,1.8C866.6,499,866.5,499,866.3,499z"/>
<path d="M874.9,508.7c-0.4,0-0.8-0.2-1.1-0.5c-6.2-6.4-5.7-10.5-4.3-12.8c0.4-0.6,0.9-1.1,1.4-1.5c-1.2-1.8-1.9-3.9-1.8-6.1
	c0.3-5.4,3.4-7.6,5.3-8.5c-1.8-3.6-1.7-6.9,0.3-9.2c2.2-2.6,5.2-3.7,8.1-4c-0.1-0.4-0.3-0.8-0.3-1.2c-0.6-2.7,0.2-5,2.3-6.5
	c1.9-1.3,4.4-2,7-2.2c-0.4-2.4,0.5-4.5,2.7-6.1c2.8-2,6.3-2.8,9.7-2.8c0,0,0,0,0,0c0.3-0.9,1-2,2.7-2.8c9.7-4.6,21.6,1.9,22.1,2.2
	c0.7,0.4,1,1.3,0.6,2c-0.4,0.7-1.3,1-2,0.6c-0.1-0.1-11-6-19.4-2.1c-0.2,0.1-0.4,0.2-0.6,0.3c2.5,0.4,4.8,1.1,6.4,1.9
	c2.7,1.4,3.3,3,3.2,4c0,1.2-0.9,2.1-2.2,2.3c-2.7,0.4-8.5-2.3-10.3-5.5c-3.1-0.1-6.2,0.6-8.4,2.2c-1.3,1-1.8,2-1.4,3.4
	c0,0.1,0,0.2,0.1,0.3c3.6,0.3,6.9,1.4,8.5,2.9c1.3,1.2,1.6,2.7,0.9,4c-0.7,1.2-2,1.8-3.7,1.6c-2.5-0.3-5.8-2.6-7.6-5.5
	c-2.5,0-4.9,0.5-6.5,1.6c-1.7,1.2-1.3,3.3-0.6,4.8c0.1,0.2,0.1,0.3,0.2,0.5c2.5,0.3,4.8,1.2,6.1,2.3c2,1.5,2,3.2,1.3,4.3
	c-0.7,1-1.9,1.5-3.2,1.2c-2-0.4-4.4-2.4-6-4.9c-2.2,0-5.2,0.5-7.4,3c-1.5,1.7-0.6,4.3,0.1,5.7c0.1,0.2,0.2,0.5,0.4,0.7
	c2.2-0.2,4.5,0.3,6,1.6c1.4,1.1,2,2.7,1.6,4.3c-0.3,1.3-1.1,2.1-2.2,2.2c-2.3,0.3-5-2.2-6.9-4.8c-0.1,0-0.2,0.1-0.2,0.1
	c-1.5,0.7-3.4,2.2-3.6,6c-0.1,1.5,0.6,3.1,1.5,4.5c1.7-0.5,3.6-0.5,5.1,0c1.7,0.6,2.7,1.8,2.6,3.4c-0.2,2-1.5,3.3-3.4,3.1
	c-1.5-0.1-3.4-1.2-5-2.7c-0.5,0.4-0.8,0.8-1.1,1.4c-0.7,2,0.7,5.1,4.1,8.6c0.6,0.6,0.6,1.6,0,2.1
	C875.7,508.6,875.3,508.7,874.9,508.7z M876.3,495.1c1.1,0.8,1.8,0.9,2,0.8c0,0,0-0.1,0-0.3C878.3,495.4,877.5,495.1,876.3,495.1z
	 M879.7,481.6c1,1.1,2,1.8,2.6,2c0-0.3,0-0.7-0.6-1.2C881.2,482.1,880.5,481.8,879.7,481.6z M889.4,470.2c0.5,0.4,0.9,0.6,1.2,0.8
	C890.4,470.8,890,470.5,889.4,470.2z M897.3,459.8c1.2,1.1,2.6,1.9,3.8,2.1c0.1,0,0.6,0.1,0.7-0.1c0-0.1-0.6-0.8-2.7-1.5
	C898.5,460.1,897.9,459.9,897.3,459.8z M909.8,451.3c1.3,0.8,2.8,1.4,3.8,1.7c-0.5-0.4-1.3-0.8-2.4-1.2
	C910.7,451.5,910.3,451.4,909.8,451.3z"/>
<path d="M945.1,513.6c-0.4,0-0.8-0.2-1.1-0.5c-0.6-0.6-0.5-1.5,0.1-2.1c1.7-1.6,3.9-4.5,3.6-5.8c-0.3-1.6-2.7-2.9-5.2-4.3
	c-3.8-2.1-8.5-4.8-7.9-10.1c0.4-4.1,2.8-7.5,6.4-9.3c2.7-1.3,5.7-1.5,7.5-0.5c0.7,0.4,0.9,1.4,0.5,2.1c-0.4,0.7-1.3,0.9-2.1,0.5
	c-0.6-0.4-2.5-0.5-4.6,0.6c-1.6,0.8-4.3,2.7-4.7,6.9c-0.3,3.1,2.3,4.9,6.4,7.2c2.9,1.7,6,3.4,6.6,6.3c0.8,3.4-3.6,7.8-4.5,8.6
	C945.8,513.4,945.4,513.6,945.1,513.6z"/>
<path d="M910,500.6c-0.2,0-0.4,0-0.6-0.1c-0.8-0.3-1.1-1.2-0.8-2c2.3-5.9,6.4-8.2,9.4-9.2c3.3-1,6-0.6,6.1-0.6
	c0.8,0.1,1.4,0.9,1.3,1.7c-0.1,0.8-0.9,1.4-1.7,1.3c-0.4-0.1-8.7-1.1-12.3,7.9C911.2,500.3,910.6,500.6,910,500.6z"/>
<path d="M922.4,503.8c1.3-0.3,2.1-1.9,1.8-3.6c-0.4-1.7-1.7-2.9-3.1-2.6c-1.3,0.3-2.1,1.9-1.8,3.6
	C919.7,502.9,921.1,504.1,922.4,503.8z"/>
<path d="M944.6,495.9c1.3-0.3,2.1-1.9,1.8-3.6c-0.4-1.7-1.7-2.9-3.1-2.6s-2.1,1.9-1.8,3.6C941.8,495,943.2,496.1,944.6,495.9z"/>
<path d="M1088.6,547.3l-25.3-3.9c-2.5-0.4-4.9,0.8-6.2,3l-27.7,50.5c-2,3.6,0.2,8.2,4.3,8.8l25.3,3.9c1.9,0.3,3.9-0.4,5.2-1.8
	l-0.5-0.3c0,0-14.8-9.5-13.5-12.5s15.1,3,15.1,3s-13.5-20.4-10.1-22.5c3.4-2.1,15.9,9.8,15.9,9.8l0.8-5.3c0,0-1-14.3,2.7-12.9
	c3.7,1.3,6.7,9.8,6.7,9.8l11.5-20.9C1094.9,552.4,1092.7,547.9,1088.6,547.3z"/>
<path d="M1000.5,685.1c0,0-0.1,0-0.1,0c-0.8-0.1-1.5-0.8-1.4-1.6c2.6-35.5,10-46.1,11.6-48l9.3-31.3c0.2-1.3,1.5-10.7,5.5-15.7
	c4.1-5,8.7-9.4,8.9-9.6c0.6-0.6,1.6-0.5,2.1,0.1c0.6,0.6,0.5,1.5-0.1,2.1c0,0-4.7,4.5-8.7,9.3c-3.7,4.6-4.9,14.2-4.9,14.3
	c0,0.1,0,0.2,0,0.3l-9.5,31.8c-0.1,0.2-0.2,0.5-0.4,0.6c-0.1,0.1-8.2,8.9-11,46.4C1001.9,684.5,1001.2,685.1,1000.5,685.1z"/>
<path d="M1022.5,734.4c-16.1,0-29.6-14.1-30.2-14.7c-0.6-0.6-0.5-1.5,0.1-2.1c0.6-0.6,1.5-0.5,2.1,0.1c0.1,0.1,13.4,13.9,28.3,13.8
	c7-0.1,13.3-3.2,18.8-9.3c12.9-14.2,13.5-47.5,10.8-66.3c-1.4-10-5.2-14-5.2-14c-0.2-0.2-0.3-0.4-0.4-0.7l-3.1-12.6
	c-2.1,1-6,2.2-11,1.1c-12.7-2.8-16.6-11.2-16.7-11.5c-0.3-0.8,0-1.6,0.8-2c0.8-0.3,1.6,0,2,0.8c0.1,0.3,3.5,7.4,14.7,9.8
	c6.4,1.4,10.2-1.5,10.4-1.7c0.4-0.3,0.9-0.4,1.4-0.2c0.5,0.2,0.8,0.6,1,1.1l3.5,14.2c1,1.2,4.4,5.8,5.8,15.3
	c2.4,16.7,3.1,52.6-11.6,68.8c-6.1,6.8-13.2,10.2-21,10.3C1022.7,734.4,1022.6,734.4,1022.5,734.4z"/>
<path d="M1053.1,625.3c-8.7,0-17.5-2.7-18.1-2.8c-0.8-0.2-1.2-1.1-1-1.9c0.2-0.8,1.1-1.2,1.9-1c0.2,0,16.5,5,25.7,1.4
	c9.1-3.5,15.6-17.6,16.1-24.1c-0.2-1.9-8.5-12.6-15.1-17.4c-2.2-1.6-3.1-1.7-3.3-1.7c-1.1,2.2,5.6,15.6,11.5,23.1
	c0.5,0.7,0.4,1.6-0.2,2.1c-0.7,0.5-1.6,0.4-2.1-0.2c-4.4-5.4-13.7-20.8-12-25.9c0.3-1,1.1-1.7,2-2c1.1-0.3,3.1-0.3,7.6,3.4
	c5.8,4.8,14.9,15.4,14.6,18.8c-0.5,6.9-7.4,22.6-18,26.7C1059.8,624.9,1056.4,625.3,1053.1,625.3z"/>
<path d="M1079.9,593.9c-0.2,0-0.3,0-0.5-0.1c-0.8-0.3-1.2-1.1-1-1.9c1.4-4.3,3.5-12,3.2-14c-0.6-3.4-5.3-10.9-7.2-12.2
	c-0.5,1.9,0,8.4,1.3,14.9c0,0.2,0,0.5,0,0.7l-1.6,5.9c-0.2,0.8-1,1.3-1.8,1.1c-0.8-0.2-1.3-1-1.1-1.8l1.5-5.6
	c-3.2-16.9-0.3-17.9,0.6-18.2c0.5-0.2,1.4-0.3,2.5,0.4c3.4,2,8.3,11.3,8.8,14.4c0.6,3.4-2.6,13.5-3.3,15.5
	C1081.1,593.5,1080.5,593.9,1079.9,593.9z"/>
<path d="M1062.6,619.6c0,0-0.1,0-0.1,0c-0.2,0-1.9-0.2-10.9-2.4c-3.3-0.8-10.9-3-11.4-7c-0.1-0.8,0-2.4,2.3-3.6
	c2.6-1.4,11,0.2,18,1.9c-2.3-1.5-4.6-3.1-6.3-4.2c-2.1-1.4-9.8-7.3-8.8-11.1c0.2-0.7,0.6-1.2,1.3-1.5c2.1-1,5.8,0.5,13.4,3.6
	l1.4,0.6c7.6,3.1,15.1,9,15.4,9.3c0.7,0.5,0.8,1.5,0.2,2.1c-0.5,0.7-1.5,0.8-2.1,0.2c-0.1-0.1-7.4-5.9-14.7-8.8l-1.4-0.6
	c-4-1.6-8.8-3.7-10.6-3.7c0.5,1.4,3.6,5,7.4,7.5c4.5,3,13.5,9.1,13.6,9.2c0.6,0.4,0.8,1.2,0.5,1.9c-0.3,0.7-1.1,1-1.8,0.8
	c-10.1-2.9-22.3-5.4-24.2-4.3c-0.6,0.3-0.7,0.5-0.7,0.5c0,0.6,2.2,2.8,9.1,4.4c8.7,2.1,10.4,2.3,10.5,2.3c0.8,0.1,1.4,0.8,1.4,1.6
	C1064,619,1063.3,619.6,1062.6,619.6z"/>
<path d="M1012.4,634.1c-0.6,0-1.1-0.4-1.4-0.9c-0.2-0.5-19.9-47.5-61.6-53.9c-0.8-0.1-1.4-0.9-1.3-1.7s0.9-1.4,1.7-1.3
	c43.4,6.6,63.8,55.2,64,55.7c0.3,0.8,0,1.6-0.8,2C1012.8,634,1012.6,634.1,1012.4,634.1z"/>
<path d="M991.7,751c-0.1,0-0.2,0-0.3,0c-0.8-0.2-1.3-1-1.1-1.8c3.3-14.4-6.8-107-6.9-108c-0.1-0.8,0.5-1.6,1.3-1.7
	c0.8-0.1,1.6,0.5,1.7,1.3c0.4,3.8,10.3,94.1,6.8,109C993,750.5,992.3,751,991.7,751z"/>
<path d="M928.7,592.2c-3.6,0-7.7-0.6-12.4-2.1c-19.3-6-32.4-23.5-33-24.3c-0.5-0.7-0.3-1.6,0.3-2.1c0.7-0.5,1.6-0.4,2.1,0.3
	c0.1,0.2,13.2,17.5,31.4,23.2c24.2,7.6,30.8-9.3,31-10c0.3-0.8,1.1-1.2,1.9-0.9c0.8,0.3,1.2,1.1,0.9,1.9
	C951,578.5,945.7,592.2,928.7,592.2z"/>
<path d="M836.3,694.7c-0.2,0-0.4,0-0.6,0c-1.5-0.3-2.7-1.5-3-3.4c-0.4-2.3,0.4-4.5,2.3-6.6c2.5-2.8,7-5.3,12.4-7.4
	c12.5-24.9,13.5-80.8-6.8-92.2c-0.7-0.4-1-1.3-0.6-2c0.4-0.7,1.3-1,2-0.6c21.4,12,21,66.2,9.3,93.4c14.4-4.9,32.8-7.6,39.1-7.2
	c9.3,0.7,15.5,2.6,17.4,3.3l20.9-9c1.8-3.5,13.1-25.1,16-30.5c1.7-3.2,9.6-10.4,16.7-16.1c6.8-5.4,15.4-11.8,18.6-11.2
	c1,0.2,1.7,0.9,1.8,2c0.5,5.3-16.9,24.7-22.3,30.5c-0.6,0.6-1.5,0.7-2.1,0.1c-0.6-0.6-0.7-1.5-0.1-2.1c9.7-10.6,20-23.3,21.4-27.4
	c-5.6,1.9-28.5,20.4-31.3,25.5c-3.1,5.9-16.1,30.8-16.2,31c-0.2,0.3-0.4,0.5-0.7,0.7l-21.9,9.4c-0.4,0.2-0.8,0.2-1.1,0
	c-0.1,0-6.7-2.5-17.2-3.3c-6.3-0.5-26.6,2.6-40.7,8c-0.1,0.3-0.3,0.5-0.4,0.8C843.9,690,839.7,694.7,836.3,694.7z M845.2,681.4
	c-3.4,1.6-6.2,3.4-7.9,5.3c-1.3,1.4-1.8,2.8-1.6,4.1c0.1,0.4,0.3,0.9,0.5,1C836.3,691.7,838.9,692,845.2,681.4z"/>
<path d="M974.7,641.9c-0.3,0-0.7-0.1-1-0.4c-0.6-0.5-0.7-1.5-0.2-2.1c1.9-2.2,4.4-6.1,4-7.7c0-0.2-0.1-0.3-0.4-0.5
	c-2.3-1-14.3,4.3-24,9.8c-0.7,0.4-1.6,0.1-2-0.6c-0.4-0.7-0.1-1.6,0.6-2c5.1-2.9,22-12,26.7-10c1.2,0.5,1.9,1.4,2.2,2.5
	c0.8,3.7-3.8,9.3-4.7,10.4C975.5,641.7,975.1,641.9,974.7,641.9z"/>
<path d="M977.6,651.7c-0.3,0-0.7-0.1-0.9-0.3c-0.7-0.5-0.8-1.5-0.3-2.1c1.6-2,3.6-5.5,3.2-7.1c-0.1-0.3-0.2-0.5-0.6-0.6
	c-2.4-1-13.4,2.9-22.7,7.3c-0.8,0.3-1.6,0-2-0.7c-0.3-0.8,0-1.6,0.7-2c3.4-1.6,20.4-9.4,25.2-7.4c1.2,0.5,2,1.4,2.3,2.6
	c0.9,3.6-2.9,8.7-3.7,9.7C978.5,651.5,978,651.7,977.6,651.7z"/>
<path d="M970.5,672.7c-0.7,0-1.6-0.4-2-1.6c-0.9-2.7-0.7-5.7-0.3-8l-8,4.6c-0.7,0.4-1.6,0.2-2-0.5c-0.4-0.7-0.2-1.6,0.5-2.1
	l11.1-6.4c0.6-0.3,1.2-0.3,1.7,0.2c0.5,0.4,0.6,1.1,0.4,1.7c0,0.1-1.6,4.3-1,8.2c1.9-2.5,5.1-9.3,5.9-14.4c0.4-2.4,0-3,0-3
	c-2.5-1.1-12.2,2.5-18.3,5.4c-0.8,0.4-1.6,0-2-0.7c-0.4-0.8,0-1.6,0.7-2c2.6-1.3,16-7.5,20.8-5.4c1.7,0.8,2.3,2.8,1.8,6.2
	c-0.8,4.9-5.7,17.5-9.3,17.7C970.6,672.7,970.5,672.7,970.5,672.7z"/>
<path d="M944.3,689.8c-0.7,0-1.4-0.6-1.5-1.3c0-0.2-2.5-17.7-11.6-21.8c-0.8-0.3-1.1-1.2-0.8-2s1.2-1.1,2-0.8
	c10.7,4.7,13.3,23.3,13.4,24.1c0.1,0.8-0.5,1.6-1.3,1.7C944.5,689.8,944.4,689.8,944.3,689.8z"/>
<path d="M925.5,698c-0.7,0-1.3-0.5-1.5-1.2c0-0.2-3-16.2-13.5-20c-0.8-0.3-1.2-1.1-0.9-1.9c0.3-0.8,1.1-1.2,1.9-0.9
	c12.1,4.4,15.3,21.6,15.4,22.3c0.1,0.8-0.4,1.6-1.2,1.7C925.7,698,925.6,698,925.5,698z"/>
<path d="M1034.4,645.9c-5.7,0-13-1.6-20.8-7c-0.7-0.5-0.8-1.4-0.4-2.1c0.5-0.7,1.4-0.8,2.1-0.4c16.3,11.4,29.6,4.4,30.2,4.1
	c0.7-0.4,1.6-0.1,2,0.6s0.1,1.6-0.6,2C1046.6,643.3,1041.7,645.9,1034.4,645.9z"/>
<path d="M993,678c-0.1,0-0.2,0-0.2,0c-0.8-0.1-1.4-0.9-1.3-1.7c1.8-11.7,8.3-19.1,8.6-19.4c0.5-0.6,1.5-0.7,2.1-0.1s0.7,1.5,0.1,2.1
	c-0.1,0.1-6.2,7.1-7.8,17.9C994.4,677.5,993.7,678,993,678z"/>
<path d="M1336.2,103.5c-0.1,0-0.2,0-0.3,0c-0.6-0.1-15-3.5-25.4-13.1c-0.3-0.3-0.5-0.8-0.4-1.3c0-0.1,1.4-7.6,2.5-16
	c0.2-1.2,0.2-4.1,0.2-7.4c0.1-15.2,0.6-22.7,3.5-24.3c1.4-0.8,2.9-0.9,4.2-0.1c2.7,1.4,4.9,6.1,6.5,14.4c0.4,1.9,0.7,3.7,0.9,5.4
	c0,0,0-0.1,0-0.1c0.4-0.9,9.1-21,14.5-25.6c4.6-3.9,7.2-3.3,8.3-2.6c1.2,0.7,1.7,2.1,1.4,3.6c-0.3,1.3-2.8,7.8-5,13.5
	c5.5-6.4,13.4-14,18.3-12.4c0.7,0.2,1.2,0.7,1.4,1.4c0.4,1.4-0.1,4.2-6.9,14c-0.2,0.3-0.5,0.7-0.7,1c5-3.7,10.8-7.2,13.9-6.6
	c1.1,0.2,1.9,0.7,2.3,1.6c0.5,0.8,1.6,2.8-10.8,16.1c4.8-2.1,10.2-3.7,12.5-1.4c0.3,0.3,0.7,0.9,0.7,1.9c-0.3,5.7-21.7,23.6-26,27.1
	l-14.7,10.9C1336.8,103.4,1336.5,103.5,1336.2,103.5z M1312.9,88.9c8.6,7.6,20.2,11,23,11.7l14.1-10.4
	c15.3-12.6,24.7-22.6,24.9-24.9c-1.8-1.3-10.1,2.1-16.7,6c-0.6,0.4-1.4,0.2-1.8-0.3c-0.4-0.5-0.4-1.3,0.1-1.8
	c7.5-7.5,15.6-16.8,16.3-19.2c0,0-0.1,0-0.2-0.1c-3.3-0.6-14,7.4-20.5,13.2c-0.5,0.5-1.4,0.5-1.9,0c-0.5-0.5-0.6-1.3-0.1-1.9
	c6.6-8.3,13.6-18.5,14-21.3c-0.1,0-0.1,0-0.2,0c-4.3,0-14.3,10.7-20.3,18.7c-0.4,0.6-1.2,0.7-1.8,0.4c-0.6-0.3-0.9-1.1-0.6-1.7
	c3.1-7.8,7.9-20,8.2-21.6c0-0.1,0.1-0.4-0.1-0.6c-0.4-0.2-2-0.3-5,2.3c-4.1,3.5-11.3,19-13.8,24.6c-0.3,0.7-1.1,1-1.8,0.7
	c-0.3-0.1-0.4-0.3-0.6-0.5c0.4,2.7,0.5,4.6,0.5,4.7c0.1,0.8-0.5,1.5-1.3,1.5c-0.8,0.1-1.4-0.5-1.5-1.3c-0.7-8.1-3.1-21.6-6.7-23.5
	c-0.3-0.2-0.8-0.3-1.5,0.1c-2,1.3-2,15.7-2.1,21.9c0,3.6,0,6.4-0.2,7.7C1314.4,80.4,1313.3,86.7,1312.9,88.9z"/>
<path d="M1325.9,86.7c-0.2,0-0.5-0.1-0.7-0.2c-0.7-0.4-0.9-1.2-0.6-1.9c0.1-0.1,7.1-12.4,25.5-7.9c0.8,0.2,1.2,0.9,1,1.7
	s-0.9,1.2-1.7,1c-16.3-4-22.2,6.1-22.4,6.6C1326.9,86.4,1326.4,86.7,1325.9,86.7z"/>
<path d="M1057.6,101.2c-0.4,0-0.8-0.2-1-0.4l-12.3-13.4c-3.6-4.3-21.1-25.9-20.4-31.6c0.1-0.9,0.6-1.5,1-1.7c2.7-1.9,7.7,0.7,12,3.7
	c-9.6-15.4-8.1-17.1-7.5-17.9c0.7-0.8,1.5-1.2,2.6-1.1c3.2,0.1,8.2,4.6,12.4,9.2c-0.2-0.4-0.3-0.8-0.5-1.1
	c-4.9-10.9-4.8-13.7-4.1-15.1c0.3-0.6,0.9-1.1,1.6-1.1c5-0.6,11.3,8.4,15.5,15.7c-1.1-5.9-2.3-12.8-2.3-14.2c0-1.5,0.7-2.8,2-3.2
	c1.3-0.5,3.9-0.5,7.7,4.1c4.5,5.6,9.1,27.1,9.3,28c0,0,0,0.1,0,0.1c0.6-1.6,1.2-3.3,1.9-5.1c3.2-7.8,6.2-11.9,9.2-12.8
	c1.4-0.4,2.9-0.1,4.1,0.9c2.5,2.1,1.6,9.6-1.2,24.5c-0.6,3.3-1.2,6.1-1.2,7.3c-0.5,8.5-0.6,16.2-0.6,16.2c0,0.5-0.3,0.9-0.7,1.2
	C1073.1,100.7,1058.3,101.2,1057.6,101.2C1057.7,101.2,1057.6,101.2,1057.6,101.2z M1026.7,56.1c-0.3,2.3,7.1,14,19.7,29.3
	l11.8,12.9c2.9-0.2,14.9-1.3,24.8-7.1c0-2.2,0.2-8.6,0.6-15.6c0.1-1.4,0.6-4.1,1.3-7.6c1.2-6,3.8-20.2,2.2-21.9
	c-0.6-0.5-1.1-0.5-1.5-0.4c-3.9,1.2-8.8,14-11.1,21.8c-0.2,0.7-1,1.2-1.7,1c-0.7-0.2-1.2-1-1-1.7c0-0.1,0.6-1.9,1.4-4.5
	c-0.2,0.2-0.4,0.3-0.7,0.4c-0.8,0.2-1.5-0.3-1.7-1.1c-1.3-6-5.4-22.6-8.8-26.8c-2.5-3.1-4.1-3.4-4.5-3.2c-0.2,0.1-0.2,0.4-0.2,0.5
	c0,1.6,2.4,14.5,3.9,22.8c0.1,0.7-0.3,1.4-0.9,1.6c-0.7,0.2-1.4-0.1-1.7-0.7c-4.4-9.2-12.3-21.9-16.5-22.3
	c-0.1,2.8,4.8,14.1,9.7,23.6c0.3,0.7,0.1,1.4-0.5,1.8c-0.6,0.4-1.4,0.2-1.9-0.3c-5.3-7-14.3-16.8-17.6-16.9c-0.1,0-0.2,0-0.2,0
	c0.2,2.5,6.4,13.1,12.3,21.9c0.4,0.6,0.3,1.4-0.3,1.8c-0.5,0.5-1.3,0.5-1.9,0C1036.2,60.1,1028.7,55.2,1026.7,56.1z"/>
<path d="M1070.9,86.6c-0.6,0-1.1-0.4-1.3-1c-0.2-0.5-4-11.5-20.7-10.8c-0.8,0-1.4-0.6-1.5-1.3c0-0.8,0.6-1.4,1.3-1.5
	c9.8-0.5,15.7,3,18.9,5.9c3.5,3.3,4.6,6.6,4.7,6.8c0.2,0.7-0.2,1.5-0.9,1.8C1071.2,86.6,1071.1,86.6,1070.9,86.6z"/>
<path d="M1527.6,334.5c-0.6,0-1.2-0.4-1.4-1c-0.3-0.8,0.1-1.6,0.9-1.9l61.4-22.2c0.8-0.3,1.6,0.1,1.9,0.9s-0.1,1.6-0.9,1.9
	l-61.4,22.2C1527.9,334.5,1527.7,334.5,1527.6,334.5z"/>
<path d="M1037.9,420.8c-0.3,0-0.7-0.1-1-0.4c-0.6-0.5-0.7-1.5-0.2-2.1c0.3-0.3,6.4-7.4,15.7-10.1c0.8-0.2,1.6,0.2,1.8,1
	c0.2,0.8-0.2,1.6-1,1.8c-8.4,2.4-14.2,9.1-14.2,9.1C1038.8,420.6,1038.3,420.8,1037.9,420.8z"/>
<path class="st1" d="M1033.6,471.1l-32.4,126.3c0,0,4.1,13.9,7.8,15c6.2,1.8,8.9-8.7,8.9-8.7s2.3-10.8,5.1-15.5s15.1-13.2,15.1-13.2
	l17.1-30.5C1055.2,544.4,1038.7,515.5,1033.6,471.1z"/>
<path class="st3" d="M1260.5,718.7c-0.1,0-0.2,0-0.3,0c-47.4-10.3-52.2-35.1-52.4-36.2c-0.1-0.8,0.4-1.6,1.2-1.7
	c0.8-0.1,1.6,0.4,1.7,1.2c0,0.1,1.2,6,7.8,13.1c6.2,6.6,18.6,15.5,42.3,20.7c0.8,0.2,1.3,1,1.1,1.8
	C1261.8,718.2,1261.2,718.7,1260.5,718.7z"/>
<path class="st3" d="M1172.3,732.8c-0.1,0-0.2,0-0.2,0l-3.7-0.6c-5.5-0.9-9.4-5.7-9.1-11.3l2.2-40.6c0.1-0.8,0.8-1.4,1.6-1.4
	c0.8,0.1,1.5,0.8,1.4,1.6l-2.2,40.7c-0.2,4,2.6,7.5,6.6,8.2l3.7,0.6c0.8,0.1,1.4,0.9,1.3,1.7C1173.6,732.2,1173,732.8,1172.3,732.8z
	"/>
<path class="st3" d="M1173,725.7C1173,725.7,1173,725.7,1173,725.7c-0.9,0-1.5-0.7-1.5-1.5l1.6-45.1c0-0.8,0.7-1.5,1.5-1.5
	c0.8,0,1.5,0.7,1.5,1.5l-1.6,45.1C1174.5,725,1173.8,725.7,1173,725.7z"/>
<path class="st3" d="M1102.7,722.9c-0.6,0-1.2-0.4-1.4-1.1c-0.2-0.8,0.2-1.6,1-1.9c21.8-6.6,25.9-37.6,26-37.9
	c0.1-0.8,0.8-1.4,1.7-1.3c0.8,0.1,1.4,0.9,1.3,1.7c0,0.3-1.1,8.4-5,17.4c-5.3,12.1-13.2,20.1-23.1,23
	C1103,722.9,1102.9,722.9,1102.7,722.9z"/>
<path d="M1335.8,343c-0.1,0-0.1,0-0.2,0c-0.8-0.1-1.4-0.8-1.3-1.7l1.6-13.6c0.1-0.8,0.8-1.4,1.7-1.3c0.8,0.1,1.4,0.8,1.3,1.7
	l-1.6,13.6C1337.2,342.4,1336.6,343,1335.8,343z"/>
<path d="M1576.2,330.4c-19.5,0-31,12.2-29.1,20.5c1.5,5.9,10.6,9.9,19.4,10.9c8.8,1,28.3-2.2,32.6,2.9c4.3,5.1-6.9,26.6,0.8,36.6
	c0,0,10.8-4.9,17.2-2.7c0,0,11.2-15.2,11.3-32.3C1628.6,350.5,1610.3,330.4,1576.2,330.4z"/>
<path d="M1457.1,701.1C1457.1,701.1,1457,701.1,1457.1,701.1c-17.9-0.5-55.1-1.5-59.6-44.4c-2.2-21.5,2-48.1,5.9-66.7
	c4.2-20.1,9-35.3,9.1-35.5c0.2-0.7,1-1.1,1.8-0.9s1.2,1,0.9,1.8c-0.1,0.1-4.8,15.3-9,35.2c-3.9,18.4-8,44.7-5.8,65.8
	c4.2,40.5,38.4,41.3,56.8,41.8c0.8,0,1.4,0.7,1.4,1.4C1458.4,700.5,1457.8,701.1,1457.1,701.1z"/>
<path d="M1313.8,698.9c-4.8,0-7.6-0.5-7.9-0.5c-0.8-0.1-1.3-0.9-1.1-1.6c0.1-0.8,0.9-1.3,1.6-1.1c0.1,0,14.9,2.5,34.3-4.3
	c19.4-6.8,22.3-23.7,24.2-45c1.6-18.5,5.5-93,5.5-93.7c0-0.8,0.7-1.4,1.5-1.3c0.8,0,1.4,0.7,1.3,1.5c0,0.8-3.9,75.3-5.6,93.8
	c-1.9,21.6-5.1,40.1-26,47.4C1330.1,698,1320.2,698.9,1313.8,698.9z"/>
</svg>
